<svg xmlns="http://www.w3.org/2000/svg" xmlns:xlink="http://www.w3.org/1999/xlink" version="1.1" x="0px" y="0px" width="100px" height="100px" viewBox="0 0 100 100" enable-background="new 0 0 100 100" xml:space="preserve">
<g id="Captions">
</g>
<g id="Your_Icon">
	<path d="M93.302,25c-26.778,10.761-30.798,9.097-22.944-10.261C57.521,31.221,54.07,28.571,50,0   c-4.07,28.571-7.521,31.221-20.357,14.739C37.496,34.098,33.477,35.761,6.698,25c22.708,17.812,23.278,22.123,2.586,25   c20.692,2.877,20.122,7.189-2.586,25c26.778-10.761,30.798-9.098,22.944,10.261C42.479,68.779,45.93,71.43,50,100   c4.07-28.57,7.521-31.221,20.357-14.739C62.504,65.902,66.523,64.239,93.302,75c-22.708-17.811-23.278-22.123-2.585-24.999   C70.023,47.123,70.594,42.812,93.302,25z M58.245,53.446c0.814,2.815,2.591,5.944,5.338,10.137   c-4.192-2.746-7.321-4.523-10.138-5.337C51.386,62.239,50.72,65.41,50,75.211c-0.719-9.801-1.387-12.972-3.447-16.965   c-2.814,0.813-5.943,2.591-10.137,5.337c2.748-4.192,4.523-7.321,5.338-10.137c-3.994-2.061-7.165-2.728-16.965-3.447   c9.8-0.719,12.971-1.386,16.965-3.445c-0.814-2.815-2.591-5.944-5.338-10.137c4.193,2.747,7.322,4.523,10.137,5.337   c2.061-3.993,2.727-7.165,3.447-16.965c0.719,9.8,1.386,12.972,3.447,16.965c2.814-0.813,5.943-2.589,10.135-5.337   c-2.747,4.192-4.523,7.321-5.336,10.137c3.993,2.061,7.165,2.727,16.965,3.446C65.41,50.72,62.239,51.387,58.245,53.446z"/>
</g>
</svg>