<svg xmlns="http://www.w3.org/2000/svg" xmlns:xlink="http://www.w3.org/1999/xlink" version="1.1" x="0px" y="0px" width="100px" height="100px" viewBox="0 0 100 100" enable-background="new 0 0 100 100" xml:space="preserve">
<g id="Captions">
</g>
<g id="Your_Icon">
	<path d="M16.47,17.512c0,0,0.942,7.414,1.912,9.938c0.966,2.523,2.722,6.233,2.722,6.233s4.347-1.173,7.587-5.228   c3.241-4.057,5.019-8.047,5.019-8.047s-6.717-2.633-9.062-3.139C22.302,16.764,16.47,17.512,16.47,17.512z"/>
	<path d="M65.482,34.021c-4.395-2.614-11.327,0.873-11.327,0.873s-4.48-4.567-8.909-7.911c-4.427-3.348-10.275-5.652-10.275-5.652   s-0.568,3.691-5.112,8.661s-8.202,5.132-8.202,5.132s0.597,2.42,5.048,9.062c4.454,6.645,9.496,10.088,9.496,10.088   s1.222,10.944,6.617,16.814c5.396,5.868,15.962,7.106,15.962,7.106l1.854-2.282c0,0-2.475-0.622-8.408-4.878   c-5.934-4.258-6.422-12.423-6.422-12.423s0.128,0.114,1.253,0.676c1.124,0.562,5.537,0.852,5.537,0.852l4.603,7.25   c0,0,4.324-1.66,8.064-5.493c3.739-3.835,3.776-8.48,3.776-8.48l-6.728-2.876c0,0,0.135-2.45-0.42-3.892   c-0.553-1.443-2.485-3.679-2.485-3.679s4.57-0.967,10.366,2.93c5.795,3.896,7.494,12.467,7.494,12.467l2.098-2.294   c0,0-0.36-5.942-2.37-9.885C74.986,42.242,69.876,36.635,65.482,34.021z M51.662,49.225c-1.687,1.847-4.552,1.972-6.396,0.285   s-1.974-4.548-0.286-6.395c1.687-1.844,4.549-1.973,6.394-0.285C53.22,44.516,53.349,47.381,51.662,49.225z M40.661,39.166   c-1.688,1.846-4.551,1.973-6.396,0.287c-1.845-1.688-1.974-4.55-0.285-6.396c1.686-1.846,4.548-1.974,6.394-0.286   C42.221,34.459,42.349,37.321,40.661,39.166z"/>
	<path d="M68.984,60.227c0,0,0.131,1.994-2.727,4.19c-2.861,2.195-4.79,3.326-4.79,3.326s0.267,3.991,3.46,6.784   c3.193,2.794,9.18,2.394,10.311,4.322c1.133,1.93,2.195,2.86,2.195,2.86l-1.264-3.925c0,0,3.193,2.794,4.391,5.721   c1.198,2.927,1.131,1.929,1.131,1.929s1.065,0.931-0.267-3.991c-1.331-4.923-2.661-9.845-2.661-9.845s-0.268-3.991-2.463-6.854   C74.105,61.889,68.984,60.227,68.984,60.227z"/>
</g>
</svg>