<?xml version="1.0" encoding="UTF-8" standalone="no"?>
<svg width="30px" height="30px" viewBox="0 0 30 30" version="1.1" xmlns="http://www.w3.org/2000/svg" xmlns:xlink="http://www.w3.org/1999/xlink" xmlns:sketch="http://www.bohemiancoding.com/sketch/ns">
    <!-- Generator: Sketch 3.3.3 (12081) - http://www.bohemiancoding.com/sketch -->
    <title>Rectangle 125 Copy + Shape</title>
    <desc>Created with Sketch.</desc>
    <defs></defs>
    <g id="Main-Attraction" stroke="none" stroke-width="1" fill="none" fill-rule="evenodd" sketch:type="MSPage">
        <g id="3A-LESSONS" sketch:type="MSArtboardGroup" transform="translate(-520.000000, -445.000000)">
            <g id="Rectangle-125-Copy-+-Shape" sketch:type="MSLayerGroup" transform="translate(520.000000, 445.000000)">
                <rect id="Rectangle-125-Copy" fill="#E2575B" sketch:type="MSShapeGroup" x="0" y="0" width="30" height="30" rx="5.4"></rect>
                <path d="M26.1611025,19.5611323 C27.6084116,16.9797812 27.1548424,13.7673644 25.0181082,11.6665081 C23.7430345,10.4124643 22.0475324,9.72169363 20.2438994,9.72169363 C19.7523513,9.72169363 19.2692699,9.77473834 18.8004608,9.87488107 C18.4719557,9.37440533 18.0885386,8.90318744 17.6494836,8.47193149 C16.0287297,6.87773549 13.8728851,6 11.5798812,6 C9.28736113,6 7.13175845,6.87749762 5.51052074,8.47193149 C2.68436137,11.2507136 2.19329713,15.5982398 4.29713245,18.9074691 L3.54481236,21.8472883 C3.49280309,22.0504282 3.55303708,22.2654615 3.703743,22.4136537 C3.85420702,22.5620837 4.07288785,22.6208373 4.2797154,22.5701713 L7.38188674,21.802569 C8.65986328,22.5076118 10.1064466,22.8794006 11.5818165,22.8794006 L11.5818165,22.8794006 C13.2076503,22.8794006 14.7635741,22.4357755 16.1097674,21.6098953 C17.2878378,22.5104662 18.7261964,23 20.242448,23 C21.4955084,23 22.708171,22.6641294 23.7669829,22.025452 L26.0135413,22.5813511 C26.2198851,22.6327307 26.4385659,22.5732636 26.5890299,22.4250714 C26.7397358,22.2768792 26.8002117,22.0618459 26.7482025,21.858706 L26.1611025,19.5611323 L26.1611025,19.5611323 Z M15.1893243,20.7623692 C14.0997907,21.3658421 12.8663244,21.6888677 11.5818165,21.6888677 C10.2404612,21.6888677 8.92740862,21.331589 7.78489808,20.6553283 C7.68982998,20.599667 7.58194098,20.570647 7.47284248,20.570647 C7.42325225,20.570647 7.37366201,20.5765937 7.3250394,20.5884872 L4.96647962,21.1722169 L5.53592062,18.9469553 C5.57776994,18.7835395 5.54704818,18.6101332 5.45149627,18.4700285 C3.49909259,15.6060894 3.88420307,11.755471 6.36710127,9.31422455 C7.7594982,7.94481446 9.6110281,7.19077069 11.5801231,7.19077069 C13.5494601,7.19077069 15.40099,7.94481446 16.7936288,9.31422455 C17.0906864,9.60656518 17.3577479,9.92055186 17.5967486,10.2509515 C17.8347818,10.5806375 18.0445121,10.9267364 18.2218275,11.2871075 C18.699587,12.2580875 18.9526181,13.3299239 18.9526181,14.440295 C18.9526181,16.376784 18.1857838,18.1969553 16.7936288,19.5663654 C16.604944,19.7514272 16.4070669,19.9245956 16.2029003,20.0870599 C15.8821362,20.3415794 15.5434712,20.5661275 15.1893243,20.7623692 L15.1893243,20.7623692 Z M24.9264267,19.6182207 L25.327019,21.1836346 L23.8090741,20.8082778 C23.6424026,20.7666508 23.4660549,20.7968601 23.3235737,20.891294 C22.4123229,21.4923882 21.3467377,21.809705 20.2426899,21.809705 C19.1178383,21.809705 18.044754,21.4814462 17.1347128,20.8725024 C17.3110605,20.7250238 17.4837797,20.5711227 17.6494836,20.4084206 C19.2707213,18.8144624 20.1635874,16.6948145 20.1635874,14.440295 C20.1635874,13.2252617 19.9018477,12.0497146 19.4090902,10.9743102 C19.6831669,10.9336346 19.9615979,10.9127022 20.2438994,10.9127022 C21.7236235,10.9127022 23.1152947,11.4797812 24.1617695,12.5088011 C25.9651606,14.2823501 26.307938,17.0195052 24.9946435,19.1660324 C24.9116706,19.3013796 24.8869964,19.4643197 24.9264267,19.6182207 Z M8.72832199,15.6127498 C8.47432324,15.6127498 8.25394909,15.5233111 8.07300522,15.3451475 C7.89181945,15.1672217 7.800138,14.9505233 7.800138,14.7005233 C7.800138,14.450999 7.89181945,14.2340628 8.07300522,14.056137 C8.25394909,13.8784491 8.47456515,13.7878211 8.72832199,13.7878211 C8.98256264,13.7878211 9.20293678,13.8784491 9.38388065,14.056137 C9.56458262,14.2338249 9.65626407,14.4507612 9.65626407,14.7005233 C9.65626407,14.9505233 9.56458262,15.1674596 9.38363875,15.3451475 C9.20293678,15.5233111 8.98256264,15.6127498 8.72832199,15.6127498 Z M11.6311648,15.6127498 C11.377166,15.6127498 11.1567919,15.5233111 10.975848,15.3451475 C10.7946623,15.1672217 10.7029808,14.9505233 10.7029808,14.7005233 C10.7029808,14.450999 10.7946623,14.2340628 10.975848,14.056137 C11.1567919,13.8784491 11.3774079,13.7878211 11.6311648,13.7878211 C11.8854054,13.7878211 12.1057796,13.8784491 12.2867235,14.056137 C12.4674254,14.2338249 12.5591069,14.4507612 12.5591069,14.7005233 C12.5591069,14.9505233 12.4674254,15.1674596 12.2864815,15.3451475 C12.1057796,15.5233111 11.8854054,15.6127498 11.6311648,15.6127498 Z M14.5340076,15.6127498 C14.2800088,15.6127498 14.0596347,15.5233111 13.8786908,15.3451475 C13.6975051,15.1672217 13.6058236,14.9505233 13.6058236,14.7005233 C13.6058236,14.450999 13.6975051,14.2340628 13.8786908,14.056137 C14.0596347,13.8784491 14.2802507,13.7878211 14.5340076,13.7878211 C14.7882482,13.7878211 15.0086224,13.8784491 15.1895663,14.056137 C15.3702682,14.2338249 15.4619497,14.4507612 15.4619497,14.7005233 C15.4619497,14.9505233 15.3702682,15.1674596 15.1893243,15.3451475 C15.0086224,15.5233111 14.7882482,15.6127498 14.5340076,15.6127498 Z" id="Shape" fill="#FFFFFF" sketch:type="MSShapeGroup"></path>
            </g>
        </g>
    </g>
</svg>