<?xml version="1.0" encoding="UTF-8" standalone="no"?>
<svg width="156px" height="36px" viewBox="0 0 156 36" version="1.1" xmlns="http://www.w3.org/2000/svg" xmlns:xlink="http://www.w3.org/1999/xlink" xmlns:sketch="http://www.bohemiancoding.com/sketch/ns">
    <!-- Generator: Sketch 3.3.3 (12081) - http://www.bohemiancoding.com/sketch -->
    <title>Logo + DRAPERTV</title>
    <desc>Created with Sketch.</desc>
    <defs>
        <radialGradient cx="50%" cy="50%" fx="50%" fy="50%" r="62.0093979%" id="radialGradient-1">
            <stop stop-color="#329AFF" offset="0%"></stop>
            <stop stop-color="#003F7E" offset="100%"></stop>
        </radialGradient>
    </defs>
    <g id="Page-1" stroke="none" stroke-width="1" fill="none" fill-rule="evenodd" sketch:type="MSPage">
        <g id="0-GLOBAL-DTV" sketch:type="MSArtboardGroup" transform="translate(-160.000000, -12.000000)">
            <g id="Group-Copy" sketch:type="MSLayerGroup">
                <g id="Logo-+-DRAPERTV" transform="translate(160.000000, 12.000000)">
                    <g id="Logo" transform="translate(0.000000, 0.500000)" sketch:type="MSShapeGroup">
                        <path d="M31.8869777,5.38968605 C31.9578318,5.39114069 32.0148073,5.44859863 32.0148073,5.51842094 C32.0988096,16.1197751 30.3917374,19.4879742 28.4151275,23.3878412 C26.109813,27.9379284 22.9023872,30.8450094 20.6167951,32.4814698 C18.1398238,34.2561202 16.1800144,34.9681623 16.1602921,34.9747081 C16.057298,34.9819813 16.0426889,34.9797993 16.0280798,34.9747081 C16.0083576,34.9681623 14.0485481,34.2568475 11.5715769,32.4814698 C9.28598469,30.8450094 6.07855892,27.9379284 3.77324448,23.3878412 C1.79663457,19.4879742 0.0895623784,16.1197751 0.173564647,5.51842094 C0.173564647,5.44859863 0.230540099,5.391868 0.301394187,5.38968605 C0.398544637,5.38823142 10.1011719,5.16130891 15.9871744,0.101373366 C16.0105489,0.0817358411 16.1164648,0.0700987893 16.1164648,0.0700987893 C22.0872,5.16130891 31.7898273,5.38823142 31.8869777,5.38968605 Z" id="Shape" fill="#FFFFFF"></path>
                        <path d="M7.48927071,9.21436922 L7.49587899,9.20584656 L7.50380893,9.1979795 C7.5123997,9.19076802 7.52032964,9.18158977 7.52958124,9.17241152 C7.48662739,9.17700065 7.43045697,9.1855233 7.35644419,9.20191303 C6.0427172,9.49102777 3.61152929,10.7792601 3.58707864,10.7917163 L3.09211812,11.0546075 L3.36437945,10.5681605 C4.50827352,8.51747812 6.43128434,6.61102533 7.22560015,5.868243 C7.11392014,5.89315538 7.00290096,5.91806777 6.89452509,5.94101338 C4.04899774,6.55136673 1.83390073,6.59660237 1.81143257,6.59660237 C1.74799303,6.59791355 1.69710924,6.64970508 1.69644841,6.71264162 C1.65283374,12.2123777 2.14581177,15.5532592 2.91237278,18.0687542 C4.26773196,13.2619757 7.45556845,9.25567133 7.48927071,9.21436922 Z M30.3856552,6.59660237 C30.297765,6.5952912 21.5199806,6.39074743 16.1956857,1.82981481 C16.1745392,1.81211391 16.0793799,1.80162448 16.0793799,1.80162448 C13.7433513,3.76511351 10.8700691,4.89993806 8.46597517,5.55814941 L8.40583978,5.62698625 C7.01413504,7.22072309 6.49868884,8.08478939 6.30440527,8.40996153 C6.26739888,8.47158689 6.24294823,8.512889 6.22312337,8.54042374 C6.16364881,8.62302795 6.10813922,8.73841161 6.09161851,8.80528169 C6.1425023,8.80003698 6.24162657,8.77774695 6.4233544,8.69645392 C7.74170718,8.10445706 10.6823938,7.21154485 10.8066296,7.17417628 L11.7324503,6.89358419 L10.9526727,7.46329102 C9.53982142,8.4951881 7.39278975,10.5268584 5.18562269,14.3436975 C4.03313785,16.3379992 3.24807364,18.0969445 3.06039836,18.5316 C3.60029521,20.1620498 4.25848036,21.4555269 4.95235024,22.8198076 C7.03924652,26.9205167 9.94028347,29.5415615 12.0066941,31.0159812 C14.2475634,32.6162739 16.0218878,33.2574399 16.040391,33.2633402 C16.1322462,33.2698961 16.1461235,33.2679294 16.1580185,33.2633402 C16.1765217,33.2574399 17.9495244,32.6162739 20.1897329,31.0159812 C22.2574652,29.5415615 25.1591629,26.9205167 27.2447376,22.8198076 C29.0329394,19.3038838 30.5772955,16.2678512 30.5013002,6.71264162 C30.5013002,6.64970508 30.4497556,6.59791355 30.3856552,6.59660237 Z" id="Fill-1" fill="url(#radialGradient-1)"></path>
                        <path d="M10.9403528,7.47389795 L11.7201304,6.90419111 L10.7943097,7.1847832 C10.670074,7.22215178 7.7293873,8.11506398 6.41103452,8.70706084 C6.2293067,8.78835388 6.13018243,8.81064391 6.07929864,8.81588862 C6.09581935,8.74901854 6.15132894,8.63363488 6.2108035,8.55103066 C6.23062835,8.52349593 6.25507901,8.48219382 6.2920854,8.42056845 C6.48636897,8.09539631 7.00181517,7.23133002 8.39351991,5.63759318 L8.45167281,5.56285604 C8.02940343,5.67758411 7.21328028,5.87884993 7.21328028,5.87884993 C6.41896447,6.62163226 4.49595364,8.52808505 3.35205958,10.5787674 L3.07979825,11.0652145 L3.57475877,10.8023233 C3.59920942,10.7898671 6.03039733,9.5016347 7.34412431,9.21251996 C7.4181371,9.19613023 7.47430752,9.18760758 7.51726137,9.18301845 C7.50800977,9.1921967 7.50007983,9.20137494 7.49148906,9.20858642 C7.44324858,9.26627825 4.25541208,13.2725826 2.90005291,18.0793611 C2.90005291,18.0793611 2.99719469,18.3874879 3.04675683,18.5376178 C3.04675683,18.5376178 4.02081798,16.3486061 5.17330282,14.3543044 C7.38046988,10.5374653 9.52750155,8.50579502 10.9403528,7.47389795 Z" id="Fill-4" fill="#F2B81D"></path>
                        <path d="M12.3199837,22.9829432 L12.3199837,12.1306181 L21.6621199,17.5567807 L12.3199837,22.9829432 Z" id="Triangle-1" fill="#FFFFFF"></path>
                    </g>
                    <text id="DRAPERTV" sketch:type="MSTextLayer" font-family="Proxima Nova" font-size="20" font-weight="normal" letter-spacing="1.66666663" fill="#FFFFFF">
                        <tspan x="43" y="26">DRAPER</tspan>
                        <tspan x="127.64" y="26" font-style="italic" font-weight="bold" letter-spacing="1.11111104">TV</tspan>
                    </text>
                </g>
            </g>
        </g>
    </g>
</svg>