<?xml version="1.0" encoding="utf-8"?>
<!-- Generator: Adobe Illustrator 15.1.0, SVG Export Plug-In . SVG Version: 6.00 Build 0)  -->
<!DOCTYPE svg PUBLIC "-//W3C//DTD SVG 1.1//EN" "http://www.w3.org/Graphics/SVG/1.1/DTD/svg11.dtd">
<svg version="1.1" id="Layer_1" xmlns="http://www.w3.org/2000/svg" xmlns:xlink="http://www.w3.org/1999/xlink" x="0px" y="0px"
	 width="302.001px" height="327.334px" viewBox="0 0 302.001 327.334" enable-background="new 0 0 302.001 327.334"
	 xml:space="preserve">
<g display="none">
	<path display="inline" fill="#010101" d="M-5.976,327.105c0.396-0.701,2.48-4.579,2.654-5.016c0.285-0.692-0.005-0.999-0.463-1.258
		l-1.35-0.763c-0.136-0.075-0.201-0.148-0.109-0.311l0.442-0.782c0.061-0.108,0.157-0.09,0.265-0.021
		c0.351,0.198,1.493,0.95,4.191,2.474c0.702,0.396,3.446,1.841,4.067,2.183c3.67,2.073,6.402,4.042,7.762,7.623
		c0.943,2.49,0.919,5.432-0.849,8.562c-1.753,3.104-3.802,4.652-6.68,5.59c-4.219,1.354-8.849-1.225-10.549-2.185
		c-0.432-0.244-3.571-2.124-5.055-2.962c-2.348-1.326-3.473-1.854-3.852-2.068c-0.135-0.076-0.158-0.16-0.051-0.35l0.396-0.701
		c0.062-0.107,0.172-0.116,0.308-0.04l1.404,0.793c0.512,0.289,0.931,0.241,1.229-0.16c0.4-0.521,3.938-6.533,5.096-8.584
		L-5.976,327.105z M-3.406,332.01c-0.198,0.351-2.762,4.954-3.681,6.643c-0.304,0.54-0.44,1.032-0.379,1.744
		c0.049,0.668,0.875,1.349,1.793,1.867c1.565,0.884,4.085,1.274,6.54,0.205c1.888-0.821,3.974-2.562,5.391-5.072
		c1.25-2.212,1.613-4.997,1.137-7.117c-0.53-2.4-2.418-4.605-3.983-5.489c-0.756-0.427-1.175-0.629-1.633-0.638
		c-0.512-0.04-0.864,0.331-1.196,0.856c-0.667,1.118-2.664,4.653-2.907,5.085L-3.406,332.01z"/>
	<path display="inline" fill="#010101" d="M16.799,339.635c0.945-2.091,1.763-3.898,2.079-4.674
		c0.394-0.945,0.243-1.592-0.152-1.771l-1.13-0.512c-0.141-0.062-0.131-0.16-0.08-0.273l0.345-0.763
		c0.063-0.142,0.118-0.186,0.259-0.116c0.254,0.115,1.091,0.596,4.171,1.988c1.582,0.715,4.106,1.754,5.264,2.272
		c2.204,0.996,3.485,2.528,4.158,4.125c0.595,1.392,0.69,2.763,0.218,3.808c-1.622,3.588-5.033,3.984-7.622,3.086l-0.09,0.198
		c0.749,0.679,0.958,1.419,1.188,2.34c0.162,0.618,0.579,3.835,0.652,4.276c0.055,0.33,0.61,3.168,0.88,4.072
		c0.173,0.521,1.145,1.232,1.795,1.525c0.197,0.09,0.175,0.216,0.124,0.329l-0.307,0.678c-0.077,0.169-0.143,0.241-0.34,0.152
		c-0.227-0.103-0.923-0.52-3.097-1.503c-0.82-0.37-1.891-0.786-2.722-1.129c-0.554-1.032-0.824-5.102-0.871-6.279
		c-0.091-2.354-0.305-4.97-1.661-5.582l-0.96-0.435l-0.652,1.44c-0.753,1.667-2.099,4.869-2.208,5.263
		c-0.212,0.618-0.216,1.229,0.208,1.421l1.158,0.523c0.198,0.089,0.188,0.187,0.125,0.328l-0.307,0.679
		c-0.089,0.197-0.143,0.241-0.567,0.05c-0.028-0.013-0.696-0.418-3.662-1.758C10,352.042,9.312,351.832,9,351.691
		c-0.226-0.102-0.188-0.187-0.098-0.384l0.294-0.65c0.063-0.142,0.102-0.227,0.243-0.162l0.848,0.384
		c0.622,0.28,1.22,0.312,1.539-0.394c1.32-2.771,2.521-5.427,3.734-8.11L16.799,339.635z M19.375,344.474
		c0.524,0.271,0.863,0.424,1.117,0.539c3.729,1.686,6.215-1.478,6.815-2.806c0.587-1.3,0.697-2.747,0.356-3.649
		c-0.608-1.363-1.726-2.277-2.574-2.66c-0.48-0.217-0.873-0.327-1.188-0.231c-0.22,0.036-0.446,0.309-0.655,0.622L19.375,344.474z"
		/>
	<path display="inline" fill="#010101" d="M37.53,354.626c-0.453,0.528-3.319,4.011-3.655,4.944
		c-0.23,0.642-0.219,1.437,0.656,1.751l1.021,0.366c0.291,0.105,0.278,0.232,0.236,0.35l-0.23,0.642
		c-0.084,0.233-0.145,0.31-0.378,0.226c-0.379-0.136-1.544-0.653-3.936-1.513c-2.13-0.766-2.803-0.909-3.211-1.055
		c-0.175-0.063-0.141-0.249-0.067-0.454l0.199-0.554c0.063-0.175,0.124-0.252,0.298-0.189l0.759,0.273
		c0.7,0.251,1.547,0.094,2.445-0.571c0.628-0.466,4.524-4.796,6.41-7.018c0.442-0.499,5.059-5.922,5.605-6.614
		c0.192-0.261,0.474-0.587,0.385-0.981c-0.045-0.148-0.109-0.337-0.067-0.452c0.032-0.088,0.131-0.184,0.385-0.158
		c1.007,0.131,3.175,0.055,3.792-0.284c0.197-0.094,0.326-0.179,0.473-0.126c0.175,0.062,0.171,0.259,0.143,0.611
		c-0.106,2.036-0.18,9.389-0.296,11.455c-0.148,2.516-0.202,8.622-0.077,9.558c0.151,1.141,0.784,1.764,1.221,1.921l0.99,0.356
		c0.177,0.062,0.163,0.189,0.111,0.335l-0.2,0.555c-0.062,0.175-0.165,0.369-0.399,0.285c-0.553-0.199-1.135-0.507-4.869-1.85
		c-2.42-0.87-3.473-1.149-4.057-1.359c-0.292-0.104-0.258-0.29-0.184-0.494l0.198-0.555c0.053-0.146,0.124-0.251,0.27-0.199
		l0.816,0.293c0.788,0.284,1.155,0.086,1.252-0.735c0.116-1.145,0.319-5.287,0.348-6.463L37.53,354.626z M44.076,355.661
		c0.052-0.97,0.533-7.714,0.59-8.517c0.041-0.479,0.056-0.704-0.089-0.758c-0.176-0.062-0.306,0.023-0.488,0.255
		c-0.281,0.326-5.265,6.309-5.76,6.954L44.076,355.661z"/>
	<path display="inline" fill="#010101" d="M61.269,362.714c-0.388,1.404-1.483,5.476-1.554,5.844
		c-0.123,0.673,0.094,1.055,0.572,1.188l1.523,0.422c0.21,0.058,0.215,0.156,0.182,0.275l-0.215,0.777
		c-0.042,0.148-0.096,0.23-0.335,0.164c-0.419-0.116-1.32-0.462-4.817-1.431c-2.628-0.729-3.819-0.962-4.147-1.053
		c-0.208-0.058-0.213-0.155-0.182-0.275l0.224-0.807c0.042-0.149,0.087-0.201,0.237-0.159l0.777,0.215
		c1.016,0.281,1.267,0.189,1.564-0.532c0.111-0.291,1.493-4.927,2.454-8.393l0.952-3.437c0.545-1.972,1.384-5.117,1.455-5.484
		c0.106-0.614-0.177-0.756-0.773-0.922l-1.404-0.389c-0.15-0.042-0.164-0.109-0.115-0.289l0.215-0.777
		c0.042-0.149,0.087-0.2,0.237-0.164c0.33,0.091,1.379,0.479,4.518,1.348c0.538,0.148,2.326,0.548,3.312,0.826
		c3.675,1.018,5.355,1.805,6.715,3.63c0.991,1.304,1.415,3.255,0.868,5.228c-0.993,3.586-4.541,5.24-9.56,3.851
		c-0.927-0.258-1.606-0.478-2.395-0.761L61.269,362.714z M61.9,360.443c0.616,0.331,1.293,0.552,1.772,0.685
		c0.925,0.256,2.685-0.286,3.631-1.149c0.854-0.762,1.288-1.863,1.594-2.969c1.144-4.123-1.604-5.817-2.831-6.157
		c-0.508-0.141-0.875-0.21-1.444-0.24L61.9,360.443z"/>
	<path display="inline" fill="#010101" d="M82.077,364.084c1.397,0.281,2.753,0.46,3.137,0.442c0.54-0.019,1.021-0.206,1.586-0.66
		c0.427-0.389,0.962-1.166,1.08-1.743c0.042-0.212,0.146-0.255,0.298-0.225l0.802,0.257c0.145,0.062,0.261,0.116,0.193,0.292
		c-0.195,0.499-0.513,2.078-0.729,3.141c-0.275,1.367-0.447,2.85-0.515,3.5c-0.006,0.188-0.134,0.194-0.292,0.194l-0.76,0.005
		c-0.128,0.006-0.176-0.067-0.193-0.292c-0.023-0.51-0.187-1.271-0.296-1.672c-0.217-0.645-0.866-1.187-1.457-1.399
		c-0.795-0.287-1.726-0.538-3.061-0.808l-0.368,1.823c-0.33,1.641-0.772,4.617-0.883,5.164c-0.318,1.58-0.094,2.194,0.264,2.456
		c0.419,0.274,0.978,0.481,2.498,0.787c0.517,0.104,1.798,0.332,2.449,0.399c0.619,0.062,1.591-0.059,2.509-0.537
		c0.918-0.479,3-2.019,3.754-2.626c0.146-0.097,0.244-0.109,0.323-0.029l0.456,0.407c0.109,0.085,0.121,0.183,0.072,0.268
		l-2.292,4.312c-0.146,0.255-0.396,0.395-0.76,0.321c-0.151-0.031-0.814-0.196-2.751-0.618c-1.975-0.397-5.188-1.077-10.444-2.137
		c-1.124-0.227-1.981-0.367-2.588-0.49c-0.645-0.099-1.044-0.147-1.319-0.203c-0.212-0.043-0.255-0.146-0.207-0.389l0.129-0.638
		c0.037-0.183,0.146-0.256,0.358-0.213l0.912,0.185c1.398,0.281,1.562,0.093,1.776-0.97l2.052-10.177
		c0.508-2.522,1.201-6.271,1.231-6.58c0.074-0.997-0.187-1.271-1.007-1.436l-1.184-0.239c-0.121-0.024-0.133-0.122-0.091-0.335
		l0.146-0.729c0.019-0.091,0.074-0.207,0.255-0.17c0.669,0.135,1.714,0.439,4.479,0.997l10.668,2.119
		c0.486,0.098,1.076,0.153,1.228,0.185c0.151,0.03,0.2,0.104,0.212,0.201c0.037,0.448,0.2,4.812,0.261,5.141
		c0.03,0.164,0.017,0.226-0.153,0.286l-0.535,0.145c-0.133,0.036-0.279-0.024-0.339-0.195c-0.103-0.272-2.286-3.559-2.9-4.124
		c-0.558-0.524-1.329-1.09-2.143-1.286l-3.986-0.929L82.077,364.084z"/>
	<path display="inline" fill="#010101" d="M98.574,364.884c0.288-2.275,0.537-4.243,0.611-5.077
		c0.097-1.019-0.236-1.592-0.666-1.646l-1.229-0.156c-0.155-0.02-0.173-0.115-0.158-0.238l0.106-0.83
		c0.019-0.154,0.057-0.212,0.212-0.187c0.276,0.034,1.218,0.247,4.569,0.671c1.721,0.218,4.438,0.469,5.7,0.622
		c2.398,0.304,4.072,1.391,5.185,2.718c0.979,1.155,1.472,2.436,1.329,3.573c-0.495,3.904-3.636,5.288-6.374,5.191l-0.027,0.215
		c0.915,0.429,1.332,1.075,1.823,1.888c0.338,0.542,1.682,3.492,1.882,3.893c0.15,0.3,1.514,2.846,2.041,3.632
		c0.318,0.445,1.455,0.84,2.163,0.929c0.215,0.027,0.23,0.154,0.214,0.277l-0.093,0.738c-0.023,0.184-0.065,0.272-0.281,0.245
		c-0.246-0.031-1.034-0.225-3.402-0.523c-0.892-0.113-2.037-0.195-2.932-0.278c-0.833-0.823-2.289-4.631-2.679-5.742
		c-0.78-2.224-1.752-4.658-3.229-4.845l-1.046-0.132l-0.196,1.568c-0.23,1.813-0.574,5.27-0.563,5.676
		c-0.021,0.653,0.156,1.238,0.617,1.297l1.261,0.159c0.215,0.027,0.234,0.124,0.215,0.277l-0.094,0.737
		c-0.027,0.216-0.065,0.273-0.526,0.215c-0.032-0.004-0.789-0.193-4.016-0.602c-3.26-0.412-3.978-0.409-4.316-0.452
		c-0.247-0.031-0.235-0.124-0.208-0.339l0.091-0.706c0.019-0.154,0.03-0.247,0.185-0.228l0.921,0.117
		c0.676,0.086,1.257-0.06,1.354-0.828c0.448-3.037,0.812-5.927,1.183-8.848L98.574,364.884z M102.459,368.749
		c0.58,0.104,0.949,0.151,1.226,0.186c4.058,0.514,5.501-3.24,5.685-4.685c0.178-1.414-0.143-2.83-0.733-3.592
		c-0.982-1.123-2.319-1.667-3.243-1.784c-0.521-0.066-0.93-0.056-1.202,0.129c-0.2,0.1-0.335,0.426-0.444,0.788L102.459,368.749z"/>
	<path display="inline" fill="#010101" d="M126.352,362.728c0.034-1.084-0.168-1.586-0.819-1.606l-1.457-0.045
		c-0.185-0.005-0.213-0.067-0.208-0.285l0.023-0.743c0.005-0.186,0.039-0.247,0.286-0.241c0.31,0.009,1.825,0.148,5.079,0.248
		c2.726,0.083,4.216,0.035,4.556,0.048c0.249,0.008,0.277,0.07,0.272,0.257l-0.025,0.806c-0.005,0.154-0.037,0.215-0.254,0.209
		l-1.054-0.033c-1.053-0.031-1.598,0.541-1.679,1.159c-0.041,0.34-0.136,2.445-0.185,4.025l-0.062,2.045
		c-0.051,1.642-0.045,5.581-0.045,6.573c-0.012,1.426,0.224,2.829,0.879,3.718c0.984,1.27,2.425,1.811,3.819,1.854
		c1.146,0.034,2.837-0.503,3.697-1.253c1.273-1.077,2.039-2.76,2.107-4.99l0.145-4.771c0.079-2.603-0.126-6.021-0.229-6.737
		c-0.099-0.81-0.577-1.382-1.105-1.398l-0.991-0.03c-0.187-0.006-0.213-0.099-0.208-0.255l0.023-0.805
		c0.005-0.155,0.037-0.216,0.224-0.212c0.31,0.009,1.732,0.146,3.84,0.21c1.672,0.051,2.667-0.012,2.945-0.001
		c0.279,0.009,0.306,0.133,0.303,0.288l-0.021,0.682c-0.005,0.186-0.041,0.309-0.195,0.305l-0.96-0.03
		c-1.177-0.036-1.296,0.829-1.369,1.138c-0.074,0.431-0.205,4.707-0.218,5.141c-0.014,0.434-0.241,5.854-0.37,7.06
		c-0.264,2.535-1.161,4.461-2.814,5.837c-1.401,1.167-3.53,1.815-5.543,1.754c-1.456-0.045-3.433-0.322-4.716-0.919
		c-1.468-0.696-2.787-2.194-3.47-4.2c-0.486-1.349-0.546-3.428-0.422-7.486L126.352,362.728z"/>
	<path display="inline" fill="#010101" d="M166.557,372.595c-0.128-2.756-0.23-4.271-0.365-5.816
		c-0.085-1.205-0.383-4.232-0.498-4.692c-0.222-0.765-0.986-1.163-1.697-1.131l-0.991,0.047c-0.154,0.007-0.19-0.085-0.198-0.271
		l-0.037-0.773c-0.007-0.154,0.022-0.218,0.269-0.221c0.342-0.017,1.335,0.029,3.626-0.077c1.858-0.087,2.597-0.214,2.937-0.238
		c0.279-0.013,0.312,0.048,0.321,0.233l0.036,0.742c0.007,0.155-0.019,0.28-0.142,0.286l-0.868,0.04
		c-0.526,0.025-0.811,0.566-0.853,1.685c-0.12,2.085-0.288,9.104-0.098,13.19l0.247,5.293c0.022,0.465,0.017,1.023-0.416,1.043
		c-0.466,0.022-0.875-0.114-1.231-0.438c-0.55-0.471-2.143-2.04-4.102-4.152c-2.353-2.526-4.968-5.383-5.587-6.036
		c-0.557-0.595-5.076-5.72-5.836-6.709l-0.248,0.012l0.291,6.254c0.121,2.569,0.577,6.364,0.663,7.539
		c0.146,1.792,0.747,2.694,2.047,2.634l0.774-0.036c0.217-0.01,0.252,0.082,0.26,0.268l0.036,0.743
		c0.008,0.186-0.02,0.249-0.237,0.26c-0.31,0.014-2.171,0.007-3.626,0.075c-0.958,0.045-3.091,0.238-3.401,0.252
		c-0.125,0.006-0.158-0.055-0.168-0.271l-0.037-0.805c-0.005-0.093,0.022-0.188,0.177-0.194l1.083-0.05
		c0.681-0.032,1.13-1.047,1.189-3.128c0.003-0.589,0.021-5.554-0.195-10.136l-0.13-2.786c-0.085-1.826-1.28-3.508-2.831-3.467
		l-0.775,0.006c-0.155,0.007-0.19-0.115-0.195-0.208l-0.039-0.836c-0.007-0.124,0.022-0.188,0.176-0.194
		c0.155-0.007,0.404,0.013,0.993-0.007c0.621,0.002,1.613-0.014,3.222-0.09c1.053-0.048,1.978-0.153,2.35-0.179
		c0.402-0.02,0.656,0.094,0.917,0.36c0.163,0.179,6.61,7.354,7.592,8.456c0.459,0.506,5.242,5.96,5.602,6.347l0.123-0.005
		L166.557,372.595z"/>
	<path display="inline" fill="#010101" d="M175.169,367.763c-0.081-0.74-0.784-6.278-0.86-6.676
		c-0.143-0.732-0.484-1.007-1.132-0.937l-1.48,0.163c-0.153,0.017-0.252-0.034-0.266-0.158l-0.099-0.894
		c-0.014-0.124,0.072-0.195,0.195-0.212c0.37-0.041,1.953-0.121,4.974-0.453c3.145-0.346,4.12-0.547,4.553-0.592
		c0.153-0.017,0.225,0.069,0.246,0.255l0.085,0.77c0.017,0.155-0.069,0.227-0.224,0.243l-0.893,0.099
		c-0.772,0.085-1.208,0.383-1.146,0.937c0.034,0.309,0.69,7.131,0.732,7.501l0.261,2.374c0.034,0.308,0.91,7.419,0.94,7.696
		c0.104,0.955,0.583,1.059,1.169,0.994l1.265-0.139c0.153-0.017,0.254,0.034,0.271,0.188l0.094,0.863
		c0.013,0.123-0.072,0.195-0.257,0.215c-0.37,0.041-1.613,0.084-4.541,0.406c-3.238,0.356-4.553,0.594-4.891,0.631
		c-0.155,0.017-0.254-0.034-0.274-0.219l-0.091-0.832c-0.014-0.124,0.071-0.195,0.225-0.213l0.895-0.099
		c0.616-0.067,1.253-0.231,1.295-0.984c0.01-0.47-0.629-7.137-0.809-8.771L175.169,367.763z"/>
	<path display="inline" fill="#010101" d="M196.805,355.814c-0.025-0.152-0.005-0.219,0.146-0.238
		c0.276-0.047,1.697-0.19,3.746-0.534c2.842-0.476,3.591-0.696,3.865-0.748c0.183-0.03,0.225,0.025,0.26,0.239l0.128,0.765
		c0.02,0.122,0.005,0.219-0.178,0.249l-0.703,0.118c-0.52,0.087-1.431,0.46-1.995,1.969c-0.875,2.283-1.584,6.109-2.314,8.872
		c-0.488,1.778-2.568,10.547-2.938,11.521c-0.153,0.402-0.281,0.581-0.617,0.637c-0.397,0.066-0.58-0.279-0.831-0.646
		c-1.536-2.225-5.557-9.155-6.766-11.12c-1.209-1.966-3.48-6.141-3.991-6.936c-0.422-0.651-0.841-0.896-1.482-0.788l-0.795,0.134
		c-0.123,0.021-0.178-0.128-0.204-0.28l-0.123-0.733c-0.027-0.152-0.007-0.219,0.177-0.244c0.306-0.052,1.33-0.129,4.998-0.743
		c3.177-0.533,4.538-0.855,4.813-0.907c0.274-0.047,0.32,0.04,0.352,0.224l0.118,0.703c0.025,0.152,0.015,0.279-0.198,0.315
		l-1.313,0.221c-0.735,0.123-1.258,0.557-1.192,0.953c0.042,0.245,0.103,0.612,0.266,1.024c0.429,1.059,2.202,4.502,3.14,6.167
		c0.587,1.063,2.868,5.3,3.464,6.425l0.123-0.02c0.543-2.196,1.399-6.268,1.613-7.435c0.33-1.596,0.846-4.321,1.105-5.778
		c0.173-0.846,0.086-1.365,0.023-1.732c-0.061-0.366-0.535-0.946-1.421-0.799l-0.949,0.159c-0.121,0.021-0.168-0.065-0.198-0.249
		L196.805,355.814z"/>
	<path display="inline" fill="#010101" d="M213.305,362.511c1.384-0.337,2.688-0.75,3.027-0.928
		c0.483-0.246,0.837-0.619,1.159-1.271c0.221-0.532,0.377-1.464,0.237-2.035c-0.05-0.211,0.025-0.294,0.175-0.331l0.836-0.107
		c0.158-0.006,0.286-0.005,0.299,0.183c0.034,0.534,0.416,2.1,0.671,3.154c0.331,1.354,0.802,2.771,1.017,3.389
		c0.074,0.174-0.039,0.233-0.183,0.3l-0.686,0.327c-0.113,0.059-0.187,0.014-0.299-0.183c-0.237-0.452-0.707-1.072-0.976-1.39
		c-0.471-0.491-1.289-0.707-1.914-0.65c-0.841,0.077-1.79,0.244-3.115,0.566l0.439,1.808c0.397,1.626,1.258,4.511,1.391,5.053
		c0.38,1.566,0.845,2.027,1.28,2.112c0.496,0.072,1.09,0.022,2.595-0.345c0.513-0.124,1.77-0.462,2.388-0.677
		c0.587-0.207,1.418-0.728,2.047-1.551c0.629-0.823,1.86-3.101,2.288-3.97c0.091-0.149,0.173-0.202,0.279-0.164l0.585,0.177
		c0.135,0.031,0.187,0.114,0.178,0.212l-0.247,4.877c-0.025,0.293-0.192,0.525-0.553,0.613c-0.151,0.036-0.821,0.167-2.755,0.607
		c-1.958,0.476-5.158,1.224-10.367,2.491c-1.115,0.271-1.951,0.507-2.553,0.653c-0.626,0.185-1.009,0.31-1.28,0.375
		c-0.212,0.052-0.292-0.024-0.351-0.265l-0.155-0.633c-0.044-0.181,0.025-0.293,0.235-0.345l0.903-0.219
		c1.386-0.338,1.455-0.578,1.197-1.632l-2.456-10.089c-0.609-2.5-1.571-6.188-1.673-6.483c-0.356-0.934-0.708-1.071-1.522-0.873
		l-1.174,0.285c-0.121,0.029-0.173-0.054-0.224-0.265l-0.176-0.723c-0.022-0.09-0.021-0.218,0.16-0.262
		c0.663-0.162,1.739-0.327,4.479-0.995l10.564-2.604c0.483-0.117,1.04-0.317,1.191-0.354c0.149-0.037,0.225,0.009,0.277,0.092
		c0.222,0.393,2.22,4.276,2.415,4.548c0.096,0.137,0.111,0.197-0.017,0.324l-0.424,0.358c-0.106,0.089-0.264,0.096-0.39-0.033
		c-0.21-0.204-3.581-2.255-4.376-2.508c-0.727-0.237-1.665-0.424-2.486-0.256l-4.004,0.847L213.305,362.511z"/>
	<path display="inline" fill="#010101" d="M228.612,356.237c-0.708-2.182-1.32-4.068-1.608-4.855
		c-0.345-0.963-0.892-1.34-1.303-1.206l-1.179,0.383c-0.148,0.048-0.207-0.03-0.244-0.149l-0.259-0.795
		c-0.047-0.148-0.037-0.217,0.109-0.267c0.266-0.085,1.209-0.294,4.423-1.337c1.65-0.535,4.216-1.466,5.426-1.855
		c2.299-0.747,4.277-0.477,5.849,0.252c1.377,0.629,2.37,1.578,2.723,2.669c1.216,3.745-1.041,6.334-3.559,7.411l0.067,0.207
		c1.009-0.002,1.664,0.405,2.454,0.932c0.535,0.348,3.009,2.445,3.358,2.723c0.264,0.208,2.583,1.932,3.393,2.419
		c0.478,0.269,1.675,0.142,2.353-0.079c0.207-0.067,0.274,0.041,0.313,0.16l0.23,0.707c0.057,0.177,0.056,0.274-0.15,0.342
		c-0.237,0.077-1.033,0.236-3.301,0.974c-0.856,0.277-1.927,0.69-2.773,0.997c-1.105-0.392-4.042-3.219-4.869-4.059
		c-1.653-1.68-3.569-3.47-4.985-3.011l-1.002,0.326l0.488,1.503c0.565,1.74,1.724,5.014,1.907,5.378
		c0.261,0.6,0.669,1.054,1.112,0.911l1.208-0.393c0.207-0.066,0.266,0.012,0.313,0.159l0.23,0.707
		c0.065,0.207,0.055,0.275-0.387,0.419c-0.028,0.01-0.795,0.16-3.89,1.165c-3.126,1.014-3.775,1.321-4.1,1.428
		c-0.235,0.076-0.264-0.013-0.332-0.219l-0.22-0.679c-0.047-0.147-0.076-0.235,0.072-0.283l0.883-0.287
		c0.649-0.21,1.114-0.589,0.875-1.326c-0.888-2.938-1.788-5.71-2.696-8.511L228.612,356.237z M233.773,358.083
		c0.568-0.152,0.923-0.267,1.189-0.354c3.892-1.262,3.601-5.274,3.15-6.66c-0.439-1.355-1.332-2.5-2.191-2.938
		c-1.367-0.6-2.809-0.522-3.693-0.235c-0.501,0.162-0.866,0.346-1.034,0.629c-0.14,0.175-0.123,0.528-0.065,0.901L233.773,358.083z"
		/>
	<path display="inline" fill="#010101" d="M251.944,355.95c0.116-0.046,0.214-0.053,0.294,0.148
		c0.419,0.866,1.322,1.938,2.466,2.779c1.367,0.984,3.031,1.046,4.41,0.486c1.379-0.559,3.217-2.374,2.299-4.643
		c-0.967-2.384-1.706-2.888-6.011-2.782c-0.989,0.034-3.201-0.14-5.177-0.811c-1.366-0.482-2.414-1.83-3.089-3.496
		c-0.71-1.752-0.757-3.104,0.442-5.096c0.898-1.5,1.826-2.345,3.577-3.055c2.097-0.851,3.357-0.96,4.053-0.974
		c0.335-0.002,0.511-0.141,0.602-0.411l0.222-0.525c0.069-0.161,0.19-0.277,0.361-0.347c0.202-0.082,0.387,0.211,0.486,0.371
		l2.449,4.727c0.047,0.114,0.001,0.166-0.072,0.23l-0.552,0.456c-0.119,0.116-0.286,0.117-0.454-0.05
		c-0.654-0.704-1.596-1.627-2.992-2.265c-1.044-0.514-2.068-0.566-3.36-0.042c-2.154,0.872-2.289,3.101-1.986,3.848
		c0.43,1.062,0.809,1.912,1.818,2.34c1.061,0.473,2.979,0.498,4.548,0.33c1.542-0.156,2.953,0.107,4.561,0.693
		c1.529,0.551,2.5,1.629,3.315,3.639c1.421,3.505,0.074,7.361-3.717,8.897c-2.585,1.048-4.11,1.164-5.643,0.849
		c-0.438-0.09-0.646-0.106-0.789-0.048c-0.171,0.069-0.205,0.317-0.261,0.674c-0.045,0.387-0.176,0.473-0.378,0.555
		c-0.316,0.128-0.489,0.031-0.588-0.296l-1.752-5.645c-0.052-0.213,0.034-0.247,0.149-0.295L251.944,355.95z"/>
	<path display="inline" fill="#010101" d="M266.833,342.992c-0.316-0.674-2.775-5.681-2.975-6.032
		c-0.374-0.646-0.786-0.795-1.374-0.518l-1.346,0.633c-0.14,0.066-0.25,0.049-0.303-0.062l-0.383-0.813
		c-0.052-0.111,0.005-0.208,0.118-0.264c0.336-0.158,1.806-0.747,4.553-2.04c2.861-1.345,3.719-1.852,4.11-2.033
		c0.142-0.066,0.237-0.008,0.316,0.16l0.33,0.701c0.065,0.14,0.008,0.235-0.133,0.302l-0.812,0.383
		c-0.701,0.33-1.016,0.752-0.779,1.257c0.131,0.279,2.963,6.516,3.122,6.854l1.016,2.158c0.131,0.281,3.263,6.718,3.382,6.971
		c0.409,0.869,0.895,0.812,1.428,0.561l1.148-0.541c0.142-0.066,0.252-0.049,0.318,0.091l0.369,0.785
		c0.054,0.112-0.005,0.208-0.173,0.287c-0.336,0.158-1.497,0.602-4.161,1.855c-2.943,1.385-4.11,2.036-4.418,2.182
		c-0.142,0.065-0.25,0.05-0.33-0.119l-0.357-0.758c-0.052-0.111,0.005-0.207,0.145-0.272l0.814-0.383
		c0.56-0.265,1.11-0.625,0.905-1.351c-0.141-0.447-2.906-6.544-3.606-8.029L266.833,342.992z"/>
	<path display="inline" fill="#010101" d="M279.269,328.339l-0.949,0.527c-0.868,0.482-2.477,1.413-3.391,2.451
		c-0.354,0.765-0.629,3.081-0.763,4.432c-0.007,0.182-0.042,0.308-0.165,0.341l-0.716,0.114c-0.125,0.033-0.227-0.087-0.244-0.184
		c-0.334-1.304-1.428-5.376-1.621-5.979c-0.114-0.397-0.039-0.581,0.149-0.687c0.19-0.105,0.332-0.042,0.742,0.12
		c0.508,0.213,1.159,0.171,2.164-0.316c1.48-0.717,2.664-1.269,5.481-2.834l1.572-0.874c2.954-1.641,4.057-2.396,5.165-3.083
		c0.582-0.358,1.457-1.271,1.602-1.776c0.121-0.422,0.208-0.647,0.396-0.754c0.19-0.104,0.331-0.042,0.567,0.254
		c0.411,0.551,2.795,3.624,3.809,4.939c0.088,0.093,0.095,0.231,0.027,0.304l-0.449,0.533c-0.093,0.088-0.191,0.036-0.405-0.093
		c-1.139-0.645-2.979-1.466-4.017-1.74c-0.902-0.029-3.375,1.202-3.998,1.548l-0.895,0.497l4.141,7.451
		c0.21,0.379,4.426,7.966,4.68,8.356c0.431,0.648,0.873,0.934,1.524,0.572l1.218-0.678c0.243-0.136,0.315-0.069,0.422,0.12
		l0.347,0.623c0.075,0.136,0.094,0.232-0.15,0.368c-0.272,0.15-1.184,0.551-4.19,2.222c-2.873,1.597-3.965,2.311-4.345,2.521
		c-0.217,0.12-0.304,0.027-0.424-0.19l-0.286-0.515c-0.105-0.188-0.124-0.285,0.039-0.376l1.381-0.769
		c0.543-0.301,0.687-0.806,0.469-1.324c-0.26-0.599-4.884-8.917-5.169-9.432L279.269,328.339z"/>
	<path display="inline" fill="#010101" d="M310.063,326.788c0.675,1.003,1.877,2.623,2.059,2.838
		c0.633,0.771,1.07,0.589,1.482,0.311l0.745-0.502c0.18-0.121,0.231-0.043,0.303,0.06l0.432,0.643
		c0.104,0.155,0.156,0.231-0.025,0.354c-0.308,0.208-1.363,0.806-3.78,2.434c-2.676,1.802-3.423,2.415-3.705,2.605
		c-0.103,0.069-0.207,0.026-0.328-0.153l-0.415-0.617c-0.069-0.104-0.097-0.197,0.059-0.302l0.901-0.605
		c0.668-0.451,0.701-0.847,0.501-1.198c-0.217-0.378-1.534-2.444-3.144-4.837l-0.745-1.106c-0.948-0.521-10.121-5.262-11.354-5.704
		c-0.568-0.178-1.324,0.031-1.736,0.31l-0.385,0.26c-0.154,0.104-0.232,0.043-0.301-0.06l-0.486-0.721
		c-0.069-0.103-0.077-0.171,0.077-0.268c0.23-0.156,1.492-0.893,3.782-2.434c2.649-1.784,3.524-2.484,3.781-2.665
		c0.154-0.104,0.215-0.07,0.301,0.059l0.433,0.644c0.087,0.128,0.131,0.249-0.023,0.353l-0.592,0.398
		c-0.36,0.242-0.444,0.673-0.167,1.085c0.312,0.462,7.338,4.293,9.038,5.317c-0.182-1.934-0.748-9.44-1.285-10.238
		c-0.294-0.438-1.025-0.58-1.565-0.217l-0.694,0.468c-0.155,0.104-0.232,0.044-0.337-0.11l-0.45-0.669
		c-0.069-0.103-0.077-0.172,0.075-0.268c0.258-0.174,1.364-0.807,3.269-2.088c1.775-1.195,2.29-1.653,2.521-1.816
		c0.18-0.121,0.24-0.087,0.345,0.067l0.416,0.617c0.104,0.154,0.131,0.248-0.051,0.37l-0.463,0.312
		c-0.308,0.208-0.977,0.882-1.051,1.604c-0.058,0.638,0.363,9.925,0.643,12.615L310.063,326.788z"/>
</g>
<g>
	<path fill="#FFFFFF" d="M55.555,102.189c4.893-6.414,9.535-12.908,14.005-19.488c-0.676-1.267-2.193-0.085-3.206-0.169
		c-13.246,5.229-26.577,10.208-38.893,17.632c10.514-18.876,25.429-36.211,42.005-51.572c-3.82,0.914-7.704,1.76-11.664,2.527
		c-0.131,0.065-0.262,0.133-0.393,0.197c0.038-0.047,0.075-0.094,0.113-0.141c-11.071,2.133-22.674,3.702-34.836,4.648
		C18.96,56.113,14.153,56,12.626,57.467c-1.874,1.796-1.46,7.854-1.642,10.883c-0.134,1.031,0.27,2.595-0.208,3.286
		c0,4.518,0,9.036,0,13.553c0.478,0.689,0.074,2.254,0.208,3.286c1.437,30.144,6.152,57.126,13.706,81.531
		C31.789,146.092,40.668,122.89,55.555,102.189z"/>
	<g display="none">
		<path display="inline" fill="#0096D6" d="M105.193,142.209c0-5.078-0.586-32.807-0.976-35.736
			c-0.586-4.688-3.125-5.469-6.445-5.469h-9.764c-0.976,0-1.562-0.195-1.562-1.366v-5.663c0-0.781,0.585-0.977,1.367-0.977
			c2.539,0,11.131,0.586,30.659,0.586c5.077,0,24.604-0.586,29.096-0.586c26.559,0,47.649,2.344,66.2,17.771
			c12.889,10.74,21.872,26.949,21.872,49.601c0,22.457-6.444,37.298-19.333,51.359c-18.942,20.503-52.334,20.698-64.637,20.698
			c-3.125,0-26.168-0.585-36.908-0.585c-16.989,0-24.8,0.585-27.534,0.585c-0.977,0-1.367-0.39-1.367-1.757v-5.078
			c0-0.78,0.586-1.17,1.562-1.17h10.154c3.71,0,5.859-1.562,6.249-4.688c0.586-4.1,1.367-48.038,1.367-62.879V142.209z
			 M134.485,161.151c0,2.539,0.195,35.736,0.39,47.843c0,3.905,0.781,7.03,3.32,10.74c2.343,3.515,8.982,4.688,15.622,4.688
			c11.327,0,26.363-5.663,36.518-19.138c7.811-10.35,13.865-26.362,13.865-44.524c0-16.013-6.64-32.416-15.817-42.57
			c-10.35-11.521-27.535-17.77-38.861-17.77c-5.468,0-8.397,0.195-10.936,1.562c-2.929,1.367-3.71,4.492-3.905,8.397
			c-0.195,8.202-0.195,33.783-0.195,36.907V161.151z"/>
	</g>
	<g>
		<path fill="#FFFFFF" d="M148.686,103.901c-5.468,0-8.397,0.195-10.936,1.562c-2.929,1.367-3.71,4.492-3.905,8.397
			c-0.195,8.202-0.195,33.783-0.195,36.907v13.865c0,2.539,0.195,35.736,0.391,47.843c0,3.905,0.781,7.03,3.32,10.74
			c2.343,3.515,8.983,4.688,15.622,4.688c11.327,0,26.363-5.663,36.518-19.138c7.811-10.35,13.865-26.362,13.865-44.524
			c0-16.013-6.64-32.416-15.818-42.57C177.196,110.15,160.012,103.901,148.686,103.901z"/>
		<path fill="#FFFFFF" d="M294.568,66.913c-0.41-4.066,0.428-7.582-1.437-9.446c-1.335-1.334-7.06-1.43-9.855-1.643
			c-49.894-3.805-92.293-18.169-123.209-40.659c-2.149-1.563-4.834-4.476-7.188-4.519c-2.432-0.042-5.234,2.855-7.188,4.313
			c-2.57,1.917-5.164,3.54-6.98,4.723c-17.316,11.245-37.208,20.161-59.67,26.448c-8.385,8.47-16.012,17.961-21.799,27.458
			c-0.811,1.894-1.894,3.678-2.725,5.529c-0.543,1.206,0.414,1.678,1.884,0.995c14.918-6.91,30.26-12.653,46.735-15.635
			c-34.757,24.633-58.212,62.432-72.892,99.636c-1.252,3.141-2.616,6.828-4.01,10.729c6.95,21.088,16.056,40.228,27.048,57.787
			c21.982,35.103,51.929,65.521,91.177,83.78c2.593,1.207,6.417,3.303,8.419,3.286c2.331-0.021,6.257-2.277,8.83-3.491
			c19.876-9.375,36.368-21.82,51.336-35.319c0.599-0.771,1.285-1.456,2.055-2.055c2.14-1.965,4.191-4.021,6.159-6.159
			c0.666-0.838,1.423-1.591,2.257-2.261c42.78-48.057,71.899-109.768,71.257-201.239C294.307,68.821,294.7,67.605,294.568,66.913z
			 M215.471,215.21c-18.942,20.503-52.334,20.698-64.637,20.698c-3.125,0-26.168-0.585-36.908-0.585
			c-16.989,0-24.8,0.585-27.534,0.585c-0.977,0-1.367-0.39-1.367-1.757v-5.078c0-0.78,0.586-1.17,1.562-1.17h10.154
			c3.71,0,5.859-1.562,6.249-4.688c0.586-4.1,1.367-48.038,1.367-62.879v-14.646c0-5.078-0.586-32.807-0.976-35.736
			c-0.586-4.688-3.125-5.469-6.445-5.469h-9.764c-0.976,0-1.562-0.195-1.562-1.366v-5.663c0-0.781,0.585-0.977,1.367-0.977
			c2.539,0,11.131,0.586,30.659,0.586c5.077,0,24.604-0.586,29.096-0.586c26.558,0,47.648,2.344,66.199,17.771
			c12.889,10.74,21.872,26.949,21.872,49.601C234.804,186.309,228.36,201.15,215.471,215.21z"/>
	</g>
	<g display="none">
		<g display="inline">
			<defs>
				<path id="SVGID_1_" d="M294.773,69.171c0.643,91.472-28.477,153.182-71.257,201.239c-0.834,0.67-1.591,1.423-2.257,2.261
					c-1.968,2.139-4.02,4.194-6.159,6.159c-0.77,0.599-1.456,1.284-2.055,2.055c-14.968,13.499-31.46,25.944-51.336,35.319
					c-2.573,1.214-6.499,3.471-8.83,3.491c-2.001,0.017-5.826-2.079-8.419-3.286c-39.248-18.259-69.195-48.677-91.177-83.78
					c-24.37-38.928-39.507-85.589-42.299-144.155c-0.134-1.031,0.27-2.596-0.208-3.286c0-4.518,0-9.036,0-13.553
					c0.478-0.69,0.074-2.254,0.208-3.286c0.182-3.029-0.232-9.087,1.642-10.883c1.527-1.466,6.334-1.354,10.061-1.643
					c46.729-3.636,85.397-16.253,116.024-36.141c1.816-1.183,4.41-2.806,6.98-4.723c1.954-1.458,4.756-4.356,7.188-4.313
					c2.354,0.042,5.039,2.955,7.188,4.519c30.916,22.49,73.315,36.854,123.209,40.659c2.795,0.213,8.521,0.309,9.855,1.643
					c1.864,1.864,1.026,5.38,1.437,9.446C294.7,67.605,294.307,68.821,294.773,69.171z"/>
			</defs>
			<clipPath id="SVGID_2_">
				<use xlink:href="#SVGID_1_"  overflow="visible"/>
			</clipPath>
		</g>
		<g display="inline">
			<defs>
				<path id="SVGID_3_" d="M294.773,69.171c0.643,91.472-28.477,153.182-71.257,201.239c-0.834,0.67-1.591,1.423-2.257,2.261
					c-1.968,2.139-4.02,4.194-6.159,6.159c-0.77,0.599-1.456,1.284-2.055,2.055c-14.968,13.499-31.46,25.944-51.336,35.319
					c-2.573,1.214-6.499,3.471-8.83,3.491c-2.001,0.017-5.826-2.079-8.419-3.286c-39.248-18.259-69.195-48.677-91.177-83.78
					c-24.37-38.928-39.507-85.589-42.299-144.155c-0.134-1.031,0.27-2.596-0.208-3.286c0-4.518,0-9.036,0-13.553
					c0.478-0.69,0.074-2.254,0.208-3.286c0.182-3.029-0.232-9.087,1.642-10.883c1.527-1.466,6.334-1.354,10.061-1.643
					c46.729-3.636,85.397-16.253,116.024-36.141c1.816-1.183,4.41-2.806,6.98-4.723c1.954-1.458,4.756-4.356,7.188-4.313
					c2.354,0.042,5.039,2.955,7.188,4.519c30.916,22.49,73.315,36.854,123.209,40.659c2.795,0.213,8.521,0.309,9.855,1.643
					c1.864,1.864,1.026,5.38,1.437,9.446C294.7,67.605,294.307,68.821,294.773,69.171z"/>
			</defs>
			<clipPath id="SVGID_4_">
				<use xlink:href="#SVGID_3_"  overflow="visible"/>
			</clipPath>
			<path clip-path="url(#SVGID_4_)" fill="none" stroke="#2A3B90" stroke-width="1.9344" stroke-miterlimit="10" d="M30.245,164.114
				c-4.114,10.317-9.418,26.482-13.112,36.991c-0.622,1.783-1.245,1.251-0.807-0.545c9.028-34.421,18.053-68.925,39.229-98.371
				c4.893-6.414,9.535-12.908,14.005-19.488c-0.676-1.267-2.193-0.085-3.206-0.169c-13.246,5.229-26.577,10.208-38.893,17.632
				c11.559-20.753,28.432-39.653,46.992-56.103c-6.327,0.337-11.475,4.556-17.043,7.255c8.522-10.715,17.716-21.261,28.938-29.36
				c0.59,0.168,1.097,0.507,1.857,0.422c-4.894,5.484-9.703,11.305-12.992,17.632c5.989-1.603,11.896-4.723,18.055-6.665
				C79.515,44.229,66.187,58.91,57.242,73.588c-0.811,1.894-1.894,3.678-2.725,5.529c-0.543,1.206,0.414,1.678,1.884,0.995
				c14.918-6.91,30.26-12.653,46.735-15.635C68.379,89.111,44.924,126.91,30.245,164.114z"/>
			<use xlink:href="#SVGID_3_"  overflow="visible" fill="none" stroke="#2C398F" stroke-width="1.9344" stroke-miterlimit="10"/>
		</g>
		<g display="inline">
			<defs>
				<path id="SVGID_5_" d="M294.773,69.171c0.643,91.472-28.477,153.182-71.257,201.239c-0.834,0.67-1.591,1.423-2.257,2.261
					c-1.968,2.139-4.02,4.194-6.159,6.159c-0.77,0.599-1.456,1.284-2.055,2.055c-14.968,13.499-31.46,25.944-51.336,35.319
					c-2.573,1.214-6.499,3.471-8.83,3.491c-2.001,0.017-5.826-2.079-8.419-3.286c-39.248-18.259-69.195-48.677-91.177-83.78
					c-24.37-38.928-39.507-85.589-42.299-144.155c-0.134-1.031,0.27-2.596-0.208-3.286c0-4.518,0-9.036,0-13.553
					c0.478-0.69,0.074-2.254,0.208-3.286c0.182-3.029-0.232-9.087,1.642-10.883c1.527-1.466,6.334-1.354,10.061-1.643
					c46.729-3.636,85.397-16.253,116.024-36.141c1.816-1.183,4.41-2.806,6.98-4.723c1.954-1.458,4.756-4.356,7.188-4.313
					c2.354,0.042,5.039,2.955,7.188,4.519c30.916,22.49,73.315,36.854,123.209,40.659c2.795,0.213,8.521,0.309,9.855,1.643
					c1.864,1.864,1.026,5.38,1.437,9.446C294.7,67.605,294.307,68.821,294.773,69.171z"/>
			</defs>
			<clipPath id="SVGID_6_">
				<use xlink:href="#SVGID_5_"  overflow="visible"/>
			</clipPath>
		</g>
	</g>
</g>
</svg>
