<?xml version="1.0" encoding="UTF-8" standalone="no"?>
<svg width="32px" height="46px" viewBox="0 0 32 46" version="1.1" xmlns="http://www.w3.org/2000/svg" xmlns:xlink="http://www.w3.org/1999/xlink" xmlns:sketch="http://www.bohemiancoding.com/sketch/ns">
    <!-- Generator: Sketch 3.3.3 (12081) - http://www.bohemiancoding.com/sketch -->
    <title>Rectangle 644 Copy 5 + Rectangle 644 Copy 6 + FREE Copy 8</title>
    <desc>Created with Sketch.</desc>
    <defs></defs>
    <g id="Main-Attraction" stroke="none" stroke-width="1" fill="none" fill-rule="evenodd" sketch:type="MSPage">
        <g id="1-TOPICS" sketch:type="MSArtboardGroup" transform="translate(-269.000000, -133.000000)">
            <g id="Rectangle-644-Copy-5-+-Rectangle-644-Copy-6-+-FREE-Copy-8" sketch:type="MSLayerGroup" transform="translate(269.000000, 133.000000)">
                <path d="M0,0 L32,0 L32,46 L15.7081968,37.567627 L0,46 L0,0 Z" id="Rectangle-644-Copy-5" fill="#C64A4E" sketch:type="MSShapeGroup"></path>
                <path d="M30.5,0 L30.5,43.5 L15.7355534,35.8402652 L1.5,43.5 L1.5,0" id="Rectangle-644-Copy-6" stroke="#FFFFFF" fill="#E2575B" sketch:type="MSShapeGroup"></path>
                <path d="M6.62953444,23.0733403 L6.62953444,20.8573403 L9.21353444,20.8573403 L9.21353444,19.8573403 L6.62953444,19.8573403 L6.62953444,18.7373403 L9.26953444,18.7373403 L9.26953444,17.7373403 L5.49353444,17.7373403 L5.49353444,23.0733403 L6.62953444,23.0733403 Z M15.3895344,23.0733403 L14.1815344,21.0413403 C14.7575344,20.9053403 15.3575344,20.3933403 15.3575344,19.4573403 C15.3575344,18.4653403 14.6695344,17.7373403 13.5575344,17.7373403 L11.0615344,17.7373403 L11.0615344,23.0733403 L12.1975344,23.0733403 L12.1975344,21.1773403 L13.0295344,21.1773403 L14.0775344,23.0733403 L15.3895344,23.0733403 Z M13.3975344,20.1773403 L12.1975344,20.1773403 L12.1975344,18.7373403 L13.3975344,18.7373403 C13.8455344,18.7373403 14.1895344,19.0093403 14.1895344,19.4493403 C14.1895344,19.9053403 13.8455344,20.1773403 13.3975344,20.1773403 L13.3975344,20.1773403 Z M20.9815344,23.0733403 L20.9815344,22.0733403 L18.3415344,22.0733403 L18.3415344,20.8573403 L20.9255344,20.8573403 L20.9255344,19.8573403 L18.3415344,19.8573403 L18.3415344,18.7373403 L20.9815344,18.7373403 L20.9815344,17.7373403 L17.2055344,17.7373403 L17.2055344,23.0733403 L20.9815344,23.0733403 Z M26.6455344,23.0733403 L26.6455344,22.0733403 L24.0055344,22.0733403 L24.0055344,20.8573403 L26.5895344,20.8573403 L26.5895344,19.8573403 L24.0055344,19.8573403 L24.0055344,18.7373403 L26.6455344,18.7373403 L26.6455344,17.7373403 L22.8695344,17.7373403 L22.8695344,23.0733403 L26.6455344,23.0733403 Z" id="FREE-Copy-8" fill="#FFFFFF" sketch:type="MSShapeGroup" transform="translate(16.249534, 20.405340) rotate(-28.000000) translate(-16.249534, -20.405340) "></path>
            </g>
        </g>
    </g>
</svg>