<?xml version="1.0" encoding="UTF-8" standalone="no"?>
<svg width="29px" height="29px" viewBox="0 0 29 29" version="1.1" xmlns="http://www.w3.org/2000/svg" xmlns:xlink="http://www.w3.org/1999/xlink" xmlns:sketch="http://www.bohemiancoding.com/sketch/ns">
    <!-- Generator: Sketch 3.3 (11970) - http://www.bohemiancoding.com/sketch -->
    <title>Oval 345 + Rectangle 681 + Rectangle 681 Copy 3</title>
    <desc>Created with Sketch.</desc>
    <defs></defs>
    <g id="Main-Attraction" stroke="none" stroke-width="1" fill="none" fill-rule="evenodd" sketch:type="MSPage">
        <g id="25B-TUTORIAL-LESSONS" sketch:type="MSArtboardGroup" transform="translate(-1211.000000, -366.000000)" fill="#DADADA">
            <g id="Oval-345-+-Rectangle-681-+-Rectangle-681-Copy-3" sketch:type="MSLayerGroup" transform="translate(1211.000000, 366.000000)">
                <path d="M14.5,25.375 L14.5,25.375 C20.5060967,25.375 25.375,20.5060967 25.375,14.5 C25.375,8.49390335 20.5060967,3.625 14.5,3.625 C8.49390335,3.625 3.625,8.49390335 3.625,14.5 C3.625,20.5060967 8.49390335,25.375 14.5,25.375 L14.5,25.375 Z M14.5,29 L14.5,29 C6.49187113,29 0,22.5081289 0,14.5 C0,6.49187113 6.49187113,0 14.5,0 C22.5081289,0 29,6.49187113 29,14.5 C29,22.5081289 22.5081289,29 14.5,29 L14.5,29 Z" id="Shape" sketch:type="MSShapeGroup"></path>
                <rect id="Rectangle-681" sketch:type="MSShapeGroup" x="12.6875" y="7.25" width="3.625" height="3.625"></rect>
                <rect id="Rectangle-681-Copy" sketch:type="MSShapeGroup" x="12.6875" y="12.6875" width="3.625" height="9.0625"></rect>
            </g>
        </g>
    </g>
</svg>