<?xml version="1.0" encoding="UTF-8" standalone="no"?>
<svg width="40px" height="40px" viewBox="0 0 40 40" version="1.1" xmlns="http://www.w3.org/2000/svg" xmlns:xlink="http://www.w3.org/1999/xlink" xmlns:sketch="http://www.bohemiancoding.com/sketch/ns">
    <!-- Generator: Sketch 3.3.3 (12081) - http://www.bohemiancoding.com/sketch -->
    <title>leadershipdone</title>
    <desc>Created with Sketch.</desc>
    <defs></defs>
    <g id="Main-Attraction" stroke="none" stroke-width="1" fill="none" fill-rule="evenodd" sketch:type="MSPage">
        <g id="TRACK-ICONS" sketch:type="MSArtboardGroup" transform="translate(-78.000000, -159.000000)" stroke="#246DB4">
            <g id="leadershipdone" sketch:type="MSLayerGroup" transform="translate(78.000000, 159.000000)">
                <g id="Shape" transform="translate(8.000000, 8.000000)" stroke-width="0.8" sketch:type="MSShapeGroup">
                    <path d="M10.1873688,8.74744818 C10.4360019,8.60830925 10.7023263,8.49690248 10.9822776,8.4177702 L10.9822776,5.74854999 C9.99276552,5.9080099 9.07999501,6.29745546 8.29990853,6.85974887 L10.1873688,8.74744818 L10.1873688,8.74744818 Z M8.4177702,10.9817995 C8.49714155,10.7023263 8.60854832,10.4352847 8.74768725,10.1866516 L6.86046608,8.29919132 C6.29769453,9.0792778 5.90848804,9.99228738 5.74878906,10.9815604 L8.4177702,10.9815604 L8.4177702,10.9817995 Z M8.74744818,13.8128703 C8.60830925,13.5642372 8.49690248,13.2979128 8.4177702,13.0184396 L5.74854999,13.0184396 C5.9080099,14.0079517 6.29745546,14.9202441 6.85974887,15.7003305 L8.74744818,13.8128703 L8.74744818,13.8128703 Z M10.9820385,15.5827079 C10.7023263,15.5030975 10.4355238,15.3916907 10.1866516,15.2527909 L8.29943039,17.1402511 C9.0792778,17.7027836 9.99228738,18.0919901 10.9820385,18.2519282 L10.9820385,15.5827079 L10.9820385,15.5827079 Z M13.8135875,15.2527909 C13.5642372,15.3916907 13.2981519,15.5030975 13.0182005,15.5827079 L13.0182005,18.2519282 C14.0077126,18.0919901 14.9204831,17.7025445 15.7005696,17.1402511 L13.8135875,15.2527909 L13.8135875,15.2527909 Z M15.5827079,13.0182005 C15.5030975,13.2976737 15.3921689,13.5639981 15.253269,13.8126312 L17.1402511,15.7000915 C17.7030227,14.920005 18.0919901,14.0077126 18.2519282,13.0182005 L15.5827079,13.0182005 L15.5827079,13.0182005 Z M15.2527909,10.1868906 C15.3921689,10.4355238 15.5030975,10.7023263 15.5827079,10.9820385 L18.2519282,10.9820385 C18.0919901,9.99252645 17.7027836,9.07951687 17.1402511,8.29966946 L15.2527909,10.1868906 L15.2527909,10.1868906 Z M13.0182005,8.4177702 C13.2981519,8.49690248 13.5642372,8.60830925 13.8131094,8.74744818 L15.7005696,6.85998794 C14.9204831,6.29769453 14.0077126,5.90824897 13.0182005,5.74878906 L13.0182005,8.4177702 L13.0182005,8.4177702 Z M18.6925348,3.86754464 C19.6492942,2.91126333 21.0887367,4.35070578 20.1319772,5.30746523 L18.5937987,6.84564372 C19.5089599,8.01421949 20.1197846,9.43310189 20.3076939,10.9817995 L22.4822776,10.9817995 C23.160042,10.9817995 23.5,11.5079933 23.5,11.9997609 C23.5,12.4920067 23.160042,13.0182005 22.4822776,13.0182005 L20.3076939,13.0182005 C20.1197846,14.5671372 19.5089599,15.9855414 18.5940378,17.1541172 L20.1319772,18.6920566 C21.0887367,19.6483379 19.6490552,21.0882585 18.6925348,20.1314991 L17.1545953,18.5935597 C15.9857805,19.5084818 14.5671372,20.1197846 13.0182005,20.3076939 L13.0182005,22.4822776 C13.0182005,23.1593248 12.4920067,23.5002391 12.0002391,23.5002391 C11.5082323,23.5002391 10.9820385,23.1593248 10.9820385,22.4822776 L10.9820385,20.3076939 C9.43310189,20.1197846 8.01421949,19.5089599 6.84564372,18.5935597 L5.30794337,20.1314991 C4.35142299,21.0882585 2.9115024,19.6483379 3.86850093,18.6920566 L5.40620128,17.1543563 C4.49127913,15.9855414 3.88045444,14.5671372 3.69278423,13.0182005 L1.51796146,13.0182005 C0.840436147,13.0182005 0.5,12.4920067 0.5,11.9997609 C0.5,11.5079933 0.840436147,10.9817995 1.51796146,10.9817995 L3.69254516,10.9817995 C3.88021537,9.43310189 4.4915182,8.01398042 5.40620128,6.84564372 L3.86850093,5.30746523 C2.91174147,4.35070578 4.35142299,2.91102426 5.30794337,3.86754464 L6.84612186,5.40620128 C8.01469763,4.4915182 9.43334096,3.88069351 10.9820385,3.69230609 L10.9820385,1.51772239 C10.9820385,0.840197077 11.5082323,0.49976093 12.0002391,0.49976093 C12.4920067,0.49976093 13.0182005,0.840197077 13.0182005,1.51772239 L13.0182005,3.69206702 C14.5671372,3.88045444 15.9855414,4.4915182 17.1543563,5.40596221 L18.6925348,3.86754464 L18.6925348,3.86754464 Z M10.3128807,11.9997609 C10.3128807,12.9318961 11.0683429,13.6871193 12.0002391,13.6871193 C12.9321352,13.6871193 13.6875974,12.9318961 13.6875974,11.9997609 C13.6875974,11.0678648 12.9321352,10.3124026 12.0002391,10.3124026 C11.0683429,10.3124026 10.3128807,11.0678648 10.3128807,11.9997609 L10.3128807,11.9997609 Z"></path>
                </g>
                <circle id="Oval-20-Copy-5" opacity="0.8" sketch:type="MSShapeGroup" cx="20" cy="20" r="20"></circle>
            </g>
        </g>
    </g>
</svg>