<?xml version="1.0" encoding="UTF-8" standalone="no"?>
<svg width="40px" height="40px" viewBox="0 0 40 40" version="1.1" xmlns="http://www.w3.org/2000/svg" xmlns:xlink="http://www.w3.org/1999/xlink" xmlns:sketch="http://www.bohemiancoding.com/sketch/ns">
    <!-- Generator: Sketch 3.3.3 (12081) - http://www.bohemiancoding.com/sketch -->
    <title>hustle</title>
    <desc>Created with Sketch.</desc>
    <defs></defs>
    <g id="Main-Attraction" stroke="none" stroke-width="1" fill="none" fill-rule="evenodd" sketch:type="MSPage">
        <g id="TRACK-ICONS" sketch:type="MSArtboardGroup" transform="translate(-78.000000, -329.000000)">
            <g id="hustle" sketch:type="MSLayerGroup" transform="translate(78.000000, 329.000000)">
                <circle id="Oval-20-Copy-31" opacity="0.8" fill="#246DB4" sketch:type="MSShapeGroup" cx="20" cy="20" r="20"></circle>
                <g id="Group-Copy-2" transform="translate(11.000000, 12.000000)" fill="#FFFFFF" sketch:type="MSShapeGroup">
                    <path d="M17.0511841,2.39266616 C17.0511841,1.78762414 16.8311688,1.23758594 16.3911383,0.797555386 C15.9786096,0.385026738 15.4010695,0.137509549 14.7960275,0.137509549 C14.4935065,0.137509549 14.1909855,0.192513369 13.9159664,0.330022918 L4.12528648,1.32009167 C2.72268908,1.45760122 1.4025974,2.09014515 0.440030558,3.0802139 C0.412528648,3.10771581 0.412528648,3.10771581 0.385026738,3.13521772 C0.302521008,3.27272727 0.330022918,3.43773873 0.467532468,3.52024446 C1.48510313,4.20779221 2.66768526,4.56531704 3.85026738,4.56531704 C4.04278075,4.56531704 4.26279603,4.56531704 4.4553094,4.53781513 L10.065699,3.98777693 L3.6302521,10.3957219 L3.24522536,9.98319328 C3.16271963,9.90068755 3.02521008,9.87318564 2.91520244,9.92818946 C2.61268144,10.1207028 2.33766234,10.1482047 2.20015279,10.0381971 C1.98013751,9.87318564 1.89763178,9.37815126 2.11764706,8.60809778 C2.25515661,8.11306341 2.00763942,7.61802903 1.54010695,7.42551566 L0.632543927,7.06799083 C0.550038197,7.04048892 0.495034377,7.04048892 0.412528648,7.06799083 C0.330022918,7.15049656 0.275019099,7.20550038 0.275019099,7.28800611 L0.247517189,7.34300993 C-0.165011459,8.71810542 -0.0550038197,10.2032086 0.577540107,11.4957983 L1.43009931,13.2559206 C1.43009931,13.3384263 1.4025974,13.4484339 1.4025974,13.5309396 C1.4025974,14.1359817 1.65011459,14.6860199 2.06264324,15.1260504 C2.47517189,15.5385791 3.05271199,15.7860963 3.65775401,15.7860963 C4.26279603,15.7860963 4.81283422,15.566081 5.25286478,15.1260504 L8.60809778,11.7708174 L11.5233002,13.6684492 C12.2383499,14.1359817 13.0084034,14.4385027 13.8334607,14.5760122 L13.8884645,14.5760122 C13.9709702,14.5760122 14.0809778,14.5210084 14.1084798,14.4385027 C14.1634836,14.3559969 14.1634836,14.2184874 14.1084798,14.1359817 C13.6409473,13.4484339 13.0634072,12.8433919 12.3483575,12.4033613 L9.70817418,10.6982429 L10.3957219,10.0106952 C10.4507257,10.1757066 10.5332315,10.3957219 10.8082506,10.4507257 C11.0832697,10.5332315 11.275783,10.3407181 11.4132926,10.2307105 C11.4407945,10.2032086 11.4682964,10.1757066 11.4957983,10.1757066 C11.4957983,10.2032086 11.5233002,10.2307105 11.5233002,10.2857143 C11.578304,10.4232238 11.6608098,10.6982429 11.9358289,10.7532468 C12.210848,10.8357525 12.4033613,10.6432391 12.5408709,10.5332315 C12.5683728,10.5057296 12.5958747,10.4782277 12.6233766,10.4782277 C12.6233766,10.5057296 12.6508785,10.5332315 12.6508785,10.5882353 C12.7058824,10.7257448 12.7883881,11.0007639 13.0634072,11.0557678 C13.3384263,11.1382735 13.5309396,10.9457601 13.6684492,10.8357525 L13.7509549,10.7532468 C13.7509549,10.7807487 13.7784568,10.8082506 13.7784568,10.8632544 C13.8334607,11.0007639 13.9159664,11.275783 14.1909855,11.3307869 C14.4660046,11.4132926 14.658518,11.2207792 14.7960275,11.1107716 C14.8235294,11.0832697 14.8235294,11.0832697 14.8510313,11.0557678 C14.8510313,11.0832697 14.8785332,11.1382735 14.8785332,11.1657754 L14.8785332,11.2207792 C14.9060351,11.3582888 15.0160428,11.4407945 15.1535523,11.4407945 L15.2085561,11.4407945 C15.3460657,11.4132926 15.4560733,11.2482811 15.4010695,11.1107716 L15.4010695,11.0557678 C15.3460657,10.8907563 15.2910619,10.5882353 14.9885409,10.5057296 C14.7135218,10.4232238 14.5210084,10.6157372 14.3834989,10.7257448 C14.3559969,10.7257448 14.3009931,10.7532468 14.3009931,10.7807487 C14.3009931,10.7532468 14.2734912,10.7257448 14.2734912,10.670741 C14.2184874,10.5332315 14.1359817,10.2582124 13.8609626,10.2032086 C13.5859435,10.1207028 13.3934301,10.3132162 13.2559206,10.4232238 C13.2284186,10.4507257 13.2009167,10.4782277 13.1734148,10.4782277 C13.1734148,10.4507257 13.1459129,10.4232238 13.1459129,10.36822 C13.0909091,10.2307105 13.0084034,9.95569137 12.7333843,9.90068755 C12.4583652,9.81818182 12.2658518,10.0106952 12.1283422,10.1207028 C12.1008403,10.1482047 12.0733384,10.1757066 12.0458365,10.1757066 C12.0458365,10.1482047 12.0183346,10.1207028 12.0183346,10.0932009 C11.9633308,9.95569137 11.8808251,9.68067227 11.605806,9.62566845 C11.3307869,9.54316272 11.1382735,9.73567609 11.0007639,9.84568373 C10.973262,9.87318564 10.9457601,9.90068755 10.9182582,9.90068755 C10.9182582,9.87318564 10.8907563,9.84568373 10.8907563,9.81818182 C10.8632544,9.763178 10.8357525,9.68067227 10.8082506,9.59816654 L16.3911383,4.01527884 C16.8311688,3.57524828 17.0511841,2.99770817 17.0511841,2.39266616 L17.0511841,2.39266616 Z M4.40030558,3.98777693 C3.24522536,4.09778457 2.06264324,3.85026738 1.04507257,3.24522536 C1.89763178,2.47517189 2.99770817,1.98013751 4.1802903,1.87012987 L13.0359053,0.990068755 L10.670741,3.355233 L4.40030558,3.98777693 L4.40030558,3.98777693 Z M1.07257448,11.2482811 C0.550038197,10.1482047 0.412528648,8.91061879 0.715049656,7.72803667 L1.34759358,7.97555386 C1.54010695,8.05805959 1.65011459,8.27807487 1.59511077,8.47058824 C1.32009167,9.37815126 1.4025974,10.1482047 1.87012987,10.5057296 C2.17265088,10.7532468 2.58517953,10.7532468 3.02521008,10.5332315 L3.27272727,10.7807487 L2.09014515,11.9633308 C1.92513369,12.1283422 1.78762414,12.2933537 1.70511841,12.513369 L1.07257448,11.2482811 L1.07257448,11.2482811 Z M12.0183346,12.8708938 C12.4308633,13.1459129 12.81589,13.4759358 13.1459129,13.8609626 C12.6783804,13.723453 12.210848,13.5034377 11.7983193,13.2284186 L8.99312452,11.4132926 L9.29564553,11.1107716 L12.0183346,12.8708938 L12.0183346,12.8708938 Z M10.2032086,9.40565317 C10.2032086,9.40565317 10.1757066,9.43315508 10.2032086,9.40565317 L4.86783804,14.7410237 C4.53781513,15.0710466 4.12528648,15.2360581 3.65775401,15.2360581 C3.19022154,15.2360581 2.7776929,15.0710466 2.44766998,14.7410237 C2.11764706,14.4110008 1.9526356,13.9984721 1.9526356,13.5309396 C1.9526356,13.0634072 2.11764706,12.6508785 2.44766998,12.3208556 L3.82276547,10.9457601 L3.82276547,10.9457601 L13.6134454,1.15508021 C13.9434683,0.825057296 14.3559969,0.660045837 14.8235294,0.660045837 C15.2910619,0.660045837 15.7035905,0.825057296 16.0336134,1.15508021 C16.3636364,1.48510313 16.5286478,1.89763178 16.5286478,2.36516425 C16.5286478,2.80519481 16.3636364,3.24522536 16.0336134,3.57524828 L10.2032086,9.40565317 L10.2032086,9.40565317 Z" id="Shape"></path>
                    <path d="M3.46524064,13.3659282 C3.41023682,13.420932 3.38273491,13.5034377 3.38273491,13.5584416 C3.38273491,13.6134454 3.41023682,13.6959511 3.46524064,13.7509549 C3.52024446,13.8059587 3.60275019,13.8334607 3.65775401,13.8334607 C3.74025974,13.8334607 3.79526356,13.8059587 3.85026738,13.7509549 C3.9052712,13.6959511 3.93277311,13.6134454 3.93277311,13.5584416 C3.93277311,13.5034377 3.9052712,13.420932 3.85026738,13.3659282 C3.74025974,13.2559206 3.57524828,13.2559206 3.46524064,13.3659282 L3.46524064,13.3659282 Z" id="Shape"></path>
                    <path d="M14.631016,2.00763942 C14.6035141,2.03514133 14.5760122,2.11764706 14.5760122,2.20015279 C14.5760122,2.28265852 14.6035141,2.33766234 14.658518,2.39266616 C14.7135218,2.44766998 14.7685256,2.47517189 14.8510313,2.47517189 C14.9335371,2.47517189 14.9885409,2.44766998 15.0435447,2.39266616 C15.0985485,2.33766234 15.1260504,2.28265852 15.1260504,2.20015279 C15.1260504,2.11764706 15.0985485,2.06264324 15.0435447,2.00763942 C14.9335371,1.89763178 14.7410237,1.89763178 14.631016,2.00763942 L14.631016,2.00763942 Z" id="Shape"></path>
                    <path d="M7.89304813,1.92513369 L6.29793736,2.09014515 C6.16042781,2.11764706 6.02291826,2.2276547 6.05042017,2.39266616 C6.07792208,2.53017571 6.18792972,2.64018335 6.32543927,2.64018335 L6.35294118,2.64018335 L7.94805195,2.47517189 C8.0855615,2.44766998 8.22307105,2.33766234 8.19556914,2.17265088 C8.16806723,2.03514133 8.03055768,1.92513369 7.89304813,1.92513369 L7.89304813,1.92513369 Z" id="Shape"></path>
                </g>
            </g>
        </g>
    </g>
</svg>