<?xml version="1.0" encoding="UTF-8" standalone="no"?>
<svg width="16px" height="16px" viewBox="0 0 16 16" version="1.1" xmlns="http://www.w3.org/2000/svg" xmlns:xlink="http://www.w3.org/1999/xlink" xmlns:sketch="http://www.bohemiancoding.com/sketch/ns">
    <!-- Generator: Sketch 3.3.3 (12081) - http://www.bohemiancoding.com/sketch -->
    <title>Shape</title>
    <desc>Created with Sketch.</desc>
    <defs></defs>
    <g id="Main-Attraction" stroke="none" stroke-width="1" fill="none" fill-rule="evenodd" sketch:type="MSPage">
        <g id="14-SIGNIN" sketch:type="MSArtboardGroup" transform="translate(-1244.000000, -17.000000)" fill="#FFFFFF" opacity="0.3">
            <g id="Header" sketch:type="MSLayerGroup">
                <path d="M1260,25.98432 L1260,23.98432 L1257.60944,22.98816 C1257.54304,22.80064 1257.4728,22.61888 1257.38672,22.44128 L1258.35152,20.03888 L1256.93744,18.6248 L1254.55648,19.60528 C1254.37488,19.51728 1254.18928,19.4432 1253.99808,19.37488 L1252.98432,17 L1250.98432,17 L1249.996,19.3672 C1249.7968,19.43744 1249.60544,19.51168 1249.41584,19.6016 L1247.03904,18.64656 L1245.62496,20.06064 L1246.59376,22.416 C1246.5,22.60944 1246.42384,22.80656 1246.35152,23.00976 L1244,24.01568 L1244,26.01568 L1246.35344,26.99616 C1246.42576,27.19936 1246.50384,27.39664 1246.5976,27.58992 L1245.64656,29.96096 L1247.06064,31.37504 L1249.42192,30.4024 C1249.61136,30.49232 1249.8048,30.56448 1250.004,30.6328 L1251.01568,33 L1253.01568,33 L1254.00592,30.62112 C1254.19536,30.55088 1254.38272,30.47664 1254.56256,30.39072 L1256.96096,31.35168 L1258.37504,29.9376 L1257.39072,27.55088 C1257.47472,27.3712 1257.54304,27.18944 1257.60944,27.004 L1260,25.98432 L1260,25.98432 Z M1251.98432,28 C1250.328,28 1248.98432,26.65632 1248.98432,25 C1248.98432,23.34368 1250.328,22 1251.98432,22 C1253.64064,22 1254.98432,23.34368 1254.98432,25 C1254.98432,26.65632 1253.64064,28 1251.98432,28 L1251.98432,28 Z" id="Shape" sketch:type="MSShapeGroup"></path>
            </g>
        </g>
    </g>
</svg>