<?xml version="1.0" encoding="UTF-8" standalone="no"?>
<svg width="23px" height="26px" viewBox="0 0 23 26" version="1.1" xmlns="http://www.w3.org/2000/svg" xmlns:xlink="http://www.w3.org/1999/xlink" xmlns:sketch="http://www.bohemiancoding.com/sketch/ns">
    <!-- Generator: Sketch 3.3.3 (12072) - http://www.bohemiancoding.com/sketch -->
    <title>Shield</title>
    <desc>Created with Sketch.</desc>
    <defs></defs>
    <g id="Page-1" stroke="none" stroke-width="1" fill="none" fill-rule="evenodd" sketch:type="MSPage">
        <g id="Logo-icon" sketch:type="MSArtboardGroup" transform="translate(-9.000000, -2.000000)" fill="#FFFFFF">
            <g id="Logo" sketch:type="MSLayerGroup" transform="translate(9.000000, 2.000000)">
                <path d="M4.59748816,6.38950128 L4.60273042,6.38272994 L4.60902113,6.37647948 C4.61583606,6.37074988 4.62212678,6.36345767 4.62946594,6.35616546 C4.59539125,6.35981157 4.55083205,6.36658291 4.49211874,6.37960471 C3.44995753,6.60930932 1.52133022,7.63282308 1.50193386,7.64271965 L1.10928862,7.85158938 L1.32526971,7.46510225 C2.23270485,5.8358142 3.75820239,4.32111802 4.388322,3.73096988 C4.29972781,3.75076302 4.21165785,3.77055616 4.12568479,3.78878669 C1.86836781,4.27371865 0.111162388,4.30965883 0.0933387055,4.30965883 C0.0430130134,4.31070057 0.00264761442,4.35184947 0.00212338846,4.4018532 C-0.0324755249,8.77144958 0.358597041,11.425814 0.966699155,13.4244004 C2.0418866,9.60536587 4.57075263,6.42231623 4.59748816,6.38950128 Z M22.7608692,4.30965883 C22.6911472,4.30861708 15.7278537,4.14610498 11.5041652,0.522397502 C11.48739,0.508333954 11.4119014,0.5 11.4119014,0.5 C9.55876264,2.06001206 7.27942817,2.96164173 5.37229413,3.48459736 L5.32458956,3.53928893 C4.22056969,4.80552911 3.81167344,5.49203859 3.65755101,5.75039117 C3.62819436,5.79935315 3.608798,5.83216809 3.59307122,5.85404472 C3.54589088,5.91967461 3.5018559,6.01134811 3.48875025,6.06447707 C3.52911565,6.06031009 3.60774954,6.04260044 3.75191168,5.97801229 C4.79774247,5.50766475 7.130548,4.7982369 7.22910248,4.76854718 L7.96354305,4.54561391 L7.34495641,4.9982518 C6.22416131,5.81810454 4.52095117,7.43228731 2.77003646,10.4648049 C1.85578638,12.049298 1.23300594,13.4467979 1.08412577,13.7921361 C1.51241838,15.0875451 2.03454744,16.1152259 2.58498469,17.1991608 C4.24049028,20.457216 6.54184224,22.5396628 8.18109682,23.7111043 C9.95874705,24.9825532 11.3662938,25.4919661 11.3809721,25.496654 C11.4538395,25.5018627 11.4648482,25.5003001 11.4742843,25.496654 C11.4889626,25.4919661 12.8954609,24.9825532 14.6725869,23.7111043 C16.3128899,22.5396628 18.6147661,20.457216 20.2692232,17.1991608 C21.6877787,14.4057235 22.9128948,11.9935646 22.8526088,4.4018532 C22.8526088,4.35184947 22.8117191,4.31070057 22.7608692,4.30965883 Z M8.42962507,17.3287737 L8.42962507,8.70649079 L15.8406109,13.0176322 L8.42962507,17.3287737 Z" id="Shield" sketch:type="MSShapeGroup"></path>
            </g>
        </g>
    </g>
</svg>