<?xml version="1.0" encoding="UTF-8" standalone="no"?>
<svg width="40px" height="40px" viewBox="0 0 40 40" version="1.1" xmlns="http://www.w3.org/2000/svg" xmlns:xlink="http://www.w3.org/1999/xlink" xmlns:sketch="http://www.bohemiancoding.com/sketch/ns">
    <!-- Generator: Sketch 3.3.3 (12081) - http://www.bohemiancoding.com/sketch -->
    <title>user-acquisition</title>
    <desc>Created with Sketch.</desc>
    <defs></defs>
    <g id="Main-Attraction" stroke="none" stroke-width="1" fill="none" fill-rule="evenodd" sketch:type="MSPage">
        <g id="TRACK-ICONS" sketch:type="MSArtboardGroup" transform="translate(-228.000000, -329.000000)">
            <g id="user-acquisition" sketch:type="MSLayerGroup" transform="translate(228.000000, 329.000000)">
                <circle id="Oval-20-Copy-43" opacity="0.8" fill="#88B250" sketch:type="MSShapeGroup" cx="20" cy="20" r="20"></circle>
                <g id="Shape-Copy-8" transform="translate(15.000000, 11.000000)" fill="#FFFFFF" sketch:type="MSShapeGroup">
                    <path d="M9.10019084,5.18272901 C9.10019084,4.46898855 8.61354962,3.86879771 7.95658397,3.68225191 L7.95658397,0.405534351 C7.95658397,0.178435115 7.77814885,0 7.55104962,0 C7.32395038,0 7.14551527,0.178435115 7.14551527,0.405534351 L7.14551527,3.68225191 C6.48043893,3.86068702 5.98568702,4.46087786 5.98568702,5.18272901 C5.98568702,5.90458015 6.48043893,6.50477099 7.14551527,6.68320611 L7.14551527,12.9770992 L7.14551527,13.009542 C7.14551527,14.7614504 5.72614504,16.1808206 3.98234733,16.1808206 C2.23854962,16.1808206 0.819179389,14.7614504 0.819179389,13.0176527 C0.819179389,12.360687 1.02194656,11.7280534 1.39503817,11.2008588 L1.39503817,12.9770992 C1.39503817,13.2041985 1.57347328,13.3826336 1.80057252,13.3826336 C2.02767176,13.3826336 2.20610687,13.2041985 2.20610687,12.9770992 L2.20610687,10.2519084 L2.20610687,10.2275763 L2.1898855,9.38406489 L1.54103053,9.88692748 C0.559637405,10.6493321 8.8817842e-16,11.7929389 8.8817842e-16,13.0257634 C8.8817842e-16,15.2156489 1.78435115,17 3.97423664,17 C6.16412214,17 7.94847328,15.2156489 7.94847328,13.0176527 L7.94847328,12.9852099 L7.94847328,6.69131679 C8.61354962,6.49666031 9.10019084,5.89646947 9.10019084,5.18272901 L9.10019084,5.18272901 Z M7.58349237,5.92080153 L7.55104962,5.92080153 L7.51049618,5.92080153 C7.11307252,5.90458015 6.79675573,5.58015267 6.79675573,5.17461832 C6.79675573,4.80152672 7.08062977,4.48520992 7.44561069,4.4365458 C7.47805344,4.44465649 7.51049618,4.45276718 7.55104962,4.45276718 C7.58349237,4.45276718 7.61593511,4.44465649 7.64837786,4.4365458 C8.00524809,4.48520992 8.28101145,4.80152672 8.28101145,5.17461832 C8.28912214,5.58015267 7.97280534,5.90458015 7.58349237,5.92080153 L7.58349237,5.92080153 Z" id="Shape"></path>
                </g>
            </g>
        </g>
    </g>
</svg>