<?xml version="1.0" encoding="UTF-8" standalone="no"?>
<svg width="40px" height="40px" viewBox="0 0 40 40" version="1.1" xmlns="http://www.w3.org/2000/svg" xmlns:xlink="http://www.w3.org/1999/xlink" xmlns:sketch="http://www.bohemiancoding.com/sketch/ns">
    <!-- Generator: Sketch 3.3.2 (12043) - http://www.bohemiancoding.com/sketch -->
    <title>attitudedone</title>
    <desc>Created with Sketch.</desc>
    <defs></defs>
    <g id="Main-Attraction" stroke="none" stroke-width="1" fill="none" fill-rule="evenodd" sketch:type="MSPage">
        <g id="attitudedone" sketch:type="MSArtboardGroup" fill="#246DB4">
            <path d="M35.5153746,17.3346775 C35.9036868,16.056132 35.8724685,14.9957684 35.4534856,14.1846775 C35.0761272,13.4526775 34.4950281,13.0130411 33.9544581,12.6606775 C33.5743612,11.250132 32.5666116,10.0550411 30.9558552,9.5826775 C30.5155125,8.88449568 29.9941116,8.27576841 29.3330497,7.83340477 C28.6780125,7.39485932 27.8800281,7.15758659 27.0223455,7.14831386 C25.5194841,5.78249568 23.8720326,5.05922295 22.2065072,5.00085932 C22.1479044,4.9986775 22.0909446,5.00140477 22.0323418,5.00085932 C21.1434409,4.99649568 20.2452293,5.19231386 19.3727591,5.55395023 C18.4373046,5.29158659 17.1217531,4.95995023 15.5323567,5.71704113 C14.5328224,5.54904113 13.521239,5.88776841 12.6772487,6.58649568 C12.0446667,6.51176841 11.4438508,6.62031386 10.9525728,6.86249568 C10.4065259,7.13195023 10.0001399,7.52031386 9.63811678,7.90595023 C7.86469651,8.4726775 6.75562423,9.29140477 6.08470396,10.2066775 C5.42692825,11.1034048 5.1558217,11.9717684 4.81187237,12.6814048 C4.17764733,13.159223 3.57792676,13.7734048 3.26081424,14.6554048 C2.92069875,15.601223 2.9124834,16.7674048 3.24054971,18.265223 C3.03516596,20.1415866 3.38459219,21.6688593 4.39069875,22.663223 C5.34477475,23.6068593 6.7408366,23.8959502 8.2929901,23.7677684 C9.46340366,24.5303139 10.9766712,24.5777684 12.6159074,24.3203139 C13.5048083,24.9284957 14.5328224,25.4215866 15.7475989,25.680132 C16.0926436,26.724132 16.3292457,27.810132 16.7745177,28.8508593 C17.2789402,30.0295866 18.1536011,31.1564957 19.6805609,31.765223 C20.5092159,32.0957684 21.2212129,32.8234048 21.6626511,33.4114048 C21.6648418,33.4146775 21.6703187,33.4190411 21.6730572,33.421223 C21.92609,33.8270411 22.0745139,34.1510411 22.4841861,34.4646775 C22.9141227,34.794132 23.4152591,34.8563139 23.9832136,34.8944957 C25.4767643,34.9888593 26.627461,34.3403139 27.4845959,33.6464957 L27.4845959,33.636132 C27.5229342,33.6050411 27.565654,33.5788593 27.5974201,33.5439502 C27.7332472,33.3955866 27.7940408,33.2226775 27.823616,33.0944957 C27.8827666,32.8370411 27.853739,32.6854048 27.8137576,32.4906775 C27.7326995,32.101223 27.5421034,31.5704957 27.0842345,30.5679502 C27.0590408,30.5123139 27.0382286,30.4528593 27.0124871,30.3944957 C27.4068239,30.3846775 27.7913023,30.3148593 28.1620885,30.2204957 C29.5017382,29.880132 30.6809148,29.1443139 31.4684931,28.5639502 C32.7396816,27.6274048 33.5979119,26.9057684 34.1176697,26.1399502 C34.7113657,25.2655866 34.9600169,23.6335866 34.5492494,22.6730411 C34.6921965,22.5579502 34.8247375,22.434132 34.9496108,22.2950411 C35.9885788,21.1370411 36.0844245,19.4090411 35.5153746,17.3346775 L35.5153746,17.3346775 Z M24.1069916,33.0743139 C23.7460639,33.049223 23.6359782,33.0274048 23.6140706,33.0230411 C23.6294059,33.031223 23.4870065,32.8484957 23.192897,32.3886775 C23.1819432,32.3695866 23.1649648,32.3548593 23.1523679,32.3374048 C22.5948195,31.5939502 21.6938694,30.6055866 20.3690072,30.0775866 C19.3042979,29.6526775 18.8743612,29.0559502 18.4794767,28.134132 C18.2132993,27.5128593 17.9827218,26.7268593 17.7302367,25.884132 C18.0621369,25.8830411 18.4022524,25.8579502 18.7571555,25.8230411 C19.3924759,26.0526775 20.1718388,26.4377684 21.2009484,26.4770411 C21.7469953,26.4983139 22.6369916,26.1748593 23.3265333,25.8530411 C23.2471183,26.9837684 23.4481205,28.129223 24.1069916,29.0134048 C24.2833478,29.2506775 24.47723,29.4617684 24.6919245,29.6374048 C24.9356466,30.2439502 25.1842979,30.8183139 25.4110415,31.3146775 C25.6936496,31.933223 25.8212613,32.2954048 25.9039625,32.5414048 C25.3661309,32.9166775 24.8496593,33.1195866 24.1069916,33.0743139 L24.1069916,33.0743139 Z M33.5645028,21.078132 C33.1115631,21.5826775 32.1262688,21.9094048 30.4941525,21.8450411 C30.3879007,21.1294048 30.3605162,20.7764957 30.3709223,20.7094048 C30.3758515,20.6755866 30.3632546,20.6990411 30.3911868,20.6586775 C30.4196667,20.6177684 30.5029156,20.5244957 30.6272412,20.382132 C30.8616525,20.1257684 30.8402926,19.7303139 30.5806876,19.4995866 C30.4645773,19.3954048 30.3123195,19.3386775 30.1551324,19.339223 C29.9683701,19.3397684 29.7920139,19.422132 29.6720698,19.5639502 C29.5559596,19.6964957 29.4584707,19.8017684 29.3538619,19.9528593 C29.2498008,20.1039502 29.1495736,20.317223 29.1178075,20.526132 C29.0531801,20.9417684 29.1397151,21.3044957 29.2508962,22.0495866 C29.2519916,22.0839502 29.2552777,22.1183139 29.2613023,22.1515866 C28.9797897,22.3414048 28.7678336,22.3768593 28.5016563,22.3463139 C28.1839961,22.309223 27.7836347,22.1297684 27.3515072,21.865223 C26.9829119,21.6394048 26.4450803,21.7157684 26.1602815,22.039223 C25.4417122,22.8546775 25.0084894,23.1323139 24.4043873,23.215223 C24.3950765,23.1977684 24.3846704,23.1808593 24.3731689,23.1644957 C24.1880497,22.812132 24.1075393,22.6315866 24.0861794,22.5197684 C24.0642718,22.4079502 24.0681056,22.2814048 24.1781913,21.906132 C24.281157,21.5766775 24.093847,21.2270411 23.7597561,21.1250411 C23.6923903,21.1048593 23.6222859,21.0955866 23.5516339,21.0983139 C23.272312,21.1048593 23.030233,21.2919502 22.9562949,21.558132 C22.8226585,22.014132 22.772271,22.3959502 22.8434707,22.765223 C22.9152181,23.1350411 23.0724052,23.4028593 23.2542382,23.7470411 C23.2608105,23.761223 23.2673828,23.7748593 23.2750505,23.7879502 C22.3927218,24.5455866 21.8072412,24.6775866 21.2721481,24.6574048 C20.7825132,24.6383139 20.2342755,24.4174048 19.5984074,24.1866775 C19.606075,24.1288593 19.606075,24.0704957 19.5984074,24.0126775 C19.4675095,22.9359502 19.5458291,22.4684957 19.6602964,22.2334048 C19.7736682,21.9977684 20.0020549,21.8406775 20.4402069,21.456132 C20.7102181,21.2368593 20.7491041,20.8430411 20.5272897,20.5763139 C20.3936533,20.4159502 20.1882695,20.3314048 19.9785043,20.3510411 C19.8361049,20.3619502 19.7030162,20.419223 19.5984074,20.5146775 C19.2287166,20.839223 18.7883739,21.115223 18.5101473,21.691223 C18.2428746,22.2448593 18.2017979,22.9474048 18.3255758,24.043223 C16.1287911,24.2155866 14.7409446,23.6254048 13.4681131,22.693223 C13.47359,22.6664957 13.4768761,22.639223 13.4785192,22.6114048 C13.5409558,22.0457684 13.6515892,21.9175866 13.7452442,21.834132 C13.8394469,21.751223 14.068929,21.6628593 14.4747673,21.487223 C14.7946183,21.348132 14.9403038,20.9799502 14.7995475,20.6635866 C14.6960341,20.4284957 14.4566935,20.2806775 14.1970885,20.2899502 C14.1193165,20.293223 14.0426399,20.310132 13.9708925,20.341223 C13.6532323,20.479223 13.2786123,20.5626775 12.9034446,20.8937684 C12.528277,21.2237684 12.3053672,21.7550411 12.2254044,22.4788593 C12.2204752,22.5023139 12.2177367,22.5263139 12.215546,22.5503139 C10.7537613,22.7597684 9.72191335,22.6070411 9.14519576,22.141223 C8.95240888,21.9857684 8.69389919,21.906132 8.446891,21.9366775 C7.06397371,22.1117684 6.19259889,21.8663139 5.69474867,21.3737684 C5.19689845,20.8823139 4.88526283,19.9594048 5.08900351,18.3263139 C5.09393272,18.2875866 5.09940962,18.2526775 5.09940962,18.2139502 C5.20730456,18.1768593 5.31410411,18.1523139 5.40721141,18.1419502 C5.68653332,18.1119502 5.94504301,18.162132 6.37278891,18.4283139 C6.65649234,18.630132 7.05192453,18.5663139 7.2562129,18.2864957 C7.46050128,18.006132 7.39587386,17.6155866 7.11217043,17.4137684 C7.0919059,17.3995866 7.07164137,17.3864957 7.05028146,17.3750411 C6.60610486,17.0979502 6.15152214,16.9315866 5.70570247,16.8944957 C5.5561831,16.8819502 5.41049755,16.878132 5.26371663,16.8944957 C5.13500948,16.908132 5.00630232,16.944132 4.88416745,16.9757684 C4.79215553,16.1919502 4.8595214,15.6497684 4.99699159,15.2679502 C5.13993869,14.8697684 5.36339621,14.5817684 5.70570247,14.2964957 C6.05896253,14.5828593 6.62198787,15.0399502 7.43037833,15.2679502 C7.98190217,15.4239502 8.6385825,15.4648593 9.39220396,15.319223 C9.43656685,15.3203139 9.48147743,15.3164957 9.52529264,15.3088593 C9.63592602,15.2875866 9.74327326,15.2564957 9.84404822,15.2166775 C9.84678667,15.216132 9.84076208,15.2079502 9.84404822,15.2068593 C10.0576473,15.1463139 10.284391,15.0743139 10.5111347,14.9815866 C11.5205274,14.5708593 12.1750169,14.6199502 12.6367196,14.7770411 C13.0978746,14.934132 13.3897934,15.2248593 13.5814849,15.4517684 C13.8043947,15.7179502 14.2036607,15.7555866 14.4731242,15.5346775 C14.7425877,15.3148593 14.7803783,14.9199502 14.5569208,14.6543139 C14.295125,14.3434048 13.8115147,13.8508593 13.0474871,13.5906775 C12.473508,13.3954048 11.7450803,13.3419502 10.90109,13.5394048 C10.9350467,13.0866775 10.89397,12.6934048 10.90109,12.588132 C10.9295698,12.2450411 10.6699648,11.9428593 10.3221816,11.9150411 C10.2964402,11.9128593 10.2701511,11.9123139 10.2444096,11.9134048 C9.916891,11.9270411 9.65454748,12.1839502 9.63811678,12.5068593 C9.60799383,12.931223 9.67755046,13.3408593 9.62825836,13.6523139 C9.60306462,13.8077684 9.54665255,13.9048593 9.5050281,13.9588593 C9.48531126,13.9839502 9.47107132,14.0128593 9.44313913,14.0308593 C8.73497594,14.2277684 8.20974122,14.1830411 7.77980456,14.0614048 C7.250736,13.9119502 6.85968533,13.6239502 6.52723749,13.356132 C6.91226357,12.552132 7.15653332,11.8490411 7.5744208,11.280132 C8.04817266,10.6343139 8.75195433,10.0479502 10.4081689,9.56195023 C10.5713806,9.51395023 10.7159707,9.42122295 10.8293426,9.29631386 C11.1721965,8.91613204 11.4986198,8.63413204 11.7741078,8.49831386 C11.9926362,8.39031386 12.1793984,8.33904113 12.4620065,8.38540477 C12.6641041,8.7966775 12.9653336,9.2286775 13.2019357,9.72558659 C13.2035788,9.74904113 13.2074126,9.77304113 13.2117941,9.79704113 C13.2556093,10.009223 13.2090557,10.0686775 13.0573455,10.2164957 C12.9061831,10.3637684 12.6285043,10.5083139 12.3902591,10.6054048 C12.067122,10.7395866 11.9159596,11.107223 12.0517867,11.4268593 C12.1876138,11.7459502 12.560043,11.8954048 12.8831801,11.7606775 C13.192625,11.6346775 13.5979156,11.4508593 13.9511756,11.106132 C14.1560117,11.281223 14.3822077,11.3935866 14.5979976,11.4437684 C15.0597002,11.551223 15.4660862,11.4874048 15.6150579,11.4846775 C15.9639365,11.4977684 16.2574983,11.2288593 16.2711905,10.884132 C16.2843351,10.5394048 16.0115855,10.249223 15.6627069,10.236132 C15.639704,10.2350411 15.6172487,10.2355866 15.5947934,10.237223 C15.2995885,10.243223 15.046008,10.2617684 14.8959409,10.2268593 C14.7464215,10.1919502 14.7179417,10.2257684 14.639622,9.95085932 C14.4112353,9.14631386 13.9747263,8.46831386 13.7359335,8.08922295 C14.38166,7.46576841 14.8165259,7.3626775 15.3790035,7.5366775 C15.6205348,7.61195023 15.8878075,7.5786775 16.1079789,7.45485932 C17.2411496,6.8106775 17.7855534,6.95904113 18.5928485,7.20940477 C18.5682025,7.51595023 18.5873716,7.86885932 18.6339253,8.28340477 C18.7286756,9.12231386 18.9351548,10.1777684 19.2089998,11.1366775 C19.2484335,11.275223 19.1996891,11.7584957 18.9625393,12.1184957 C18.7259372,12.4784957 18.3995139,12.7310411 17.8638731,12.732132 C17.5144469,12.7135866 17.2170512,12.9775866 17.1978821,13.3217684 C17.1792606,13.6664957 17.4465333,13.9610411 17.7954119,13.9795866 C17.8184148,13.9806775 17.8414178,13.9806775 17.8638731,13.9795866 C18.8469767,13.9774048 19.6126473,13.429223 20.0310825,12.793223 C20.3432658,12.3175866 20.5135974,11.8054048 20.5031913,11.3003139 C20.691049,11.3504957 20.8728821,11.3897684 21.0267829,11.4126775 C21.372923,11.4634048 21.6944171,11.227223 21.7458999,10.885223 C21.7968351,10.5437684 21.5580423,10.2257684 21.2119022,10.1755866 C20.9813247,10.1406775 20.652163,10.057223 20.4314439,9.95031386 C20.2107248,9.84340477 20.1942941,9.77304113 20.1953895,9.7866775 C20.1871742,9.70431386 20.1625281,9.62413204 20.1236421,9.55158659 C20.0184856,9.04704113 19.9335937,8.54958659 19.88704,8.14049568 C19.848154,7.79249568 19.848154,7.52522295 19.8558217,7.3626775 C19.8788247,7.33758659 19.8996369,7.30976841 19.9182584,7.28140477 C20.7052889,6.92195023 21.4468612,6.73758659 22.1774797,6.74904113 C23.3856838,6.7686775 24.5648604,7.33704113 25.8426212,8.5386775 C25.8355013,8.55231386 25.828929,8.56595023 25.8223567,8.57958659 C25.6903634,8.89431386 25.242353,9.78940477 24.3539998,10.1957684 C24.0363396,10.3414048 23.8988694,10.7139502 24.0467457,11.0275866 C24.1935266,11.3406775 24.5703373,11.4770411 24.8879976,11.3308593 C26.2501026,10.7079502 26.8180572,9.47631386 26.9927703,9.0606775 C27.0059148,9.02740477 27.016321,8.99304113 27.0234409,8.95813204 C27.5284111,8.95922295 27.9189141,9.09395023 28.2973679,9.34704113 C28.6402218,9.5766775 28.980885,9.92195023 29.2930683,10.380132 C29.2875914,10.3888593 29.26185,10.4308593 29.26185,10.4308593 C29.2382993,10.4630411 29.2174871,10.4974048 29.2005087,10.5328593 C29.2005087,10.5328593 29.1320475,10.6894048 29.0668724,10.8295866 C29.0285341,10.9064957 28.9863619,10.9883139 28.9540482,11.0646775 C28.8417718,11.2779502 28.7010154,11.5157684 28.5328746,11.7295866 C28.3340631,11.983223 28.1100579,12.1637684 27.9578001,12.2204957 C27.8055423,12.2777684 27.7359856,12.301223 27.4851436,12.1184957 C27.2025356,11.9139502 26.8054603,11.9744957 26.5984335,12.2548593 C26.3914066,12.534132 26.4527479,12.9263139 26.7359037,13.1308593 C27.2605907,13.5148593 27.9123418,13.5835866 28.410192,13.3964957 C28.6035266,13.3239502 28.7694767,13.2137684 28.9228299,13.1003139 C29.0537278,13.428132 29.2361086,13.7543139 29.4573753,14.082132 C29.6320885,14.3810411 30.0187576,14.4830411 30.3216302,14.310132 C30.6239551,14.137223 30.7269208,13.7554048 30.5522077,13.4564957 C30.5374201,13.4324957 30.521537,13.4090411 30.5045587,13.3866775 C30.1797785,12.9044957 30.0253299,12.5597684 29.9908254,12.2723139 C29.9585117,11.9968593 30.0143761,11.7143139 30.2580981,11.2806775 C31.6048679,11.5746775 32.0249461,12.1894048 32.2396406,13.3866775 C32.2850989,13.6343139 32.435166,13.8557684 32.6504081,13.9904957 C33.2287688,14.353223 33.6378932,14.658132 33.8208217,15.013223 C33.977461,15.3154048 34.0639961,15.7523139 33.8416339,16.578132 C33.5798381,16.7434048 33.1028001,16.8159502 32.6295959,16.7826775 C32.3727293,16.764132 32.1229826,16.7215866 31.9307435,16.6697684 C31.7395996,16.6179502 31.5818649,16.5279502 31.6229417,16.5568593 C31.3370475,16.3555866 30.9399722,16.4204957 30.7356838,16.7035866 C30.5313955,16.986132 30.597666,17.3783139 30.8835601,17.5795866 C31.1092084,17.7388593 31.3178783,17.8026775 31.5917233,17.8763139 C31.866116,17.9504957 32.1903485,18.0055866 32.5370363,18.030132 C32.9248008,18.0574048 33.3530944,18.0514048 33.7693388,17.9483139 C34.2074908,19.6217684 34.0218239,20.5675866 33.5645028,21.078132 L33.5645028,21.078132 Z" id="attitude-icon-copy-2" sketch:type="MSShapeGroup"></path>
        </g>
    </g>
</svg>