<?xml version="1.0" encoding="UTF-8" standalone="no"?>
<svg width="40px" height="40px" viewBox="0 0 40 40" version="1.1" xmlns="http://www.w3.org/2000/svg" xmlns:xlink="http://www.w3.org/1999/xlink" xmlns:sketch="http://www.bohemiancoding.com/sketch/ns">
    <!-- Generator: Sketch 3.3.2 (12043) - http://www.bohemiancoding.com/sketch -->
    <title>finance</title>
    <desc>Created with Sketch.</desc>
    <defs></defs>
    <g id="Main-Attraction" stroke="none" stroke-width="1" fill="none" fill-rule="evenodd" sketch:type="MSPage">
        <g id="finance" sketch:type="MSArtboardGroup" fill="#000000" opacity="0.3">
            <path d="M32.6229508,31.704918 L8.68203279,31.704918 L16.8226885,20.0858361 L19.7117377,23.1740984 C19.8985574,23.3742295 20.1657049,23.4830164 20.4383607,23.4632787 C20.7119344,23.4467541 20.9634754,23.3085902 21.1241311,23.0873443 L27.756,13.9740328 L27.7045902,16.9039344 C27.6963279,17.4111475 28.0998033,17.8293115 28.6065574,17.8380328 L28.623082,17.8380328 C29.1224918,17.8380328 29.5319344,17.4377705 29.5406557,16.9365246 L29.6393443,11.291541 C29.6443934,11.0055738 29.5158689,10.7338361 29.2918689,10.5561967 C29.0678689,10.3785574 28.7731803,10.3156721 28.4968525,10.3854426 L22.8518689,11.8111475 C22.3602623,11.935082 22.0619016,12.4344918 22.1862951,12.9256393 C22.3106885,13.4177049 22.8114754,13.7156066 23.3007869,13.5912131 L26.3183607,12.8292459 L20.2933115,21.1085246 L17.3904918,18.0055738 C17.201377,17.8036066 16.9300984,17.6943607 16.6556066,17.7168525 C16.3792787,17.7365902 16.1272787,17.8793443 15.968,18.1060984 L7.83606557,29.7127869 L7.83606557,6.91803279 C7.83606557,6.41127869 7.4252459,6 6.91803279,6 C6.41081967,6 6,6.41127869 6,6.91803279 L6,32.6229508 C6,32.6436066 6.00459016,32.6624262 6.00596721,32.682623 C6.00872131,32.7202623 6.01055738,32.7574426 6.01744262,32.7941639 C6.02295082,32.824 6.03259016,32.850623 6.04085246,32.879082 C6.04911475,32.908 6.056,32.936918 6.06747541,32.964918 C6.0784918,32.993377 6.09363934,33.019082 6.10786885,33.0461639 C6.12163934,33.0723279 6.13357377,33.0980328 6.14963934,33.1228197 C6.16662295,33.1494426 6.18727869,33.1723934 6.20655738,33.1967213 C6.22445902,33.2187541 6.24052459,33.2417049 6.2602623,33.2619016 C6.28780328,33.2894426 6.31809836,33.3133115 6.34839344,33.3376393 C6.36354098,33.3495738 6.37547541,33.3633443 6.39154098,33.3748197 C6.39291803,33.3757377 6.3947541,33.3761967 6.39613115,33.3771148 C6.46452459,33.4243934 6.54072131,33.4597377 6.62059016,33.4872787 C6.63895082,33.4941639 6.65685246,33.4992131 6.67567213,33.5042623 C6.75232787,33.5258361 6.8317377,33.5405246 6.91527869,33.5405246 C6.91619672,33.5405246 6.91665574,33.5409836 6.91711475,33.5409836 L6.91757377,33.5409836 L6.91803279,33.5409836 L32.6229508,33.5409836 C33.1297049,33.5409836 33.5409836,33.1301639 33.5409836,32.6229508 C33.5409836,32.1161967 33.1297049,31.704918 32.6229508,31.704918" id="finance-icon-copy" sketch:type="MSShapeGroup"></path>
        </g>
    </g>
</svg>