<?xml version="1.0" encoding="UTF-8" standalone="no"?>
<svg width="78px" height="78px" viewBox="0 0 78 78" version="1.1" xmlns="http://www.w3.org/2000/svg" xmlns:xlink="http://www.w3.org/1999/xlink" xmlns:sketch="http://www.bohemiancoding.com/sketch/ns">
    <!-- Generator: Sketch 3.3.2 (12043) - http://www.bohemiancoding.com/sketch -->
    <title>Group Copy 12 + finance icon copy</title>
    <desc>Created with Sketch.</desc>
    <defs></defs>
    <g id="Main-Attraction" stroke="none" stroke-width="1" fill="none" fill-rule="evenodd" sketch:type="MSPage">
        <g id="Artboard-42" sketch:type="MSArtboardGroup" transform="translate(-245.000000, -137.000000)">
            <g id="Group-Copy-12-+-finance-icon-copy" sketch:type="MSLayerGroup" transform="translate(246.000000, 138.000000)">
                <g id="Group-Copy-12" transform="translate(0.480218, 0.921074)" sketch:type="MSShapeGroup">
                    <path d="M51.7005803,34.633302 C52.0660253,33.4300487 52.0366453,32.4321287 51.6423359,31.668802 C51.2871997,30.9799087 50.7403209,30.566162 50.2315844,30.2345487 C49.873871,28.9070687 48.9254667,27.7823554 47.409566,27.3378087 C46.9951545,26.680742 46.5044583,26.107862 45.8823257,25.6915487 C45.2658628,25.2788287 44.5148709,25.0555287 43.7076963,25.046802 C42.2933367,23.7614154 40.7429018,23.0807354 39.1754574,23.0258087 C39.1203056,23.0237554 39.0667001,23.026322 39.0115484,23.0258087 C38.1749938,23.021702 37.3296769,23.2059887 36.5085855,23.5463287 C35.6282188,23.2994154 34.3901388,22.9873087 32.8943402,23.6998154 C31.9536673,23.5417087 31.0016549,23.8604887 30.2073662,24.5180687 C29.6120363,24.447742 29.0466018,24.5498954 28.5842546,24.7778154 C28.0703638,25.031402 27.6879094,25.3968954 27.3472055,25.759822 C25.6782199,26.2931754 24.6344597,27.0636887 24.0030492,27.925062 C23.3840091,28.768982 23.1288678,29.5862087 22.8051732,30.2540554 C22.208297,30.7037354 21.6438933,31.2817487 21.3454552,32.1118087 C21.0253687,33.0019287 21.0176372,34.0994354 21.326384,35.5090487 C21.1330951,37.2749154 21.461944,38.7122487 22.408802,39.6480554 C23.3066936,40.536122 24.6205429,40.8081887 26.0812918,40.6875554 C27.182781,41.4051954 28.6069339,41.4498554 30.1496373,41.207562 C30.9861918,41.7799287 31.9536673,42.243982 33.096907,42.487302 C33.4216324,43.469822 33.6443012,44.4918687 34.0633516,45.4713087 C34.5380693,46.580622 35.3612224,47.6411687 36.7982612,48.2140487 C37.5781176,48.5251287 38.2481859,49.2099154 38.6636283,49.7632887 C38.66569,49.7663687 38.6708444,49.7704754 38.6734216,49.7725287 C38.9115535,50.1544487 39.051237,50.4593687 39.436784,50.7545354 C39.8414022,51.0645887 40.3130272,51.1231087 40.8475355,51.159042 C42.2531326,51.2478487 43.3360661,50.6374954 44.1427253,49.9845354 L44.1427253,49.974782 C44.1788059,49.945522 44.21901,49.920882 44.2489053,49.8880287 C44.3767337,49.748402 44.4339473,49.5856754 44.4617809,49.465042 C44.5174481,49.2227487 44.4901299,49.080042 44.452503,48.896782 C44.3762183,48.530262 44.1968462,48.0307887 43.7659407,47.087282 C43.7422306,47.034922 43.722644,46.9789687 43.6984184,46.924042 C44.0695332,46.914802 44.4313701,46.8490954 44.780321,46.7602887 C46.0410803,46.4399687 47.1508165,45.747482 47.8920152,45.2012954 C49.0883448,44.319902 49.8960348,43.640762 50.3851847,42.920042 C50.9439186,42.0971687 51.177927,40.5612754 50.7913492,39.6572954 C50.9258783,39.548982 51.0506141,39.4324554 51.1681337,39.3015554 C52.145918,38.2117487 52.2361195,36.5855087 51.7005803,34.633302 L51.7005803,34.633302 Z M40.9640243,49.4460487 C40.6243512,49.4224354 40.5207484,49.401902 40.5001309,49.3977954 C40.5145631,49.4054954 40.3805494,49.2335287 40.1037597,48.8007887 C40.0934509,48.782822 40.0774724,48.768962 40.0656173,48.7525354 C39.5409023,48.052862 38.6930082,47.122702 37.4461657,46.6257954 C36.4441559,46.2259087 36.0395377,45.664322 35.6679075,44.7967887 C35.417405,44.212102 35.200406,43.4723887 34.9627895,42.6792887 C35.2751444,42.678262 35.5952309,42.6546487 35.9292341,42.6217954 C36.5271412,42.8379087 37.2606083,43.200322 38.2291147,43.237282 C38.7430056,43.257302 39.580591,42.9528954 40.2295264,42.6500287 C40.154788,43.7141687 40.3439534,44.7921687 40.9640243,45.624282 C41.1299951,45.847582 41.3124598,46.046242 41.5145112,46.2115354 C41.7438807,46.782362 41.9778892,47.322902 42.1912802,47.7900354 C42.4572458,48.3721554 42.5773426,48.7130087 42.6551736,48.944522 C42.1490143,49.2976954 41.6629571,49.4886554 40.9640243,49.4460487 L40.9640243,49.4460487 Z M49.8645932,38.1563087 C49.4383266,38.631142 48.5110552,38.9386287 46.9750525,38.8780554 C46.8750576,38.204562 46.8492858,37.8724354 46.8590791,37.8092954 C46.863718,37.7774687 46.851863,37.799542 46.8781503,37.7615554 C46.904953,37.7230554 46.9832994,37.6352754 47.1003037,37.5012954 C47.3209108,37.2600287 47.3008087,36.887862 47.0564915,36.670722 C46.9472188,36.5726754 46.8039273,36.5192887 46.6559969,36.519802 C46.4802328,36.5203154 46.314262,36.5978287 46.2013813,36.7312954 C46.0921086,36.8560354 46.0003608,36.9551087 45.9019123,37.097302 C45.8039792,37.2394954 45.7096542,37.4402087 45.6797589,37.6368154 C45.6189373,38.0279754 45.7003764,38.369342 45.8050101,39.0705554 C45.806041,39.1028954 45.8091336,39.1352354 45.8148034,39.1665487 C45.5498687,39.3451887 45.3503945,39.3785554 45.0998921,39.3498087 C44.8009385,39.314902 44.424154,39.1460154 44.017474,38.8970487 C43.6705848,38.6845287 43.1644255,38.7563954 42.8963982,39.060802 C42.2201447,39.8282354 41.8124339,40.089522 41.2439067,40.1675487 C41.2351443,40.151122 41.2253509,40.1352087 41.2145268,40.1198087 C41.040309,39.7881954 40.9645397,39.618282 40.9444377,39.5130487 C40.9238202,39.4078154 40.9274283,39.288722 41.0310311,38.9355487 C41.1279333,38.6254954 40.9516538,38.2964487 40.6372372,38.2004554 C40.5738384,38.181462 40.5078624,38.1727354 40.441371,38.175302 C40.1784981,38.181462 39.9506749,38.3575354 39.8810908,38.608042 C39.7553242,39.0371887 39.707904,39.396522 39.7749108,39.7440487 C39.8424331,40.0920887 39.9903635,40.3441354 40.1614887,40.6680487 C40.1676739,40.6813954 40.1738591,40.6942287 40.1810753,40.7065487 C39.350706,41.4195687 38.7997037,41.5437954 38.2961216,41.524802 C37.8353208,41.5068354 37.3193682,41.2989354 36.7209456,41.0817954 C36.7281617,41.027382 36.7281617,40.9724554 36.7209456,40.918042 C36.5977561,39.904722 36.6714637,39.4647954 36.77919,39.2435487 C36.8858855,39.0217887 37.1008228,38.8739487 37.5131725,38.5120487 C37.7672831,38.3056887 37.8038791,37.935062 37.595127,37.684042 C37.4693604,37.533122 37.2760714,37.4535554 37.078659,37.4720354 C36.9446453,37.482302 36.8193941,37.536202 36.7209456,37.6260354 C36.3730255,37.9314687 35.9586141,38.1912154 35.696772,38.7332954 C35.4452387,39.2543287 35.4065809,39.915502 35.5230697,40.9467887 C33.4556512,41.109002 32.1495335,40.5535754 30.9516575,39.6762887 C30.9568119,39.6511354 30.9599045,39.6254687 30.9614508,39.5992887 C31.0202106,39.066962 31.124329,38.9463287 31.2124687,38.8677887 C31.3011239,38.789762 31.5170921,38.706602 31.899031,38.5413087 C32.2000463,38.4104087 32.3371526,38.0639087 32.2046852,37.7661754 C32.1072676,37.5449287 31.8820216,37.4058154 31.6377044,37.414542 C31.5645123,37.417622 31.4923511,37.4335354 31.4248288,37.4627954 C31.1258753,37.5926687 30.7733162,37.6712087 30.4202418,37.982802 C30.0671673,38.2933687 29.8573844,38.7933554 29.7821306,39.4745487 C29.7774917,39.496622 29.7749145,39.5192087 29.7728527,39.5417954 C28.3971509,39.7389154 27.4260673,39.595182 26.883312,39.1567954 C26.7018781,39.0104954 26.4585918,38.9355487 26.2261296,38.9642954 C24.9246508,39.1290754 24.1045903,38.8980754 23.6360579,38.4345354 C23.1675255,37.972022 22.8742418,37.103462 23.0659844,35.566542 C23.0706234,35.5300954 23.0757777,35.497242 23.0757777,35.4607954 C23.1773188,35.4258887 23.2778291,35.4027887 23.3654534,35.3930354 C23.6283264,35.364802 23.8716127,35.4120287 24.2741691,35.6625354 C24.5411656,35.8524687 24.9133112,35.7924087 25.1055693,35.5290687 C25.2978273,35.2652154 25.2370057,34.8976687 24.9700093,34.7077354 C24.9509381,34.6943887 24.9318669,34.6820687 24.9117649,34.6712887 C24.4937453,34.4105154 24.0659325,34.2539487 23.6463667,34.219042 C23.5056523,34.2072354 23.368546,34.203642 23.2304089,34.219042 C23.1092811,34.2318754 22.9881534,34.2657554 22.8732109,34.2955287 C22.7866175,33.5578687 22.8500162,33.0476154 22.979391,32.688282 C23.1139201,32.3135487 23.3242184,32.0425087 23.6463667,31.7740354 C23.9788236,32.0435354 24.508693,32.4737087 25.2694783,32.688282 C25.7885235,32.8350954 26.4065326,32.8735954 27.1157742,32.7365354 C27.1575246,32.737562 27.1997904,32.7339687 27.2410254,32.726782 C27.3451437,32.706762 27.4461694,32.677502 27.5410098,32.6400287 C27.543587,32.6395154 27.5379172,32.6318154 27.5410098,32.6307887 C27.7420303,32.5738087 27.9554213,32.5060487 28.1688123,32.418782 C29.118763,32.032242 29.7347104,32.078442 30.1692239,32.226282 C30.603222,32.374122 30.87795,32.6477287 31.058353,32.8612754 C31.2681359,33.111782 31.6438896,33.147202 31.8974847,32.939302 C32.1510798,32.7324287 32.1866449,32.3607754 31.9763466,32.110782 C31.7299676,31.818182 31.2748366,31.354642 30.5558018,31.109782 C30.0156236,30.9260087 29.3300922,30.875702 28.5358035,31.0615287 C28.5677606,30.635462 28.5291029,30.2653487 28.5358035,30.1662754 C28.5626063,29.8433887 28.3182891,29.559002 27.9909865,29.532822 C27.9667609,29.5307687 27.9420199,29.5302554 27.9177944,29.531282 C27.609563,29.5441154 27.3626686,29.7858954 27.3472055,30.0897887 C27.3188564,30.489162 27.3843169,30.8746754 27.3379276,31.1677887 C27.3142175,31.3140887 27.2611275,31.405462 27.2219542,31.456282 C27.2033985,31.4798954 27.1899971,31.507102 27.1637098,31.524042 C26.4972496,31.7093554 26.0029453,31.667262 25.5983272,31.5527887 C25.1004149,31.4121354 24.7323928,31.1410954 24.4195224,30.8890487 C24.7818747,30.1323954 25.0117597,29.4707087 25.4050382,28.935302 C25.8508914,28.3275154 26.5132281,27.775682 28.0719101,27.318302 C28.2255104,27.2731287 28.3615858,27.185862 28.4682813,27.0683087 C28.7909449,26.7105154 29.0981455,26.445122 29.3574104,26.317302 C29.5630698,26.215662 29.7388339,26.1674087 30.0047994,26.211042 C30.1949958,26.5980954 30.4784862,27.0046554 30.701155,27.472302 C30.7027014,27.4943754 30.7063094,27.516962 30.7104329,27.5395487 C30.7516679,27.7392354 30.7078557,27.7951887 30.5650796,27.934302 C30.422819,28.072902 30.1614923,28.2089354 29.9372772,28.3003087 C29.6331693,28.4265887 29.4909086,28.7725754 29.618737,29.0733887 C29.7465654,29.3736887 30.0970627,29.514342 30.4011706,29.3875487 C30.6923926,29.2689687 31.0738161,29.0959754 31.4062731,28.7715487 C31.5990466,28.9363287 31.8119221,29.0420754 32.0150044,29.089302 C32.4495179,29.1904287 32.8319723,29.1303687 32.9721712,29.127802 C33.3005046,29.140122 33.576779,28.8870487 33.5896649,28.562622 C33.6020354,28.2381954 33.3453477,27.965102 33.0170142,27.952782 C32.9953658,27.9517554 32.9742329,27.9522687 32.9531,27.9538087 C32.6752794,27.9594554 32.436632,27.9769087 32.2954022,27.9440554 C32.1546878,27.911202 32.1278851,27.9430287 32.0541776,27.6843087 C31.8392403,26.927142 31.4284369,26.2890687 31.2037063,25.932302 C31.8114067,25.345562 32.2206638,25.248542 32.7500178,25.4122954 C32.9773255,25.4831354 33.2288589,25.451822 33.4360646,25.3352954 C34.5025041,24.7290487 35.0148486,24.8686754 35.774603,25.1042954 C35.7514083,25.3927887 35.7694486,25.7249154 35.8132608,26.1150487 C35.9024314,26.9045554 36.0967512,27.8978554 36.3544698,28.8002954 C36.3915813,28.930682 36.3457074,29.3854954 36.1225231,29.7242954 C35.8998542,30.0630954 35.5926537,30.3007687 35.0885561,30.3017954 C34.7597072,30.284342 34.4798249,30.5327954 34.4617846,30.8567087 C34.4442597,31.1811354 34.695793,31.4583354 35.0241265,31.4757887 C35.0457749,31.4768154 35.0674232,31.4768154 35.0885561,31.4757887 C36.0137658,31.4737354 36.734347,30.9578354 37.128141,30.3592887 C37.4219402,29.911662 37.5822411,29.429642 37.5724478,28.9542954 C37.7492428,29.001522 37.9203679,29.038482 38.0652057,29.060042 C38.390962,29.107782 38.6935236,28.8855087 38.7419747,28.5636487 C38.7899104,28.242302 38.5651798,27.9430287 38.2394235,27.895802 C38.0224244,27.8629487 37.7126467,27.7844087 37.5049255,27.6837954 C37.2972044,27.583182 37.2817412,27.516962 37.2827721,27.5297954 C37.2750406,27.452282 37.2518459,27.376822 37.2152499,27.3085487 C37.1162859,26.8337154 37.0363932,26.3655554 36.992581,25.9805554 C36.955985,25.6530487 36.955985,25.4015154 36.9632011,25.248542 C36.9848494,25.2249287 37.0044361,25.1987487 37.0219609,25.1720554 C37.7626441,24.8337687 38.460546,24.660262 39.1481392,24.671042 C40.2851936,24.689522 41.3949298,25.2244154 42.5974447,26.3552887 C42.590744,26.368122 42.5845587,26.3809554 42.5783735,26.3937887 C42.4541531,26.689982 42.0325255,27.532362 41.1964865,27.9147954 C40.8975329,28.0518554 40.7681582,28.402462 40.9073262,28.6976287 C41.0454634,28.992282 41.4000841,29.1206154 41.6990377,28.983042 C42.9809299,28.3968154 43.5154382,27.2377087 43.6798627,26.8465487 C43.6922332,26.8152354 43.7020265,26.7828954 43.7087272,26.750042 C44.1839602,26.7510687 44.5514669,26.877862 44.907634,27.1160487 C45.2302977,27.332162 45.5508996,27.657102 45.8446988,28.088302 C45.8395444,28.0965154 45.8153188,28.136042 45.8153188,28.136042 C45.793155,28.1663287 45.7735684,28.1986687 45.7575899,28.2320354 C45.7575899,28.2320354 45.6931602,28.379362 45.6318232,28.5112887 C45.5957426,28.5836687 45.556054,28.6606687 45.5256432,28.7325354 C45.4199785,28.9332487 45.2875112,29.157062 45.129272,29.3582887 C44.9421683,29.5969887 44.7313545,29.766902 44.588063,29.8202887 C44.4447714,29.8741887 44.3793109,29.896262 44.1432407,29.7242954 C43.8772751,29.5317954 43.5035832,29.5887754 43.3087479,29.8526287 C43.1139127,30.1154554 43.1716417,30.484542 43.4381227,30.677042 C43.9319115,31.0384287 44.5452817,31.1031087 45.0138141,30.9270354 C45.1957634,30.858762 45.3519408,30.7550687 45.4962632,30.6482954 C45.6194527,30.9568087 45.7910933,31.263782 45.9993299,31.5722954 C46.1637544,31.853602 46.527653,31.9495954 46.8126897,31.7868687 C47.0972111,31.624142 47.1941132,31.2648087 47.0296888,30.983502 C47.015772,30.9609154 47.0008243,30.938842 46.9848458,30.9177954 C46.6791915,30.4640087 46.5338382,30.139582 46.5013657,29.8690554 C46.4709549,29.609822 46.5235295,29.3439154 46.752899,28.9358154 C48.020359,29.212502 48.4156993,29.7910287 48.6177507,30.9177954 C48.660532,31.1508487 48.8017617,31.359262 49.0043285,31.4860554 C49.5486302,31.827422 49.9336617,32.1143754 50.1058178,32.4485554 C50.2532328,32.732942 50.3346719,33.144122 50.1254044,33.9213087 C49.8790254,34.0768487 49.4300796,34.145122 48.9847419,34.1138087 C48.7430019,34.0963554 48.5079626,34.0563154 48.3270441,34.0075487 C48.1471565,33.958782 47.9987106,33.874082 48.0373684,33.9012887 C47.7683102,33.7118687 47.3946183,33.7729554 47.2023602,34.0393754 C47.0101022,34.305282 47.0724701,34.6743687 47.3415283,34.8637887 C47.5538884,35.013682 47.7502699,35.073742 48.0079885,35.143042 C48.2662225,35.2128554 48.5713613,35.264702 48.8976331,35.287802 C49.2625626,35.3134687 49.6656344,35.307822 50.0573667,35.210802 C50.4697164,36.7857087 50.2949832,37.6758287 49.8645932,38.1563087 L49.8645932,38.1563087 Z" id="attitude-icon-copy-3" opacity="0.3" fill="#000000"></path>
                    <circle id="Oval-20-Copy-7" stroke="#BD4E86" stroke-width="3" cx="37.8511449" cy="36.9228113" r="36.9122733"></circle>
                    <ellipse id="Oval-20-Copy-17" fill="#BD4E86" cx="37.8511449" cy="36.9228113" rx="32.6538393" ry="32.6538393"></ellipse>
                    <g id="Oval-20-Copy-12-+-Type-something-Copy-Copy-Copy-Copy-Copy" transform="translate(10.000000, 8.000000)">
                        <path d="M27.8511449,54.3802482 C13.8340209,54.3802482 2.47089671,43.017124 2.47089671,29 C2.47089671,14.982876 13.8340209,3.6197518 27.8511449,3.6197518 C41.8682689,3.6197518 53.2313931,14.982876 53.2313931,29 C53.2313931,43.017124 41.8682689,54.3802482 27.8511449,54.3802482 L27.8511449,54.3802482 Z" id="Oval-20-Copy-12"></path>
                        <path d="M4.20049955,19.6336539 C4.52165448,18.6444828 4.08629509,17.7671646 3.14943591,17.4629938 C2.22208798,17.161911 1.34964901,17.6146254 1.02695006,18.6085521 L0.644034569,19.7879484 L3.81604004,20.8178058 L4.20049955,19.6336539 Z M3.70912561,19.4793761 L3.50685976,20.1023636 L1.31451415,19.3905731 L1.51832401,18.7628299 C1.7468381,18.0589966 2.35543352,17.8360356 2.96415421,18.0336694 C3.56811927,18.2297592 3.93300765,18.7898096 3.70912561,19.4793761 L3.70912561,19.4793761 Z M6.893188,14.3820932 L5.35094269,14.4819901 C5.48597836,14.0946719 5.3850528,13.597139 4.86575973,13.317077 C4.32006193,13.0227746 3.73950852,13.2039037 3.42621886,13.7848078 L2.73081075,15.0742389 L5.66613684,16.657301 L5.9438254,16.1424087 L4.848029,15.5514305 L5.12571756,15.0365382 L6.57040472,14.9806005 L6.893188,14.3820932 Z M4.77686621,14.5984427 L4.39474776,15.3069697 L3.46178055,14.8038075 L3.843899,14.0952805 C4.00054383,13.8048284 4.29489968,13.6909002 4.57655016,13.8427983 C4.86260143,13.9970697 4.93351104,14.3079906 4.77686621,14.5984427 L4.77686621,14.5984427 Z M9.80962945,10.837088 L6.3696451,9.83467456 L5.92331876,10.4123361 L7.76141953,13.4880003 L8.16800449,12.9617744 L7.80739941,12.3735449 L8.7428505,11.1628297 L9.4030445,11.3633139 L9.80962945,10.837088 Z M8.23444021,10.978523 L7.50075308,11.9281035 L6.60940244,10.4811778 L8.23444021,10.978523 Z M11.3944818,9.65473758 L10.5496145,8.73348886 L11.2018586,8.1353228 C11.7140729,7.66557656 11.6804529,7.05190344 11.2985728,6.63549902 C10.9133133,6.21540961 10.3085191,6.12555423 9.79261986,6.59867994 L8.70923137,7.59224392 L10.9633374,10.0501355 L11.3944818,9.65473758 Z M10.7948133,7.80983983 L10.2015291,8.35393439 L9.48846111,7.57640048 L10.0817453,7.03230592 C10.3249549,6.80926094 10.6400874,6.80519567 10.8563734,7.04103534 C11.06928,7.27319002 11.038023,7.58679486 10.7948133,7.80983983 L10.7948133,7.80983983 Z M16.086144,6.35097689 L15.8023473,5.9212276 L14.3837574,6.85803215 L13.8712702,6.08198003 L15.2606539,5.16446264 L14.9768572,4.73471336 L13.5874736,5.65223075 L13.1135607,4.93459116 L14.5321506,3.99778662 L14.2483539,3.56803733 L12.3416022,4.82721285 L14.1793923,7.61015241 L16.086144,6.35097689 Z M19.9558524,4.69217699 L18.664432,3.84321689 C19.0054751,3.61531439 19.2245061,3.15732922 18.9785727,2.62103009 C18.7201342,2.05746151 18.1475718,1.85246813 17.547644,2.12758009 L16.215986,2.73824526 L17.606135,5.76969881 L18.1378892,5.52584958 L17.6189281,4.39416752 L18.1506823,4.15031828 L19.3377449,4.97562567 L19.9558524,4.69217699 Z M18.1359875,3.59048879 L17.4042574,3.92604201 L16.9624109,2.96252154 L17.6941411,2.62696832 C17.994105,2.48941234 18.297712,2.57571285 18.4310996,2.86658696 C18.5665714,3.16200597 18.4359514,3.45293281 18.1359875,3.59048879 L18.1359875,3.59048879 Z M25.1803956,3.75456433 C26.135548,3.58549663 26.5065426,2.95620102 26.3627479,2.14382913 L26.0115403,0.159672335 L25.4256478,0.26337881 L25.774241,2.23276521 C25.8666182,2.7546526 25.6362661,3.14578925 25.0897613,3.24252386 C24.5432566,3.33925848 24.1926398,3.05095682 24.1002626,2.52906942 L23.7516694,0.559683023 L23.1657769,0.663389498 L23.5169846,2.64754629 C23.6607793,3.45991818 24.2301666,3.92276054 25.1803956,3.75456433 L25.1803956,3.75456433 Z M31.2192371,3.6354575 L31.2350779,0.300495123 L30.6500845,0.297716449 L30.6391123,2.60769039 L28.9451038,0.28961792 L28.3451105,0.286767998 L28.3292697,3.62173038 L28.9142631,3.62450905 L28.9255916,1.23953596 L30.6542435,3.63277383 L31.2192371,3.6354575 Z M33.4822774,4.22870666 L34.0970152,0.950853335 L33.5220394,0.843020766 L32.9073016,4.12087409 L33.4822774,4.22870666 Z M36.7529222,5.13576298 L38.9220018,2.28384806 L38.2821598,2.10266517 L36.5761022,4.42052896 L36.3385796,1.55230511 L35.6987377,1.37112222 L36.0505392,4.93687048 L36.7529222,5.13576298 Z M41.2328345,7.26850312 L41.456388,6.80455398 L39.9249054,6.06661018 L40.3286041,5.22879911 L41.8285562,5.95154995 L42.0521097,5.48760081 L40.5521577,4.76484997 L40.9254704,3.99009995 L42.456953,4.72804376 L42.6805066,4.26409462 L40.6220138,3.27221133 L39.1743417,6.27661983 L41.2328345,7.26850312 Z M44.6375027,9.73847913 L44.7041302,8.19443873 C45.07467,8.37036556 45.5801739,8.3235601 45.9144855,7.83741631 C46.2657959,7.32655334 46.1481855,6.72988108 45.6043637,6.35590544 L44.3972439,5.52579285 L42.5075337,8.27374122 L42.9895576,8.60521963 L43.6950117,7.57937383 L44.1770356,7.91085224 L44.0772014,9.3531709 L44.6375027,9.73847913 Z M44.6501239,7.61116493 L43.986826,7.15502798 L44.5874535,6.28161711 L45.2507514,6.73775406 C45.5226623,6.92474188 45.6042566,7.22964738 45.4229351,7.49331859 C45.2387805,7.76110966 44.9220348,7.79815275 44.6501239,7.61116493 L44.6501239,7.61116493 Z M46.470967,11.7762013 C47.1164306,12.3962027 47.7338147,12.3236642 48.1182849,11.9234047 C48.9772813,11.0291311 47.3114713,9.96287494 47.7444332,9.51213221 C47.9141542,9.33544106 48.1905813,9.36524162 48.4357854,9.60077289 C48.6882013,9.84323154 48.8610945,10.1756965 48.8686336,10.5503873 L49.4079672,10.4652742 C49.3958264,10.0376323 49.207087,9.62061618 48.835675,9.26385558 C48.3056016,8.75469241 47.6650171,8.72868274 47.2805469,9.12894228 C46.4319416,10.012398 48.1323885,11.0425948 47.6474712,11.5474266 C47.4916049,11.709694 47.1953914,11.7510166 46.849221,11.4185018 C46.5138684,11.0963782 46.4030372,10.684867 46.4104909,10.3523096 L45.8573025,10.4518464 C45.8589099,10.8832365 46.0274362,11.3501668 46.470967,11.7762013 L46.470967,11.7762013 Z M48.6320972,14.3952902 L51.2863155,12.3760453 L50.9321151,11.9104628 L48.2778968,13.9297077 L48.6320972,14.3952902 Z M50.2971916,17.0167758 L52.6871054,15.519875 L53.2232294,16.3758371 L53.6596853,16.1024669 L52.27691,13.8947628 L51.8404541,14.168133 L52.3765781,15.024095 L49.9866643,16.5209958 L50.2971916,17.0167758 Z M51.9231661,20.7149065 L53.1954289,20.1675745 L55.4964908,20.5819583 L55.2317165,19.9664955 L53.5611149,19.6891147 L54.5085269,18.2854551 L54.2437526,17.6699922 L52.9642454,19.6301928 L51.6919825,20.1775248 L51.9231661,20.7149065 Z" id="DRAPER-UNIVERSITY" fill="#FFFFFF"></path>
                    </g>
                    <g id="Oval-20-Copy-12-+-Type-something-Copy-Copy-Copy-Copy" transform="translate(38.000000, 37.000000) rotate(-180.000000) translate(-38.000000, -37.000000) translate(9.000000, 8.000000)">
                        <ellipse id="Oval-20-Copy-12" cx="28.8511449" cy="29" rx="28.8078483" ry="28.8078483"></ellipse>
                        <path d="M48.1842428,7.54602261 C47.7471406,7.09232485 47.2339844,7.11459011 46.8595038,7.47537289 C46.5678409,7.75636717 46.5099225,8.20791503 46.7200867,8.5053306 C46.4581946,8.32718035 46.0656208,8.33047517 45.7667564,8.61840758 C45.4282835,8.94449971 45.3870519,9.44940064 45.8137469,9.89229607 L46.9516003,11.0733506 L49.3533178,8.75948407 L48.1842428,7.54602261 Z M46.8837488,9.02112099 L47.535933,9.69806685 L46.9165996,10.2947461 L46.2644153,9.6178002 C46.0597405,9.40535443 46.075021,9.15457264 46.251459,8.98458844 C46.4350986,8.80766612 46.6790739,8.80867522 46.8837488,9.02112099 L46.8837488,9.02112099 Z M47.9070277,8.00055727 L48.5765573,8.69550701 L47.906813,9.34075314 L47.2372834,8.6458034 C47.0083251,8.40815219 47.0417411,8.13295523 47.2217799,7.95950197 C47.4306249,7.75829619 47.6884766,7.77370839 47.9070277,8.00055727 L47.9070277,8.00055727 Z M45.6876661,5.60283429 L43.6506012,8.2434008 L44.113789,8.60072703 L46.1508539,5.96016053 L45.6876661,5.60283429 Z M42.2775474,3.36039473 L41.9963402,3.79184288 L43.4582374,4.74467117 L40.7424835,5.77969806 L40.4858478,6.17344686 L42.5509346,7.51941919 L42.8321418,7.08797104 L41.407944,6.15971426 L44.1125901,5.12341585 L44.371956,4.72547823 L42.2775474,3.36039473 Z M36.0761597,0.928123607 C36.2195684,1.22801348 36.3401994,1.50328273 36.4532379,1.77034512 C36.1772757,1.94949551 35.9328337,2.17259444 35.7299618,2.38465098 L36.0588211,2.71706865 C36.1837671,2.55578163 36.3801964,2.34663927 36.6145886,2.17853127 C36.6751719,2.32962614 36.7322268,2.49007783 36.7875174,2.65520792 C36.837594,2.79165328 36.8987129,2.96966866 36.9498608,3.15995501 C36.4909838,3.20065985 36.0250498,3.26007832 35.8468622,3.7325973 C35.6933739,4.13961859 35.9531285,4.49941375 36.374185,4.65819477 C36.8607392,4.84167506 37.3409443,4.65938946 37.4979611,4.24301135 C37.5791159,4.02780469 37.5802021,3.75568556 37.5374184,3.47236674 C37.9664607,3.4257549 38.3780967,3.29776728 38.5598128,2.81589149 C38.7821062,2.22641237 38.4458902,1.75762798 37.8938383,1.54944842 C37.5382795,1.41536667 37.2034982,1.43874379 36.8954801,1.54702515 C36.8331325,1.40060868 36.7701707,1.26999166 36.7217797,1.17158784 L36.0761597,0.928123607 Z M37.680145,1.91773523 C37.9702062,2.02711771 38.1534207,2.3206436 38.0246316,2.66216722 C37.9258345,2.92415793 37.7143774,3.03144666 37.4573648,3.08949415 C37.4079811,2.89452939 37.3445623,2.69427193 37.2787649,2.51449232 C37.2380452,2.38157543 37.1547628,2.16313999 37.0592094,1.93473344 C37.2676737,1.86372202 37.4789736,1.84187319 37.680145,1.91773523 L37.680145,1.91773523 Z M37.0120212,4.04373161 C36.9255738,4.27297349 36.6971672,4.36852688 36.4913174,4.2909006 C36.313538,4.22385973 36.2202058,4.06041522 36.2925394,3.86860058 C36.3913365,3.60660986 36.6863906,3.54687679 37.0340572,3.51767133 C37.0658771,3.7167002 37.0649482,3.90337944 37.0120212,4.04373161 L37.0120212,4.04373161 Z M31.7685293,0.322657639 L31.5772844,1.75494616 L29.9269312,1.53458443 L29.8587713,2.04505404 L31.5091245,2.26541577 L31.395304,3.11785046 L29.7102587,2.8928565 L29.6420987,3.40332612 L31.9069979,3.70574446 L32.3483831,0.40008203 L31.7685293,0.322657639 Z M27.9577492,0.190700299 L27.9524688,3.52569612 L28.5374681,3.52662236 L28.5427485,0.191626537 L27.9577492,0.190700299 Z M23.3763481,0.526653364 L23.6319996,3.85184017 L24.2152782,3.80699575 L24.0382003,1.50379289 L25.9152613,3.67629534 L26.5134958,3.63030107 L26.2578443,0.30511426 L25.6745656,0.34995868 L25.8573929,2.72794085 L23.9396856,0.483342086 L23.3763481,0.526653364 Z M18.8071529,1.78161748 L20.8624475,4.71659435 L21.572106,4.54546618 L22.0638048,0.99630329 L21.4173351,1.15219402 L21.3303643,1.83665445 L19.8429979,2.19532034 L19.4536226,1.62572676 L18.8071529,1.78161748 Z M20.1241276,2.65729016 L21.2906895,2.37598358 L21.0801398,4.06233135 L20.1241276,2.65729016 Z M14.9192691,3.56985802 L16.185397,6.65516921 L16.7265985,6.43307481 L15.8496104,4.29602268 L18.3039465,5.78577404 L18.859025,5.55798492 L17.5928971,2.47267373 L17.0516956,2.69476812 L17.9571574,4.90120506 L15.441968,3.35535659 L14.9192691,3.56985802 Z M12.1180031,5.39224239 C11.5467308,5.74231088 11.3783671,6.2618334 11.3699386,6.73612652 L11.9268838,6.68804269 C11.9196222,6.36996681 12.087009,6.02110197 12.3896981,5.83561792 C12.9524439,5.49077434 13.6367101,5.66960318 13.9998409,6.26219162 C14.3681965,6.86330652 14.2116455,7.54564938 13.6488996,7.89049296 C13.3462105,8.07597701 12.9619903,8.07099407 12.6792698,7.91585185 L12.3930579,8.3961723 C12.8109521,8.60922028 13.3493222,8.68393697 13.9205946,8.33386849 C14.7604501,7.81921557 15.049593,6.82692206 14.511428,5.94869746 C13.9758755,5.07473608 12.9578587,4.87758947 12.1180031,5.39224239 L12.1180031,5.39224239 Z M8.24531749,8.69676483 L8.57783941,9.09002578 L9.87598235,7.99238062 L10.4764588,8.70254117 L9.20504235,9.77758776 L9.53756427,10.1708487 L10.8089807,9.09580212 L11.3642601,9.75250973 L10.0661171,10.8501549 L10.398639,11.2434158 L12.1434959,9.76805161 L9.99017433,7.2214006 L8.24531749,8.69676483 Z" id="BIZ-&amp;-FINANCE" fill="#FFFFFF"></path>
                    </g>
                    <ellipse id="Oval-20-Copy-16" fill="#1A1A1A" cx="37.8369781" cy="36.8369781" rx="21.8369781" ry="21.8369781"></ellipse>
                </g>
                <path d="M44.7622951,44.2704918 L31.9368033,44.2704918 L36.2978689,38.0459836 L37.8455738,39.7004098 C37.9456557,39.807623 38.0887705,39.8659016 38.2348361,39.8553279 C38.3813934,39.8464754 38.5161475,39.772459 38.6022131,39.6539344 L42.155,34.7718033 L42.127459,36.3413934 C42.1230328,36.6131148 42.3391803,36.8371311 42.6106557,36.8418033 L42.6195082,36.8418033 C42.8870492,36.8418033 43.1063934,36.627377 43.1110656,36.3588525 L43.1639344,33.3347541 C43.1666393,33.1815574 43.0977869,33.0359836 42.9777869,32.9408197 C42.8577869,32.8456557 42.699918,32.8119672 42.5518852,32.8493443 L39.5277869,33.6131148 C39.2644262,33.6795082 39.1045902,33.9470492 39.1712295,34.2101639 C39.2378689,34.4737705 39.5061475,34.6333607 39.7682787,34.5667213 L41.3848361,34.1585246 L38.1571311,38.5938525 L36.6020492,36.9315574 C36.5007377,36.8233607 36.3554098,36.7648361 36.2083607,36.7768852 C36.0603279,36.787459 35.9253279,36.8639344 35.84,36.9854098 L31.4836066,43.2032787 L31.4836066,30.9918033 C31.4836066,30.7203279 31.2635246,30.5 30.9918033,30.5 C30.720082,30.5 30.5,30.7203279 30.5,30.9918033 L30.5,44.7622951 C30.5,44.7733607 30.502459,44.7834426 30.5031967,44.7942623 C30.5046721,44.8144262 30.5056557,44.8343443 30.5093443,44.8540164 C30.5122951,44.87 30.517459,44.8842623 30.5218852,44.8995082 C30.5263115,44.915 30.53,44.9304918 30.5361475,44.9454918 C30.5420492,44.9607377 30.5501639,44.9745082 30.5577869,44.9890164 C30.5651639,45.0030328 30.5715574,45.0168033 30.5801639,45.030082 C30.5892623,45.0443443 30.6003279,45.0566393 30.6106557,45.0696721 C30.6202459,45.0814754 30.6288525,45.0937705 30.6394262,45.1045902 C30.6541803,45.1193443 30.6704098,45.1321311 30.6866393,45.1451639 C30.6947541,45.1515574 30.7011475,45.1589344 30.7097541,45.165082 C30.7104918,45.1655738 30.7114754,45.1658197 30.7122131,45.1663115 C30.7488525,45.1916393 30.7896721,45.2105738 30.832459,45.2253279 C30.8422951,45.2290164 30.8518852,45.2317213 30.8619672,45.2344262 C30.9030328,45.2459836 30.9455738,45.2538525 30.9903279,45.2538525 C30.9908197,45.2538525 30.9910656,45.2540984 30.9913115,45.2540984 L30.9915574,45.2540984 L30.9918033,45.2540984 L44.7622951,45.2540984 C45.0337705,45.2540984 45.2540984,45.0340164 45.2540984,44.7622951 C45.2540984,44.4908197 45.0337705,44.2704918 44.7622951,44.2704918" id="finance-icon-copy" fill="#FFFFFF" sketch:type="MSShapeGroup"></path>
            </g>
        </g>
    </g>
</svg>