<?xml version="1.0" encoding="UTF-8" standalone="no"?>
<svg width="30px" height="30px" viewBox="0 0 30 30" version="1.1" xmlns="http://www.w3.org/2000/svg" xmlns:xlink="http://www.w3.org/1999/xlink" xmlns:sketch="http://www.bohemiancoding.com/sketch/ns">
    <!-- Generator: Sketch 3.3.2 (12043) - http://www.bohemiancoding.com/sketch -->
    <title>dogrey</title>
    <desc>Created with Sketch.</desc>
    <defs></defs>
    <g id="Main-Attraction" stroke="none" stroke-width="1" fill="none" fill-rule="evenodd" sketch:type="MSPage">
        <g id="Artboard-41" sketch:type="MSArtboardGroup" transform="translate(-592.000000, -186.000000)">
            <g id="dogrey" sketch:type="MSLayerGroup" transform="translate(592.000000, 186.000000)">
                <rect id="Rectangle-125-Copy" fill="#A7A7A7" sketch:type="MSShapeGroup" x="0" y="0" width="30" height="30" rx="5.4"></rect>
                <g id="Group" transform="translate(3.000000, 3.000000)" fill="#F7F7F7" sketch:type="MSShapeGroup">
                    <path d="M11.9883354,10.1500015 C10.9719646,10.1500015 10.1499939,10.9719723 10.1499939,11.9869966 C10.1499939,13.0034259 10.9719646,13.8266845 11.9883354,13.8266845 C13.0034183,13.8266845 13.8266768,13.0034259 13.8266768,11.9869966 C13.8266768,10.9719723 13.0034183,10.1500015 11.9883354,10.1500015 L11.9883354,10.1500015 Z" id="Shape"></path>
                    <path d="M12.8593171,2.40702439 L12.8593171,0 L11.1121756,0 L11.1121756,2.40702439 C6.50394146,2.82392195 2.82468293,6.50394146 2.40702439,11.1121756 L0,11.1121756 L0,12.8593171 L2.40702439,12.8593171 C2.82468293,17.4682537 6.50394146,21.1468098 11.1121756,21.5644683 L11.1121756,23.9722537 L12.8593171,23.9722537 L12.8593171,21.5644683 C17.4675512,21.1468098 21.1468098,17.4682537 21.5637073,12.8593171 L23.9714927,12.8593171 L23.9714927,11.1121756 L21.5637073,11.1121756 C21.1468098,6.50394146 17.4674927,2.82392195 12.8593171,2.40702439 Z M19.8084293,12.8593171 C19.4041756,16.5036878 16.5036878,19.404878 12.8593171,19.8091902 L12.8593171,16.6597463 L11.1121756,16.6597463 L11.1121756,19.8091902 C7.46780488,19.404878 4.56661463,16.5036878 4.16230244,12.8593171 L7.31174634,12.8593171 L7.31174634,11.1121756 L4.16230244,11.1121756 C4.5665561,7.46780488 7.46780488,4.56661463 11.1121756,4.16230244 L11.1121756,7.31174634 L12.8593171,7.31174634 L12.8593171,4.16230244 C16.5036878,4.5665561 19.4041756,7.46780488 19.8084293,11.1121756 L16.6597463,11.1121756 L16.6597463,12.8593171 L19.8084293,12.8593171 L19.8084293,12.8593171 Z" id="Shape"></path>
                </g>
            </g>
        </g>
    </g>
</svg>