<?xml version="1.0" encoding="UTF-8" standalone="no"?>
<svg width="40px" height="40px" viewBox="0 0 40 40" version="1.1" xmlns="http://www.w3.org/2000/svg" xmlns:xlink="http://www.w3.org/1999/xlink" xmlns:sketch="http://www.bohemiancoding.com/sketch/ns">
    <!-- Generator: Sketch 3.3.3 (12081) - http://www.bohemiancoding.com/sketch -->
    <title>evangelism</title>
    <desc>Created with Sketch.</desc>
    <defs></defs>
    <g id="Main-Attraction" stroke="none" stroke-width="1" fill="none" fill-rule="evenodd" sketch:type="MSPage">
        <g id="TRACK-ICONS" sketch:type="MSArtboardGroup" transform="translate(-228.000000, -279.000000)">
            <g id="evangelism" sketch:type="MSLayerGroup" transform="translate(228.000000, 279.000000)">
                <circle id="Oval-20-Copy-39" opacity="0.8" fill="#88B250" sketch:type="MSShapeGroup" cx="20" cy="20" r="20"></circle>
                <g id="Group-Copy-8" transform="translate(11.500000, 9.000000)" fill="#FFFFFF" sketch:type="MSShapeGroup">
                    <path d="M9.53888889,4.01388889 C8.57083333,4.01388889 7.79166667,4.79305556 7.79166667,5.76111111 C7.79166667,6.72916667 8.57083333,7.50833333 9.53888889,7.50833333 C10.5069444,7.50833333 11.2861111,6.72916667 11.2861111,5.76111111 C11.2861111,4.81666667 10.5069444,4.01388889 9.53888889,4.01388889 L9.53888889,4.01388889 Z M9.53888889,6.84722222 C8.94861111,6.84722222 8.47638889,6.375 8.47638889,5.78472222 C8.47638889,5.19444444 8.94861111,4.69861111 9.53888889,4.69861111 C10.1291667,4.69861111 10.625,5.17083333 10.625,5.78472222 C10.6013889,6.375 10.1291667,6.84722222 9.53888889,6.84722222 L9.53888889,6.84722222 Z" id="Shape"></path>
                    <path d="M2.69166667,18.1097222 C3.1875,17.8027778 3.51805556,17.2597222 3.51805556,16.6222222 C3.51805556,15.6541667 2.73888889,14.875 1.77083333,14.875 C0.802777778,14.875 0.0236111111,15.6541667 0.0236111111,16.6222222 C0.0236111111,17.2597222 0.354166667,17.8027778 0.85,18.1097222 C0.354166667,18.4166667 0.0236111111,18.9597222 0.0236111111,19.5972222 L4.4408921e-16,20.4708333 C4.4408921e-16,20.5652778 0.0236111111,20.6597222 0.0944444444,20.7069444 C0.165277778,20.7777778 0.236111111,20.8013889 0.330555556,20.8013889 L3.16388889,20.8013889 C3.35277778,20.8013889 3.49444444,20.6597222 3.49444444,20.4708333 L3.49444444,19.5972222 C3.51805556,18.9597222 3.1875,18.4166667 2.69166667,18.1097222 L2.69166667,18.1097222 Z M0.684722222,16.6222222 C0.684722222,16.0319444 1.15694444,15.5361111 1.74722222,15.5361111 C2.3375,15.5361111 2.83333333,16.0319444 2.83333333,16.6222222 C2.83333333,17.2125 2.36111111,17.7083333 1.74722222,17.7083333 C1.18055556,17.7083333 0.684722222,17.2125 0.684722222,16.6222222 L0.684722222,16.6222222 Z M2.83333333,20.1402778 L0.684722222,20.1402778 L0.684722222,19.5972222 C0.684722222,19.0069444 1.15694444,18.5347222 1.74722222,18.5347222 C2.3375,18.5347222 2.83333333,19.0069444 2.83333333,19.5972222 L2.83333333,20.1402778 L2.83333333,20.1402778 Z" id="Shape"></path>
                    <path d="M16.8701389,10.7349535 C16.8465278,10.6405091 16.7756944,10.5696757 16.68125,10.5460646 L11.1090278,7.99606461 C11.0618056,7.9724535 11.0145833,7.9724535 10.9673611,7.9724535 L6.90625,7.9724535 L4.87569444,5.94189795 L6.05625,4.73773128 C6.10347222,4.66689795 6.15069444,4.59606461 6.15069444,4.52523128 L6.17430556,4.52523128 C6.19791667,4.52523128 6.24513889,4.54884239 6.26875,4.54884239 C6.31597222,4.54884239 6.38680556,4.52523128 6.43402778,4.50162017 L8.44097222,3.36828684 C8.60625,3.27384239 8.65347222,3.0849535 8.58263889,2.91967573 L7.30763889,0.180786836 C7.26041667,0.086342392 7.18958333,0.0391201698 7.11875,0.0155090587 C7.02430556,-0.00810205244 6.92986111,-0.00810205244 6.85902778,0.0391201698 L4.71041667,1.1724535 C4.54513889,1.26689795 4.47430556,1.45578684 4.56875,1.62106461 L5.79652778,4.00578684 L4.82847222,3.03773128 C4.68680556,2.89606461 4.47430556,2.89606461 4.35625,3.03773128 L1.75902778,5.65856461 C1.61736111,5.80023128 1.61736111,6.01273128 1.75902778,6.13078684 L6.00902778,10.3807868 L4.59236111,10.3807868 C4.47430556,10.3807868 4.35625,10.4516202 4.28541667,10.5696757 C4.23819444,10.6877313 4.23819444,10.8293979 4.33263889,10.9238424 L5.60763889,12.5293979 L5.60763889,14.9141202 C4.97013889,15.1738424 4.52152778,15.8113424 4.52152778,16.5432868 C4.52152778,17.1807868 4.85208333,17.7238424 5.34791667,18.0307868 C4.85208333,18.3377313 4.52152778,18.8807868 4.52152778,19.5182868 L4.49791667,20.3918979 C4.49791667,20.4863424 4.52152778,20.5807868 4.59236111,20.6280091 C4.66319444,20.6988424 4.73402778,20.7224535 4.82847222,20.7224535 L7.66180556,20.7224535 C7.85069444,20.7224535 7.99236111,20.5807868 7.99236111,20.3918979 L7.99236111,19.4946757 L8.93680556,19.4946757 L8.91319444,20.3446757 C8.91319444,20.4391202 8.93680556,20.5335646 9.00763889,20.5807868 C9.07847222,20.6516202 9.14930556,20.6752313 9.24375,20.6752313 L12.0770833,20.6752313 C12.2659722,20.6752313 12.4076389,20.5335646 12.4076389,20.3446757 L12.4076389,19.4710646 C12.4076389,18.8335646 12.0770833,18.2905091 11.58125,17.9835646 C12.0770833,17.6766202 12.4076389,17.1335646 12.4076389,16.4960646 C12.4076389,15.7641202 11.9590278,15.1266202 11.2979167,14.8668979 L11.2979167,12.4821757 L12.3368056,11.1835646 L15.5715278,12.6474535 C15.61875,12.6710646 15.6659722,12.6710646 15.7131944,12.6710646 C15.83125,12.6710646 15.9493056,12.6002313 16.0201389,12.4821757 L16.8229167,10.9710646 C16.89375,10.9238424 16.89375,10.8293979 16.8701389,10.7349535 L16.8701389,10.7349535 Z M5.30069444,1.5974535 L6.83541667,0.794675725 L7.85069444,2.96689795 L6.43402778,3.76967573 L5.30069444,1.5974535 L5.30069444,1.5974535 Z M5.15902778,16.4960646 C5.15902778,16.1655091 5.32430556,15.8585646 5.56041667,15.6460646 C5.74930556,15.5043979 5.98541667,15.4099535 6.22152778,15.4099535 L6.24513889,15.4099535 C6.83541667,15.4099535 7.30763889,15.9057868 7.30763889,16.4960646 C7.30763889,17.0863424 6.83541667,17.5585646 6.24513889,17.5821757 L6.22152778,17.5821757 C5.96180556,17.5821757 5.74930556,17.4877313 5.56041667,17.3460646 C5.30069444,17.1571757 5.15902778,16.8502313 5.15902778,16.4960646 L5.15902778,16.4960646 Z M7.30763889,20.0141202 L5.15902778,20.0141202 L5.15902778,19.4710646 C5.15902778,19.1405091 5.32430556,18.8335646 5.56041667,18.6210646 C5.74930556,18.4793979 5.98541667,18.3849535 6.22152778,18.3849535 L6.24513889,18.3849535 C6.57569444,18.3849535 6.88263889,18.5502313 7.09513889,18.8099535 C7.23680556,18.9988424 7.30763889,19.2113424 7.30763889,19.4710646 L7.30763889,20.0141202 L7.30763889,20.0141202 Z M11.7465278,19.4710646 L11.7465278,20.0141202 L9.59791667,20.0141202 L9.59791667,19.4946757 L9.59791667,19.4710646 C9.59791667,19.2349535 9.66875,18.9988424 9.81041667,18.8099535 C9.99930556,18.5738424 10.30625,18.4085646 10.6368056,18.3849535 L10.6604167,18.3849535 C10.8965278,18.3849535 11.1326389,18.4793979 11.3215278,18.5974535 C11.58125,18.8099535 11.7465278,19.1168979 11.7465278,19.4710646 L11.7465278,19.4710646 Z M11.7465278,16.4960646 C11.7465278,16.8502313 11.58125,17.1571757 11.3215278,17.3460646 C11.1326389,17.4877313 10.9201389,17.5585646 10.6604167,17.5585646 L10.6604167,17.5585646 C10.09375,17.5349535 9.62152778,17.0627313 9.62152778,16.4724535 C9.62152778,15.8821757 10.09375,15.4099535 10.6604167,15.4099535 L10.6840278,15.4099535 C10.9201389,15.4099535 11.15625,15.5043979 11.3451389,15.6224535 C11.58125,15.8349535 11.7465278,16.1655091 11.7465278,16.4960646 L11.7465278,16.4960646 Z M10.73125,12.1516202 C10.6840278,12.2224535 10.6604167,12.2932868 10.6604167,12.3641202 L10.6604167,14.7488424 C9.71597222,14.7724535 8.93680556,15.5516202 8.93680556,16.4960646 C8.93680556,17.1335646 9.26736111,17.6766202 9.76319444,17.9835646 C9.45625,18.1724535 9.19652778,18.4793979 9.07847222,18.8099535 L7.87430556,18.8099535 C7.73263889,18.4557868 7.49652778,18.1724535 7.16597222,17.9835646 C7.66180556,17.6766202 7.99236111,17.1335646 7.99236111,16.4960646 C7.99236111,15.5280091 7.21319444,14.7488424 6.24513889,14.7488424 L6.24513889,12.3641202 C6.24513889,12.2932868 6.22152778,12.2224535 6.17430556,12.1516202 L5.25347222,10.9946757 L11.6520833,10.9946757 L10.73125,12.1516202 L10.73125,12.1516202 Z M15.5951389,11.9155091 L12.6909722,10.5932868 L12.0770833,10.3335646 L11.2270833,9.95578684 C11.1798611,9.93217573 11.1326389,9.93217573 11.0854167,9.93217573 C11.0145833,9.93217573 10.9673611,9.95578684 10.8965278,9.97939795 C10.8020833,10.0502313 10.73125,10.1446757 10.73125,10.2627313 L6.83541667,10.2627313 L2.44375,5.8474535 L4.56875,3.7224535 L5.34791667,4.50162017 L4.16736111,5.68217573 C4.02569444,5.82384239 4.02569444,6.03634239 4.16736111,6.15439795 L6.52847222,8.51550906 C6.59930556,8.58634239 6.67013889,8.6099535 6.76458333,8.6099535 L10.8965278,8.6099535 L16.0673611,10.9710646 L15.5951389,11.9155091 L15.5951389,11.9155091 Z" id="Shape"></path>
                    <path d="M16.15,18.1097222 C16.6458333,17.8027778 16.9763889,17.2597222 16.9763889,16.6222222 C16.9763889,15.6541667 16.1972222,14.875 15.2291667,14.875 C14.2611111,14.875 13.4819444,15.6541667 13.4819444,16.6222222 C13.4819444,17.2597222 13.8125,17.8027778 14.3083333,18.1097222 C13.8125,18.4166667 13.4819444,18.9597222 13.4819444,19.5972222 L13.4583333,20.4708333 C13.4583333,20.5652778 13.4819444,20.6597222 13.5527778,20.7069444 C13.6236111,20.7777778 13.6944444,20.8013889 13.7888889,20.8013889 L16.6222222,20.8013889 C16.8111111,20.8013889 16.9527778,20.6597222 16.9527778,20.4708333 L16.9527778,19.5972222 C16.9763889,18.9597222 16.6458333,18.4166667 16.15,18.1097222 L16.15,18.1097222 Z M14.1430556,16.6222222 C14.1430556,16.0319444 14.6152778,15.5361111 15.2291667,15.5361111 C15.8194444,15.5361111 16.2916667,16.0319444 16.2916667,16.6222222 C16.2916667,17.2125 15.8194444,17.7083333 15.2291667,17.7083333 C14.6152778,17.7083333 14.1430556,17.2125 14.1430556,16.6222222 L14.1430556,16.6222222 Z M16.2916667,20.1402778 L14.1430556,20.1402778 L14.1430556,19.5972222 C14.1430556,19.0069444 14.6152778,18.5347222 15.2291667,18.5347222 C15.8194444,18.5347222 16.2916667,19.0069444 16.2916667,19.5972222 L16.2916667,20.1402778 L16.2916667,20.1402778 Z" id="Shape"></path>
                    <path d="M12.5611111,1.93611111 L11.9472222,3.25833333 L11.3333333,2.975 L11.9472222,1.65277778 L12.5611111,1.93611111 Z" id="Shape"></path>
                    <path d="M14.1902778,3.91944444 L12.7972222,4.55694444 L12.5138889,3.94305556 L13.9069444,3.30555556 L14.1902778,3.91944444 Z" id="Shape"></path>
                    <path d="M12.7780531,6.2817194 L12.9664202,5.62342745 L14.3511033,6.01964787 L14.1627362,6.67793981 L12.7780531,6.2817194 L12.7780531,6.2817194 Z" id="Rectangle-path"></path>
                    <path d="M6.75277778,1.72361111 L5.83194444,2.17222222 L5.66666667,1.86527778 L6.5875,1.41666667 L6.75277778,1.72361111 Z" id="Shape"></path>
                    <path d="M6.96527778,2.19583333 L6.06805556,2.66805556 L5.90277778,2.36111111 L6.82361111,1.88888889 L6.96527778,2.19583333 Z" id="Shape"></path>
                </g>
            </g>
        </g>
    </g>
</svg>