<?xml version="1.0" encoding="UTF-8" standalone="no"?>
<svg width="40px" height="40px" viewBox="0 0 40 40" version="1.1" xmlns="http://www.w3.org/2000/svg" xmlns:xlink="http://www.w3.org/1999/xlink" xmlns:sketch="http://www.bohemiancoding.com/sketch/ns">
    <!-- Generator: Sketch 3.3.2 (12043) - http://www.bohemiancoding.com/sketch -->
    <title>fundraisingdone</title>
    <desc>Created with Sketch.</desc>
    <defs></defs>
    <g id="Main-Attraction" stroke="none" stroke-width="1" fill="none" fill-rule="evenodd" sketch:type="MSPage">
        <g id="fundraisingdone" sketch:type="MSArtboardGroup" fill="#24B494">
            <path d="M16.9641632,9.25822951 L22.6208006,9.25822951 C23.1414154,9.25822951 23.566659,9.68127869 23.566659,10.1979672 C23.566659,10.7152131 23.1408544,11.1377049 22.6208006,11.1377049 L16.9641632,11.1377049 C16.4441093,11.1377049 16.0183047,10.7146557 16.0183047,10.1979672 C16.0183047,9.68072131 16.4441093,9.25822951 16.9641632,9.25822951 L16.9641632,9.25822951 Z M30.3593364,34.9605574 C30.3593364,34.9605574 23.2328597,36.6025902 19.7922014,36.4303607 C16.3526651,36.6025902 9.22618835,34.9605574 9.22618835,34.9605574 C4.78861996,35.1333443 8.3560659,32.5404262 8.3560659,32.5404262 C8.3560659,32.5404262 6.4099313,27.9632459 7.28061475,23.2495082 C9.18355179,12.9424918 16.7947389,11.708459 16.7947389,11.708459 L22.7902248,11.708459 C22.7902248,11.708459 30.8418028,14.6452787 31.7573668,23.5761311 C32.2465653,28.343377 31.2294589,32.5404262 31.2294589,32.5404262 C31.2294589,32.5404262 34.7969048,35.1333443 30.3593364,34.9605574 L30.3593364,34.9605574 Z M21.7888267,22.9758361 C21.2244532,22.6648197 20.6252973,22.4301639 20.0311905,22.1860328 C19.687293,22.044459 19.3568597,21.8783607 19.0679408,21.6481639 C18.4962743,21.1939016 18.6051098,20.4576066 19.2766356,20.165541 C19.4651341,20.0836066 19.6637307,20.0568525 19.8684984,20.0451475 C20.6460546,20.0033443 21.3843403,20.1443607 22.0872826,20.4826885 C22.4373512,20.6510164 22.5534797,20.598623 22.6718523,20.2357705 C22.7958349,19.8528525 22.9018653,19.4638033 23.0146278,19.077541 C23.0909248,18.8178033 22.9977976,18.6455738 22.7492713,18.5374426 C22.2999044,18.3406885 21.8359513,18.198 21.3495579,18.1221967 C20.7144975,18.023541 20.7150585,18.0207541 20.7128145,17.3875738 C20.7088874,16.4913115 20.7088874,16.4913115 19.8073486,16.4929836 C19.6760729,16.4929836 19.5453581,16.4896393 19.4140824,16.4929836 C18.9922049,16.5052459 18.9198349,16.5777049 18.9091758,17.0001967 C18.9041267,17.1891475 18.9074927,17.3786557 18.9063707,17.5681639 C18.9035657,18.1283279 18.9007607,18.1205246 18.3616326,18.3156066 C17.0550464,18.7877049 16.2488788,19.6705902 16.1619226,21.0874426 C16.0850646,22.3398689 16.7420042,23.1859672 17.7781849,23.8024262 C18.4166113,24.1825574 19.1223586,24.4077377 19.7983725,24.7037049 C20.0614849,24.8185246 20.3133772,24.9517377 20.5349752,25.1328852 C21.1863047,25.6657377 21.0656881,26.5547541 20.294303,26.888623 C19.8808405,27.0686557 19.4454988,27.1138033 18.9983759,27.0580656 C18.3072148,26.9722295 17.6457871,26.7921967 17.02363,26.4694754 C16.6595362,26.2816393 16.5523838,26.3301311 16.4284011,26.7247541 C16.3218097,27.063082 16.2269995,27.4053115 16.1321892,27.747541 C16.0054016,28.2084918 16.0514042,28.3182951 16.492917,28.5312131 C17.0556074,28.801541 17.6586903,28.9408852 18.2729934,29.0378689 C18.7537767,29.1131148 18.7694849,29.1342951 18.774534,29.6292459 C18.777339,29.8549836 18.7779,30.0796066 18.7812661,30.3042295 C18.7840711,30.5879344 18.9215179,30.7523607 19.2143638,30.7579344 C19.5470412,30.7640656 19.8814016,30.764623 20.2146399,30.7557049 C20.4867285,30.7490164 20.6275414,30.6024262 20.6281024,30.327082 C20.6292244,30.0199672 20.6443716,29.7111803 20.6309074,29.4040656 C20.6168822,29.091377 20.752646,28.9325246 21.05559,28.8505902 C21.7518002,28.661082 22.34759,28.2893115 22.804811,27.7369508 C24.0721267,26.208623 23.5868553,23.964623 21.7888267,22.9758361 L21.7888267,22.9758361 Z M23.1891011,4.40904918 C22.7419782,4.56177049 22.269049,4.67101639 21.7972418,4.69665574 L21.7972418,4.69609836 C21.7125296,4.70111475 21.6278175,4.70278689 21.5436664,4.70222951 C21.5245922,4.70167213 21.5049569,4.70167213 21.4858827,4.70111475 C21.4802726,4.70111475 21.4741015,4.70111475 21.4684914,4.70055738 C20.8216499,4.6782623 20.1905166,4.47760656 19.6485835,3.98878689 C18.8334398,3.25360656 17.9599513,3.01059016 17.1734189,3.00111475 C17.1565887,3 17.1391975,3 17.1223673,3 L17.0926339,3 C15.7058236,3.00445902 14.0065323,4.40960656 14.0065323,4.40960656 L17.0197029,8.68747541 L17.5874424,8.68747541 L17.5880034,8.68747541 L23.0696065,8.68747541 C23.0954128,8.41770492 23.1178531,8.22708197 23.1560016,8.04927869 C23.337207,7.43560656 23.7837689,6.52095082 24.2583811,5.63695082 C24.6365001,4.93465574 23.947022,4.15042623 23.1891011,4.40904918 L23.1891011,4.40904918 Z" id="fundraising-icon-copy" sketch:type="MSShapeGroup"></path>
        </g>
    </g>
</svg>