<?xml version="1.0" encoding="UTF-8" standalone="no"?>
<svg width="40px" height="40px" viewBox="0 0 40 40" version="1.1" xmlns="http://www.w3.org/2000/svg" xmlns:xlink="http://www.w3.org/1999/xlink" xmlns:sketch="http://www.bohemiancoding.com/sketch/ns">
    <!-- Generator: Sketch 3.3.2 (12043) - http://www.bohemiancoding.com/sketch -->
    <title>hiringdone</title>
    <desc>Created with Sketch.</desc>
    <defs></defs>
    <g id="Main-Attraction" stroke="none" stroke-width="1" fill="none" fill-rule="evenodd" sketch:type="MSPage">
        <g id="hiringdone" sketch:type="MSArtboardGroup" fill="#E1474C">
            <g id="Fill-1-+-Fill-2-+-Fill-3" sketch:type="MSLayerGroup" transform="translate(4.000000, 5.000000)">
                <path d="M29.445848,26.2208558 C29.3287884,26.2208558 29.2178629,26.2183323 29.1161386,26.2158088 L28.9433607,26.2122759 C28.5201058,26.2122759 28.1765946,25.873116 28.1765946,25.4552226 C28.1765946,25.0373292 28.5201058,24.6981693 28.9433607,24.6981693 C29.0041908,24.6981693 29.0767779,24.7001881 29.1565216,24.7022069 C29.3114083,24.7062445 29.7382414,24.717348 29.9524247,24.6643542 L29.9524247,19.8969373 C29.9524247,18.6488088 29.1268733,18.1254326 27.7681639,17.4122884 C26.7488763,16.8773041 25.5931043,16.270652 25.5931043,14.9791191 C25.5931043,13.8824013 26.0874128,13.3136019 26.5234471,12.8119279 C27.0259344,12.2340439 27.500307,11.6879561 27.500307,9.99013793 C27.500307,8.88231661 27.2002459,8.06066144 26.6088137,7.54788401 C25.655468,6.72168652 24.1909449,6.88369592 24.1750984,6.88521003 C23.7549106,6.94072727 23.3710164,6.6474953 23.3158092,6.23263009 C23.2611133,5.81776489 23.5570849,5.43822884 23.9772727,5.38422571 C24.0631505,5.37160815 26.1380194,5.12430408 27.6209449,6.41028527 C28.5584441,7.2228558 29.033839,8.42757994 29.033839,9.99013793 C29.033839,12.2486803 28.2553159,13.1440219 27.6873979,13.7976113 C27.3259955,14.2134859 27.1266364,14.4426207 27.1266364,14.9791191 C27.1266364,15.3349342 27.6408808,15.6306897 28.4879016,16.0753323 C29.7530656,16.7395204 31.4859568,17.6494984 31.4859568,19.8969373 L31.4859568,24.7834639 C31.4859568,25.1554295 31.3489613,25.4834859 31.0903055,25.7323041 C30.6460924,26.1597868 29.9841177,26.2208558 29.445848,26.2208558" id="Fill-1" sketch:type="MSShapeGroup"></path>
                <path d="M2.91778838,26.2208558 C2.37951863,26.2208558 1.71754396,26.1597868 1.27333085,25.7323041 C1.01467511,25.4834859 0.87819076,25.1554295 0.87819076,24.7834639 L0.87819076,19.8969373 C0.87819076,17.6494984 2.61057079,16.7395204 3.87522355,16.0753323 C4.72224441,15.6306897 5.23648882,15.3349342 5.23648882,14.9791191 C5.23648882,14.4426207 5.03764083,14.2134859 4.67623845,13.7976113 C4.10780924,13.1440219 3.32979732,12.2486803 3.32979732,9.99013793 C3.32979732,8.42757994 3.80519225,7.2228558 4.74269151,6.41028527 C6.22612817,5.12329467 8.29844113,5.37211285 8.38687481,5.38422571 C8.80655142,5.43822884 9.1025231,5.81776489 9.04782712,6.23263009 C8.99313115,6.6469906 8.60872578,6.94123197 8.188538,6.88521003 C8.17678092,6.88470533 6.70203428,6.71815361 5.74664382,7.55444514 C5.16083458,8.06772727 4.86332936,8.88685893 4.86332936,9.99013793 C4.86332936,11.6879561 5.33770194,12.2340439 5.83967809,12.8119279 C6.27571237,13.3136019 6.77002086,13.8824013 6.77002086,14.9791191 C6.77002086,16.2701473 5.61476006,16.8773041 4.59547243,17.4122884 C3.23676304,18.1254326 2.4117228,18.6488088 2.4117228,19.8969373 L2.4117228,24.6643542 C2.62539493,24.7168433 3.05222802,24.7062445 3.20762593,24.7022069 C3.28685842,24.7001881 3.3594456,24.6981693 3.42027571,24.6981693 C3.84404173,24.6981693 4.18704173,25.0373292 4.18704173,25.4552226 C4.18704173,25.873116 3.84404173,26.2122759 3.42027571,26.2122759 L3.24749776,26.2158088 C3.14577347,26.2183323 3.03484799,26.2208558 2.91778838,26.2208558" id="Fill-2" sketch:type="MSShapeGroup"></path>
                <path d="M10.5189955,8.39780251 C10.4510089,5.97573668 10.2296692,3.6122163 12.1925902,2.06429467 C12.5723949,1.76399687 12.8172489,1.59542633 13.3100238,1.53789028 C13.7603711,1.48489655 14.1836259,1.62974608 14.6058584,1.77005329 C14.624772,1.77610972 14.6467526,1.7715674 14.6677109,1.76954859 C14.8767824,1.74734169 15.1507735,1.54798433 15.3266185,1.4505768 C16.3479508,0.883796238 16.7885857,0.429564263 18.7929121,0.65415674 C19.8474709,0.772761755 20.5804993,1.43341693 21.2112921,2.15564577 C21.9320522,2.98032915 22.2050209,3.61928213 22.3190134,4.716 C22.3864888,5.36504702 22.3634858,6.00652351 22.3057228,6.78275549 C22.2469374,7.21679937 22.1886632,7.65134796 22.130389,8.08488715 L22.0409329,8.56284013 C22.3972235,8.84698746 22.5643785,9.20986834 22.6052727,9.58789028 C22.6967735,10.4191348 22.1830402,11.3235611 21.7608077,11.6273918 C21.5962086,11.7888966 21.3447094,11.9771505 21.1811326,12.1396646 C20.7389642,13.3832508 20.3872742,14.276069 19.6440224,15.2683135 C19.5259404,15.4575768 19.236614,15.7048809 19.1880522,15.9264451 C19.1461356,16.1217649 19.250927,16.23179 19.3899672,16.3256646 C19.602617,16.4679906 19.8203785,16.5618652 20.0590984,16.6562445 C21.1862444,17.1049248 22.2556274,17.3466771 23.3183651,17.8019185 C23.7344635,17.9795737 24.1500507,18.1905392 24.5671714,18.4585361 C24.7046781,18.5458495 24.8437183,18.633163 24.9827586,18.7295611 C25.7290775,19.2463762 26.4385917,20.0089812 26.4902206,22.4148966 C26.4902206,22.4148966 26.4881759,23.8109028 26.4876647,24.8581599 C26.4871535,25.4860094 26.4871535,25.9891975 26.4871535,25.9891975 C26.4810194,27.3942884 24.7430164,28.2633856 22.5822697,28.7670784 C20.4210119,29.2702665 17.8354769,29.4085549 16.1342787,29.3515235 C14.6978703,29.3989655 12.6337362,29.3086238 10.725,28.9765298 C8.11032787,28.5217931 5.78804918,27.6138339 5.7808927,25.9881881 C5.7808927,25.9876834 5.77833681,22.4143918 5.77833681,22.4143918 C5.82996572,20.0084765 6.5389687,19.2458715 7.28579881,18.7295611 C7.42432787,18.633163 7.56387928,18.5458495 7.70087481,18.4580313 C8.11850671,18.1900345 8.53409389,17.9795737 8.94968107,17.8019185 C10.01293,17.3466771 11.0818018,17.1049248 12.2089478,16.6557398 C12.4471565,16.5618652 12.664918,16.4679906 12.878079,16.3251599 C13.0171192,16.23179 13.1219106,16.1207555 13.0794829,15.9259404 C12.9281744,15.2238997 12.4359106,15.8032978 11.1329195,12.1391599 C10.9693428,11.9771505 10.7173323,11.7888966 10.5537556,11.6268871 C10.1402131,11.3296176 9.63772578,10.4554734 9.70315648,9.6383605 C9.74200596,9.16494984 9.97152459,8.71021317 10.5189955,8.39780251" id="Fill-3" sketch:type="MSShapeGroup"></path>
            </g>
        </g>
    </g>
</svg>