<?xml version="1.0" encoding="UTF-8" standalone="no"?>
<svg width="40px" height="40px" viewBox="0 0 40 40" version="1.1" xmlns="http://www.w3.org/2000/svg" xmlns:xlink="http://www.w3.org/1999/xlink" xmlns:sketch="http://www.bohemiancoding.com/sketch/ns">
    <!-- Generator: Sketch 3.3.2 (12043) - http://www.bohemiancoding.com/sketch -->
    <title>legal copy</title>
    <desc>Created with Sketch.</desc>
    <defs></defs>
    <g id="Main-Attraction" stroke="none" stroke-width="1" fill="none" fill-rule="evenodd" sketch:type="MSPage">
        <g id="legal-copy" sketch:type="MSArtboardGroup" fill="#FFFFFF" opacity="0.3">
            <g id="Group" sketch:type="MSLayerGroup" transform="translate(6.000000, 3.000000)">
                <path d="M19.5505254,26.3973569 L1.33889915,26.3973569 C0.821520364,26.3973569 0.401618738,25.9722618 0.401618738,25.4472721 L0.401618738,1.60774449 C0.401618738,1.08329768 0.821520364,0.657659695 1.33889915,0.657659695 L19.5505254,0.657659695 C20.0684398,0.657659695 20.4878059,1.08329768 20.4878059,1.60774449 L20.4878059,25.4472721 C20.4878059,25.9722618 20.0684398,26.3973569 19.5505254,26.3973569 L19.5505254,26.3973569 Z M2.27617957,24.4971873 L18.613245,24.4971873 L18.613245,2.55782928 L2.27617957,2.55782928 L2.27617957,24.4971873 Z" id="Fill-1" sketch:type="MSShapeGroup"></path>
                <path d="M21.7978561,33.2319955 C21.7298363,33.2319955 21.6607453,33.2243948 21.5911188,33.2086505 L6.31344802,29.7307973 C5.80838777,29.6162442 5.4907836,29.1075417 5.60432843,28.5955817 C5.71787326,28.0841646 6.22079115,27.7616787 6.72424463,27.8773176 L21.0876653,31.1466951 L25.8313754,9.74047032 L22.7565601,9.04066501 C22.2520354,8.92556902 21.9344312,8.41740938 22.0479761,7.90599231 C22.1615209,7.39403233 22.6601541,7.07263222 23.1678923,7.1866424 L27.1569577,8.09492346 C27.3990439,8.15029983 27.6106014,8.30122759 27.7434275,8.51404658 C27.8762535,8.72686557 27.9207074,8.98420283 27.8655417,9.23068197 L22.711035,32.4903864 C22.6130223,32.9317687 22.2263271,33.2319955 21.7978561,33.2319955" id="Fill-2" sketch:type="MSShapeGroup"></path>
                <path d="M15.8142579,6.74471724 L5.00821809,6.74471724 C4.56421496,6.74471724 4.20483487,6.38042759 4.20483487,5.93035885 C4.20483487,5.48083301 4.56421496,5.11600045 5.00821809,5.11600045 L15.8142579,5.11600045 C16.2577254,5.11600045 16.6176411,5.48083301 16.6176411,5.93035885 C16.6176411,6.38042759 16.2577254,6.74471724 15.8142579,6.74471724" id="Fill-3" sketch:type="MSShapeGroup"></path>
                <path d="M15.8142579,10.0146376 L5.00821809,10.0146376 C4.56421496,10.0146376 4.20483487,9.65034799 4.20483487,9.20027925 C4.20483487,8.75075342 4.56421496,8.38592086 5.00821809,8.38592086 L15.8142579,8.38592086 C16.2577254,8.38592086 16.6176411,8.75075342 16.6176411,9.20027925 C16.6176411,9.65034799 16.2577254,10.0146376 15.8142579,10.0146376" id="Fill-4" sketch:type="MSShapeGroup"></path>
                <path d="M15.8142579,13.1938928 L5.00821809,13.1938928 C4.56421496,13.1938928 4.20483487,12.8296032 4.20483487,12.3795344 C4.20483487,11.9300086 4.56421496,11.565176 5.00821809,11.565176 L15.8142579,11.565176 C16.2577254,11.565176 16.6176411,11.9300086 16.6176411,12.3795344 C16.6176411,12.8296032 16.2577254,13.1938928 15.8142579,13.1938928" id="Fill-5" sketch:type="MSShapeGroup"></path>
                <path d="M15.8142579,16.264024 L5.00821809,16.264024 C4.56421496,16.264024 4.20483487,15.8997343 4.20483487,15.4496656 C4.20483487,15.0001397 4.56421496,14.6353072 5.00821809,14.6353072 L15.8142579,14.6353072 C16.2577254,14.6353072 16.6176411,15.0001397 16.6176411,15.4496656 C16.6176411,15.8997343 16.2577254,16.264024 15.8142579,16.264024" id="Fill-6" sketch:type="MSShapeGroup"></path>
                <path d="M9.54197736,22.6171053 L5.00821809,22.6171053 C4.56421496,22.6171053 4.20483487,22.2522727 4.20483487,21.8027469 C4.20483487,21.353221 4.56421496,20.9883885 5.00821809,20.9883885 L9.54197736,20.9883885 C9.98598048,20.9883885 10.3453606,21.353221 10.3453606,21.8027469 C10.3453606,22.2522727 9.98598048,22.6171053 9.54197736,22.6171053" id="Fill-7" sketch:type="MSShapeGroup"></path>
            </g>
        </g>
    </g>
</svg>