<?xml version="1.0" encoding="utf-8"?>
<!-- Generator: Adobe Illustrator 15.1.0, SVG Export Plug-In . SVG Version: 6.00 Build 0)  -->
<!DOCTYPE svg PUBLIC "-//W3C//DTD SVG 1.1//EN" "http://www.w3.org/Graphics/SVG/1.1/DTD/svg11.dtd">
<svg version="1.1" id="Layer_1" xmlns="http://www.w3.org/2000/svg" xmlns:xlink="http://www.w3.org/1999/xlink" x="0px" y="0px"
	 width="792px" height="612px" viewBox="0 0 792 612" enable-background="new 0 0 792 612" xml:space="preserve">
<g display="none">
	<path display="inline" fill="#010101" d="M99.692,396.772c0.396-0.701,2.48-4.579,2.654-5.017c0.285-0.691-0.005-0.999-0.463-1.258
		l-1.35-0.764c-0.136-0.074-0.201-0.147-0.109-0.311l0.442-0.781c0.061-0.108,0.157-0.091,0.265-0.021
		c0.351,0.197,1.493,0.949,4.191,2.475c0.702,0.396,3.446,1.84,4.067,2.182c3.67,2.074,6.402,4.043,7.762,7.624
		c0.943,2.489,0.919,5.432-0.849,8.562c-1.753,3.104-3.802,4.652-6.68,5.59c-4.219,1.354-8.849-1.225-10.549-2.185
		c-0.432-0.244-3.571-2.124-5.055-2.962c-2.348-1.326-3.473-1.854-3.852-2.068c-0.135-0.076-0.158-0.16-0.051-0.35l0.396-0.701
		c0.062-0.107,0.172-0.116,0.308-0.04l1.404,0.793c0.512,0.289,0.931,0.241,1.229-0.16c0.4-0.521,3.938-6.533,5.096-8.584
		L99.692,396.772z M102.262,401.677c-0.198,0.352-2.762,4.954-3.681,6.644c-0.304,0.54-0.44,1.031-0.379,1.744
		c0.049,0.668,0.875,1.349,1.793,1.866c1.565,0.885,4.085,1.274,6.54,0.205c1.888-0.82,3.974-2.562,5.391-5.071
		c1.25-2.213,1.613-4.997,1.137-7.117c-0.53-2.4-2.418-4.605-3.983-5.489c-0.756-0.427-1.175-0.629-1.633-0.638
		c-0.512-0.041-0.864,0.33-1.196,0.855c-0.667,1.118-2.664,4.653-2.907,5.085L102.262,401.677z"/>
	<path display="inline" fill="#010101" d="M122.467,409.302c0.945-2.091,1.763-3.897,2.079-4.674
		c0.394-0.945,0.243-1.592-0.152-1.771l-1.13-0.513c-0.141-0.062-0.131-0.16-0.08-0.272l0.345-0.764
		c0.063-0.142,0.118-0.186,0.259-0.115c0.254,0.114,1.091,0.596,4.171,1.987c1.582,0.716,4.106,1.754,5.264,2.272
		c2.204,0.996,3.485,2.528,4.158,4.125c0.595,1.392,0.69,2.763,0.218,3.808c-1.622,3.588-5.033,3.984-7.622,3.086l-0.09,0.198
		c0.749,0.679,0.958,1.419,1.188,2.34c0.162,0.618,0.579,3.835,0.652,4.276c0.055,0.33,0.61,3.168,0.88,4.072
		c0.173,0.521,1.145,1.231,1.795,1.524c0.197,0.09,0.175,0.216,0.124,0.329l-0.307,0.678c-0.077,0.169-0.143,0.241-0.34,0.152
		c-0.227-0.103-0.923-0.52-3.097-1.503c-0.82-0.37-1.891-0.786-2.722-1.129c-0.554-1.032-0.824-5.103-0.871-6.279
		c-0.091-2.354-0.305-4.97-1.661-5.582l-0.96-0.435l-0.652,1.439c-0.753,1.667-2.099,4.869-2.208,5.264
		c-0.212,0.618-0.216,1.229,0.208,1.421l1.158,0.522c0.198,0.089,0.188,0.188,0.125,0.328l-0.307,0.679
		c-0.089,0.197-0.143,0.241-0.567,0.051c-0.028-0.014-0.696-0.418-3.662-1.759c-2.995-1.354-3.683-1.562-3.994-1.703
		c-0.226-0.103-0.188-0.188-0.098-0.385l0.294-0.649c0.063-0.143,0.102-0.228,0.243-0.162l0.848,0.384
		c0.622,0.28,1.22,0.312,1.539-0.394c1.32-2.771,2.521-5.428,3.734-8.11L122.467,409.302z M125.043,414.141
		c0.524,0.271,0.863,0.425,1.117,0.539c3.729,1.687,6.215-1.478,6.815-2.806c0.587-1.3,0.697-2.747,0.356-3.649
		c-0.608-1.362-1.726-2.276-2.574-2.659c-0.48-0.218-0.873-0.327-1.188-0.231c-0.22,0.036-0.446,0.309-0.655,0.622L125.043,414.141z
		"/>
	<path display="inline" fill="#010101" d="M143.198,424.293c-0.453,0.528-3.319,4.011-3.655,4.944
		c-0.23,0.642-0.219,1.437,0.656,1.751l1.021,0.365c0.291,0.105,0.278,0.232,0.236,0.351l-0.23,0.642
		c-0.084,0.233-0.145,0.311-0.378,0.227c-0.379-0.137-1.544-0.653-3.936-1.514c-2.13-0.766-2.803-0.908-3.211-1.055
		c-0.175-0.062-0.141-0.249-0.067-0.454l0.199-0.554c0.063-0.175,0.124-0.252,0.298-0.189l0.759,0.273
		c0.7,0.251,1.547,0.094,2.445-0.571c0.628-0.466,4.524-4.796,6.41-7.018c0.442-0.499,5.059-5.922,5.605-6.614
		c0.192-0.261,0.474-0.587,0.385-0.98c-0.045-0.148-0.109-0.338-0.067-0.452c0.032-0.088,0.131-0.185,0.385-0.158
		c1.007,0.131,3.175,0.055,3.792-0.284c0.197-0.094,0.326-0.179,0.473-0.126c0.175,0.062,0.171,0.259,0.143,0.611
		c-0.106,2.036-0.18,9.389-0.296,11.455c-0.148,2.516-0.202,8.622-0.077,9.558c0.151,1.141,0.784,1.764,1.221,1.921l0.99,0.356
		c0.177,0.062,0.163,0.188,0.111,0.335l-0.2,0.555c-0.062,0.175-0.165,0.369-0.399,0.285c-0.553-0.199-1.135-0.507-4.869-1.851
		c-2.42-0.869-3.473-1.148-4.057-1.358c-0.292-0.104-0.258-0.29-0.184-0.494l0.198-0.555c0.053-0.146,0.124-0.251,0.27-0.199
		l0.816,0.293c0.788,0.284,1.155,0.086,1.252-0.735c0.116-1.145,0.319-5.287,0.348-6.463L143.198,424.293z M149.744,425.328
		c0.052-0.97,0.533-7.714,0.59-8.518c0.041-0.479,0.056-0.703-0.089-0.758c-0.176-0.062-0.306,0.023-0.488,0.255
		c-0.281,0.326-5.265,6.31-5.76,6.954L149.744,425.328z"/>
	<path display="inline" fill="#010101" d="M166.937,432.381c-0.388,1.404-1.483,5.477-1.554,5.844
		c-0.123,0.674,0.094,1.056,0.572,1.188l1.523,0.422c0.21,0.058,0.215,0.156,0.182,0.275l-0.215,0.776
		c-0.042,0.148-0.096,0.23-0.335,0.164c-0.419-0.116-1.32-0.462-4.817-1.431c-2.628-0.729-3.819-0.962-4.147-1.053
		c-0.208-0.059-0.213-0.155-0.182-0.275l0.224-0.807c0.042-0.149,0.087-0.201,0.237-0.159l0.777,0.215
		c1.016,0.281,1.267,0.189,1.564-0.532c0.111-0.291,1.493-4.927,2.454-8.393l0.952-3.438c0.545-1.972,1.384-5.117,1.455-5.483
		c0.106-0.614-0.177-0.757-0.773-0.922l-1.404-0.39c-0.15-0.042-0.164-0.108-0.115-0.289l0.215-0.776
		c0.042-0.149,0.087-0.2,0.237-0.164c0.33,0.091,1.379,0.479,4.518,1.348c0.538,0.148,2.326,0.548,3.312,0.826
		c3.675,1.018,5.355,1.805,6.715,3.63c0.991,1.304,1.415,3.255,0.868,5.228c-0.993,3.586-4.541,5.24-9.56,3.852
		c-0.927-0.258-1.606-0.479-2.395-0.761L166.937,432.381z M167.568,430.11c0.616,0.331,1.293,0.552,1.772,0.685
		c0.925,0.256,2.685-0.286,3.631-1.148c0.854-0.763,1.288-1.863,1.594-2.97c1.144-4.123-1.604-5.816-2.831-6.157
		c-0.508-0.141-0.875-0.21-1.444-0.239L167.568,430.11z"/>
	<path display="inline" fill="#010101" d="M187.745,433.751c1.397,0.281,2.753,0.46,3.137,0.442c0.54-0.02,1.021-0.206,1.586-0.66
		c0.427-0.39,0.962-1.166,1.08-1.743c0.042-0.212,0.146-0.255,0.298-0.225l0.802,0.257c0.145,0.062,0.261,0.115,0.193,0.292
		c-0.195,0.499-0.513,2.078-0.729,3.141c-0.275,1.367-0.447,2.85-0.515,3.5c-0.006,0.188-0.134,0.194-0.292,0.194l-0.76,0.005
		c-0.128,0.006-0.176-0.067-0.193-0.292c-0.023-0.51-0.187-1.271-0.296-1.672c-0.217-0.646-0.866-1.188-1.457-1.399
		c-0.795-0.287-1.726-0.538-3.061-0.808l-0.368,1.822c-0.33,1.642-0.772,4.617-0.883,5.164c-0.318,1.58-0.094,2.194,0.264,2.456
		c0.419,0.274,0.978,0.481,2.498,0.787c0.517,0.104,1.798,0.332,2.449,0.399c0.619,0.062,1.591-0.06,2.509-0.537
		c0.918-0.479,3-2.02,3.754-2.626c0.146-0.097,0.244-0.109,0.323-0.029l0.456,0.407c0.109,0.085,0.121,0.183,0.072,0.268
		l-2.292,4.312c-0.146,0.255-0.396,0.395-0.76,0.321c-0.151-0.031-0.814-0.196-2.751-0.618c-1.975-0.397-5.188-1.077-10.444-2.137
		c-1.124-0.228-1.981-0.367-2.588-0.49c-0.645-0.1-1.044-0.147-1.319-0.203c-0.212-0.043-0.255-0.146-0.207-0.389l0.129-0.639
		c0.037-0.183,0.146-0.256,0.358-0.213l0.912,0.186c1.398,0.28,1.562,0.093,1.776-0.971l2.052-10.177
		c0.508-2.522,1.201-6.271,1.231-6.58c0.074-0.997-0.187-1.271-1.007-1.436l-1.184-0.239c-0.121-0.024-0.133-0.122-0.091-0.335
		l0.146-0.729c0.019-0.091,0.074-0.207,0.255-0.17c0.669,0.136,1.714,0.439,4.479,0.997l10.668,2.119
		c0.486,0.098,1.076,0.153,1.228,0.185c0.151,0.03,0.2,0.104,0.212,0.201c0.037,0.448,0.2,4.812,0.261,5.142
		c0.03,0.164,0.017,0.226-0.153,0.286l-0.535,0.145c-0.133,0.036-0.279-0.024-0.339-0.195c-0.103-0.271-2.286-3.559-2.9-4.124
		c-0.558-0.523-1.329-1.09-2.143-1.286l-3.986-0.929L187.745,433.751z"/>
	<path display="inline" fill="#010101" d="M204.242,434.551c0.288-2.274,0.537-4.243,0.611-5.077
		c0.097-1.019-0.236-1.592-0.666-1.646l-1.229-0.156c-0.155-0.02-0.173-0.115-0.158-0.238l0.106-0.83
		c0.019-0.153,0.057-0.212,0.212-0.187c0.276,0.034,1.218,0.247,4.569,0.671c1.721,0.218,4.438,0.469,5.7,0.622
		c2.398,0.304,4.072,1.391,5.185,2.718c0.979,1.155,1.472,2.437,1.329,3.573c-0.495,3.904-3.636,5.288-6.374,5.191l-0.027,0.215
		c0.915,0.429,1.332,1.075,1.823,1.888c0.338,0.542,1.682,3.492,1.882,3.893c0.15,0.301,1.514,2.847,2.041,3.633
		c0.318,0.444,1.455,0.84,2.163,0.929c0.215,0.027,0.23,0.154,0.214,0.277l-0.093,0.737c-0.023,0.185-0.065,0.272-0.281,0.245
		c-0.246-0.031-1.034-0.225-3.402-0.522c-0.892-0.113-2.037-0.195-2.932-0.278c-0.833-0.823-2.289-4.631-2.679-5.742
		c-0.78-2.224-1.752-4.658-3.229-4.845l-1.046-0.132l-0.196,1.567c-0.23,1.813-0.574,5.271-0.563,5.677
		c-0.021,0.652,0.156,1.237,0.617,1.297l1.261,0.158c0.215,0.027,0.234,0.124,0.215,0.277l-0.094,0.737
		c-0.027,0.216-0.065,0.272-0.526,0.215c-0.032-0.004-0.789-0.193-4.016-0.602c-3.26-0.412-3.978-0.409-4.316-0.452
		c-0.247-0.031-0.235-0.124-0.208-0.339l0.091-0.706c0.019-0.154,0.03-0.247,0.185-0.229l0.921,0.117
		c0.676,0.086,1.257-0.06,1.354-0.828c0.448-3.037,0.812-5.927,1.183-8.848L204.242,434.551z M208.127,438.416
		c0.58,0.104,0.949,0.151,1.226,0.186c4.058,0.515,5.501-3.239,5.685-4.685c0.178-1.414-0.143-2.83-0.733-3.592
		c-0.982-1.123-2.319-1.667-3.243-1.784c-0.521-0.066-0.93-0.056-1.202,0.129c-0.2,0.1-0.335,0.426-0.444,0.788L208.127,438.416z"/>
	<path display="inline" fill="#010101" d="M232.02,432.395c0.034-1.084-0.168-1.586-0.819-1.605l-1.457-0.045
		c-0.185-0.005-0.213-0.067-0.208-0.285l0.023-0.743c0.005-0.186,0.039-0.247,0.286-0.241c0.31,0.01,1.825,0.148,5.079,0.248
		c2.726,0.083,4.216,0.035,4.556,0.048c0.249,0.009,0.277,0.07,0.272,0.258l-0.025,0.806c-0.005,0.154-0.037,0.215-0.254,0.209
		l-1.054-0.033c-1.053-0.031-1.598,0.541-1.679,1.159c-0.041,0.34-0.136,2.445-0.185,4.025l-0.062,2.045
		c-0.051,1.642-0.045,5.581-0.045,6.572c-0.012,1.427,0.224,2.829,0.879,3.719c0.984,1.27,2.425,1.811,3.819,1.854
		c1.146,0.034,2.837-0.503,3.697-1.253c1.273-1.077,2.039-2.76,2.107-4.99l0.145-4.771c0.079-2.604-0.126-6.021-0.229-6.737
		c-0.099-0.81-0.577-1.382-1.105-1.397l-0.991-0.03c-0.187-0.006-0.213-0.099-0.208-0.255l0.023-0.806
		c0.005-0.154,0.037-0.216,0.224-0.212c0.31,0.01,1.732,0.146,3.84,0.21c1.672,0.052,2.667-0.012,2.945-0.001
		c0.279,0.01,0.306,0.134,0.303,0.288l-0.021,0.683c-0.005,0.186-0.041,0.309-0.195,0.305l-0.96-0.03
		c-1.177-0.036-1.296,0.829-1.369,1.139c-0.074,0.431-0.205,4.707-0.218,5.141c-0.014,0.434-0.241,5.854-0.37,7.06
		c-0.264,2.535-1.161,4.461-2.814,5.837c-1.401,1.167-3.53,1.815-5.543,1.755c-1.456-0.046-3.433-0.322-4.716-0.919
		c-1.468-0.696-2.787-2.194-3.47-4.2c-0.486-1.35-0.546-3.429-0.422-7.486L232.02,432.395z"/>
	<path display="inline" fill="#010101" d="M272.225,442.262c-0.128-2.756-0.23-4.271-0.365-5.815
		c-0.085-1.205-0.383-4.232-0.498-4.692c-0.222-0.765-0.986-1.163-1.697-1.131l-0.991,0.047c-0.154,0.007-0.19-0.085-0.198-0.271
		l-0.037-0.773c-0.007-0.154,0.022-0.218,0.269-0.221c0.342-0.018,1.335,0.028,3.626-0.077c1.858-0.087,2.597-0.214,2.937-0.238
		c0.279-0.013,0.312,0.048,0.321,0.233l0.036,0.742c0.007,0.154-0.019,0.279-0.142,0.285l-0.868,0.04
		c-0.526,0.025-0.811,0.566-0.853,1.686c-0.12,2.085-0.288,9.104-0.098,13.189l0.247,5.293c0.022,0.466,0.017,1.023-0.416,1.043
		c-0.466,0.022-0.875-0.113-1.231-0.438c-0.55-0.471-2.143-2.04-4.102-4.152c-2.353-2.525-4.968-5.383-5.587-6.036
		c-0.557-0.595-5.076-5.72-5.836-6.709l-0.248,0.013l0.291,6.254c0.121,2.568,0.577,6.363,0.663,7.539
		c0.146,1.792,0.747,2.693,2.047,2.634l0.774-0.036c0.217-0.01,0.252,0.082,0.26,0.268l0.036,0.743
		c0.008,0.187-0.02,0.249-0.237,0.261c-0.31,0.014-2.171,0.007-3.626,0.074c-0.958,0.045-3.091,0.238-3.401,0.252
		c-0.125,0.007-0.158-0.055-0.168-0.271l-0.037-0.805c-0.005-0.094,0.022-0.188,0.177-0.194l1.083-0.05
		c0.681-0.032,1.13-1.047,1.189-3.128c0.003-0.589,0.021-5.555-0.195-10.137l-0.13-2.785c-0.085-1.826-1.28-3.509-2.831-3.468
		l-0.775,0.007c-0.155,0.007-0.19-0.115-0.195-0.208l-0.039-0.837c-0.007-0.123,0.022-0.188,0.176-0.193
		c0.155-0.007,0.404,0.013,0.993-0.007c0.621,0.002,1.613-0.015,3.222-0.091c1.053-0.048,1.978-0.152,2.35-0.179
		c0.402-0.02,0.656,0.094,0.917,0.36c0.163,0.179,6.61,7.354,7.592,8.456c0.459,0.506,5.242,5.96,5.602,6.347l0.123-0.005
		L272.225,442.262z"/>
	<path display="inline" fill="#010101" d="M280.837,437.43c-0.081-0.739-0.784-6.277-0.86-6.676
		c-0.143-0.731-0.484-1.007-1.132-0.937l-1.48,0.163c-0.153,0.017-0.252-0.034-0.266-0.158L277,428.928
		c-0.014-0.124,0.072-0.194,0.195-0.212c0.37-0.041,1.953-0.121,4.974-0.453c3.145-0.346,4.12-0.547,4.553-0.592
		c0.153-0.017,0.225,0.069,0.246,0.255l0.085,0.771c0.017,0.154-0.069,0.227-0.224,0.243l-0.893,0.099
		c-0.772,0.085-1.208,0.383-1.146,0.937c0.034,0.31,0.69,7.132,0.732,7.501l0.261,2.374c0.034,0.309,0.91,7.419,0.94,7.696
		c0.104,0.955,0.583,1.06,1.169,0.994l1.265-0.139c0.153-0.018,0.254,0.033,0.271,0.188l0.094,0.863
		c0.013,0.123-0.072,0.194-0.257,0.215c-0.37,0.041-1.613,0.084-4.541,0.406c-3.238,0.355-4.553,0.594-4.891,0.631
		c-0.155,0.017-0.254-0.034-0.274-0.219l-0.091-0.832c-0.014-0.124,0.071-0.195,0.225-0.213l0.895-0.1
		c0.616-0.066,1.253-0.23,1.295-0.983c0.01-0.471-0.629-7.138-0.809-8.771L280.837,437.43z"/>
	<path display="inline" fill="#010101" d="M302.473,425.481c-0.025-0.152-0.005-0.22,0.146-0.238
		c0.276-0.047,1.697-0.19,3.746-0.534c2.842-0.476,3.591-0.696,3.865-0.748c0.183-0.03,0.225,0.025,0.26,0.239l0.128,0.765
		c0.02,0.122,0.005,0.219-0.178,0.249l-0.703,0.118c-0.521,0.087-1.432,0.46-1.995,1.969c-0.875,2.283-1.584,6.109-2.314,8.872
		c-0.488,1.778-2.568,10.547-2.938,11.521c-0.153,0.401-0.281,0.581-0.617,0.637c-0.397,0.066-0.58-0.279-0.831-0.646
		c-1.536-2.225-5.557-9.154-6.766-11.119c-1.209-1.967-3.48-6.142-3.991-6.937c-0.422-0.65-0.841-0.896-1.482-0.788l-0.795,0.134
		c-0.123,0.021-0.178-0.128-0.204-0.279l-0.123-0.733c-0.027-0.152-0.007-0.219,0.177-0.244c0.306-0.052,1.33-0.129,4.998-0.743
		c3.177-0.532,4.538-0.854,4.813-0.906c0.274-0.047,0.32,0.04,0.352,0.224l0.118,0.703c0.025,0.152,0.015,0.279-0.198,0.314
		l-1.313,0.222c-0.735,0.123-1.258,0.557-1.192,0.953c0.042,0.245,0.103,0.611,0.266,1.023c0.429,1.06,2.202,4.502,3.14,6.167
		c0.587,1.063,2.868,5.3,3.464,6.425l0.123-0.02c0.543-2.196,1.399-6.268,1.613-7.436c0.33-1.596,0.846-4.32,1.105-5.777
		c0.173-0.846,0.086-1.365,0.023-1.732c-0.061-0.366-0.535-0.945-1.421-0.799l-0.949,0.159c-0.121,0.021-0.168-0.065-0.198-0.249
		L302.473,425.481z"/>
	<path display="inline" fill="#010101" d="M318.973,432.178c1.385-0.337,2.688-0.75,3.027-0.928
		c0.483-0.246,0.837-0.619,1.159-1.271c0.221-0.531,0.377-1.464,0.237-2.034c-0.051-0.211,0.024-0.294,0.175-0.331l0.836-0.107
		c0.158-0.006,0.286-0.005,0.299,0.184c0.034,0.533,0.416,2.1,0.671,3.153c0.331,1.354,0.802,2.771,1.017,3.39
		c0.074,0.174-0.038,0.232-0.183,0.3l-0.686,0.327c-0.113,0.059-0.188,0.014-0.3-0.184c-0.236-0.452-0.707-1.072-0.976-1.39
		c-0.471-0.491-1.289-0.707-1.914-0.65c-0.841,0.077-1.79,0.244-3.115,0.566l0.439,1.808c0.396,1.626,1.258,4.512,1.391,5.054
		c0.38,1.565,0.845,2.026,1.28,2.111c0.496,0.072,1.09,0.022,2.595-0.345c0.513-0.124,1.771-0.462,2.388-0.677
		c0.588-0.207,1.419-0.729,2.048-1.552c0.629-0.822,1.859-3.101,2.287-3.97c0.092-0.148,0.174-0.202,0.279-0.164l0.585,0.177
		c0.135,0.031,0.188,0.114,0.179,0.213l-0.247,4.877c-0.025,0.293-0.192,0.524-0.554,0.612c-0.15,0.036-0.82,0.167-2.755,0.607
		c-1.958,0.476-5.158,1.224-10.367,2.491c-1.114,0.271-1.95,0.507-2.553,0.652c-0.626,0.186-1.009,0.311-1.28,0.375
		c-0.212,0.053-0.292-0.023-0.351-0.265l-0.155-0.633c-0.044-0.181,0.025-0.293,0.235-0.345l0.903-0.22
		c1.386-0.338,1.454-0.578,1.196-1.632l-2.456-10.089c-0.608-2.5-1.57-6.188-1.673-6.483c-0.355-0.934-0.708-1.07-1.521-0.873
		l-1.175,0.285c-0.121,0.029-0.173-0.054-0.224-0.265l-0.176-0.723c-0.022-0.091-0.021-0.219,0.16-0.263
		c0.663-0.162,1.738-0.326,4.479-0.995l10.564-2.604c0.482-0.117,1.04-0.317,1.19-0.354c0.149-0.036,0.226,0.01,0.277,0.093
		c0.222,0.393,2.22,4.275,2.415,4.548c0.096,0.137,0.111,0.197-0.017,0.324l-0.425,0.357c-0.105,0.089-0.264,0.097-0.39-0.033
		c-0.21-0.203-3.581-2.255-4.376-2.508c-0.728-0.236-1.665-0.424-2.486-0.256l-4.004,0.847L318.973,432.178z"/>
	<path display="inline" fill="#010101" d="M334.28,425.904c-0.708-2.183-1.32-4.068-1.608-4.855
		c-0.345-0.963-0.892-1.34-1.303-1.206l-1.179,0.383c-0.148,0.049-0.207-0.029-0.244-0.148l-0.259-0.795
		c-0.048-0.148-0.037-0.217,0.108-0.268c0.267-0.085,1.209-0.294,4.423-1.337c1.65-0.535,4.216-1.466,5.426-1.854
		c2.3-0.747,4.277-0.478,5.85,0.252c1.377,0.629,2.37,1.578,2.723,2.669c1.216,3.745-1.041,6.334-3.559,7.411l0.066,0.207
		c1.01-0.002,1.664,0.404,2.454,0.932c0.535,0.348,3.01,2.445,3.358,2.723c0.264,0.208,2.583,1.933,3.393,2.419
		c0.479,0.27,1.676,0.143,2.354-0.078c0.207-0.067,0.273,0.041,0.312,0.159l0.23,0.707c0.057,0.178,0.056,0.274-0.15,0.343
		c-0.236,0.076-1.033,0.235-3.301,0.974c-0.855,0.277-1.927,0.69-2.773,0.997c-1.104-0.393-4.042-3.219-4.868-4.059
		c-1.653-1.681-3.569-3.471-4.985-3.012l-1.002,0.326l0.488,1.503c0.564,1.74,1.724,5.014,1.906,5.378
		c0.262,0.601,0.67,1.054,1.112,0.911l1.208-0.393c0.207-0.066,0.266,0.012,0.313,0.158l0.229,0.707
		c0.065,0.207,0.055,0.275-0.387,0.419c-0.028,0.011-0.795,0.16-3.891,1.165c-3.126,1.015-3.774,1.321-4.1,1.429
		c-0.235,0.076-0.264-0.014-0.332-0.22l-0.22-0.679c-0.047-0.146-0.076-0.234,0.072-0.283l0.883-0.286
		c0.648-0.21,1.114-0.59,0.875-1.326c-0.889-2.938-1.788-5.71-2.696-8.512L334.28,425.904z M339.441,427.75
		c0.567-0.152,0.923-0.267,1.188-0.354c3.893-1.263,3.602-5.274,3.15-6.66c-0.439-1.355-1.332-2.5-2.191-2.938
		c-1.367-0.6-2.809-0.521-3.692-0.234c-0.502,0.161-0.866,0.346-1.034,0.629c-0.141,0.175-0.123,0.527-0.065,0.9L339.441,427.75z"/>
	<path display="inline" fill="#010101" d="M357.612,425.617c0.115-0.046,0.214-0.053,0.294,0.147
		c0.419,0.866,1.321,1.938,2.466,2.779c1.367,0.984,3.031,1.046,4.41,0.486s3.217-2.374,2.299-4.644
		c-0.967-2.384-1.706-2.888-6.011-2.781c-0.989,0.033-3.201-0.141-5.178-0.812c-1.365-0.482-2.413-1.83-3.089-3.496
		c-0.71-1.752-0.757-3.104,0.442-5.096c0.898-1.5,1.826-2.345,3.577-3.056c2.097-0.851,3.356-0.96,4.053-0.974
		c0.335-0.002,0.511-0.141,0.603-0.411l0.222-0.524c0.068-0.161,0.189-0.277,0.36-0.348c0.202-0.082,0.388,0.211,0.486,0.371
		l2.449,4.728c0.047,0.113,0.001,0.166-0.072,0.229l-0.552,0.456c-0.119,0.116-0.286,0.117-0.454-0.05
		c-0.654-0.704-1.596-1.627-2.992-2.265c-1.044-0.515-2.067-0.566-3.359-0.042c-2.154,0.872-2.289,3.101-1.986,3.848
		c0.43,1.062,0.809,1.912,1.818,2.34c1.061,0.473,2.979,0.498,4.548,0.33c1.542-0.156,2.953,0.107,4.561,0.693
		c1.529,0.551,2.5,1.629,3.315,3.639c1.421,3.505,0.074,7.361-3.717,8.897c-2.586,1.048-4.11,1.163-5.644,0.849
		c-0.438-0.09-0.646-0.106-0.789-0.048c-0.171,0.068-0.205,0.316-0.261,0.674c-0.045,0.387-0.176,0.473-0.378,0.555
		c-0.316,0.128-0.489,0.031-0.588-0.296l-1.752-5.645c-0.053-0.213,0.033-0.247,0.148-0.295L357.612,425.617z"/>
	<path display="inline" fill="#010101" d="M372.501,412.659c-0.316-0.674-2.775-5.682-2.975-6.032
		c-0.374-0.646-0.786-0.795-1.374-0.518l-1.347,0.633c-0.14,0.065-0.25,0.049-0.303-0.062l-0.383-0.812
		c-0.052-0.111,0.005-0.208,0.118-0.265c0.336-0.157,1.806-0.747,4.553-2.04c2.861-1.345,3.719-1.852,4.11-2.032
		c0.142-0.066,0.236-0.009,0.315,0.16l0.33,0.7c0.065,0.141,0.008,0.235-0.133,0.303l-0.812,0.383
		c-0.7,0.33-1.016,0.752-0.778,1.257c0.131,0.279,2.963,6.516,3.122,6.854l1.016,2.158c0.131,0.281,3.263,6.718,3.382,6.972
		c0.409,0.868,0.896,0.812,1.429,0.561l1.147-0.541c0.142-0.066,0.252-0.049,0.318,0.091l0.369,0.785
		c0.054,0.112-0.006,0.208-0.174,0.287c-0.336,0.158-1.497,0.602-4.161,1.854c-2.942,1.386-4.109,2.036-4.418,2.183
		c-0.142,0.064-0.25,0.05-0.329-0.119l-0.357-0.758c-0.052-0.111,0.005-0.207,0.145-0.272l0.814-0.383
		c0.56-0.265,1.11-0.625,0.905-1.351c-0.142-0.447-2.906-6.544-3.606-8.029L372.501,412.659z"/>
	<path display="inline" fill="#010101" d="M384.938,398.006l-0.949,0.527c-0.868,0.481-2.478,1.413-3.392,2.451
		c-0.354,0.765-0.629,3.081-0.763,4.432c-0.007,0.182-0.042,0.308-0.165,0.341l-0.716,0.114c-0.125,0.033-0.228-0.087-0.244-0.184
		c-0.334-1.305-1.428-5.377-1.621-5.979c-0.114-0.397-0.039-0.581,0.149-0.687c0.189-0.105,0.332-0.042,0.741,0.119
		c0.509,0.214,1.159,0.172,2.164-0.315c1.48-0.717,2.664-1.27,5.481-2.834l1.572-0.874c2.954-1.641,4.057-2.396,5.165-3.083
		c0.582-0.358,1.457-1.271,1.602-1.776c0.121-0.422,0.208-0.646,0.396-0.754c0.189-0.104,0.331-0.042,0.566,0.254
		c0.411,0.551,2.795,3.624,3.81,4.939c0.088,0.093,0.095,0.23,0.026,0.304l-0.449,0.533c-0.093,0.088-0.19,0.036-0.404-0.093
		c-1.14-0.646-2.979-1.467-4.018-1.74c-0.901-0.029-3.375,1.201-3.998,1.548L389,395.747l4.141,7.451
		c0.21,0.379,4.427,7.966,4.681,8.355c0.431,0.648,0.873,0.935,1.523,0.572l1.218-0.678c0.243-0.137,0.315-0.069,0.423,0.12
		l0.347,0.623c0.075,0.136,0.094,0.231-0.15,0.367c-0.271,0.15-1.184,0.552-4.189,2.223c-2.873,1.597-3.965,2.311-4.346,2.521
		c-0.217,0.12-0.304,0.027-0.424-0.189l-0.286-0.516c-0.104-0.188-0.124-0.285,0.039-0.376l1.382-0.769
		c0.543-0.301,0.687-0.807,0.469-1.324c-0.26-0.599-4.884-8.917-5.169-9.432L384.938,398.006z"/>
	<path display="inline" fill="#010101" d="M415.731,396.455c0.675,1.003,1.877,2.623,2.059,2.838
		c0.633,0.771,1.07,0.589,1.481,0.311l0.745-0.502c0.181-0.12,0.231-0.043,0.304,0.061l0.432,0.643
		c0.104,0.155,0.156,0.231-0.025,0.354c-0.308,0.208-1.362,0.806-3.779,2.434c-2.676,1.802-3.423,2.415-3.705,2.605
		c-0.104,0.068-0.207,0.025-0.328-0.153l-0.415-0.617c-0.069-0.104-0.097-0.196,0.059-0.302l0.901-0.605
		c0.668-0.45,0.701-0.847,0.501-1.197c-0.217-0.378-1.534-2.444-3.144-4.837l-0.745-1.106c-0.948-0.521-10.121-5.262-11.354-5.704
		c-0.567-0.178-1.324,0.031-1.735,0.311l-0.386,0.26c-0.153,0.104-0.231,0.043-0.301-0.061l-0.486-0.721
		c-0.068-0.104-0.076-0.171,0.077-0.268c0.23-0.156,1.492-0.894,3.782-2.434c2.649-1.785,3.524-2.484,3.781-2.666
		c0.153-0.104,0.215-0.07,0.301,0.059l0.433,0.645c0.087,0.128,0.132,0.249-0.022,0.354l-0.592,0.397
		c-0.36,0.242-0.444,0.673-0.167,1.085c0.312,0.463,7.338,4.293,9.038,5.317c-0.183-1.935-0.748-9.44-1.285-10.238
		c-0.294-0.438-1.025-0.58-1.565-0.217l-0.694,0.468c-0.154,0.104-0.231,0.044-0.337-0.109l-0.449-0.67
		c-0.069-0.103-0.077-0.172,0.074-0.268c0.259-0.174,1.364-0.807,3.27-2.088c1.774-1.195,2.29-1.653,2.521-1.816
		c0.181-0.121,0.24-0.087,0.346,0.067l0.416,0.616c0.104,0.154,0.131,0.248-0.052,0.371l-0.463,0.312
		c-0.308,0.208-0.977,0.882-1.051,1.604c-0.058,0.638,0.363,9.925,0.643,12.615L415.731,396.455z"/>
</g>
<g>
	<g display="none">
		<defs>
			<path id="SVGID_1_" d="M506.441,210.001c0.643,91.472-28.478,153.183-71.258,201.239c-0.834,0.67-1.591,1.423-2.257,2.261
				c-1.968,2.139-4.02,4.194-6.159,6.159c-0.77,0.599-1.455,1.284-2.055,2.055c-14.968,13.499-31.46,25.944-51.336,35.319
				c-2.573,1.214-6.499,3.471-8.83,3.49c-2.001,0.018-5.826-2.078-8.419-3.285c-39.248-18.26-69.195-48.678-91.177-83.78
				c-24.37-38.928-39.507-85.589-42.299-144.155c-0.134-1.031,0.27-2.596-0.208-3.286c0-4.518,0-9.036,0-13.553
				c0.478-0.69,0.074-2.254,0.208-3.286c0.182-3.029-0.232-9.087,1.642-10.883c1.527-1.466,6.334-1.354,10.061-1.643
				c46.729-3.636,85.397-16.253,116.024-36.141c1.816-1.183,4.41-2.806,6.98-4.723c1.954-1.458,4.756-4.356,7.188-4.313
				c2.354,0.042,5.039,2.955,7.188,4.519c30.916,22.49,73.315,36.854,123.209,40.659c2.795,0.213,8.521,0.309,9.854,1.643
				c1.864,1.864,1.026,5.38,1.438,9.446C506.368,208.435,505.974,209.651,506.441,210.001z"/>
		</defs>
		<clipPath id="SVGID_2_" display="inline">
			<use xlink:href="#SVGID_1_"  overflow="visible"/>
		</clipPath>
	</g>
	<path fill="#2B3990" d="M361.19,241.25c-5.468,0-8.397,0.195-10.936,1.562c-2.929,1.367-3.71,4.492-3.905,8.397
		c-0.195,8.202-0.195,33.783-0.195,36.907v13.865h-0.001c0,2.539,0.195,35.736,0.39,47.843c0,3.904,0.781,7.029,3.32,10.74
		c2.343,3.515,8.982,4.688,15.622,4.688c11.327,0,26.363-5.663,36.518-19.138c7.812-10.351,13.865-26.362,13.865-44.524
		c0-16.013-6.64-32.416-15.817-42.57C389.701,247.499,372.516,241.25,361.19,241.25z"/>
	<g>
		<path fill="#2B3990" d="M267.223,243.019c4.893-6.414,9.535-12.908,14.005-19.488c-0.676-1.267-2.193-0.085-3.206-0.169
			c-13.246,5.229-26.577,10.208-38.893,17.632c10.514-18.876,25.429-36.212,42.006-51.573c-3.82,0.914-7.705,1.76-11.664,2.527
			c-0.131,0.065-0.261,0.134-0.393,0.197c0.037-0.047,0.075-0.094,0.112-0.141c-11.07,2.133-22.673,3.702-34.835,4.648
			c-3.727,0.289-8.534,0.177-10.061,1.643c-1.874,1.796-1.46,7.854-1.642,10.883c-0.134,1.032,0.27,2.596-0.208,3.286
			c0,4.517,0,9.035,0,13.553c0.478,0.69,0.074,2.255,0.208,3.286c1.437,30.144,6.152,57.127,13.706,81.532
			C243.457,286.922,252.336,263.72,267.223,243.019z"/>
		<path fill="#2B3990" d="M506.236,207.743c-0.411-4.066,0.427-7.582-1.438-9.446c-1.334-1.334-7.06-1.43-9.854-1.643
			c-49.895-3.805-92.294-18.169-123.209-40.659c-2.149-1.564-4.834-4.477-7.188-4.519c-2.432-0.043-5.234,2.855-7.188,4.313
			c-2.57,1.917-5.164,3.54-6.98,4.723c-17.316,11.245-37.208,20.161-59.669,26.448c-8.385,8.47-16.012,17.961-21.798,27.458
			c-0.811,1.894-1.894,3.678-2.725,5.529c-0.543,1.206,0.414,1.678,1.884,0.995c14.918-6.91,30.26-12.653,46.735-15.635
			c-34.758,24.634-58.213,62.433-72.892,99.637c-1.253,3.142-2.616,6.827-4.01,10.729c6.95,21.089,16.056,40.228,27.048,57.786
			c21.982,35.103,51.929,65.521,91.177,83.78c2.593,1.207,6.418,3.303,8.419,3.285c2.331-0.02,6.257-2.276,8.83-3.49
			c19.876-9.375,36.368-21.82,51.336-35.319c0.6-0.771,1.285-1.456,2.055-2.055c2.14-1.965,4.191-4.021,6.159-6.159
			c0.666-0.838,1.423-1.591,2.257-2.261c42.78-48.057,71.9-109.767,71.258-201.239C505.974,209.651,506.368,208.435,506.236,207.743
			z M427.975,352.559c-18.941,20.504-52.333,20.699-64.637,20.699c-3.125,0-26.168-0.586-36.908-0.586
			c-16.989,0-24.8,0.586-27.534,0.586c-0.977,0-1.367-0.391-1.367-1.758v-5.078c0-0.779,0.586-1.17,1.562-1.17h10.154
			c3.71,0,5.859-1.562,6.249-4.688c0.586-4.101,1.367-48.038,1.367-62.879v-14.646c0-5.078-0.586-32.807-0.976-35.736
			c-0.586-4.688-3.125-5.469-6.445-5.469h-9.764c-0.976,0-1.562-0.195-1.562-1.366v-5.663c0-0.781,0.585-0.977,1.367-0.977
			c2.539,0,11.131,0.586,30.659,0.586c5.077,0,24.604-0.586,29.096-0.586c26.559,0,47.649,2.344,66.2,17.771
			c12.89,10.74,21.872,26.949,21.872,49.601C447.308,323.657,440.864,338.498,427.975,352.559z"/>
	</g>
	<g display="none">
		<path display="inline" fill="#2E368F" d="M316.025,286.521c0-5.078-0.586-32.807-0.976-35.736
			c-0.586-4.688-3.125-5.469-6.445-5.469h-9.764c-0.976,0-1.562-0.195-1.562-1.366v-5.663c0-0.781,0.585-0.977,1.367-0.977
			c2.539,0,11.131,0.586,30.659,0.586c5.077,0,24.604-0.586,29.096-0.586c26.558,0,47.648,2.344,66.199,17.771
			c12.89,10.74,21.872,26.949,21.872,49.601c0,22.457-6.443,37.298-19.333,51.359c-18.942,20.503-52.333,20.698-64.637,20.698
			c-3.125,0-26.168-0.585-36.908-0.585c-16.989,0-24.8,0.585-27.534,0.585c-0.977,0-1.367-0.39-1.367-1.757v-5.078
			c0-0.78,0.586-1.17,1.562-1.17h10.154c3.71,0,5.859-1.562,6.249-4.688c0.586-4.1,1.367-48.038,1.367-62.879L316.025,286.521
			L316.025,286.521z M345.317,305.463c0,2.539,0.195,35.736,0.391,47.844c0,3.904,0.781,7.029,3.32,10.739
			c2.343,3.515,8.983,4.688,15.622,4.688c11.327,0,26.363-5.663,36.518-19.139c7.811-10.35,13.865-26.361,13.865-44.523
			c0-16.013-6.641-32.416-15.818-42.57c-10.35-11.521-27.535-17.77-38.861-17.77c-5.468,0-8.397,0.195-10.936,1.562
			c-2.929,1.367-3.71,4.492-3.905,8.397c-0.195,8.202-0.195,33.783-0.195,36.907L345.317,305.463L345.317,305.463z"/>
	</g>
	<g display="none">
		<g display="inline">
			<g>
				<defs>
					<path id="SVGID_3_" d="M506.441,210.001c0.643,91.472-28.478,153.183-71.258,201.239c-0.834,0.67-1.591,1.423-2.257,2.261
						c-1.968,2.139-4.02,4.194-6.159,6.159c-0.77,0.599-1.455,1.284-2.055,2.055c-14.968,13.499-31.46,25.944-51.336,35.319
						c-2.573,1.214-6.499,3.471-8.83,3.49c-2.001,0.018-5.826-2.078-8.419-3.285c-39.248-18.26-69.195-48.678-91.177-83.78
						c-24.37-38.928-39.507-85.589-42.299-144.155c-0.134-1.031,0.27-2.596-0.208-3.286c0-4.518,0-9.036,0-13.553
						c0.478-0.69,0.074-2.254,0.208-3.286c0.182-3.029-0.232-9.087,1.642-10.883c1.527-1.466,6.334-1.354,10.061-1.643
						c46.729-3.636,85.397-16.253,116.024-36.141c1.816-1.183,4.41-2.806,6.98-4.723c1.954-1.458,4.756-4.356,7.188-4.313
						c2.354,0.042,5.039,2.955,7.188,4.519c30.916,22.49,73.315,36.854,123.209,40.659c2.795,0.213,8.521,0.309,9.854,1.643
						c1.864,1.864,1.026,5.38,1.438,9.446C506.368,208.435,505.974,209.651,506.441,210.001z"/>
				</defs>
				<clipPath id="SVGID_4_">
					<use xlink:href="#SVGID_3_"  overflow="visible"/>
				</clipPath>
				<path clip-path="url(#SVGID_4_)" fill="none" stroke="#2A3B90" stroke-width="1.9344" stroke-miterlimit="10" d="
					M241.913,304.944c-4.114,10.317-9.418,26.481-13.112,36.991c-0.622,1.783-1.245,1.25-0.807-0.545
					c9.028-34.422,18.053-68.926,39.229-98.372c4.893-6.414,9.535-12.908,14.005-19.488c-0.676-1.267-2.193-0.085-3.206-0.169
					c-13.246,5.229-26.577,10.208-38.893,17.632c11.559-20.753,28.432-39.653,46.992-56.103c-6.327,0.337-11.475,4.556-17.043,7.255
					c8.522-10.715,17.716-21.261,28.938-29.36c0.59,0.168,1.097,0.507,1.857,0.422c-4.894,5.484-9.703,11.305-12.992,17.632
					c5.989-1.603,11.896-4.723,18.055-6.665c-13.752,10.883-27.081,25.564-36.025,40.243c-0.811,1.894-1.894,3.678-2.725,5.529
					c-0.543,1.206,0.414,1.678,1.884,0.995c14.918-6.91,30.26-12.653,46.735-15.635C280.047,229.941,256.592,267.74,241.913,304.944
					z"/>
			</g>
			<g>
				<path id="SVGID_5_" fill="none" stroke="#2C398F" stroke-width="1.9344" stroke-miterlimit="10" d="M506.441,210.001
					c0.643,91.472-28.478,153.183-71.258,201.239c-0.834,0.67-1.591,1.423-2.257,2.261c-1.968,2.139-4.02,4.194-6.159,6.159
					c-0.77,0.599-1.455,1.284-2.055,2.055c-14.968,13.499-31.46,25.944-51.336,35.319c-2.573,1.214-6.499,3.471-8.83,3.49
					c-2.001,0.018-5.826-2.078-8.419-3.285c-39.248-18.26-69.195-48.678-91.177-83.78c-24.37-38.928-39.507-85.589-42.299-144.155
					c-0.134-1.031,0.27-2.596-0.208-3.286c0-4.518,0-9.036,0-13.553c0.478-0.69,0.074-2.254,0.208-3.286
					c0.182-3.029-0.232-9.087,1.642-10.883c1.527-1.466,6.334-1.354,10.061-1.643c46.729-3.636,85.397-16.253,116.024-36.141
					c1.816-1.183,4.41-2.806,6.98-4.723c1.954-1.458,4.756-4.356,7.188-4.313c2.354,0.042,5.039,2.955,7.188,4.519
					c30.916,22.49,73.315,36.854,123.209,40.659c2.795,0.213,8.521,0.309,9.854,1.643c1.864,1.864,1.026,5.38,1.438,9.446
					C506.368,208.435,505.974,209.651,506.441,210.001z"/>
			</g>
		</g>
	</g>
</g>
</svg>
