<?xml version="1.0" encoding="UTF-8" standalone="no"?>
<svg width="40px" height="40px" viewBox="0 0 40 40" version="1.1" xmlns="http://www.w3.org/2000/svg" xmlns:xlink="http://www.w3.org/1999/xlink" xmlns:sketch="http://www.bohemiancoding.com/sketch/ns">
    <!-- Generator: Sketch 3.3.2 (12043) - http://www.bohemiancoding.com/sketch -->
    <title>marketingdone</title>
    <desc>Created with Sketch.</desc>
    <defs></defs>
    <g id="Main-Attraction" stroke="none" stroke-width="1" fill="none" fill-rule="evenodd" sketch:type="MSPage">
        <g id="marketingdone" sketch:type="MSArtboardGroup" fill="#F2B81D">
            <path d="M33.4637984,6.09558452 C33.1254131,5.93309361 32.7242197,5.98022088 32.4316016,6.21831179 C32.3405541,6.29292997 23.1963623,13.6722754 14.2454639,13.6722754 C13.7673426,13.6722754 13.3719918,14.02033 13.2892213,14.4778572 L5.25610164,15.4901118 C5.11003607,15.5087663 5,15.6339482 5,15.7826936 L5,22.5528209 C5,22.7010754 5.11003607,22.8262572 5.25610164,22.8449118 L8.78261148,23.2891845 C8.33565082,30.6444754 8.77238689,31.2001845 9.00852623,31.4971845 C9.6663082,32.32633 11.7754951,32.74213 12.7716623,32.74213 C13.5273082,32.74213 14.0609344,32.5580391 14.4041885,32.18053 C15.1900213,31.3145663 14.5916393,30.2301482 14.1953148,29.51293 C14.0239311,29.2016936 13.7639344,28.7309118 13.7639344,28.5311118 L13.7639344,24.5292209 C13.9065918,24.6116936 14.0692115,24.6622572 14.2454639,24.6622572 C23.1759131,24.6622572 32.3327639,32.1982027 32.4247852,32.2742936 C32.6024984,32.4225482 32.8225705,32.49913 33.0445902,32.49913 C33.1853,32.49913 33.3269836,32.4682027 33.4599033,32.4053663 C33.800723,32.2433663 34.0183607,31.8977663 34.0183607,31.5173118 L34.0183607,6.98167543 C34.0183607,6.60318452 33.8026705,6.25856634 33.4637984,6.09558452 L33.4637984,6.09558452 Z M10.6055098,30.2910209 C10.4876836,29.4442027 10.5485443,26.6838209 10.6873066,24.0986936 L11.8163934,24.0986936 L11.8163934,28.5311118 C11.8163934,29.2409663 12.1762016,29.8928936 12.4936508,30.4677482 C12.5442869,30.5590572 12.6046607,30.6690209 12.6611393,30.77653 C11.9176656,30.7514936 10.9857672,30.4814936 10.6055098,30.2910209 L10.6055098,30.2910209 Z M32.0708197,29.5418936 C29.0745279,27.3809118 22.2956246,23.0957663 15.2192344,22.7246391 L15.2192344,15.6108754 C22.2970852,15.2466209 29.0793967,11.0454209 32.0708197,8.93254815 L32.0708197,29.5418936 L32.0708197,29.5418936 Z" id="marketing-icon-copy" sketch:type="MSShapeGroup"></path>
        </g>
    </g>
</svg>