<?xml version="1.0" encoding="UTF-8" standalone="no"?>
<svg width="40px" height="40px" viewBox="0 0 40 40" version="1.1" xmlns="http://www.w3.org/2000/svg" xmlns:xlink="http://www.w3.org/1999/xlink" xmlns:sketch="http://www.bohemiancoding.com/sketch/ns">
    <!-- Generator: Sketch 3.3.3 (12081) - http://www.bohemiancoding.com/sketch -->
    <title>persistence</title>
    <desc>Created with Sketch.</desc>
    <defs></defs>
    <g id="Main-Attraction" stroke="none" stroke-width="1" fill="none" fill-rule="evenodd" sketch:type="MSPage">
        <g id="TRACK-ICONS" sketch:type="MSArtboardGroup" transform="translate(-78.000000, -329.000000)">
            <g id="persistence" sketch:type="MSLayerGroup" transform="translate(78.000000, 329.000000)">
                <circle id="Oval-20-Copy-44" opacity="0.8" fill="#246DB4" sketch:type="MSShapeGroup" cx="20" cy="20" r="20"></circle>
                <g id="Group" transform="translate(8.000000, 15.000000)" fill="#FFFFFF" sketch:type="MSShapeGroup">
                    <ellipse id="Oval" cx="3.00769231" cy="2.64646809" rx="0.328571429" ry="0.330808511"></ellipse>
                    <path d="M22.8736264,4.58042553 C22.8483516,4.45319149 22.7472527,4.37685106 22.6461538,4.32595745 C22.5197802,4.27506383 22.3934066,4.30051064 22.2923077,4.37685106 C21.3571429,5.01302128 20.6494505,5.21659574 20.2703297,5.29293617 C19.3098901,2.31565957 16.4538462,0.0763404255 13.2945055,0.0763404255 C10.4384615,0.0763404255 7.83516484,1.90851064 6.64725275,4.45319149 C5.88901099,4.24961702 5.83846154,3.86791489 5.83846154,3.53710638 C5.83846154,1.93395745 4.67582418,0.814297872 3.00769231,0.814297872 C1.36483516,0.814297872 0.176923077,2.03574468 0.176923077,3.68978723 C0.176923077,3.8933617 0.353846154,4.07148936 0.556043956,4.07148936 L1.31428571,4.07148936 L1.33956044,4.07148936 C1.51648352,5.0893617 2.07252747,6.10723404 2.83076923,6.66706383 C3.56373626,7.22689362 4.4989011,7.4813617 5.25714286,7.60859574 C5.25714286,8.19387234 5.71208791,8.6773617 6.29340659,8.72825532 L5.73736264,9.82246809 C5.50989011,10.2550638 5.53516484,10.764 5.81318681,11.1711489 C6.06593407,11.5528511 6.47032967,11.7818723 6.92527473,11.7818723 L7.02637363,11.7818723 L7.48131868,11.7564255 C8.31538462,11.7055319 8.97252747,11.0184681 9.02307692,10.1787234 L9.0989011,8.75370213 L17.4142857,8.75370213 L17.4901099,10.1787234 C17.5406593,11.0184681 18.1978022,11.6800851 19.0318681,11.7564255 L19.4868132,11.7818723 L19.5879121,11.7818723 C20.0428571,11.7818723 20.4472527,11.5528511 20.7,11.1711489 C20.978022,10.764 21.0032967,10.2550638 20.7758242,9.82246809 L20.2197802,8.75370213 L20.2956044,8.75370213 C20.9274725,8.75370213 21.432967,8.24476596 21.432967,7.60859574 C21.432967,7.4813617 21.4076923,7.32868085 21.3571429,7.22689362 C22.8230769,6.38714894 23,5.14025532 22.8736264,4.58042553 L22.8736264,4.58042553 Z M11.8791209,4.58042553 L14.7098901,4.58042553 L15.7967033,6.36170213 L10.7923077,6.36170213 L11.8791209,4.58042553 L11.8791209,4.58042553 Z M19.5879121,5.72553191 C19.5879121,5.77642553 19.6131868,5.80187234 19.6131868,5.85276596 C19.6637363,6.03089362 19.689011,6.18357447 19.7142857,6.36170213 L16.6813187,6.36170213 L15.367033,4.22417021 L17.0604396,2.11208511 C18.2483516,3.0027234 19.1835165,4.27506383 19.5879121,5.72553191 L19.5879121,5.72553191 Z M16.4032967,1.70493617 L14.7098901,3.81702128 L11.8285714,3.81702128 L10.1351648,1.70493617 C11.0956044,1.14510638 12.1571429,0.839744681 13.2692308,0.839744681 C14.4065934,0.839744681 15.4681319,1.14510638 16.4032967,1.70493617 L16.4032967,1.70493617 Z M9.5032967,2.11208511 L11.1967033,4.22417021 L9.90769231,6.36170213 L6.82417582,6.36170213 C7.12747253,4.65676596 8.13846154,3.12995745 9.5032967,2.11208511 L9.5032967,2.11208511 Z M2.07252747,4.07148936 L2.27472527,4.07148936 C2.47692308,4.07148936 2.65384615,3.8933617 2.65384615,3.68978723 C2.65384615,3.48621277 2.47692308,3.30808511 2.27472527,3.30808511 L1.64285714,3.30808511 L1.26373626,3.30808511 L0.935164835,3.30808511 C1.08681319,2.26476596 1.8956044,1.57770213 2.98241758,1.57770213 C4.01868132,1.57770213 5.05494505,2.18842553 5.05494505,3.53710638 C5.05494505,4.37685106 5.48461538,4.91123404 6.34395604,5.16570213 C6.19230769,5.59829787 6.09120879,6.03089362 6.04065934,6.46348936 C5.81318681,6.53982979 5.61098901,6.66706383 5.45934066,6.84519149 C4.77692308,6.74340426 3.89230769,6.51438298 3.23516484,6.00544681 C2.67912088,5.62374468 2.22417582,4.86034043 2.07252747,4.07148936 L2.07252747,4.07148936 Z M8.18901099,10.1278298 C8.16373626,10.5858723 7.80989011,10.9421277 7.35494505,10.9930213 L6.9,11.0184681 C6.6978022,11.0439149 6.4956044,10.9421277 6.36923077,10.764 C6.24285714,10.5858723 6.24285714,10.3568511 6.34395604,10.1787234 L7.07692308,8.75370213 L8.26483516,8.75370213 L8.18901099,10.1278298 L8.18901099,10.1278298 Z M20.0175824,10.1787234 C20.1186813,10.3568511 20.0934066,10.5858723 19.9923077,10.764 C19.8659341,10.9421277 19.689011,11.0439149 19.4615385,11.0184681 L19.0065934,10.9930213 C18.5516484,10.9675745 18.1978022,10.5858723 18.1725275,10.1278298 L18.0967033,8.75370213 L19.2846154,8.75370213 L20.0175824,10.1787234 L20.0175824,10.1787234 Z M20.2197802,7.99029787 L6.36923077,7.99029787 C6.14175824,7.99029787 5.99010989,7.81217021 5.99010989,7.60859574 C5.99010989,7.40502128 6.16703297,7.22689362 6.36923077,7.22689362 L20.2197802,7.22689362 C20.4472527,7.22689362 20.5989011,7.40502128 20.5989011,7.60859574 C20.5989011,7.81217021 20.421978,7.99029787 20.2197802,7.99029787 L20.2197802,7.99029787 Z M20.8263736,6.5907234 C20.8263736,6.5907234 20.8010989,6.5907234 20.8010989,6.61617021 C20.7252747,6.5652766 20.6241758,6.53982979 20.5483516,6.51438298 C20.5230769,6.36170213 20.4978022,6.18357447 20.4725275,6.03089362 C20.8516484,5.95455319 21.4076923,5.80187234 22.0901099,5.42017021 C21.9384615,5.75097872 21.6098901,6.20902128 20.8263736,6.5907234 L20.8263736,6.5907234 Z" id="Shape"></path>
                </g>
            </g>
        </g>
    </g>
</svg>