<?xml version="1.0" encoding="UTF-8" standalone="no"?>
<svg width="40px" height="40px" viewBox="0 0 40 40" version="1.1" xmlns="http://www.w3.org/2000/svg" xmlns:xlink="http://www.w3.org/1999/xlink" xmlns:sketch="http://www.bohemiancoding.com/sketch/ns">
    <!-- Generator: Sketch 3.3.2 (12043) - http://www.bohemiancoding.com/sketch -->
    <title>productdone</title>
    <desc>Created with Sketch.</desc>
    <defs></defs>
    <g id="Main-Attraction" stroke="none" stroke-width="1" fill="none" fill-rule="evenodd" sketch:type="MSPage">
        <g id="productdone" sketch:type="MSArtboardGroup" fill="#24B494">
            <path d="M35.735016,29.4736325 L33.6856775,27.2882088 L25.7286929,19.2278698 L29.5230929,15.1819376 L29.5560006,15.1478698 C29.5874775,15.113802 29.5874775,15.113802 29.6189544,15.0797342 C29.6518621,15.0456664 29.6833391,15.0115986 29.6871544,14.9470224 L29.7186314,14.9129546 L33.2574006,7.82736136 C33.428616,7.46380203 33.4233698,7.04786983 33.1691698,6.77685288 C32.9144929,6.50583593 32.5568006,6.46566644 32.1843237,6.68278508 L25.5660621,10.485158 L25.5336314,10.5192258 C25.5021544,10.5532936 25.4702006,10.5873614 25.4096314,10.5914292 C25.3772006,10.6260054 25.3772006,10.6260054 25.3452467,10.6595647 L25.3137698,10.694141 L21.4115852,14.8539715 L17.6410314,11.0343105 C20.7128929,8.08719186 22.8323391,8.38363254 22.8809852,8.38363254 C23.1170621,8.41210712 23.3788929,8.35617492 23.5358006,8.18939525 C23.5887391,8.13346305 23.6407237,8.07753085 23.6674314,7.99363254 C23.824816,7.71448 23.7723544,7.32346305 23.5372314,7.07176814 C23.4585391,6.8765139 21.679616,4.97532746 19.2959544,5.00024271 C17.0167391,5.02566644 15.2087237,5.88956475 13.4255083,7.78668339 L9.7016929,11.7482088 C9.43938521,12.0268529 9.43890828,12.4178698 9.62204675,12.7254969 L8.88806213,13.5065139 L8.65246213,13.254819 C8.36440059,12.9471919 7.89320059,12.9466834 7.60466213,13.253802 L5.71652367,15.2622766 C5.42846213,15.5688868 5.42750828,16.0717681 5.71556982,16.3788868 L8.96007752,19.8461749 C9.24766213,20.153802 9.71933905,20.1543105 10.0078775,19.8471919 L11.896016,17.8387173 C12.1845544,17.5315986 12.1850314,17.0292258 11.8969698,16.7215986 L11.6613698,16.4699037 L12.3958314,15.6888868 C12.6838929,15.8846495 13.0768775,15.8571919 13.3124775,15.6060054 L14.1194314,14.7477003 L17.742616,18.7656664 L7.66713905,29.5082088 C7.34664675,29.8493953 7.31278521,30.4280393 7.62373905,30.7595647 L10.7032314,34.0427851 C11.0137083,34.3743105 11.5564467,34.3377003 11.9088929,33.9619376 L21.8699083,23.3414292 L29.5078314,31.8105817 L31.5576467,33.9954969 C31.7269544,34.1770224 31.9596929,34.2721071 32.1867083,34.2721071 C32.3879698,34.2721071 32.5849391,34.1978698 32.7313544,34.0417681 L35.8108467,30.7585478 C36.1213237,30.4275308 36.0874621,29.8488868 35.735016,29.4736325 L35.735016,29.4736325 Z M30.5432314,9.5765139 L28.8077083,13.0534631 L27.3096929,11.4568529 L30.5432314,9.5765139 L30.5432314,9.5765139 Z M25.7749544,12.5515986 L26.6558314,13.4917681 L23.4456621,16.914819 L22.541416,15.9985478 L25.7749544,12.5515986 L25.7749544,12.5515986 Z M9.45941598,18.1432936 L7.26175444,15.7946495 L7.23552367,15.8226156 L8.10066213,14.9022766 C8.15312367,15.0136325 8.20510828,15.1254969 8.28332367,15.2093953 L10.0107391,17.0546495 C10.0894314,17.1385478 10.1938775,17.19448 10.2983237,17.2504122 L9.45941598,18.1432936 L9.45941598,18.1432936 Z M10.5887698,15.323802 L9.90820059,14.5966834 L10.6426621,13.8156664 L11.3227544,14.5427851 L10.5887698,15.323802 L10.5887698,15.323802 Z M13.0668621,13.5243105 L13.0406314,13.5517681 L12.7382621,13.874141 L11.2464467,12.2800732 L14.4461237,8.87685288 C16.3604929,6.8404122 17.9581852,6.59075119 19.2940467,6.56481898 C19.9231083,6.56532746 20.4987544,6.73363254 20.9704314,6.95786983 C19.8339237,7.36007322 18.2886929,8.15888678 16.5126314,9.89125966 L16.5102467,9.88871729 L16.4043698,10.0000732 C16.2493698,10.154141 16.0958006,10.3021071 15.9374621,10.4704122 L13.0668621,13.5243105 L13.0668621,13.5243105 Z M11.2092467,32.2982088 L9.25958521,30.2200732 L10.2382314,29.1766834 L12.1878929,31.2553275 L11.2092467,32.2982088 L11.2092467,32.2982088 Z M12.3409852,28.7546495 L11.4591544,27.81448 L18.8233237,19.9636325 L19.6875083,20.9215986 L12.3409852,28.7546495 L12.3409852,28.7546495 Z M32.1657237,32.1278698 L30.6996621,30.563802 L15.3837544,13.5822766 L16.5340929,12.3680393 L32.5200775,28.5624461 L34.0147544,30.1565139 L32.1657237,32.1278698 L32.1657237,32.1278698 Z" id="product-icon-copy" sketch:type="MSShapeGroup"></path>
        </g>
    </g>
</svg>