<?xml version="1.0" encoding="UTF-8" standalone="no"?>
<svg width="31px" height="30px" viewBox="0 0 31 30" version="1.1" xmlns="http://www.w3.org/2000/svg" xmlns:xlink="http://www.w3.org/1999/xlink" xmlns:sketch="http://www.bohemiancoding.com/sketch/ns">
    <!-- Generator: Sketch 3.3.2 (12043) - http://www.bohemiancoding.com/sketch -->
    <title>read</title>
    <desc>Created with Sketch.</desc>
    <defs></defs>
    <g id="Main-Attraction" stroke="none" stroke-width="1" fill="none" fill-rule="evenodd" sketch:type="MSPage">
        <g id="Artboard-41" sketch:type="MSArtboardGroup" transform="translate(-350.000000, -128.000000)">
            <g id="read" sketch:type="MSLayerGroup" transform="translate(350.500000, 128.000000)">
                <rect id="Rectangle-125-Copy-2" fill="#F1BD30" sketch:type="MSShapeGroup" x="0" y="0" width="30" height="30" rx="5.4"></rect>
                <g id="Group" transform="translate(7.050001, 3.000000)" fill="#F7F7F7" sketch:type="MSShapeGroup">
                    <path d="M15.7481818,7.96869146 C15.7481818,3.6753719 12.2549862,0.182410468 7.96166667,0.182410468 C3.66787879,0.182410468 0.174683196,3.6753719 0.174683196,7.96869146 C0.174683196,10.2587741 1.51899449,12.0440083 2.81881543,13.7711708 C3.94090909,15.2613636 5.00352617,16.6759229 5.15081267,18.3126997 C4.90915978,18.3958264 4.73447658,18.6227273 4.73447658,18.8924793 C4.73447658,19.2329477 5.0103168,19.5085537 5.3503168,19.5085537 L10.5727824,19.5076171 C10.9130165,19.5076171 11.1886226,19.232011 11.1886226,18.892011 C11.1886226,18.6224931 11.0139394,18.3955923 10.7725207,18.3122314 C10.9202755,16.6754545 11.9826584,15.2615978 13.1042837,13.7711708 C14.4043388,12.0442424 15.7481818,10.2587741 15.7481818,7.96869146 L15.7481818,7.96869146 Z M9.53826446,18.276405 L6.38460055,18.2768733 C6.2312259,16.2574793 4.99790634,14.618595 3.80252066,13.0307576 C2.56990358,11.3935124 1.40589532,9.84712121 1.40589532,7.96892562 C1.40589532,4.35443526 4.34694215,1.41385675 7.96166667,1.41385675 C11.5763912,1.41385675 14.5167355,4.35443526 14.5167355,7.96892562 C14.5167355,9.84712121 13.3527273,11.3935124 12.1205785,13.0307576 C10.9249587,14.618595 9.69210744,16.2574793 9.53826446,18.276405 L9.53826446,18.276405 Z" id="Shape"></path>
                    <path d="M9.23713499,22.0110193 L6.68596419,22.0110193 C6.34573003,22.0110193 6.07035813,22.2566529 6.07035813,22.5964187 C6.07035813,22.9364187 6.34596419,23.1818182 6.68596419,23.1818182 L9.23736915,23.1818182 C9.57713499,23.1818182 9.85297521,22.9364187 9.85297521,22.5964187 C9.85274105,22.2566529 9.57666667,22.0110193 9.23713499,22.0110193 L9.23713499,22.0110193 Z" id="Shape"></path>
                    <path d="M10.2367631,20.145 L10.2367631,20.145 L5.68610193,20.1459366 C5.34586777,20.1459366 5.07049587,20.4215427 5.07073003,20.7615427 C5.07073003,21.1013085 5.34633609,21.3771488 5.68610193,21.3771488 L5.68610193,21.3771488 L10.2367631,21.375978 C10.5762948,21.375978 10.852135,21.1003719 10.852135,20.7599036 C10.8523691,20.4206061 10.5765289,20.145 10.2367631,20.145 L10.2367631,20.145 Z" id="Shape"></path>
                    <path d="M9.98269972,7.62213499 L7.96143251,9.64316804 L5.94016529,7.62213499 C5.69991736,7.38165289 5.31004132,7.38165289 5.06979339,7.62213499 C4.82931129,7.86238292 4.90283747,8.25225895 5.14331956,8.49250689 L7.49311295,10.7687741 L7.49311295,14.9539118 C7.49311295,15.2943802 7.62143251,15.5695179 7.96143251,15.5695179 C8.30166667,15.5695179 8.42975207,15.2943802 8.42975207,14.9539118 L8.42975207,10.7687741 L10.7795455,8.49250689 C11.0200275,8.25225895 11.0570248,7.86238292 10.8163085,7.62213499 C10.5760606,7.38141873 10.2231818,7.38141873 9.98269972,7.62213499 L9.98269972,7.62213499 Z" id="Shape"></path>
                </g>
            </g>
        </g>
    </g>
</svg>