<?xml version="1.0" encoding="UTF-8" standalone="no"?>
<svg width="40px" height="40px" viewBox="0 0 40 40" version="1.1" xmlns="http://www.w3.org/2000/svg" xmlns:xlink="http://www.w3.org/1999/xlink" xmlns:sketch="http://www.bohemiancoding.com/sketch/ns">
    <!-- Generator: Sketch 3.3.2 (12043) - http://www.bohemiancoding.com/sketch -->
    <title>resourcefulness copy</title>
    <desc>Created with Sketch.</desc>
    <defs></defs>
    <g id="Main-Attraction" stroke="none" stroke-width="1" fill="none" fill-rule="evenodd" sketch:type="MSPage">
        <g id="resourcefulness-copy" sketch:type="MSArtboardGroup" fill="#FFFFFF">
            <g id="Group" sketch:type="MSLayerGroup" transform="translate(5.000000, 6.000000)">
                <path d="M31,4.35 C31,3.25 30.6,2.25 29.8,1.45 C29.05,0.7 28,0.25 26.9,0.25 C26.35,0.25 25.8,0.35 25.3,0.6 L7.5,2.4 C4.95,2.65 2.55,3.8 0.8,5.6 C0.75,5.65 0.75,5.65 0.7,5.7 C0.55,5.95 0.6,6.25 0.85,6.4 C2.7,7.65 4.85,8.3 7,8.3 C7.35,8.3 7.75,8.3 8.1,8.25 L18.3,7.25 L6.6,18.9 L5.9,18.15 C5.75,18 5.5,17.95 5.3,18.05 C4.75,18.4 4.25,18.45 4,18.25 C3.6,17.95 3.45,17.05 3.85,15.65 C4.1,14.75 3.65,13.85 2.8,13.5 L1.15,12.85 C1,12.8 0.9,12.8 0.75,12.85 C0.6,13 0.5,13.1 0.5,13.25 L0.45,13.35 C-0.3,15.85 -0.1,18.55 1.05,20.9 L2.6,24.1 C2.6,24.25 2.55,24.45 2.55,24.6 C2.55,25.7 3,26.7 3.75,27.5 C4.5,28.25 5.55,28.7 6.65,28.7 C7.75,28.7 8.75,28.3 9.55,27.5 L15.65,21.4 L20.95,24.85 C22.25,25.7 23.65,26.25 25.15,26.5 L25.25,26.5 C25.4,26.5 25.6,26.4 25.65,26.25 C25.75,26.1 25.75,25.85 25.65,25.7 C24.8,24.45 23.75,23.35 22.45,22.55 L17.65,19.45 L18.9,18.2 C19,18.5 19.15,18.9 19.65,19 C20.15,19.15 20.5,18.8 20.75,18.6 C20.8,18.55 20.85,18.5 20.9,18.5 C20.9,18.55 20.95,18.6 20.95,18.7 C21.05,18.95 21.2,19.45 21.7,19.55 C22.2,19.7 22.55,19.35 22.8,19.15 C22.85,19.1 22.9,19.05 22.95,19.05 C22.95,19.1 23,19.15 23,19.25 C23.1,19.5 23.25,20 23.75,20.1 C24.25,20.25 24.6,19.9 24.85,19.7 L25,19.55 C25,19.6 25.05,19.65 25.05,19.75 C25.15,20 25.3,20.5 25.8,20.6 C26.3,20.75 26.65,20.4 26.9,20.2 C26.95,20.15 26.95,20.15 27,20.1 C27,20.15 27.05,20.25 27.05,20.3 L27.05,20.4 C27.1,20.65 27.3,20.8 27.55,20.8 L27.65,20.8 C27.9,20.75 28.1,20.45 28,20.2 L28,20.1 C27.9,19.8 27.8,19.25 27.25,19.1 C26.75,18.95 26.4,19.3 26.15,19.5 C26.1,19.5 26,19.55 26,19.6 C26,19.55 25.95,19.5 25.95,19.4 C25.85,19.15 25.7,18.65 25.2,18.55 C24.7,18.4 24.35,18.75 24.1,18.95 C24.05,19 24,19.05 23.95,19.05 C23.95,19 23.9,18.95 23.9,18.85 C23.8,18.6 23.65,18.1 23.15,18 C22.65,17.85 22.3,18.2 22.05,18.4 C22,18.45 21.95,18.5 21.9,18.5 C21.9,18.45 21.85,18.4 21.85,18.35 C21.75,18.1 21.6,17.6 21.1,17.5 C20.6,17.35 20.25,17.7 20,17.9 C19.95,17.95 19.9,18 19.85,18 C19.85,17.95 19.8,17.9 19.8,17.85 C19.75,17.75 19.7,17.6 19.65,17.45 L29.8,7.3 C30.6,6.5 31,5.45 31,4.35 L31,4.35 Z M8,7.25 C5.9,7.45 3.75,7 1.9,5.9 C3.45,4.5 5.45,3.6 7.6,3.4 L23.7,1.8 L19.4,6.1 L8,7.25 L8,7.25 Z M1.95,20.45 C1,18.45 0.75,16.2 1.3,14.05 L2.45,14.5 C2.8,14.65 3,15.05 2.9,15.4 C2.4,17.05 2.55,18.45 3.4,19.1 C3.95,19.55 4.7,19.55 5.5,19.15 L5.95,19.6 L3.8,21.75 C3.5,22.05 3.25,22.35 3.1,22.75 L1.95,20.45 L1.95,20.45 Z M21.85,23.4 C22.6,23.9 23.3,24.5 23.9,25.2 C23.05,24.95 22.2,24.55 21.45,24.05 L16.35,20.75 L16.9,20.2 L21.85,23.4 L21.85,23.4 Z M18.55,17.1 C18.55,17.1 18.5,17.15 18.55,17.1 L8.85,26.8 C8.25,27.4 7.5,27.7 6.65,27.7 C5.8,27.7 5.05,27.4 4.45,26.8 C3.85,26.2 3.55,25.45 3.55,24.6 C3.55,23.75 3.85,23 4.45,22.4 L6.95,19.9 L6.95,19.9 L24.75,2.1 C25.35,1.5 26.1,1.2 26.95,1.2 C27.8,1.2 28.55,1.5 29.15,2.1 C29.75,2.7 30.05,3.45 30.05,4.3 C30.05,5.1 29.75,5.9 29.15,6.5 L18.55,17.1 L18.55,17.1 Z" id="Shape" sketch:type="MSShapeGroup"></path>
                <path d="M6.3,24.3 C6.2,24.4 6.15,24.55 6.15,24.65 C6.15,24.75 6.2,24.9 6.3,25 C6.4,25.1 6.55,25.15 6.65,25.15 C6.8,25.15 6.9,25.1 7,25 C7.1,24.9 7.15,24.75 7.15,24.65 C7.15,24.55 7.1,24.4 7,24.3 C6.8,24.1 6.5,24.1 6.3,24.3 L6.3,24.3 Z" id="Shape" sketch:type="MSShapeGroup"></path>
                <path d="M26.6,3.65 C26.55,3.7 26.5,3.85 26.5,4 C26.5,4.15 26.55,4.25 26.65,4.35 C26.75,4.45 26.85,4.5 27,4.5 C27.15,4.5 27.25,4.45 27.35,4.35 C27.45,4.25 27.5,4.15 27.5,4 C27.5,3.85 27.45,3.75 27.35,3.65 C27.15,3.45 26.8,3.45 26.6,3.65 L26.6,3.65 Z" id="Shape" sketch:type="MSShapeGroup"></path>
                <path d="M14.35,3.5 L11.45,3.8 C11.2,3.85 10.95,4.05 11,4.35 C11.05,4.6 11.25,4.8 11.5,4.8 L11.55,4.8 L14.45,4.5 C14.7,4.45 14.95,4.25 14.9,3.95 C14.85,3.7 14.6,3.5 14.35,3.5 L14.35,3.5 Z" id="Shape" sketch:type="MSShapeGroup"></path>
            </g>
        </g>
    </g>
</svg>