<?xml version="1.0" encoding="UTF-8" standalone="no"?>
<svg width="40px" height="40px" viewBox="0 0 40 40" version="1.1" xmlns="http://www.w3.org/2000/svg" xmlns:xlink="http://www.w3.org/1999/xlink" xmlns:sketch="http://www.bohemiancoding.com/sketch/ns">
    <!-- Generator: Sketch 3.3.2 (12043) - http://www.bohemiancoding.com/sketch -->
    <title>salesdone</title>
    <desc>Created with Sketch.</desc>
    <defs></defs>
    <g id="Main-Attraction" stroke="none" stroke-width="1" fill="none" fill-rule="evenodd" sketch:type="MSPage">
        <g id="salesdone" sketch:type="MSArtboardGroup" fill="#88B250">
            <path d="M36.1203089,14.1602379 L25.5772761,3.61776746 C25.054904,3.09483303 24.2969302,2.88453467 23.5788794,3.06165762 C23.2004548,3.15443631 22.8613909,3.3495527 22.5943007,3.61776746 C22.354763,3.85674287 22.1748286,4.15307238 22.070804,4.48426418 C21.5934155,6.03282484 20.7679663,7.37952156 19.5460991,8.60026418 C17.9137564,10.2309199 15.7888433,11.4668445 13.539663,12.7724937 C11.1532827,14.1563019 8.68705645,15.5901543 6.66616793,17.6099183 C4.94835645,19.3294166 3.77934497,21.2417822 3.09390727,23.4628478 C2.86336629,24.2123871 3.06466793,25.0226543 3.6168417,25.5770773 L14.1598745,36.1201101 C14.6828089,36.6430445 15.4407827,36.8527806 16.1588335,36.6756576 C16.5372581,36.581192 16.8757597,36.3877625 17.1434122,36.1201101 C17.3829499,35.8811347 17.5628843,35.5842429 17.6663466,35.2513642 C18.1448597,33.7022412 18.9703089,32.3566691 20.1933007,31.1353642 C21.8239564,29.5047084 23.9488696,28.2704707 26.1997368,26.9659461 C28.5844302,25.5804511 31.051781,24.1465986 33.0709827,22.1268347 C34.7887942,20.4095855 35.9578056,18.4944084 36.6443679,16.2739052 C36.8737843,15.5254904 36.6719204,14.7118494 36.1203089,14.1602379 L36.1203089,14.1602379 Z M18.3585319,18.8587757 C18.6632958,18.8171658 18.9528778,18.7142658 19.2351499,18.5894363 C19.723222,18.3723904 20.2079204,18.1474724 20.7196089,17.986656 C22.3468909,17.4755298 23.9826073,18.4758527 24.1827843,20.1183166 C24.2553204,20.7126625 24.1400499,21.2850789 23.8560909,21.8125117 C23.732386,22.0419281 23.7498171,22.215115 23.947745,22.3871773 C24.1417368,22.5558658 24.319422,22.7425478 24.5049794,22.9207953 C24.6714187,23.0788002 24.6792909,23.2486134 24.5274712,23.4161773 C24.3419138,23.621415 24.1507335,23.821592 23.9567417,24.0189576 C23.785804,24.1921445 23.6075564,24.179774 23.4338073,24.0183953 C23.2966073,23.890192 23.1594073,23.7614265 23.021645,23.6332232 C22.7191302,23.3503888 22.6972007,23.3481396 22.3761302,23.5938625 C21.9662171,23.9076232 21.5366237,24.1904576 21.0508007,24.3726412 C20.6690024,24.5154642 20.576786,24.4794773 20.3704237,24.1387265 C20.2169171,23.8845691 20.0639728,23.6298494 19.9200253,23.3706314 C19.7530237,23.0686789 19.7845122,22.9759002 20.1067073,22.8656904 C20.6577564,22.6773216 21.1452663,22.3832412 21.5934155,22.0166248 C21.8824351,21.7798986 22.105104,21.4925658 22.232745,21.1405691 C22.4717204,20.4838084 22.0027663,19.8984593 21.3077696,19.9839281 C21.0710433,20.0126052 20.8461253,20.0868281 20.6257056,20.1796068 C20.0600368,20.416333 19.5196712,20.7104134 18.9242007,20.8751658 C17.9581778,21.1433806 17.0703138,21.0517265 16.3556368,20.2830691 C15.5476187,19.4143232 15.4745204,18.4213101 15.9367269,17.3630707 C16.127345,16.9267298 16.1335302,16.9295412 15.7967155,16.605097 C15.6825696,16.4948871 15.5656122,16.3880511 15.4537155,16.2761543 C15.2046187,16.0264953 15.2023696,15.9415888 15.4362843,15.6806839 C15.5093827,15.5997134 15.5858548,15.5226789 15.6612024,15.4439576 C16.1762646,14.9007806 16.1762646,14.9007806 16.7205663,15.4152806 C17.1051761,15.7785232 17.106863,15.7802101 17.5302712,15.4552035 C17.8541532,15.2061068 18.2061499,15.0093035 18.5823253,14.8524232 C18.7903745,14.7652675 18.9478171,14.8091265 19.0614007,15.0036806 C19.2306515,15.2943871 19.4055253,15.5822822 19.5663417,15.8774871 C19.7181614,16.1575101 19.6832991,16.2575986 19.3807843,16.3711822 C18.7735056,16.5989117 18.2657532,16.9621543 17.846281,17.4536002 C17.7360712,17.5829281 17.6387942,17.7184412 17.5803155,17.8786953 C17.3728286,18.4505494 17.7563138,18.9403084 18.3585319,18.8587757 L18.3585319,18.8587757 Z M15.6516433,34.6283412 C12.1597909,31.1364888 8.60046301,27.5760363 5.10917284,24.0853084 C6.21801875,20.4939298 8.69717776,18.2919822 11.531145,16.4487789 C11.2449368,17.4879002 10.5684958,20.9825642 13.373786,23.8991888 C16.4489778,27.0969609 20.3035105,27.5400494 21.1750679,27.5996527 C18.724586,29.324774 16.6412827,31.422697 15.6516433,34.6283412 L15.6516433,34.6283412 Z M28.3999974,23.1597707 C28.5894909,22.4023593 29.3795155,18.4533609 26.1581269,15.2943871 C22.9907187,12.1893937 19.822186,11.9807822 18.7375187,12.012833 C21.1120909,10.3107658 23.1200466,8.23758385 24.0860696,5.10841172 C27.5773597,8.59857729 31.1378122,12.159592 34.6307892,15.6514445 C33.546122,19.1596035 31.1524319,21.3413084 28.3999974,23.1597707 L28.3999974,23.1597707 Z" id="sales-icon-copy" sketch:type="MSShapeGroup"></path>
        </g>
    </g>
</svg>