<?xml version="1.0" encoding="UTF-8" standalone="no"?>
<svg width="40px" height="40px" viewBox="0 0 40 40" version="1.1" xmlns="http://www.w3.org/2000/svg" xmlns:xlink="http://www.w3.org/1999/xlink" xmlns:sketch="http://www.bohemiancoding.com/sketch/ns">
    <!-- Generator: Sketch 3.3.3 (12081) - http://www.bohemiancoding.com/sketch -->
    <title>startupdone</title>
    <desc>Created with Sketch.</desc>
    <defs></defs>
    <g id="Main-Attraction" stroke="none" stroke-width="1" fill="none" fill-rule="evenodd" sketch:type="MSPage">
        <g id="TRACK-ICONS" sketch:type="MSArtboardGroup" transform="translate(-378.000000, -59.000000)">
            <g id="startupdone" sketch:type="MSLayerGroup" transform="translate(378.000000, 59.000000)">
                <circle id="Oval-20-Copy-23" stroke="#E1474C" opacity="0.8" sketch:type="MSShapeGroup" cx="20" cy="20" r="20"></circle>
                <g id="Group" transform="translate(12.000000, 10.479031)" fill="#E76C70" sketch:type="MSShapeGroup">
                    <path d="M7.44,16.9167857 C3.34,16.9167857 0,13.5171429 0,9.32357143 L0.48,9.32357143 C0.48,13.2321429 3.6,16.4282143 7.46,16.4282143 C11.32,16.4282143 14.44,13.2525 14.44,9.32357143 L14.92,9.32357143 C14.9,13.5171429 11.56,16.9167857 7.44,16.9167857 L7.44,16.9167857 Z" id="Shape"></path>
                    <path d="M7.44,11.8682143 C2.62,11.8682143 0,10.5042857 0,9.22178571 C0,8.55 0.62,7.93928571 1.8,7.47107143 L1.98,7.91892857 C1.02,8.30571429 0.48,8.77392857 0.48,9.22178571 C0.48,10.2396429 3.34,11.3796429 7.46,11.3796429 C11.58,11.3796429 14.44,10.2396429 14.44,9.22178571 C14.44,8.20392857 11.56,7.04357143 7.44,7.04357143 C6.6,7.04357143 5.78,7.08428571 4.98,7.18607143 L4.94,6.71785714 C5.74,6.61607143 6.58,6.57535714 7.46,6.57535714 C12.3,6.57535714 14.9,7.93928571 14.9,9.22178571 C14.9,10.5042857 12.28,11.8682143 7.44,11.8682143 L7.44,11.8682143 Z" id="Shape"></path>
                    <path d="M4.02,10.4228571 L4.02,10.4228571 C3.36,10.4228571 2.72,10.0564286 2.38,9.46607143 C1.54,8.02071429 1.6,6.45321429 2.52,5.90357143 C2.72,5.78142857 2.96,5.72035714 3.2,5.72035714 C4.06,5.72035714 5.02,6.43285714 5.64,7.51178571 C6.16,8.42785714 5.86,9.60857143 4.96,10.1378571 C4.68,10.3210714 4.36,10.4228571 4.02,10.4228571 L4.02,10.4228571 Z M3.22,6.20892857 C3.06,6.20892857 2.9,6.24964286 2.78,6.33107143 C2.12,6.71785714 2.14,8.06142857 2.8,9.22178571 C3.06,9.66964286 3.52,9.93428571 4.02,9.93428571 C4.28,9.93428571 4.52,9.87321429 4.74,9.73071429 C5.42,9.32357143 5.64,8.44821429 5.24,7.75607143 C4.7,6.84 3.9,6.20892857 3.22,6.20892857 L3.22,6.20892857 Z M4.02,9.64928571 C3.62,9.64928571 3.24,9.42535714 3.02,9.07928571 C2.7,8.52964286 2.88,7.79678571 3.42,7.47107143 C3.6,7.36928571 3.8,7.30821429 4,7.30821429 C4.4,7.30821429 4.78,7.53214286 5,7.87821429 C5.16,8.14285714 5.2,8.46857143 5.12,8.77392857 C5.04,9.07928571 4.86,9.32357143 4.58,9.48642857 C4.42,9.58821429 4.22,9.64928571 4.02,9.64928571 L4.02,9.64928571 Z M4.02,7.79678571 C3.9,7.79678571 3.78,7.8375 3.68,7.89857143 C3.36,8.08178571 3.26,8.50928571 3.44,8.835 C3.56,9.03857143 3.78,9.18107143 4.02,9.18107143 C4.14,9.18107143 4.26,9.14035714 4.36,9.07928571 C4.52,8.9775 4.62,8.835 4.68,8.65178571 C4.72,8.46857143 4.7,8.28535714 4.6,8.1225 C4.48,7.91892857 4.26,7.79678571 4.02,7.79678571 L4.02,7.79678571 Z" id="Shape"></path>
                    <path d="M6.44,10.4635714 C6.38,10.4635714 6.32,10.4432143 6.28,10.4025 C6.18,10.3007143 6.18,10.1582143 6.28,10.0564286 C6.5,9.81214286 6.5,9.77142857 6.36,9.405 C6.32,9.30321429 6.28,9.20142857 6.24,9.07928571 C6,8.36678571 6.1,8.1225 6.54,7.65428571 C6.72,7.45071429 6.72,7.43035714 6.58,7.18607143 C6.54,7.10464286 6.5,7.02321429 6.46,6.92142857 C6.22,6.35142857 6.46,5.90357143 6.76,5.31321429 C7,4.82464286 6.64,4.01035714 6.44,3.78642857 C6.36,3.68464286 6.36,3.54214286 6.44,3.44035714 C6.54,3.35892857 6.68,3.35892857 6.78,3.44035714 C7.04,3.72535714 7.56,4.76357143 7.18,5.51678571 C6.86,6.14785714 6.76,6.4125 6.9,6.71785714 C6.94,6.79928571 6.98,6.88071429 7.02,6.94178571 C7.16,7.20642857 7.32,7.51178571 6.9,7.95964286 C6.58,8.30571429 6.54,8.34642857 6.72,8.89607143 C6.76,9.01821429 6.8,9.12 6.84,9.20142857 C6.98,9.58821429 7.1,9.89357143 6.66,10.3617857 C6.56,10.4228571 6.5,10.4635714 6.44,10.4635714 L6.44,10.4635714 Z" id="Shape"></path>
                    <path d="M9.36,9.73071429 C9.32,9.73071429 9.3,9.73071429 9.26,9.71035714 C9.14,9.64928571 9.1,9.50678571 9.16,9.38464286 C9.3,9.07928571 9.28,9.03857143 9.02,8.75357143 C8.96,8.67214286 8.88,8.59071429 8.8,8.46857143 C8.34,7.85785714 8.36,7.61357143 8.62,7.02321429 C8.74,6.77892857 8.72,6.75857143 8.52,6.57535714 C8.46,6.51428571 8.38,6.45321429 8.32,6.37178571 C7.92,5.92392857 8,5.39464286 8.08,4.74321429 C8.16,4.19357143 7.56,3.54214286 7.3,3.39964286 C7.18,3.33857143 7.14,3.19607143 7.2,3.07392857 C7.26,2.95178571 7.4,2.91107143 7.52,2.97214286 C7.86,3.15535714 8.66,3.96964286 8.56,4.80428571 C8.46,5.49642857 8.44,5.78142857 8.68,6.04607143 C8.74,6.1275 8.8,6.16821429 8.86,6.22928571 C9.08,6.43285714 9.32,6.67714286 9.08,7.22678571 C8.88,7.65428571 8.86,7.71535714 9.2,8.18357143 C9.28,8.28535714 9.34,8.36678571 9.4,8.44821429 C9.66,8.77392857 9.88,9.01821429 9.6,9.60857143 C9.52,9.69 9.44,9.73071429 9.36,9.73071429 L9.36,9.73071429 Z" id="Shape"></path>
                    <path d="M8.12,10.1785714 C8.08,10.1785714 8.04,10.1582143 8,10.1378571 C7.9,10.0564286 7.86,9.91392857 7.92,9.81214286 C8.1,9.52714286 8.08,9.48642857 7.86,9.16071429 C7.8,9.07928571 7.74,8.9775 7.68,8.85535714 C7.3,8.20392857 7.34,7.95964286 7.68,7.41 C7.82,7.18607143 7.8,7.16571429 7.64,6.94178571 C7.58,6.88071429 7.52,6.79928571 7.46,6.6975 C7.12,6.18857143 7.26,5.7 7.42,5.04857143 C7.56,4.51928571 7.04,3.80678571 6.8,3.62357143 C6.7,3.54214286 6.66,3.39964286 6.74,3.29785714 C6.82,3.19607143 6.96,3.15535714 7.06,3.23678571 C7.38,3.46071429 8.08,4.37678571 7.86,5.19107143 C7.68,5.86285714 7.62,6.14785714 7.82,6.43285714 C7.88,6.51428571 7.92,6.57535714 7.98,6.63642857 C8.18,6.88071429 8.38,7.14535714 8.06,7.65428571 C7.82,8.06142857 7.78,8.10214286 8.06,8.61107143 C8.12,8.71285714 8.18,8.81464286 8.24,8.89607143 C8.46,9.24214286 8.64,9.52714286 8.3,10.0767857 C8.28,10.1378571 8.2,10.1785714 8.12,10.1785714 L8.12,10.1785714 Z" id="Shape"></path>
                    <path d="M17.96,0.753214286 L17.86,0.285 C17.86,0.244285714 17.84,0.223928571 17.8,0.203571429 C17.78,0.183214286 17.74,0.183214286 17.7,0.183214286 L6,3.64392857 C5.94,3.66428571 5.9,3.72535714 5.92,3.78642857 L5.98,4.03071429 C5.98,4.07142857 6,4.09178571 6.04,4.11214286 C6.06,4.1325 6.08,4.1325 6.1,4.1325 L6.14,4.1325 L17.9,0.916071429 C17.92,0.875357143 17.96,0.814285714 17.96,0.753214286 L17.96,0.753214286 Z" id="Shape"></path>
                    <path d="M17.92,1.58785714 C17.92,1.54714286 17.9,1.52678571 17.86,1.50642857 C17.84,1.48607143 17.8,1.48607143 17.76,1.48607143 L5.94,4.275 C5.88,4.29535714 5.84,4.35642857 5.84,4.4175 L5.88,4.66178571 C5.88,4.7025 5.9,4.72285714 5.92,4.74321429 C5.94,4.76357143 5.96,4.76357143 5.98,4.76357143 L6,4.76357143 L17.88,2.19857143 C17.94,2.17821429 17.98,2.11714286 17.98,2.05607143 L17.92,1.58785714 L17.92,1.58785714 Z" id="Shape"></path>
                    <path d="M13.42,10.5042857 C12.96,9.32357143 10.02,8.61107143 7.44,8.61107143 C6.84,8.61107143 6.26,8.65178571 5.7,8.71285714 L5.64,8.24464286 C6.22,8.18357143 6.82,8.14285714 7.44,8.14285714 C10.66,8.14285714 13.36,9.05892857 13.86,10.3414286 L13.42,10.5042857 L13.42,10.5042857 Z" id="Shape"></path>
                    <path d="M1.48,10.5042857 L1.04,10.3210714 C1.22,9.89357143 1.62,9.48642857 2.26,9.14035714 L2.48,9.56785714 C1.94,9.87321429 1.6,10.1785714 1.48,10.5042857 L1.48,10.5042857 Z" id="Shape"></path>
                </g>
            </g>
        </g>
    </g>
</svg>