<?xml version="1.0" encoding="UTF-8" standalone="no"?>
<svg width="40px" height="40px" viewBox="0 0 40 40" version="1.1" xmlns="http://www.w3.org/2000/svg" xmlns:xlink="http://www.w3.org/1999/xlink" xmlns:sketch="http://www.bohemiancoding.com/sketch/ns">
    <!-- Generator: Sketch 3.3.2 (12043) - http://www.bohemiancoding.com/sketch -->
    <title>startingupdone</title>
    <desc>Created with Sketch.</desc>
    <defs></defs>
    <g id="Main-Attraction" stroke="none" stroke-width="1" fill="none" fill-rule="evenodd" sketch:type="MSPage">
        <g id="startingupdone" sketch:type="MSArtboardGroup" fill="#35B3DE">
            <path d="M19.6427542,35 C12.1199336,35 6,28.9079269 6,21.4204518 C6,16.9031332 8.24739129,12.6947544 12.0115242,10.1621391 C12.6916818,9.70439594 13.6143993,9.88276301 14.0732829,10.5587841 C14.5326616,11.2352978 14.3544544,12.1542332 13.6747917,12.6114836 C10.7289271,14.5932304 8.97012065,17.8866158 8.97012065,21.4204518 C8.97012065,27.2779869 13.7579551,32.0436397 19.6427542,32.0436397 C25.5280482,32.0436397 30.3158827,27.2779869 30.3158827,21.4204518 C30.3158827,17.8856303 28.5560862,14.5922449 25.6087365,12.6104981 C24.9290739,12.1537404 24.7503716,11.2343124 25.2092553,10.5582913 C25.6686339,9.88177756 26.5898664,9.70341049 27.271509,10.1606609 C31.037127,12.6932762 33.2860033,16.9021478 33.2860033,21.4204518 C33.2860033,28.9079269 27.1655747,35 19.6427542,35 Z M19.7529499,21.2959506 C18.9327016,21.2959506 18.2678896,20.6337259 18.2678896,19.8172778 L18.2678896,6.47818014 C18.2678896,5.66173198 18.9327016,5 19.7529499,5 C20.5731983,5 21.2380103,5.66173198 21.2380103,6.47818014 L21.2380103,19.8172778 C21.2380103,20.6337259 20.5731983,21.2959506 19.7529499,21.2959506 Z" id="Fill-1" sketch:type="MSShapeGroup"></path>
        </g>
    </g>
</svg>