<?xml version="1.0" encoding="UTF-8" standalone="no"?>
<svg width="40px" height="40px" viewBox="0 0 40 40" version="1.1" xmlns="http://www.w3.org/2000/svg" xmlns:xlink="http://www.w3.org/1999/xlink" xmlns:sketch="http://www.bohemiancoding.com/sketch/ns">
    <!-- Generator: Sketch 3.3.2 (12043) - http://www.bohemiancoding.com/sketch -->
    <title>thinkinghuge</title>
    <desc>Created with Sketch.</desc>
    <defs></defs>
    <g id="Main-Attraction" stroke="none" stroke-width="1" fill="none" fill-rule="evenodd" sketch:type="MSPage">
        <g id="thinkinghuge" sketch:type="MSArtboardGroup" fill="#000000">
            <g id="Group" sketch:type="MSLayerGroup" transform="translate(4.000000, 5.000000)">
                <path d="M8.20607143,24.2634146 C7.63665584,24.2634146 7.1212987,24.5012195 6.7500974,24.8853659 C6.3788961,25.2658537 6.15185065,25.7963415 6.15185065,26.3743902 C6.15185065,26.952439 6.3788961,27.4829268 6.7500974,27.8634146 C7.11769481,28.2439024 7.63665584,28.4853659 8.20607143,28.4853659 C8.77548701,28.4853659 9.29084416,28.247561 9.66204545,27.8634146 C10.0332468,27.4829268 10.2602922,26.952439 10.2602922,26.3743902 C10.2602922,25.7963415 10.0332468,25.2658537 9.66204545,24.8853659 C9.29084416,24.5012195 8.77548701,24.2634146 8.20607143,24.2634146 L8.20607143,24.2634146 Z M8.89081169,27.0914634 C8.71061688,27.2743902 8.47275974,27.3841463 8.20607143,27.3841463 C7.93938312,27.3841463 7.70152597,27.2743902 7.52133117,27.0914634 C7.34474026,26.9085366 7.23301948,26.6560976 7.23301948,26.3743902 C7.23301948,26.0890244 7.34474026,25.8402439 7.52133117,25.6573171 C7.70152597,25.4743902 7.93938312,25.3646341 8.20607143,25.3646341 C8.47275974,25.3646341 8.71061688,25.4743902 8.89081169,25.6573171 C9.0674026,25.8402439 9.17912338,26.0926829 9.17912338,26.3743902 C9.17912338,26.6560976 9.0674026,26.904878 8.89081169,27.0914634 L8.89081169,27.0914634 Z" id="Shape" sketch:type="MSShapeGroup"></path>
                <path d="M28.8672078,11.195122 C29.0185714,10.6463415 29.101461,10.0682927 29.101461,9.47195122 C29.101461,7.70853659 28.4059091,6.10243902 27.2814935,4.94268293 C26.1570779,3.78292683 24.5965909,3.05853659 22.8739286,3.06219512 C22.1495455,3.06219512 21.4539935,3.19390244 20.8088961,3.42804878 C19.4826623,1.40487805 17.2338312,0.0658536585 14.6750649,0.0658536585 C12.7181494,0.0658536585 10.9342208,0.852439024 9.61519481,2.12560976 C8.48357143,3.2195122 7.69071429,4.67560976 7.3987987,6.31463415 C7.10688312,6.27073171 6.81136364,6.24512195 6.50503247,6.24512195 C4.79318182,6.24512195 3.2362987,6.96219512 2.11909091,8.11829268 C1.00548701,9.26707317 0.313538961,10.8658537 0.313538961,12.6219512 C0.313538961,14.8463415 1.42353896,16.8109756 3.10655844,17.952439 C3.10295455,18.0365854 3.09574675,18.1207317 3.09574675,18.2085366 C3.09574675,19.595122 3.50298701,20.9085366 4.28863636,21.9073171 C4.68146104,22.404878 5.17519481,22.8219512 5.74821429,23.1109756 C6.32483766,23.4 6.98074675,23.5609756 7.68711039,23.5609756 C7.9537987,23.5609756 8.21327922,23.5207317 8.46915584,23.4695122 C8.77188312,23.4036585 9.0637987,23.3195122 9.31246753,23.2390244 C9.42779221,23.4512195 9.57915584,23.7 9.76655844,23.9560976 C10.026039,24.3073171 10.3612013,24.6731707 10.7936688,24.9841463 C11.2225325,25.2914634 11.759513,25.5365854 12.3793831,25.6170732 C12.6496753,25.65 12.9127597,25.6682927 13.1650325,25.6682927 C14.602987,25.6682927 15.7346104,25.1560976 16.4914286,24.6512195 C16.7977597,24.4463415 17.0464286,24.245122 17.2338312,24.0695122 C17.3815909,24.1536585 17.5545779,24.2414634 17.7563961,24.3329268 C18.4050974,24.6256098 19.3240909,24.9182927 20.4196753,24.9182927 C20.6755519,24.9182927 20.9422403,24.9036585 21.2125325,24.8670732 C22.5351623,24.6914634 23.8830195,24.1097561 24.9425649,23.1439024 C25.4723377,22.6609756 25.9264286,22.0756098 26.2507792,21.3987805 C26.467013,20.9487805 26.6183766,20.454878 26.7048701,19.9280488 C26.7805519,19.9317073 26.8526299,19.9426829 26.9283117,19.9426829 C28.1644481,19.9426829 29.2888636,19.4231707 30.0961364,18.5890244 C30.9034091,17.7585366 31.4007468,16.6060976 31.4007468,15.3402439 C31.4007468,13.5146341 30.3700325,11.9378049 28.8672078,11.195122 L28.8672078,11.195122 Z M29.069026,17.5609756 C28.5176299,18.1280488 27.7644156,18.4756098 26.9319156,18.4756098 C26.6976623,18.4756098 26.467013,18.4463415 26.2363636,18.3878049 L25.3606169,18.1756098 L25.3462013,19.0902439 C25.3353896,19.7121951 25.1984416,20.2609756 24.9605844,20.754878 C24.6074026,21.4902439 24.0235714,22.104878 23.3244156,22.5621951 C22.6252597,23.0195122 21.8071753,23.3121951 21.0323377,23.4146341 C20.8233117,23.4439024 20.6214935,23.454878 20.4232792,23.454878 C19.5835714,23.454878 18.8555844,23.2280488 18.3438312,22.9939024 C18.0879545,22.8804878 17.8861364,22.7634146 17.7491883,22.6792683 C17.6807143,22.6390244 17.6338636,22.602439 17.6014286,22.5804878 L17.5689935,22.5585366 L17.5653896,22.554878 L17.0103896,22.1268293 L16.5743182,22.6756098 C16.5635065,22.6865854 16.2355519,23.0817073 15.6481169,23.4585366 C15.0606818,23.8353659 14.2281818,24.197561 13.1686364,24.197561 C12.974026,24.197561 12.7722078,24.1865854 12.5631818,24.1573171 C12.2063961,24.1134146 11.9036688,23.9743902 11.6297727,23.7804878 C11.2189286,23.4914634 10.8873701,23.0560976 10.6747403,22.6902439 C10.5666234,22.5073171 10.4873377,22.3463415 10.4368831,22.2329268 C10.4116558,22.1780488 10.3936364,22.1341463 10.3828247,22.104878 L10.372013,22.0756098 L10.372013,22.0719512 L10.1197403,21.3621951 L9.42779221,21.6439024 L9.41698052,21.647561 C9.35931818,21.6695122 9.06019481,21.7865854 8.70340909,21.8963415 C8.52321429,21.9512195 8.33220779,22.002439 8.15201299,22.0353659 C7.97181818,22.0719512 7.80603896,22.0902439 7.69792208,22.0902439 C7.20058442,22.0902439 6.77532468,21.9804878 6.39691558,21.7939024 C5.83470779,21.5121951 5.37701299,21.0365854 5.05266234,20.4146341 C4.72831169,19.7926829 4.54451299,19.0243902 4.54451299,18.204878 C4.54451299,18.0329268 4.55892857,17.8536585 4.58775974,17.6670732 L4.65623377,17.1731707 L4.22737013,16.9280488 C2.76058442,16.0902439 1.76230519,14.4804878 1.76230519,12.6182927 C1.76230519,11.2536585 2.29568182,10.0280488 3.16061688,9.13536585 C4.02555195,8.24634146 5.20762987,7.70121951 6.51944805,7.69756098 C6.96993506,7.69756098 7.40600649,7.76707317 7.82405844,7.89146341 L8.68178571,8.14390244 L8.74305195,7.2402439 C8.85477273,5.63780488 9.55392857,4.20731707 10.6206818,3.17560976 C11.6874351,2.14390244 13.110974,1.51829268 14.6858766,1.51829268 C16.9238961,1.51829268 18.8736039,2.79146341 19.8971104,4.68658537 L20.2250649,5.29756098 L20.8413312,4.99390244 C21.4648052,4.68658537 22.1531494,4.51463415 22.8847403,4.51463415 C24.2037662,4.51463415 25.3966558,5.06341463 26.2651948,5.9597561 C27.1337338,6.85609756 27.6707143,8.08902439 27.6707143,9.46463415 C27.6707143,10.1304878 27.540974,10.7634146 27.3103247,11.3414634 L27.0112013,12.0914634 L27.7752273,12.3182927 C29.032987,12.6914634 29.97,13.895122 29.9663961,15.3329268 C29.9591883,16.2109756 29.6204221,16.9939024 29.069026,17.5609756 L29.069026,17.5609756 Z" id="Shape" sketch:type="MSShapeGroup"></path>
                <ellipse id="Oval" sketch:type="MSShapeGroup" cx="5.65451299" cy="29.0926829" rx="0.818084416" ry="0.841463415"></ellipse>
            </g>
        </g>
    </g>
</svg>