<?xml version="1.0" encoding="UTF-8" standalone="no"?>
<svg width="40px" height="40px" viewBox="0 0 40 40" version="1.1" xmlns="http://www.w3.org/2000/svg" xmlns:xlink="http://www.w3.org/1999/xlink" xmlns:sketch="http://www.bohemiancoding.com/sketch/ns">
    <!-- Generator: Sketch 3.3.3 (12081) - http://www.bohemiancoding.com/sketch -->
    <title>business-plan</title>
    <desc>Created with Sketch.</desc>
    <defs></defs>
    <g id="Main-Attraction" stroke="none" stroke-width="1" fill="none" fill-rule="evenodd" sketch:type="MSPage">
        <g id="TRACK-ICONS" sketch:type="MSArtboardGroup" transform="translate(-428.000000, -279.000000)">
            <g id="business-plan" sketch:type="MSLayerGroup" transform="translate(428.000000, 279.000000)">
                <circle id="Oval-20-Copy-51" opacity="0.8" fill="#A53A6A" sketch:type="MSShapeGroup" cx="20" cy="20" r="20"></circle>
                <g id="Shape-Copy-5" transform="translate(12.000000, 14.000000)" stroke="#FFFFFF" stroke-width="0.3" sketch:type="MSShapeGroup">
                    <path d="M12.915942,0 L12.684058,0 L9.73913043,0 L9.50724638,0 L6.53913043,0 L6.30724638,0 L3.36231884,0 L3.13043478,0 L0,0 L0,9.1 L0,9.36530612 L0,13 L7.90724638,13 L8.13913043,13 L16,13 L16,9.36530612 L16,9.1 L16,0 L12.915942,0 L12.915942,0 Z M9.73913043,0.265306122 L12.7536232,0.265306122 L12.7536232,4.51020408 L9.73913043,4.51020408 L9.73913043,0.265306122 L9.73913043,0.265306122 Z M12.7536232,9.02040816 L9.73913043,9.02040816 L9.73913043,4.7755102 L12.7536232,4.7755102 L12.7536232,9.02040816 L12.7536232,9.02040816 Z M6.49275362,0.265306122 L9.50724638,0.265306122 L9.50724638,4.51020408 L9.50724638,4.7755102 L9.50724638,9.02040816 L8.13913043,9.02040816 L7.90724638,9.02040816 L6.49275362,9.02040816 L6.49275362,4.7755102 L6.49275362,4.51020408 L6.49275362,0.265306122 L6.49275362,0.265306122 Z M3.24637681,4.7755102 L6.26086957,4.7755102 L6.26086957,9.02040816 L3.24637681,9.02040816 L3.24637681,4.7755102 L3.24637681,4.7755102 Z M3.24637681,0.265306122 L6.26086957,0.265306122 L6.26086957,4.51020408 L3.24637681,4.51020408 L3.24637681,0.265306122 L3.24637681,0.265306122 Z M0.231884058,0.265306122 L3.01449275,0.265306122 L3.01449275,4.51020408 L3.01449275,4.7755102 L3.01449275,9.02040816 L0.231884058,9.02040816 L0.231884058,0.265306122 L0.231884058,0.265306122 Z M7.88405797,12.7346939 L0.231884058,12.7346939 L0.231884058,9.28571429 L3.13043478,9.28571429 L3.36231884,9.28571429 L6.33043478,9.28571429 L6.56231884,9.28571429 L7.88405797,9.28571429 L7.88405797,12.7346939 L7.88405797,12.7346939 Z M15.7681159,12.7346939 L8.11594203,12.7346939 L8.11594203,9.28571429 L9.50724638,9.28571429 L9.73913043,9.28571429 L12.7072464,9.28571429 L12.9391304,9.28571429 L15.7681159,9.28571429 L15.7681159,12.7346939 L15.7681159,12.7346939 Z M12.9855072,9.02040816 L12.9855072,4.7755102 L12.9855072,4.51020408 L12.9855072,0.265306122 L15.7681159,0.265306122 L15.7681159,9.02040816 L12.9855072,9.02040816 L12.9855072,9.02040816 Z" id="Shape"></path>
                </g>
            </g>
        </g>
    </g>
</svg>