<?xml version="1.0" encoding="UTF-8" standalone="no"?>
<svg width="40px" height="40px" viewBox="0 0 40 40" version="1.1" xmlns="http://www.w3.org/2000/svg" xmlns:xlink="http://www.w3.org/1999/xlink" xmlns:sketch="http://www.bohemiancoding.com/sketch/ns">
    <!-- Generator: Sketch 3.3.3 (12081) - http://www.bohemiancoding.com/sketch -->
    <title>environmentdone</title>
    <desc>Created with Sketch.</desc>
    <defs></defs>
    <g id="Main-Attraction" stroke="none" stroke-width="1" fill="none" fill-rule="evenodd" sketch:type="MSPage">
        <g id="TRACK-ICONS" sketch:type="MSArtboardGroup" transform="translate(-128.000000, -159.000000)">
            <g id="environmentdone" sketch:type="MSLayerGroup" transform="translate(128.000000, 159.000000)">
                <circle id="Oval-20-Copy-6" stroke="#35B3DE" opacity="0.8" sketch:type="MSShapeGroup" cx="20" cy="20" r="20"></circle>
                <g id="Group" transform="translate(12.000000, 11.000000)" fill="#5EC3E5" sketch:type="MSShapeGroup">
                    <path d="M7.75657895,3.92763158 L8.98026316,3.92763158 L8.98026316,2.70394737 L7.75657895,2.70394737 L7.75657895,3.92763158 L7.75657895,3.92763158 Z M8.15131579,3.09868421 L8.58552632,3.09868421 L8.58552632,3.53289474 L8.15131579,3.53289474 L8.15131579,3.09868421 L8.15131579,3.09868421 Z" id="Shape"></path>
                    <path d="M10.6578947,6.03947368 L9.43421053,6.03947368 L9.43421053,7.26315789 L10.6578947,7.26315789 L10.6578947,6.03947368 L10.6578947,6.03947368 Z M10.2631579,6.88815789 L9.82894737,6.88815789 L9.82894737,6.45394737 L10.2631579,6.45394737 L10.2631579,6.88815789 L10.2631579,6.88815789 Z" id="Shape"></path>
                    <path d="M10.6578947,2.70394737 L9.43421053,2.70394737 L9.43421053,3.92763158 L10.6578947,3.92763158 L10.6578947,2.70394737 L10.6578947,2.70394737 Z M10.2631579,3.53289474 L9.82894737,3.53289474 L9.82894737,3.09868421 L10.2631579,3.09868421 L10.2631579,3.53289474 L10.2631579,3.53289474 Z" id="Shape"></path>
                    <path d="M7.75657895,9.01973684 L8.98026316,9.01973684 L8.98026316,7.79605263 L7.75657895,7.79605263 L7.75657895,9.01973684 L7.75657895,9.01973684 Z M8.15131579,8.19078947 L8.58552632,8.19078947 L8.58552632,8.625 L8.15131579,8.625 L8.15131579,8.19078947 L8.15131579,8.19078947 Z" id="Shape"></path>
                    <path d="M7.75657895,7.28289474 L8.98026316,7.28289474 L8.98026316,6.05921053 L7.75657895,6.05921053 L7.75657895,7.28289474 L7.75657895,7.28289474 Z M8.15131579,6.43421053 L8.58552632,6.43421053 L8.58552632,6.86842105 L8.15131579,6.86842105 L8.15131579,6.43421053 L8.15131579,6.43421053 Z" id="Shape"></path>
                    <path d="M7.75657895,5.60526316 L8.98026316,5.60526316 L8.98026316,4.38157895 L7.75657895,4.38157895 L7.75657895,5.60526316 L7.75657895,5.60526316 Z M8.15131579,4.75657895 L8.58552632,4.75657895 L8.58552632,5.19078947 L8.15131579,5.19078947 L8.15131579,4.75657895 L8.15131579,4.75657895 Z" id="Shape"></path>
                    <path d="M10.6578947,4.36184211 L9.43421053,4.36184211 L9.43421053,5.58552632 L10.6578947,5.58552632 L10.6578947,4.36184211 L10.6578947,4.36184211 Z M10.2631579,5.21052632 L9.82894737,5.21052632 L9.82894737,4.77631579 L10.2631579,4.77631579 L10.2631579,5.21052632 L10.2631579,5.21052632 Z" id="Shape"></path>
                    <path d="M1.75657895,15.0197368 L2.98026316,15.0197368 L2.98026316,13.7960526 L1.75657895,13.7960526 L1.75657895,15.0197368 L1.75657895,15.0197368 Z M2.15131579,14.1907895 L2.58552632,14.1907895 L2.58552632,14.625 L2.15131579,14.625 L2.15131579,14.1907895 L2.15131579,14.1907895 Z" id="Shape"></path>
                    <path d="M3.80921053,7.93421053 L2.58552632,7.93421053 L2.58552632,9.15789474 L3.80921053,9.15789474 L3.80921053,7.93421053 L3.80921053,7.93421053 Z M3.41447368,8.76315789 L2.98026316,8.76315789 L2.98026316,8.32894737 L3.41447368,8.32894737 L3.41447368,8.76315789 L3.41447368,8.76315789 Z" id="Shape"></path>
                    <path d="M1.75657895,13.3421053 L2.98026316,13.3421053 L2.98026316,12.1184211 L1.75657895,12.1184211 L1.75657895,13.3421053 L1.75657895,13.3421053 Z M2.15131579,12.5131579 L2.58552632,12.5131579 L2.58552632,12.9473684 L2.15131579,12.9473684 L2.15131579,12.5131579 L2.15131579,12.5131579 Z" id="Shape"></path>
                    <path d="M3.80921053,6.25657895 L2.58552632,6.25657895 L2.58552632,7.48026316 L3.80921053,7.48026316 L3.80921053,6.25657895 L3.80921053,6.25657895 Z M3.41447368,7.08552632 L2.98026316,7.08552632 L2.98026316,6.65131579 L3.41447368,6.65131579 L3.41447368,7.08552632 L3.41447368,7.08552632 Z" id="Shape"></path>
                    <path d="M1.75657895,11.6644737 L2.98026316,11.6644737 L2.98026316,10.4407895 L1.75657895,10.4407895 L1.75657895,11.6644737 L1.75657895,11.6644737 Z M2.15131579,10.8355263 L2.58552632,10.8355263 L2.58552632,11.2697368 L2.15131579,11.2697368 L2.15131579,10.8355263 L2.15131579,10.8355263 Z" id="Shape"></path>
                    <path d="M5.48684211,7.93421053 L4.26315789,7.93421053 L4.26315789,9.15789474 L5.48684211,9.15789474 L5.48684211,7.93421053 L5.48684211,7.93421053 Z M5.09210526,8.76315789 L4.65789474,8.76315789 L4.65789474,8.32894737 L5.09210526,8.32894737 L5.09210526,8.76315789 L5.09210526,8.76315789 Z" id="Shape"></path>
                    <path d="M5.48684211,6.25657895 L4.26315789,6.25657895 L4.26315789,7.48026316 L5.48684211,7.48026316 L5.48684211,6.25657895 L5.48684211,6.25657895 Z M5.09210526,7.08552632 L4.65789474,7.08552632 L4.65789474,6.65131579 L5.09210526,6.65131579 L5.09210526,7.08552632 L5.09210526,7.08552632 Z" id="Shape"></path>
                    <path d="M3.41447368,13.3421053 L4.63815789,13.3421053 L4.63815789,12.1184211 L3.41447368,12.1184211 L3.41447368,13.3421053 L3.41447368,13.3421053 Z M3.80921053,12.5131579 L4.24342105,12.5131579 L4.24342105,12.9473684 L3.80921053,12.9473684 L3.80921053,12.5131579 L3.80921053,12.5131579 Z" id="Shape"></path>
                    <path d="M3.41447368,11.6644737 L4.63815789,11.6644737 L4.63815789,10.4407895 L3.41447368,10.4407895 L3.41447368,11.6644737 L3.41447368,11.6644737 Z M3.80921053,10.8355263 L4.24342105,10.8355263 L4.24342105,11.2697368 L3.80921053,11.2697368 L3.80921053,10.8355263 L3.80921053,10.8355263 Z" id="Shape"></path>
                    <path d="M3.41447368,15.0197368 L4.63815789,15.0197368 L4.63815789,13.7960526 L3.41447368,13.7960526 L3.41447368,15.0197368 L3.41447368,15.0197368 Z M3.80921053,14.1907895 L4.24342105,14.1907895 L4.24342105,14.625 L3.80921053,14.625 L3.80921053,14.1907895 L3.80921053,14.1907895 Z" id="Shape"></path>
                    <path d="M5.09210526,15.0197368 L6.31578947,15.0197368 L6.31578947,13.7960526 L5.09210526,13.7960526 L5.09210526,15.0197368 L5.09210526,15.0197368 Z M5.48684211,14.1907895 L5.92105263,14.1907895 L5.92105263,14.625 L5.48684211,14.625 L5.48684211,14.1907895 L5.48684211,14.1907895 Z" id="Shape"></path>
                    <path d="M5.09210526,11.6644737 L6.31578947,11.6644737 L6.31578947,10.4407895 L5.09210526,10.4407895 L5.09210526,11.6644737 L5.09210526,11.6644737 Z M5.48684211,10.8355263 L5.92105263,10.8355263 L5.92105263,11.2697368 L5.48684211,11.2697368 L5.48684211,10.8355263 L5.48684211,10.8355263 Z" id="Shape"></path>
                    <path d="M5.09210526,13.3421053 L6.31578947,13.3421053 L6.31578947,12.1184211 L5.09210526,12.1184211 L5.09210526,13.3421053 L5.09210526,13.3421053 Z M5.48684211,12.5131579 L5.92105263,12.5131579 L5.92105263,12.9473684 L5.48684211,12.9473684 L5.48684211,12.5131579 L5.48684211,12.5131579 Z" id="Shape"></path>
                    <path d="M11.4868421,8.80263158 L11.4868421,1.44078947 L10.5789474,1.16447368 L10.5789474,0.532894737 L8.52631579,0.532894737 L6.90789474,0.0394736842 L6.90789474,8.74342105 L6.31578947,8.74342105 L6.31578947,6.39473684 L5.40789474,4.57894737 L4.63815789,4.57894737 L4.63815789,3.59210526 L3.41447368,3.59210526 L3.41447368,4.57894737 L2.64473684,4.57894737 L1.73684211,6.39473684 L1.73684211,8.72368421 L1.00657895,8.72368421 L0.0592105263,9.69078947 L0.0592105263,16.6578947 L7.99342105,16.6578947 L7.99342105,15.6710526 L10.4013158,15.6710526 L10.4013158,16.6184211 L14.9802632,16.6184211 L14.9802632,8.80263158 L11.4868421,8.80263158 L11.4868421,8.80263158 Z M14.5855263,16.2631579 L10.7960526,16.2631579 L10.7960526,15.7105263 L10.7960526,15.5131579 L10.7960526,15.3157895 L10.7960526,9.19736842 L11.0921053,9.19736842 L11.2894737,9.19736842 L11.4868421,9.19736842 L14.5855263,9.19736842 L14.5855263,16.2631579 L14.5855263,16.2631579 Z M7.61842105,15.7105263 L7.61842105,16.3026316 L0.473684211,16.3026316 L0.473684211,9.88815789 L1.20394737,9.13815789 L2.15131579,9.13815789 L2.15131579,6.49342105 L2.92105263,4.97368421 L3.82894737,4.97368421 L3.82894737,3.98684211 L4.26315789,3.98684211 L4.26315789,4.97368421 L5.17105263,4.97368421 L5.94078947,6.49342105 L5.94078947,9.13815789 L6.88815789,9.13815789 L6.92763158,9.17763158 L7.125,9.375 L7.32236842,9.57236842 L7.61842105,9.88815789 L7.61842105,15.3355263 L7.61842105,15.5328947 L7.61842105,15.7105263 L7.61842105,15.7105263 Z M8.15131579,13.6381579 L8.15131579,13.2039474 L8.58552632,13.2039474 L8.58552632,13.6381579 L8.15131579,13.6381579 L8.15131579,13.6381579 Z M8.15131579,11.9802632 L8.15131579,11.5460526 L8.58552632,11.5460526 L8.58552632,11.9802632 L8.15131579,11.9802632 L8.15131579,11.9802632 Z M8.15131579,10.3026316 L8.15131579,9.86842105 L8.58552632,9.86842105 L8.58552632,10.3026316 L8.15131579,10.3026316 L8.15131579,10.3026316 Z M8.01315789,14.0328947 L9,14.0328947 L9,12.8092105 L8.01315789,12.8092105 L8.01315789,12.375 L9,12.375 L9,11.1513158 L8.01315789,11.1513158 L8.01315789,10.7171053 L9,10.7171053 L9,9.49342105 L7.77631579,9.49342105 L7.30263158,9 L7.30263158,0.572368421 L8.42763158,0.907894737 L10.2039474,0.907894737 L10.2039474,1.44078947 L11.1118421,1.71710526 L11.1118421,8.78289474 L10.6578947,8.78289474 L10.6578947,7.77631579 L9.43421053,7.77631579 L9.43421053,9 L10.4013158,9 L10.4013158,9.43421053 L9.43421053,9.43421053 L9.43421053,10.6578947 L10.4013158,10.6578947 L10.4013158,11.0921053 L9.43421053,11.0921053 L9.43421053,12.3157895 L10.4013158,12.3157895 L10.4013158,12.75 L9.43421053,12.75 L9.43421053,13.9736842 L10.4013158,13.9736842 L10.4013158,15.2565789 L8.01315789,15.2565789 L8.01315789,14.0328947 L8.01315789,14.0328947 Z M10.2631579,8.19078947 L10.2631579,8.625 L9.82894737,8.625 L9.82894737,8.19078947 L10.2631579,8.19078947 L10.2631579,8.19078947 Z M10.2631579,9.84868421 L10.2631579,10.2828947 L9.82894737,10.2828947 L9.82894737,9.84868421 L10.2631579,9.84868421 L10.2631579,9.84868421 Z M10.2631579,11.5263158 L10.2631579,11.9605263 L9.82894737,11.9605263 L9.82894737,11.5263158 L10.2631579,11.5263158 L10.2631579,11.5263158 Z M10.2631579,13.2039474 L10.2631579,13.6381579 L9.82894737,13.6381579 L9.82894737,13.2039474 L10.2631579,13.2039474 L10.2631579,13.2039474 Z" id="Shape"></path>
                    <path d="M14.1513158,12.0986842 L12.9276316,12.0986842 L12.9276316,13.3223684 L14.1513158,13.3223684 L14.1513158,12.0986842 L14.1513158,12.0986842 Z M13.7565789,12.9473684 L13.3223684,12.9473684 L13.3223684,12.5131579 L13.7565789,12.5131579 L13.7565789,12.9473684 L13.7565789,12.9473684 Z" id="Shape"></path>
                    <path d="M14.1513158,10.4210526 L12.9276316,10.4210526 L12.9276316,11.6447368 L14.1513158,11.6447368 L14.1513158,10.4210526 L14.1513158,10.4210526 Z M13.7565789,11.2697368 L13.3223684,11.2697368 L13.3223684,10.8355263 L13.7565789,10.8355263 L13.7565789,11.2697368 L13.7565789,11.2697368 Z" id="Shape"></path>
                    <path d="M14.1513158,13.7763158 L12.9276316,13.7763158 L12.9276316,15 L14.1513158,15 L14.1513158,13.7763158 L14.1513158,13.7763158 Z M13.7565789,14.6052632 L13.3223684,14.6052632 L13.3223684,14.1710526 L13.7565789,14.1710526 L13.7565789,14.6052632 L13.7565789,14.6052632 Z" id="Shape"></path>
                    <path d="M11.2894737,13.7763158 L11.25,13.7763158 L11.25,15 L11.3092105,15 L11.5065789,15 L12.4736842,15 L12.4736842,13.7763158 L11.5065789,13.7763158 L11.2894737,13.7763158 L11.2894737,13.7763158 Z M12.0789474,14.6052632 L11.6447368,14.6052632 L11.6447368,14.1710526 L12.0789474,14.1710526 L12.0789474,14.6052632 L12.0789474,14.6052632 Z" id="Shape"></path>
                    <path d="M11.2894737,10.4210526 L11.25,10.4210526 L11.25,11.6447368 L11.3092105,11.6447368 L11.5065789,11.6447368 L12.4736842,11.6447368 L12.4736842,10.4210526 L11.5065789,10.4210526 L11.2894737,10.4210526 L11.2894737,10.4210526 Z M12.0789474,11.2697368 L11.6447368,11.2697368 L11.6447368,10.8355263 L12.0789474,10.8355263 L12.0789474,11.2697368 L12.0789474,11.2697368 Z" id="Shape"></path>
                    <path d="M11.2894737,12.0986842 L11.25,12.0986842 L11.25,13.3223684 L11.3092105,13.3223684 L11.5065789,13.3223684 L12.4736842,13.3223684 L12.4736842,12.0986842 L11.5065789,12.0986842 L11.2894737,12.0986842 L11.2894737,12.0986842 Z M12.0789474,12.9473684 L11.6447368,12.9473684 L11.6447368,12.5131579 L12.0789474,12.5131579 L12.0789474,12.9473684 L12.0789474,12.9473684 Z" id="Shape"></path>
                </g>
            </g>
        </g>
    </g>
</svg>