<?xml version="1.0" encoding="UTF-8" standalone="no"?>
<svg width="40px" height="40px" viewBox="0 0 40 40" version="1.1" xmlns="http://www.w3.org/2000/svg" xmlns:xlink="http://www.w3.org/1999/xlink" xmlns:sketch="http://www.bohemiancoding.com/sketch/ns">
    <!-- Generator: Sketch 3.3.3 (12081) - http://www.bohemiancoding.com/sketch -->
    <title>founders</title>
    <desc>Created with Sketch.</desc>
    <defs></defs>
    <g id="Main-Attraction" stroke="none" stroke-width="1" fill="none" fill-rule="evenodd" sketch:type="MSPage">
        <g id="TRACK-ICONS" sketch:type="MSArtboardGroup" transform="translate(-128.000000, -329.000000)">
            <g id="founders" sketch:type="MSLayerGroup" transform="translate(128.000000, 329.000000)">
                <circle id="Oval-20-Copy-34" opacity="0.8" fill="#35B3DE" sketch:type="MSShapeGroup" cx="20" cy="20" r="20"></circle>
                <g id="Shape-Copy-3" transform="translate(12.000000, 11.000000)" fill="#FFFFFF" sketch:type="MSShapeGroup">
                    <path d="M11.1131541,13.1007816 C11.1131541,13.8100784 10.5511759,14.3592113 9.87680215,14.3592113 L9.494657,14.3592113 L9.494657,18.5692306 L8.88772059,18.5692306 L8.88772059,13.7643173 L9.87680215,13.7643173 C10.2364682,13.7643173 10.5286968,13.4668703 10.5286968,13.1007816 L10.5286968,7.58657162 C10.5286968,7.22048299 10.2364682,6.92303598 9.87680215,6.92303598 L5.74064287,6.92303598 C5.38097685,6.92303598 5.0887482,7.22048299 5.0887482,7.58657162 L5.0887482,13.1007816 C5.0887482,13.4668703 5.38097685,13.7643173 5.74064287,13.7643173 L6.66228706,13.7643173 L6.66228706,18.5692306 L6.05535064,18.5692306 L6.05535064,14.3820919 L5.71816375,14.3820919 C5.02131082,14.3820919 4.48181179,13.8100784 4.48181179,13.1236622 L4.48181179,7.58657162 C4.48181179,6.8772749 5.04378995,6.32814195 5.71816375,6.32814195 L9.85432303,6.32814195 C10.5511759,6.32814195 11.090675,6.90015544 11.090675,7.58657162 L11.090675,13.1007816 L11.1131541,13.1007816 Z M5.40345597,2.80453887 C5.40345597,1.45458704 6.48245405,0.379201681 7.78624339,0.379201681 C9.09003272,0.379201681 10.1690308,1.47746758 10.1690308,2.80453887 C10.1690308,4.13161016 9.09003272,5.22987605 7.78624339,5.22987605 C6.48245405,5.22987605 5.40345597,4.1544907 5.40345597,2.80453887 L5.40345597,2.80453887 Z M6.01039239,2.80453887 C6.01039239,3.81128261 6.81964095,4.63498203 7.80872251,4.63498203 C8.79780408,4.63498203 9.60705263,3.81128261 9.60705263,2.80453887 C9.60705263,1.79779513 8.79780408,0.974095708 7.80872251,0.974095708 C6.81964095,0.996976247 6.01039239,1.79779513 6.01039239,2.80453887 L6.01039239,2.80453887 Z M3.71752149,18.5692306 L4.3244579,18.5692306 L4.3244579,15.068508 L4.59420742,15.068508 L4.59420742,14.4507335 L3.71752149,14.4507335 L3.71752149,18.5692306 L3.71752149,18.5692306 Z M0.592922898,13.9473616 L0.592922898,9.27973155 C0.592922898,9.00516507 0.817714163,8.77635968 1.08746368,8.77635968 L3.80743799,8.77635968 L3.80743799,8.15858511 L1.10994281,8.15858511 C0.503006392,8.15858511 0.00846560847,8.66195698 0.00846560847,9.27973155 L0.00846560847,13.9473616 C0.00846560847,14.5651362 0.503006392,15.068508 1.10994281,15.068508 L1.33473407,15.068508 L1.33473407,18.5692306 L1.94167049,18.5692306 L1.94167049,14.4507335 L1.10994281,14.4507335 C0.817714163,14.4507335 0.592922898,14.2219281 0.592922898,13.9473616 L0.592922898,13.9473616 Z M0.77275591,5.22987605 C0.77275591,4.06296854 1.6944001,3.12486642 2.84083555,3.12486642 C3.987271,3.12486642 4.90891519,4.06296854 4.90891519,5.22987605 C4.90891519,6.39678357 3.987271,7.33488569 2.84083555,7.33488569 C1.6944001,7.33488569 0.77275591,6.39678357 0.77275591,5.22987605 L0.77275591,5.22987605 Z M1.37969233,5.22987605 C1.37969233,6.05357548 2.031587,6.71711112 2.84083555,6.71711112 C3.65008411,6.71711112 4.30197877,6.05357548 4.30197877,5.22987605 C4.30197877,4.40617663 3.65008411,3.74264099 2.84083555,3.74264099 C2.031587,3.74264099 1.37969233,4.40617663 1.37969233,5.22987605 L1.37969233,5.22987605 Z M10.9782794,15.068508 L11.2480289,15.068508 L11.2480289,18.5692306 L11.8549653,18.5692306 L11.8549653,14.4507335 L10.9782794,14.4507335 L10.9782794,15.068508 L10.9782794,15.068508 Z M14.462544,8.15858511 L11.7650488,8.15858511 L11.7650488,8.77635968 L14.4850231,8.77635968 C14.7547726,8.77635968 14.9795639,9.00516507 14.9795639,9.27973155 L14.9795639,13.9473616 C14.9795639,14.2219281 14.7547726,14.4507335 14.4850231,14.4507335 L13.6308163,14.4507335 L13.6308163,18.5692306 L14.2377527,18.5692306 L14.2377527,15.068508 L14.462544,15.068508 C15.0694804,15.068508 15.5640212,14.5651362 15.5640212,13.9473616 L15.5640212,9.27973155 C15.5640212,8.66195698 15.0694804,8.15858511 14.462544,8.15858511 L14.462544,8.15858511 Z M10.6635716,5.22987605 C10.6635716,4.06296854 11.5852158,3.12486642 12.7316512,3.12486642 C13.8780867,3.12486642 14.7997309,4.06296854 14.7997309,5.22987605 C14.7997309,6.39678357 13.8780867,7.33488569 12.7316512,7.33488569 C11.5852158,7.33488569 10.6635716,6.39678357 10.6635716,5.22987605 L10.6635716,5.22987605 Z M11.2480289,5.22987605 C11.2480289,6.05357548 11.8999235,6.71711112 12.7091721,6.71711112 C13.5184207,6.71711112 14.1703153,6.05357548 14.1703153,5.22987605 C14.1703153,4.40617663 13.5184207,3.74264099 12.7091721,3.74264099 C11.9224027,3.71976045 11.2480289,4.40617663 11.2480289,5.22987605 L11.2480289,5.22987605 Z" id="Shape"></path>
                </g>
            </g>
        </g>
    </g>
</svg>