<?xml version="1.0" encoding="UTF-8" standalone="no"?>
<svg width="40px" height="40px" viewBox="0 0 40 40" version="1.1" xmlns="http://www.w3.org/2000/svg" xmlns:xlink="http://www.w3.org/1999/xlink" xmlns:sketch="http://www.bohemiancoding.com/sketch/ns">
    <!-- Generator: Sketch 3.3.3 (12081) - http://www.bohemiancoding.com/sketch -->
    <title>idea</title>
    <desc>Created with Sketch.</desc>
    <defs></defs>
    <g id="Main-Attraction" stroke="none" stroke-width="1" fill="none" fill-rule="evenodd" sketch:type="MSPage">
        <g id="TRACK-ICONS" sketch:type="MSArtboardGroup" transform="translate(-128.000000, -279.000000)">
            <g id="idea" sketch:type="MSLayerGroup" transform="translate(128.000000, 279.000000)">
                <circle id="Oval-20-Copy-33" opacity="0.8" fill="#35B3DE" sketch:type="MSShapeGroup" cx="20" cy="20" r="20"></circle>
                <g id="Group-Copy-3" transform="translate(14.000000, 11.000000)" fill="#FFFFFF" sketch:type="MSShapeGroup">
                    <path d="M6.06082759,16.6162759 C5.49744828,16.6162759 4.79462069,16.4923448 4.43193103,16.1308966 C3.99289655,15.6933103 3.96310345,14.7943448 3.93206897,13.8424138 C3.91013793,13.1788966 3.88531034,12.4266207 3.70303448,12.146069 C3.32503448,11.5698621 2.85413793,11.0373103 2.35593103,10.4733103 C1.21696552,9.18475862 0.0393103448,7.85234483 0.0393103448,5.95593103 C0.0393103448,4.71310345 0.38937931,3.54806897 1.05186207,2.58662069 C1.18158621,2.39834483 1.43896552,2.35075862 1.62744828,2.48048276 C1.81551724,2.6102069 1.86310345,2.8677931 1.73358621,3.05606897 C1.16668966,3.87889655 0.867103448,4.88151724 0.867103448,5.95593103 C0.867103448,7.53889655 1.89144828,8.69813793 2.976,9.92544828 C3.47172414,10.4863448 3.98441379,11.0662759 4.39572414,11.6937931 C4.70482759,12.1692414 4.73110345,12.9686897 4.75903448,13.8153103 C4.78034483,14.4581379 4.80910345,15.3384828 5.016,15.5445517 C5.13641379,15.6645517 5.61724138,15.816 6.20503448,15.7849655 C6.64841379,15.7624138 6.89627586,15.6475862 6.95482759,15.5757931 C7.14993103,15.3374483 7.18613793,14.5173103 7.21531034,13.857931 C7.25358621,12.993931 7.28937931,12.177931 7.60593103,11.694 C8.01724138,11.0652414 8.53055172,10.4842759 9.02668966,9.92255172 C10.1097931,8.69606897 11.1331034,7.53786207 11.1331034,5.95593103 C11.1331034,3.04717241 8.97434483,0.936206897 6.00041379,0.936206897 C5.06358621,0.936206897 4.15862069,1.15924138 3.3837931,1.58151724 C3.18289655,1.69055172 2.93151724,1.61668966 2.82227586,1.416 C2.71303448,1.21510345 2.78710345,0.963931034 2.9877931,0.854482759 C3.88386207,0.36662069 4.92558621,0.10862069 6.00062069,0.10862069 C9.39848276,0.10862069 11.9608966,2.6222069 11.9608966,5.95593103 C11.9608966,7.85089655 10.7846897,9.18248276 9.64717241,10.4702069 C9.14855172,11.0348276 8.67724138,11.5684138 8.29862069,12.1468966 C8.1062069,12.4408966 8.07227586,13.2130345 8.04227586,13.8943448 C8.00255172,14.7964138 7.96489655,15.6486207 7.5957931,16.0994483 C7.26703448,16.5014483 6.60993103,16.5926897 6.24765517,16.6113103 C6.18744828,16.6146207 6.12496552,16.6162759 6.06082759,16.6162759 L6.06082759,16.6162759 Z" id="Shape"></path>
                    <path d="M5.97868966,13.7497241 C4.90531034,13.7497241 4.02041379,13.3611724 3.98317241,13.3446207 L4.3197931,12.5886207 C4.32662069,12.5917241 5.08717241,12.9221379 5.97868966,12.9221379 C6.88282759,12.9221379 7.67772414,12.5890345 7.6857931,12.5857241 L8.00896552,13.3475172 C7.97048276,13.3638621 7.04937931,13.7497241 5.97868966,13.7497241 L5.97868966,13.7497241 Z" id="Shape"></path>
                    <path d="M6.42,17.2706897 L5.57917241,17.2706897 L4.81468966,16.2026897 L7.18489655,16.2026897 L6.42,17.2706897 Z" id="Shape"></path>
                </g>
            </g>
        </g>
    </g>
</svg>