<?xml version="1.0" encoding="UTF-8" standalone="no"?>
<svg width="40px" height="40px" viewBox="0 0 40 40" version="1.1" xmlns="http://www.w3.org/2000/svg" xmlns:xlink="http://www.w3.org/1999/xlink" xmlns:sketch="http://www.bohemiancoding.com/sketch/ns">
    <!-- Generator: Sketch 3.3.3 (12081) - http://www.bohemiancoding.com/sketch -->
    <title>opening-&amp;-closingdone</title>
    <desc>Created with Sketch.</desc>
    <defs></defs>
    <g id="Main-Attraction" stroke="none" stroke-width="1" fill="none" fill-rule="evenodd" sketch:type="MSPage">
        <g id="TRACK-ICONS" sketch:type="MSArtboardGroup" transform="translate(-228.000000, -59.000000)">
            <g id="opening-&amp;-closingdone" sketch:type="MSLayerGroup" transform="translate(228.000000, 59.000000)">
                <circle id="Oval-20-Copy-20" stroke="#88B250" opacity="0.8" sketch:type="MSShapeGroup" cx="20" cy="20" r="20"></circle>
                <g id="Group" transform="translate(10.000000, 14.000000)" fill="#A0C273" sketch:type="MSShapeGroup">
                    <path d="M14.0988571,-8.8817842e-16 C10.9585714,-8.8817842e-16 8.404,2.59188406 8.404,5.7773913 L8.404,7.23768116 L6.46142857,5.26695652 L5.71428571,5.68927536 L8.92171429,8.94318841 L12.1291429,5.68927536 L11.3845714,5.2684058 L9.36428571,7.31449275 L9.36428571,5.77710145 C9.36428571,3.1284058 11.4882857,0.973623188 14.0991429,0.973623188 C16.71,0.973623188 18.8342857,3.1284058 18.8342857,5.77710145 C18.8342857,5.84057971 18.8308571,6.7773913 18.8308571,6.7773913 L19.7908571,6.78086957 C19.7908571,6.78086957 19.7942857,5.84086957 19.7942857,5.77710145 C19.7937143,2.59188406 17.2391429,-8.8817842e-16 14.0988571,-8.8817842e-16 L14.0988571,-8.8817842e-16 Z" id="Shape"></path>
                    <path d="M13.6722857,10.7284058 L5.09314286,10.7284058 C4.51942857,10.7284058 4.02285714,10.333913 3.88514286,9.76898551 L2.57142857,4.38144928 C2.54,4.25246377 2.42628571,4.16231884 2.29514286,4.16231884 L-8.8817842e-16,4.16231884 L-8.8817842e-16,3.1884058 L2.29514286,3.1884058 C2.86857143,3.1884058 3.36542857,3.58289855 3.50314286,4.14753623 L4.81685714,9.53536232 C4.84828571,9.66434783 4.962,9.75449275 5.09314286,9.75449275 L13.6722857,9.75449275 C13.7882857,9.75449275 13.8905714,9.68405797 13.9342857,9.57826087 L13.932,3.67536232 L14.892,3.67507246 L14.8942857,9.71130435 L14.8802857,9.76898551 C14.7425714,10.333913 14.246,10.7284058 13.6722857,10.7284058 L13.6722857,10.7284058 Z" id="Shape"></path>
                    <path d="M6.49714286,13.7623188 C5.75057143,13.7623188 5.14285714,13.146087 5.14285714,12.3884058 C5.14285714,11.6310145 5.75028571,11.0144928 6.49714286,11.0144928 C7.244,11.0144928 7.85142857,11.6307246 7.85142857,12.3884058 C7.85142857,13.1457971 7.244,13.7623188 6.49714286,13.7623188 L6.49714286,13.7623188 Z M6.49714286,11.7101449 C6.12857143,11.7101449 5.82857143,12.0144928 5.82857143,12.3884058 C5.82857143,12.7623188 6.12857143,13.0666667 6.49714286,13.0666667 C6.86571429,13.0666667 7.16571429,12.7623188 7.16571429,12.3884058 C7.16571429,12.0144928 6.86571429,11.7101449 6.49714286,11.7101449 L6.49714286,11.7101449 Z" id="Shape"></path>
                    <path d="M12.2114286,13.7623188 C11.4645714,13.7623188 10.8571429,13.146087 10.8571429,12.3884058 C10.8571429,11.6310145 11.4645714,11.0144928 12.2114286,11.0144928 C12.958,11.0144928 13.5657143,11.6307246 13.5657143,12.3884058 C13.5657143,13.1457971 12.9582857,13.7623188 12.2114286,13.7623188 L12.2114286,13.7623188 Z M12.2114286,11.7101449 C11.8428571,11.7101449 11.5428571,12.0144928 11.5428571,12.3884058 C11.5428571,12.7623188 11.8428571,13.0666667 12.2114286,13.0666667 C12.58,13.0666667 12.88,12.7623188 12.88,12.3884058 C12.88,12.0144928 12.58,11.7101449 12.2114286,11.7101449 L12.2114286,11.7101449 Z" id="Shape"></path>
                </g>
            </g>
        </g>
    </g>
</svg>