<?xml version="1.0" encoding="UTF-8" standalone="no"?>
<svg width="40px" height="40px" viewBox="0 0 40 40" version="1.1" xmlns="http://www.w3.org/2000/svg" xmlns:xlink="http://www.w3.org/1999/xlink" xmlns:sketch="http://www.bohemiancoding.com/sketch/ns">
    <!-- Generator: Sketch 3.3.3 (12081) - http://www.bohemiancoding.com/sketch -->
    <title>tech-stackdone</title>
    <desc>Created with Sketch.</desc>
    <defs></defs>
    <g id="Main-Attraction" stroke="none" stroke-width="1" fill="none" fill-rule="evenodd" sketch:type="MSPage">
        <g id="TRACK-ICONS" sketch:type="MSArtboardGroup" transform="translate(-178.000000, -109.000000)">
            <g id="tech-stackdone" sketch:type="MSLayerGroup" transform="translate(178.000000, 109.000000)">
                <circle id="Oval-20-Copy-13" stroke="#24B494" opacity="0.8" sketch:type="MSShapeGroup" cx="20" cy="20" r="20"></circle>
                <g id="Group" transform="translate(10.000000, 12.000000)" fill="#50C3AA" sketch:type="MSShapeGroup">
                    <path d="M10.2883784,6.12075284 C9.03648649,6.12075284 8.01810811,7.13768466 8.01810811,8.3877983 C8.01810811,9.63791193 9.03648649,10.6548437 10.2883784,10.6548437 C11.5402703,10.6548437 12.5586486,9.63791193 12.5586486,8.3877983 C12.5586486,7.13768466 11.5402703,6.12075284 10.2883784,6.12075284 L10.2883784,6.12075284 Z M10.2883784,9.89916193 C9.45378378,9.89916193 8.77486486,9.22120739 8.77486486,8.3877983 C8.77486486,7.5543892 9.45378378,6.87643466 10.2883784,6.87643466 C11.122973,6.87643466 11.8018919,7.5543892 11.8018919,8.3877983 C11.8018919,9.22120739 11.1227027,9.89916193 10.2883784,9.89916193 L10.2883784,9.89916193 Z" id="Shape"></path>
                    <path d="M19.7478378,8.50384943 C19.7478378,7.22485795 18.4943243,6.09862216 16.4881081,5.34213068 C16.5227027,5.21636364 16.5613514,5.08897727 16.5905405,4.96536932 C16.7894595,4.12575284 16.8443243,3.38761364 16.7775676,2.75473011 C16.8775676,2.67322443 16.9683784,2.57984375 17.0456757,2.47350852 C17.5354054,1.79852273 17.3840541,0.851761364 16.7081081,0.362457386 C16.4481081,0.174346591 16.1413514,0.0750284091 15.8213514,0.0750284091 C15.4386486,0.0750284091 15.0735135,0.22265625 14.7964865,0.476619318 C14.7002703,0.465553977 14.6051351,0.452869318 14.5032432,0.452869318 C13.3086486,0.452869318 11.8083784,1.18291193 10.2886486,2.4284375 C8.76891892,1.18318182 7.26864865,0.452869318 6.07405405,0.452869318 C5.55594595,0.452869318 5.10675676,0.5878125 4.73891892,0.853920455 C3.78864865,1.54132102 3.52162162,3.00140625 3.98648649,4.96509943 C4.01594595,5.08924716 4.05486486,5.21744318 4.08972973,5.34401989 C2.99594595,5.75694602 2.12972973,6.28025568 1.56567568,6.87805398 C0.740810811,6.8893892 0.0724324324,7.56086648 0.0724324324,8.38725852 C0.0724324324,9.13916193 0.626216216,9.75909091 1.34702703,9.87460227 C1.89081081,10.5790057 2.8427027,11.1924574 4.08945946,11.6631392 C4.05459459,11.7897159 4.01567568,11.9179119 3.98648649,12.0417898 C3.52162162,14.005483 3.78891892,15.4655682 4.73891892,16.1529688 C5.10702703,16.4193466 5.55621622,16.5540199 6.07432432,16.5540199 L6.07459459,16.5540199 C7.26891892,16.5540199 8.76891892,15.8239773 10.2886486,14.5787216 C11.8083784,15.8239773 13.3086486,16.5540199 14.502973,16.5540199 C14.56,16.5540199 14.6132432,16.546733 14.6683784,16.5429545 C14.9543243,16.8786932 15.3759459,17.0775994 15.8210811,17.0775994 C16.1413514,17.0775994 16.4481081,16.9782813 16.7081081,16.7901705 C17.0354054,16.55375 17.2508108,16.2034375 17.3145946,15.8050852 C17.3783784,15.4061932 17.2827027,15.0064915 17.0456757,14.6796591 C16.9648649,14.5684659 16.8689189,14.4715767 16.7632432,14.387642 C16.8545946,13.7272301 16.8032432,12.9410511 16.5902703,12.0417898 C16.5610811,11.9184517 16.5224324,11.7910653 16.4878378,11.6652983 C18.4943243,10.9090767 19.7478378,9.7831108 19.7478378,8.50384943 L19.7478378,8.50384943 Z M15.8210811,0.830980114 C15.9808108,0.830980114 16.1340541,0.880909091 16.2640541,0.974559659 C16.6018919,1.2190767 16.6778378,1.69299716 16.432973,2.03035511 C16.2910811,2.22602273 16.0616216,2.34261364 15.8191892,2.34261364 C15.6591892,2.34261364 15.5059459,2.29268466 15.3759459,2.19903409 C15.0381081,1.95451705 14.9624324,1.48086648 15.207027,1.14377841 C15.3491892,0.947571023 15.5786486,0.830980114 15.8210811,0.830980114 L15.8210811,0.830980114 Z M14.3527027,1.21934659 C14.3035135,1.4150142 14.2927027,1.62012784 14.3254054,1.82524148 C14.3894595,2.22386364 14.6048649,2.57390625 14.9321622,2.8103267 C15.1921622,2.9984375 15.4989189,3.09775568 15.8189189,3.09775568 L15.8191892,3.09775568 C15.8972973,3.09775568 15.9740541,3.08965909 16.0502703,3.07778409 C16.0686486,3.5724858 16.0064865,4.14788352 15.8543243,4.7915625 C15.8305405,4.89169034 15.7983784,4.99559659 15.7710811,5.09734375 C14.7664865,4.78805398 13.6135135,4.56323864 12.36,4.44475852 C11.8718919,3.89176136 11.3724324,3.38518466 10.8702703,2.93150568 C12.1437838,1.90350852 13.3772973,1.27791193 14.3527027,1.21934659 L14.3527027,1.21934659 Z M13.0459459,10.4985795 C12.7051351,10.9684517 12.3497297,11.4137642 11.987027,11.8364063 C11.4432432,11.8790483 10.8783784,11.9044176 10.2881081,11.9044176 C9.69810811,11.9044176 9.13297297,11.8795881 8.58972973,11.8372159 C8.22702703,11.4140341 7.87135135,10.9687216 7.53027027,10.4985795 C7.05324324,9.84086648 6.62648649,9.17100852 6.24972973,8.50357955 C6.62648649,7.83615057 7.05324324,7.16629261 7.53027027,6.50857955 C7.87108108,6.03870739 8.22648649,5.59366477 8.58918919,5.17075284 C9.1327027,5.12838068 9.69783784,5.10328125 10.2881081,5.10328125 C10.8783784,5.10328125 11.4435135,5.12865057 11.9872973,5.17129261 C12.3497297,5.59393466 12.7051351,6.03924716 13.0459459,6.50884943 C13.522973,7.1665625 13.9497297,7.83642045 14.3264865,8.50384943 C13.9497297,9.17100852 13.5232432,9.84086648 13.0459459,10.4985795 L13.0459459,10.4985795 Z M14.7462162,9.28840909 C15.0718919,9.93613636 15.3405405,10.5738778 15.5508108,11.1913778 C14.8159459,11.4172727 13.9840541,11.6024148 13.06,11.7260227 C13.2627027,11.47125 13.4632432,11.2118892 13.6586486,10.9422727 C14.0540541,10.3973722 14.4156757,9.84329545 14.7462162,9.28840909 L14.7462162,9.28840909 Z M10.2881081,13.5836506 C9.96108108,13.2913636 9.63405405,12.9755966 9.31027027,12.6371591 C9.63189189,12.6511932 9.95702703,12.6600994 10.2881081,12.6600994 C10.6181081,12.6600994 10.9437838,12.6530824 11.2640541,12.6390483 C10.9410811,12.976946 10.6145946,13.2919034 10.2881081,13.5836506 L10.2881081,13.5836506 Z M7.51486486,11.7241335 C6.59351351,11.6005256 5.75810811,11.4186222 5.02486486,11.193267 C5.23540541,10.5752273 5.50405405,9.93694602 5.83,9.28840909 C6.16054054,9.84329545 6.52216216,10.3973722 6.9172973,10.9420028 C7.1127027,11.2110795 7.3127027,11.4701705 7.51486486,11.7241335 L7.51486486,11.7241335 Z M5.83027027,7.71901989 C5.50459459,7.07102273 5.23594595,6.43328125 5.02567568,5.81578125 C5.75918919,5.58961648 6.59324324,5.40609375 7.51621622,5.28221591 C7.31378378,5.53671875 7.11351351,5.79607955 6.91810811,6.06542614 C6.52243243,6.6103267 6.16081081,7.16413352 5.83027027,7.71901989 L5.83027027,7.71901989 Z M10.2883784,3.4240483 C10.6148649,3.71606534 10.9413514,4.03102273 11.2645946,4.36865057 C10.9440541,4.35488636 10.6183784,4.34759943 10.2883784,4.34759943 C9.95675676,4.34759943 9.63162162,4.35704545 9.31,4.37107955 C9.63378378,4.03237216 9.96108108,3.71660511 10.2883784,3.4240483 L10.2883784,3.4240483 Z M13.6589189,6.06542614 C13.4635135,5.79607955 13.262973,5.53671875 13.0605405,5.28221591 C13.9843243,5.40582386 14.8159459,5.59069602 15.5505405,5.81659091 C15.3402703,6.43382102 15.0716216,7.0715625 14.7462162,7.71901989 C14.4156757,7.16413352 14.0543243,6.61005682 13.6589189,6.06542614 L13.6589189,6.06542614 Z M4.72243243,4.7915625 C4.33810811,3.16765625 4.50567568,1.95559659 5.18243243,1.46602273 C5.41864865,1.29545455 5.71837838,1.20882102 6.07378378,1.20882102 C7.07027027,1.20882102 8.36756757,1.85115057 9.70675676,2.93150568 C9.20405405,3.38599432 8.70378378,3.89338068 8.21513514,4.4471875 C6.96189189,4.56620739 5.81054054,4.79075284 4.80675676,5.1003125 C4.77891892,4.9974858 4.74648649,4.89276989 4.72243243,4.7915625 L4.72243243,4.7915625 Z M1.58567568,7.63211648 C2.00297297,7.63211648 2.34243243,7.97109375 2.34243243,8.3877983 C2.34243243,8.80450284 2.00297297,9.14348011 1.58567568,9.14348011 C1.16837838,9.14348011 0.828918919,8.80450284 0.828918919,8.3877983 C0.828918919,7.97109375 1.16810811,7.63211648 1.58567568,7.63211648 L1.58567568,7.63211648 Z M2.23837838,9.7453267 C2.74540541,9.50107955 3.09891892,8.98694602 3.09891892,8.3877983 C3.09891892,7.85558239 2.82054054,7.38921875 2.40324324,7.11987216 C2.8627027,6.73150568 3.50810811,6.37012784 4.31054054,6.06245739 C4.58054054,6.85349432 4.94162162,7.67475852 5.38621622,8.50384943 C4.94108108,9.33375 4.57972973,10.1558239 4.30972973,10.9474006 C3.40675676,10.6022159 2.70324324,10.1882102 2.23837838,9.7453267 L2.23837838,9.7453267 Z M6.07405405,15.7988778 C5.71864865,15.7988778 5.41864865,15.7125142 5.1827027,15.5416761 C4.50567568,15.0521023 4.33810811,13.8400426 4.72243243,12.2161364 C4.74621622,12.1160085 4.77837838,12.0118324 4.80594595,11.9100852 C5.80918919,12.2191051 6.96243243,12.4414915 8.21459459,12.5602415 C8.70351351,13.1143182 9.20378378,13.6219744 9.70675676,14.0764631 C8.36756757,15.1565483 7.07027027,15.7988778 6.07405405,15.7988778 L6.07405405,15.7988778 Z M16.5672973,15.6863352 C16.5354054,15.8855114 16.4278378,16.0603977 16.2643243,16.1788778 C15.937027,16.4142188 15.4424324,16.3346023 15.2072973,16.0101989 C14.9624324,15.6728409 15.0383784,15.1991903 15.3759459,14.9544034 C15.5059459,14.8607528 15.6591892,14.8108239 15.8189189,14.8108239 C16.0613514,14.8108239 16.2908108,14.9274148 16.432973,15.1233523 C16.5513514,15.2869034 16.5991892,15.4866193 16.5672973,15.6863352 L16.5672973,15.6863352 Z M15.8540541,12.2158665 C16.0221622,12.9256676 16.0762162,13.5477557 16.0354054,14.0726847 C15.9640541,14.062429 15.8918919,14.0554119 15.8189189,14.0554119 C15.4986486,14.0554119 15.1921622,14.1547301 14.9318919,14.3428409 C14.4605405,14.6839773 14.2510811,15.2475 14.3297297,15.786733 C13.3581081,15.7198011 12.1340541,15.0960938 10.8697297,14.0764631 C11.3716216,13.6227841 11.8710811,13.1162074 12.3589189,12.5634801 C13.612973,12.4447301 14.7659459,12.2201847 15.7705405,11.9108949 C15.7981081,12.0121023 15.8302703,12.1160085 15.8540541,12.2158665 L15.8540541,12.2158665 Z M16.2659459,10.9455114 C15.9959459,10.1542045 15.6348649,9.33294034 15.19,8.50357955 C15.6345946,7.67448864 15.9956757,6.85322443 16.2656757,6.0621875 C17.9867568,6.71990057 18.9908108,7.62698864 18.9908108,8.50384943 C18.9910811,9.38071023 17.987027,10.2877983 16.2659459,10.9455114 L16.2659459,10.9455114 Z" id="Shape"></path>
                </g>
            </g>
        </g>
    </g>
</svg>