<?xml version="1.0" encoding="UTF-8" standalone="no"?>
<svg width="30px" height="30px" viewBox="0 0 30 30" version="1.1" xmlns="http://www.w3.org/2000/svg" xmlns:xlink="http://www.w3.org/1999/xlink" xmlns:sketch="http://www.bohemiancoding.com/sketch/ns">
    <!-- Generator: Sketch 3.3.3 (12081) - http://www.bohemiancoding.com/sketch -->
    <title>Rectangle 125 Copy 2 + Group</title>
    <desc>Created with Sketch.</desc>
    <defs></defs>
    <g id="Main-Attraction" stroke="none" stroke-width="1" fill="none" fill-rule="evenodd" sketch:type="MSPage">
        <g id="3A-LESSONS" sketch:type="MSArtboardGroup" transform="translate(-760.000000, -374.000000)">
            <g id="Rectangle-125-Copy-2-+-Group" sketch:type="MSLayerGroup" transform="translate(760.000000, 374.000000)">
                <rect id="Rectangle-125-Copy-2" fill="#919191" sketch:type="MSShapeGroup" x="0" y="0" width="30" height="30" rx="5.4"></rect>
                <g id="Group" transform="translate(5.000000, 5.000000)" fill="#FFFFFF" sketch:type="MSShapeGroup">
                    <path d="M9.81091875,7.595 L11.032125,6.37224375 C11.1270625,6.27924375 11.1559312,6.1376125 11.1084625,6.01341875 C10.511325,4.489575 10.8077625,2.930275 11.89935,1.83926875 C12.8915437,0.84475 14.3252937,0.45725 15.6677875,0.78681875 L13.86785,2.58675625 C13.4784125,2.97658125 13.2623812,3.49505625 13.2623812,4.04724375 C13.2623812,4.59885 13.4784125,5.11596875 13.86785,5.50734375 C14.259225,5.89639375 14.77615,6.1128125 15.3277562,6.1128125 C15.87975,6.1128125 16.3988062,5.89639375 16.7874687,5.50734375 L18.5874062,3.70740625 C18.916975,5.05048125 18.53025,6.4832625 17.5353437,7.476425 C16.4435625,8.567625 14.8850375,8.86386875 13.361,8.26711875 C13.1877875,8.198725 12.9946187,8.285525 12.9266125,8.45854375 C12.8586062,8.6315625 12.9450187,8.82473125 13.1161,8.893125 C13.7196312,9.12969375 14.3270375,9.24516875 14.917975,9.24516875 C16.071175,9.24516875 17.160825,8.80225625 18.0113875,7.95169375 C19.3209437,6.64194375 19.7285937,4.68119375 19.0531812,2.9554625 C19.0121062,2.85103125 18.921625,2.77275625 18.810025,2.74989375 C18.6990062,2.7268375 18.5835312,2.7621 18.5033187,2.84211875 L16.3123937,5.03149375 C16.0506375,5.2948 15.7005312,5.43914375 15.3277562,5.43914375 C14.9571125,5.43914375 14.6072,5.2948 14.3437,5.03149375 C14.0800062,4.7681875 13.9358562,4.4175 13.9358562,4.04705 C13.9358562,3.6738875 14.0800062,3.32416875 14.3437,3.0628 L16.5323,0.8714875 C16.6129,0.79108125 16.647775,0.6758 16.6251062,0.5645875 C16.6024375,0.453375 16.52455,0.36289375 16.4174062,0.321625 C14.6934187,-0.3537875 12.73325,0.0538625 11.4233062,1.364 C10.1877625,2.59935 9.8149875,4.337675 10.4039875,6.048875 L9.3352625,7.1195375 C9.2035125,7.25109375 9.2035125,7.46344375 9.3352625,7.595 C9.465075,7.72675 9.67916875,7.72675 9.81091875,7.595 L9.81091875,7.595 Z" id="Shape"></path>
                    <path d="M8.11211875,13.2319625 L3.08934375,18.256675 C3.08120625,18.2624875 2.44493125,18.876675 1.72825,18.6499875 C1.55096875,18.5943813 1.361675,18.693 1.30606875,18.8700875 C1.25026875,19.0475625 1.34714375,19.2368563 1.52423125,19.2926563 C1.70965,19.3498125 1.88886875,19.375 2.05975625,19.375 C2.9081875,19.375 3.53031875,18.7654625 3.56325625,18.7321375 L8.587775,13.707425 C8.719525,13.5758688 8.719525,13.363325 8.587775,13.2319625 C8.456025,13.1023438 8.24386875,13.1023438 8.11211875,13.2319625 L8.11211875,13.2319625 Z" id="Shape"></path>
                    <path d="M7.36463125,10.0397375 C7.49638125,9.91011875 7.49638125,9.69583125 7.36463125,9.56408125 C7.23249375,9.434075 7.02053125,9.434075 6.8885875,9.56408125 L0.640925,15.8119375 C0.60391875,15.851075 -0.267375,16.7388375 0.082925,17.849025 C0.12806875,17.993175 0.26195,18.0857875 0.4041625,18.0857875 C0.4371,18.0857875 0.4723625,18.0795875 0.50510625,18.0693187 C0.6823875,18.0135187 0.78100625,17.8236437 0.72559375,17.6469437 C0.4991,16.9302625 1.1129,16.294375 1.11696875,16.288175 L7.36463125,10.0397375 L7.36463125,10.0397375 Z" id="Shape"></path>
                    <path d="M12.2552688,9.56408125 C12.2182625,9.528625 12.1731188,9.50014375 12.1235188,9.48348125 L8.52965,8.28475 L4.92028125,4.6748 C4.8565375,4.61144375 4.77186875,4.57618125 4.68351875,4.57618125 L2.42865625,4.57618125 L0.82634375,1.90940625 L1.67884375,1.0567125 L4.34600625,2.659025 L4.34600625,3.69055 C4.34600625,3.87635625 4.4981,4.02593125 4.6837125,4.02593125 C4.86913125,4.02593125 5.0192875,3.87635625 5.0192875,3.69055 L5.0192875,2.46779375 C5.0192875,2.35038125 4.95748125,2.24110625 4.85673125,2.1789125 L1.800325,0.34661875 C1.66644375,0.2662125 1.49749375,0.28655625 1.38860625,0.39544375 L0.1654625,1.618975 C0.058125,1.72825 0.03545625,1.89700625 0.11566875,2.02914375 L1.9487375,5.08496875 C2.01054375,5.18785 2.119625,5.24985 2.2370375,5.24985 L4.5434375,5.24985 L8.11211875,8.81853125 C8.113475,8.82008125 8.11560625,8.82046875 8.1169625,8.821825 C8.1448625,8.8485625 8.1778,8.87006875 8.21480625,8.88634375 C8.22023125,8.8888625 8.2254625,8.89138125 8.23108125,8.8935125 C8.2355375,8.8950625 8.23921875,8.89758125 8.24386875,8.89913125 L11.8352188,10.0980563 L17.89165,16.1523563 C17.8999813,16.1604938 18.6453375,16.9322 18.4188438,17.6471375 C18.363625,17.8238375 18.4622438,18.0137125 18.639525,18.0695125 C18.6744,18.0797813 18.7075313,18.0859813 18.7404688,18.0859813 C18.8846188,18.0859813 19.016175,17.9933688 19.0617063,17.8492188 C19.4120063,16.739225 18.4107063,15.7195188 18.3676938,15.6765063 L12.2552688,9.56408125 L12.2552688,9.56408125 Z" id="Shape"></path>
                    <path d="M17.4179312,18.6499875 C16.6969875,18.876675 15.92935,18.1288 15.9229562,18.1227937 L9.86633125,12.0661687 L9.27965625,10.3076937 C9.22191875,10.1325437 9.03049375,10.0374125 8.8555375,10.0953437 C8.67825625,10.1528875 8.5835125,10.3445062 8.64125,10.51985 L9.2531125,12.354275 C9.26958125,12.403875 9.29825625,12.4492125 9.33545625,12.484475 L15.4474937,18.5982562 C15.4825625,18.6335187 16.227725,19.3666687 17.1338937,19.3666687 C17.2923812,19.3666687 17.455325,19.344 17.6202062,19.2924625 C17.7969062,19.2366625 17.8941687,19.0473687 17.8383687,18.8698937 C17.782375,18.6928062 17.593275,18.5943812 17.4179312,18.6499875 L17.4179312,18.6499875 Z" id="Shape"></path>
                    <path d="M16.9075937,17.473925 C16.9940062,17.473925 17.0782875,17.4406 17.1443562,17.3751125 C17.2759125,17.242975 17.2759125,17.0314 17.1443562,16.8992625 L11.0319312,10.787225 C10.900375,10.655475 10.6882187,10.655475 10.556275,10.787225 C10.424525,10.91975 10.424525,11.1311313 10.556275,11.2634625 L16.6683125,17.3753063 C16.7343812,17.4407938 16.8207937,17.473925 16.9075937,17.473925 L16.9075937,17.473925 Z" id="Shape"></path>
                </g>
            </g>
        </g>
    </g>
</svg>