<?xml version="1.0" encoding="UTF-8" standalone="no"?>
<svg width="30px" height="30px" viewBox="0 0 30 30" version="1.1" xmlns="http://www.w3.org/2000/svg" xmlns:xlink="http://www.w3.org/1999/xlink" xmlns:sketch="http://www.bohemiancoding.com/sketch/ns">
    <!-- Generator: Sketch 3.3.2 (12043) - http://www.bohemiancoding.com/sketch -->
    <title>watch</title>
    <desc>Created with Sketch.</desc>
    <defs></defs>
    <g id="Main-Attraction" stroke="none" stroke-width="1" fill="none" fill-rule="evenodd" sketch:type="MSPage">
        <g id="Artboard-41" sketch:type="MSArtboardGroup" transform="translate(-111.000000, -128.000000)">
            <g id="watch" sketch:type="MSLayerGroup" transform="translate(111.000000, 128.000000)">
                <g id="Rectangle-125-+-Shape" sketch:type="MSShapeGroup">
                    <rect id="Rectangle-125" fill="#47B8DF" x="0" y="-2.98427949e-13" width="30" height="30" rx="5.4"></rect>
                    <path d="M24.7433,6 L21.4796667,6 C21.0634,6 20.7248333,6.3367 20.7229667,6.75296667 L20.7229667,9.0933 L9.27703333,9.0933 L9.27703333,6.7567 C9.27703333,6.33856667 8.93846667,6 8.52033333,6 L5.2567,6 C4.83856667,6 4.5,6.33856667 4.5,6.7567 L4.5,23.1367 C4.5,23.5548333 4.83856667,23.8934 5.2567,23.8934 L8.52033333,23.8934 C8.72076667,23.8934 8.91373333,23.8138333 9.05583333,23.6719667 C9.27726667,23.4505333 9.27726667,23.4505333 9.27726667,21.6286667 L9.27726667,20.8775667 L20.7232,20.8775667 L20.7232,23.1364667 C20.7232,23.5546 21.0617667,23.8931667 21.4799,23.8931667 L24.7433,23.8931667 C25.1614333,23.8931667 25.5,23.5546 25.5,23.1364667 L25.5,6.75646667 C25.5,6.33856667 25.1614333,6 24.7433,6 L24.7433,6 Z M7.7634,22.38 L6.0134,22.38 L6.0134,20.6545 L7.7634,20.6545 L7.7634,22.38 L7.7634,22.38 Z M7.7634,18.9763667 L6.0134,18.9763667 L6.0134,17.2982333 L7.7634,17.2982333 L7.7634,18.9763667 L7.7634,18.9763667 Z M7.7634,15.6201 L6.0134,15.6201 L6.0134,13.9419667 L7.7634,13.9419667 L7.7634,15.6201 L7.7634,15.6201 Z M7.7634,12.2640667 L6.0134,12.2640667 L6.0134,10.5859333 L7.7634,10.5859333 L7.7634,12.2640667 L7.7634,12.2640667 Z M7.7634,8.9078 L6.0134,8.9078 L6.0134,7.5134 L7.7634,7.5134 L7.7634,8.9078 L7.7634,8.9078 Z M20.7229667,19.3641667 L9.27703333,19.3641667 L9.27703333,10.6067 L20.7229667,10.6067 L20.7229667,19.3641667 L20.7229667,19.3641667 Z M23.9863667,22.38 L22.2363667,22.38 L22.2363667,20.6545 L23.9863667,20.6545 L23.9863667,22.38 L23.9863667,22.38 Z M23.9863667,18.9763667 L22.2363667,18.9763667 L22.2363667,17.2982333 L23.9863667,17.2982333 L23.9863667,18.9763667 L23.9863667,18.9763667 Z M23.9863667,15.6201 L22.2363667,15.6201 L22.2363667,13.9419667 L23.9863667,13.9419667 L23.9863667,15.6201 L23.9863667,15.6201 Z M23.9863667,12.2640667 L22.2363667,12.2640667 L22.2363667,10.5859333 L23.9863667,10.5859333 L23.9863667,12.2640667 L23.9863667,12.2640667 Z M23.9863667,8.9078 L22.2363667,8.9078 L22.2363667,7.5134 L23.9863667,7.5134 L23.9863667,8.9078 L23.9863667,8.9078 Z" id="Shape" fill="#F7F7F7"></path>
                </g>
            </g>
        </g>
    </g>
</svg>