<svg xmlns="http://www.w3.org/2000/svg" xmlns:xlink="http://www.w3.org/1999/xlink" version="1.0" x="0px" y="0px" width="100px" height="100px" viewBox="0 0 100 100" enable-background="new 0 0 100 100" xml:space="preserve">
<g id="Captions">
</g>
<g id="Your_Icon">
	<path fill="#000000" d="M55.21,15.933l-4.069,1.898c-2.122-3.08-4.869-5.554-7.998-7.326l1.638-4.494   c0.767-2.112-0.324-4.447-2.437-5.216c-2.11-0.769-4.445,0.321-5.214,2.433l-1.634,4.492c-3.536-0.651-7.233-0.521-10.838,0.472   l-1.898-4.069c-0.95-2.039-3.369-2.92-5.408-1.969c-2.036,0.952-2.92,3.369-1.967,5.408l1.896,4.069   c-3.076,2.122-5.552,4.871-7.326,7.998l-4.492-1.636c-2.112-0.769-4.445,0.324-5.215,2.435c-0.771,2.11,0.32,4.445,2.431,5.214   l4.492,1.638c-0.651,3.534-0.523,7.229,0.47,10.836l-4.069,1.896c-2.034,0.948-2.917,3.371-1.967,5.408   c0.95,2.039,3.371,2.917,5.408,1.969l4.069-1.898c2.124,3.08,4.869,5.552,7.998,7.326l-1.611,4.427   c-0.767,2.112,0.323,4.449,2.433,5.214c2.11,0.771,4.447-0.319,5.216-2.431l1.611-4.425c3.534,0.651,7.233,0.521,10.836-0.472   l1.898,4.069c0.948,2.037,3.371,2.917,5.408,1.97c2.039-0.952,2.917-3.373,1.967-5.41l-1.896-4.067   c3.078-2.122,5.554-4.872,7.326-8l4.494,1.636c2.112,0.767,4.447-0.321,5.216-2.433c0.767-2.112-0.324-4.447-2.431-5.216   l-4.494-1.638c0.651-3.534,0.521-7.226-0.472-10.834l4.069-1.896c2.037-0.952,2.917-3.373,1.97-5.408   C59.667,15.861,57.248,14.982,55.21,15.933z M37.971,46.367c-8.112,3.782-17.786,0.262-21.568-7.849   c-3.78-8.107-0.258-17.784,7.849-21.564c8.112-3.784,17.786-0.26,21.566,7.849C49.603,32.913,46.081,42.584,37.971,46.367z"/>
	<path fill="#000000" d="M60.257,68.313l-2.708,1.264c-1.412-2.051-3.241-3.699-5.326-4.877l1.092-2.993   c0.509-1.406-0.216-2.96-1.624-3.473c-1.404-0.513-2.958,0.214-3.471,1.62l-1.089,2.991c-2.354-0.433-4.814-0.346-7.214,0.315   l-1.263-2.71c-0.633-1.357-2.244-1.943-3.601-1.312c-1.355,0.635-1.943,2.244-1.31,3.601l1.263,2.71   c-2.049,1.414-3.697,3.243-4.877,5.324l-2.993-1.09c-1.406-0.511-2.958,0.218-3.471,1.621c-0.513,1.406,0.214,2.96,1.617,3.471   l2.993,1.09c-0.433,2.354-0.35,4.816,0.311,7.214l-2.708,1.264c-1.355,0.633-1.943,2.244-1.31,3.601   c0.633,1.357,2.244,1.941,3.601,1.31l2.708-1.263c1.414,2.051,3.243,3.697,5.326,4.879l-1.074,2.946   c-0.511,1.406,0.216,2.962,1.621,3.473c1.404,0.513,2.96-0.214,3.471-1.619l1.074-2.946c2.352,0.433,4.814,0.346,7.214-0.315   l1.261,2.71c0.633,1.355,2.246,1.943,3.601,1.31c1.357-0.633,1.943-2.244,1.31-3.601l-1.261-2.708   c2.049-1.414,3.697-3.243,4.877-5.324l2.991,1.086c1.406,0.513,2.962-0.214,3.475-1.617c0.509-1.406-0.216-2.962-1.62-3.475   l-2.993-1.091c0.433-2.352,0.348-4.811-0.313-7.21l2.708-1.265c1.357-0.633,1.943-2.244,1.31-3.599   C63.226,68.266,61.616,67.68,60.257,68.313z M48.783,88.574c-5.4,2.519-11.841,0.175-14.36-5.225   c-2.517-5.4-0.173-11.841,5.227-14.357c5.4-2.519,11.839-0.173,14.356,5.225C56.526,79.617,54.18,86.056,48.783,88.574z"/>
	<path fill="#000000" d="M95.33,29.997l-2.71,1.261c-1.412-2.049-3.241-3.697-5.324-4.877l1.091-2.993   c0.511-1.404-0.216-2.96-1.624-3.471c-1.404-0.513-2.958,0.212-3.471,1.617l-1.089,2.993c-2.354-0.435-4.814-0.348-7.214,0.313   l-1.263-2.71c-0.633-1.355-2.242-1.943-3.599-1.31c-1.357,0.633-1.945,2.244-1.312,3.601l1.263,2.708   c-2.049,1.414-3.695,3.243-4.877,5.324l-2.991-1.088c-1.406-0.511-2.96,0.216-3.471,1.621c-0.515,1.404,0.212,2.96,1.618,3.471   l2.991,1.09c-0.433,2.354-0.348,4.814,0.313,7.214l-2.71,1.261c-1.353,0.633-1.943,2.244-1.308,3.601   c0.631,1.357,2.244,1.943,3.601,1.31l2.706-1.261c1.414,2.049,3.243,3.695,5.326,4.877l-1.072,2.946   c-0.513,1.408,0.214,2.962,1.62,3.473c1.404,0.513,2.96-0.214,3.473-1.619l1.072-2.946c2.352,0.433,4.814,0.348,7.214-0.313   l1.264,2.708c0.631,1.357,2.244,1.943,3.599,1.31c1.357-0.633,1.943-2.244,1.31-3.599l-1.261-2.708   c2.049-1.414,3.697-3.245,4.877-5.326l2.991,1.088c1.408,0.513,2.962-0.214,3.475-1.619c0.511-1.406-0.216-2.96-1.62-3.473   l-2.993-1.091c0.433-2.354,0.348-4.811-0.313-7.212l2.71-1.263c1.355-0.633,1.941-2.244,1.308-3.599   C98.296,29.948,96.687,29.362,95.33,29.997z M83.853,50.259c-5.4,2.517-11.841,0.173-14.36-5.227   c-2.517-5.397-0.173-11.841,5.227-14.357c5.4-2.519,11.839-0.173,14.355,5.227C91.597,41.301,89.251,47.738,83.853,50.259z"/>
</g>
</svg>