<?xml version="1.0" encoding="UTF-8" standalone="no"?>
<svg width="40px" height="40px" viewBox="0 0 40 40" version="1.1" xmlns="http://www.w3.org/2000/svg" xmlns:xlink="http://www.w3.org/1999/xlink" xmlns:sketch="http://www.bohemiancoding.com/sketch/ns">
    <!-- Generator: Sketch 3.3.3 (12081) - http://www.bohemiancoding.com/sketch -->
    <title>brandin-&amp;-storytelling</title>
    <desc>Created with Sketch.</desc>
    <defs></defs>
    <g id="Main-Attraction" stroke="none" stroke-width="1" fill="none" fill-rule="evenodd" sketch:type="MSPage">
        <g id="TRACK-ICONS" sketch:type="MSArtboardGroup" transform="translate(-278.000000, -329.000000)">
            <g id="brandin-&amp;-storytelling" sketch:type="MSLayerGroup" transform="translate(278.000000, 329.000000)">
                <circle id="Oval-20-Copy-40" opacity="0.8" fill="#F2B81D" sketch:type="MSShapeGroup" cx="20" cy="20" r="20"></circle>
                <g id="Shape-Copy-9" transform="translate(10.000000, 12.000000)" fill="#FFFFFF" sketch:type="MSShapeGroup">
                    <path d="M17.9067548,1.6274958 C17.8836426,0.84168174 17.4676234,0.333213819 16.7511458,0.263877284 L16.7049215,0.263877284 L12.0362615,0.171428571 L11.9900371,0.171428571 C11.1811109,0.171428571 10.6264186,0.471886889 10.3028481,0.749233027 L10.2797359,0.772345206 L1.17353771,9.90165561 C0.711294144,10.3638992 0.711294144,11.1497132 1.17353771,11.6119568 L6.55867524,16.9970943 C6.78979702,17.2282161 7.09025534,17.343777 7.41382583,17.343777 L7.41382583,17.343777 C7.73739633,17.343777 8.03785465,17.2282161 8.26897643,16.9970943 L12.752739,12.5364439 C12.7989634,12.4902196 12.8451877,12.4439952 12.8914121,12.3746587 L17.2596138,8.00645699 C17.5369599,7.6828865 18.0223156,6.98952115 17.9992035,6.04192184 L17.9067548,1.6274958 L17.9067548,1.6274958 Z M16.6355849,7.40554036 L12.2442711,11.7968542 C12.2211589,11.8199664 12.1980467,11.8430786 12.1980467,11.8661908 C12.1749345,11.8893029 12.1749345,11.9124151 12.1518224,11.9355273 L7.66805979,16.3961777 C7.52938672,16.5348508 7.29826494,16.5348508 7.15959187,16.3961777 L1.77445434,11.0110402 C1.63578127,10.8723671 1.63578127,10.6412453 1.77445434,10.5025722 L10.8806526,1.39637402 C11.0886622,1.23458877 11.458457,1.02657917 11.9900371,1.02657917 L16.6818093,1.11902788 C16.8667067,1.14214006 17.028492,1.23458877 17.0516042,1.65060798 L17.1440529,6.06503402 C17.1440529,6.71217501 16.8204824,7.19753076 16.6355849,7.40554036 L16.6355849,7.40554036 Z M14.047021,2.4826464 C13.145646,2.4826464 12.4291685,3.19912392 12.4291685,4.10049887 C12.4291685,5.00187382 13.145646,5.71835135 14.047021,5.71835135 C14.9483959,5.71835135 15.6648735,5.00187382 15.6648735,4.10049887 C15.6648735,3.19912392 14.9483959,2.4826464 14.047021,2.4826464 L14.047021,2.4826464 Z M14.047021,4.86320075 C13.6310018,4.86320075 13.2843191,4.51651808 13.2843191,4.10049887 C13.2843191,3.68447966 13.6310018,3.33779699 14.047021,3.33779699 C14.4630402,3.33779699 14.8097229,3.68447966 14.8097229,4.10049887 C14.8097229,4.51651808 14.4630402,4.86320075 14.047021,4.86320075 L14.047021,4.86320075 Z M10.9962135,9.06961719 C11.1579987,9.23140244 11.1579987,9.50874858 10.9962135,9.67053383 L7.41382583,13.2529215 C7.32137712,13.3453702 7.22892841,13.3684823 7.11336752,13.3684823 C6.99780662,13.3684823 6.90535791,13.322258 6.8129092,13.2529215 C6.65112395,13.0911362 6.65112395,12.8137901 6.8129092,12.6520048 L10.3952968,9.06961719 C10.5570821,8.90783194 10.8344282,8.90783194 10.9962135,9.06961719 L10.9962135,9.06961719 Z M10.5339699,6.57350194 L5.63418811,11.4732837 C5.5417394,11.5657324 5.44929068,11.5888446 5.33372979,11.5888446 C5.2181689,11.5888446 5.12572019,11.5426203 5.03327147,11.4732837 C4.87148623,11.3114985 4.87148623,11.0341523 5.03327147,10.8723671 L9.93305326,5.97258531 C10.0948385,5.81080006 10.3721846,5.81080006 10.5339699,5.97258531 C10.6957551,6.13437056 10.6957551,6.38860452 10.5339699,6.57350194 L10.5339699,6.57350194 Z" id="Shape"></path>
                </g>
            </g>
        </g>
    </g>
</svg>