<?xml version="1.0" encoding="UTF-8" standalone="no"?>
<svg width="40px" height="40px" viewBox="0 0 40 40" version="1.1" xmlns="http://www.w3.org/2000/svg" xmlns:xlink="http://www.w3.org/1999/xlink" xmlns:sketch="http://www.bohemiancoding.com/sketch/ns">
    <!-- Generator: Sketch 3.3.3 (12081) - http://www.bohemiancoding.com/sketch -->
    <title>companydone</title>
    <desc>Created with Sketch.</desc>
    <defs></defs>
    <g id="Main-Attraction" stroke="none" stroke-width="1" fill="none" fill-rule="evenodd" sketch:type="MSPage">
        <g id="TRACK-ICONS" sketch:type="MSArtboardGroup" transform="translate(-378.000000, -109.000000)">
            <g id="companydone" sketch:type="MSLayerGroup" transform="translate(378.000000, 109.000000)">
                <circle id="Oval-20-Copy-22" stroke="#E1474C" opacity="0.8" sketch:type="MSShapeGroup" cx="20" cy="20" r="20"></circle>
                <g id="Shape" transform="translate(11.000000, 13.000000)" fill="#E76C70" sketch:type="MSShapeGroup">
                    <path d="M11.1391374,1.19918015 L11.1391374,0.953871992 C11.1480452,0.956841272 11.1580951,0.958896927 11.1670029,0.961866206 C11.3325974,1.01714048 11.5150938,0.931031382 11.573109,0.764751737 C11.6308957,0.598015279 11.542731,0.415975613 11.3762229,0.358417274 C9.98180365,-0.125346859 8.07141498,-0.118723082 6.69092847,0.374177295 C6.52487723,0.433106071 6.43831132,0.616059362 6.4974685,0.781882195 C6.54429175,0.912302081 6.66694583,0.993843061 6.79805093,0.993843061 C6.82797213,0.993843061 6.85835015,0.986990878 6.88849975,0.97808304 L6.88849975,1.19918015 L0,1.19918015 L0,12.1955637 C0,12.9911022 0.647302905,13.6386335 1.44284137,13.6386335 L16.5571586,13.6386335 C17.3526971,13.6386335 18,12.9911022 18,12.1955637 L18,1.19918015 L11.1391374,1.19918015 L11.1391374,1.19918015 Z M7.31379192,0.8531449 C8.36126232,0.577687136 9.65107161,0.568550891 10.7133884,0.830532695 L10.7133884,1.19940856 L7.31379192,1.19940856 L7.31379192,0.8531449 L7.31379192,0.8531449 Z M17.574251,12.1957921 C17.574251,12.5491364 17.3928966,12.8604539 17.1188092,13.042722 L17.1188092,12.9981828 L16.7784841,12.9981828 L16.7784841,13.1870746 C16.706993,13.2030631 16.6334463,13.2128845 16.5571586,13.2128845 L1.44284137,13.2128845 C1.40058624,13.2128845 1.36038677,13.2053471 1.31950207,13.2003222 L1.31950207,12.9979544 L0.979176977,12.9979544 L0.979176977,13.0957122 C0.652099433,12.9264633 0.425520576,12.5886506 0.425520576,12.1953353 L0.425520576,9.3745199 L0.979176977,9.3745199 L0.979176977,9.5873944 L1.31950207,9.5873944 L1.31950207,9.3745199 L7.40309871,9.3745199 C7.47344779,9.92543543 7.8105752,10.3319983 8.23038563,10.3319983 L10.0532948,10.3319983 C10.4728768,10.3319983 10.8100042,9.92543543 10.8803533,9.3745199 L16.7784841,9.3745199 L16.7784841,9.5873944 L17.1188092,9.5873944 L17.1188092,9.3745199 L17.574251,9.3745199 L17.574251,12.1957921 L17.574251,12.1957921 Z M7.81377289,9.16210223 C7.81377289,8.7235625 8.03349956,8.41772673 8.23038563,8.41772673 L10.0532948,8.41772673 C10.2501808,8.41772673 10.4696791,8.7235625 10.4696791,9.16210223 C10.4696791,9.60109876 10.2501808,9.90693454 10.0532948,9.90693454 L8.23038563,9.90693454 C8.03349956,9.90693454 7.81377289,9.60109876 7.81377289,9.16210223 L7.81377289,9.16210223 Z M17.574251,8.94945614 L10.8803533,8.94945614 C10.8604819,8.79368318 10.8195972,8.65001574 10.7611253,8.52347875 L10.9449922,8.52347875 L10.9449922,8.18269684 L10.5194716,8.18269684 L10.5194716,8.18361047 C10.3867677,8.06301204 10.2273402,7.99243456 10.0535232,7.99243456 L8.23061403,7.99243456 C8.0572538,7.99243456 7.89828315,8.06278364 7.76580761,8.18269684 L7.45951502,8.18269684 L7.45951502,8.52347875 L7.52278351,8.52347875 C7.46431155,8.65001574 7.42319845,8.79368318 7.40355552,8.94945614 L0.425748982,8.94945614 L0.425748982,1.62470073 L0.979405383,1.62470073 L0.979405383,1.83757522 L1.31973048,1.83757522 L1.31973048,1.62470073 L16.7784841,1.62470073 L16.7784841,1.83757522 L17.1188092,1.83757522 L17.1188092,1.62470073 L17.574251,1.62470073 L17.574251,8.94945614 L17.574251,8.94945614 Z M2.41585138,8.52347875 L3.25638585,8.52347875 L3.25638585,8.18269684 L2.41585138,8.18269684 L2.41585138,8.52347875 L2.41585138,8.52347875 Z M1.31973048,2.70780248 L0.979405383,2.70780248 L0.979405383,3.57757293 L1.31973048,3.57757293 L1.31973048,2.70780248 L1.31973048,2.70780248 Z M1.31973048,6.18779791 L0.979405383,6.18779791 L0.979405383,7.05756836 L1.31973048,7.05756836 L1.31973048,6.18779791 L1.31973048,6.18779791 Z M1.31973048,4.44757179 L0.979405383,4.44757179 L0.979405383,5.31734224 L1.31973048,5.31734224 L1.31973048,4.44757179 L1.31973048,4.44757179 Z M4.09692032,8.52347875 L4.9376832,8.52347875 L4.9376832,8.18269684 L4.09692032,8.18269684 L4.09692032,8.52347875 L4.09692032,8.52347875 Z M1.31973048,7.92733882 L0.979405383,7.92733882 L0.979405383,8.52325035 L1.57508851,8.52325035 L1.57508851,8.18246844 L1.31973048,8.18246844 L1.31973048,7.92733882 L1.31973048,7.92733882 Z M5.77821767,8.52347875 L6.61875214,8.52347875 L6.61875214,8.18269684 L5.77821767,8.18269684 L5.77821767,8.52347875 L5.77821767,8.52347875 Z M14.9293083,8.52347875 L15.7262172,8.52347875 L15.7262172,8.18269684 L14.9293083,8.18269684 L14.9293083,8.52347875 L14.9293083,8.52347875 Z M16.7784841,8.18269684 L16.5231261,8.18269684 L16.5231261,8.52347875 L17.1188092,8.52347875 L17.1188092,7.92756722 L16.7784841,7.92756722 L16.7784841,8.18269684 L16.7784841,8.18269684 Z M16.7784841,7.05756836 L17.1188092,7.05756836 L17.1188092,6.18779791 L16.7784841,6.18779791 L16.7784841,7.05756836 L16.7784841,7.05756836 Z M16.7784841,3.57780134 L17.1188092,3.57780134 L17.1188092,2.70803089 L16.7784841,2.70803089 L16.7784841,3.57780134 L16.7784841,3.57780134 Z M16.7784841,5.31779905 L17.1188092,5.31779905 L17.1188092,4.4480286 L16.7784841,4.4480286 L16.7784841,5.31779905 L16.7784841,5.31779905 Z M11.7416727,8.52347875 L12.5385816,8.52347875 L12.5385816,8.18269684 L11.7416727,8.18269684 L11.7416727,8.52347875 L11.7416727,8.52347875 Z M13.3354905,8.52347875 L14.132171,8.52347875 L14.132171,8.18269684 L13.3354905,8.18269684 L13.3354905,8.52347875 L13.3354905,8.52347875 Z M0.979176977,10.9521209 L1.31950207,10.9521209 L1.31950207,10.2696434 L0.979176977,10.2696434 L0.979176977,10.9521209 L0.979176977,10.9521209 Z M0.979176977,12.3161621 L1.31950207,12.3161621 L1.31950207,11.6341415 L0.979176977,11.6341415 L0.979176977,12.3161621 L0.979176977,12.3161621 Z M16.7784841,10.9521209 L17.1188092,10.9521209 L17.1188092,10.2701002 L16.7784841,10.2701002 L16.7784841,10.9521209 L16.7784841,10.9521209 Z M16.7784841,12.316619 L17.1188092,12.316619 L17.1188092,11.6341415 L16.7784841,11.6341415 L16.7784841,12.316619 L16.7784841,12.316619 Z"></path>
                </g>
            </g>
        </g>
    </g>
</svg>