<?xml version="1.0" encoding="UTF-8" standalone="no"?>
<svg width="40px" height="40px" viewBox="0 0 40 40" version="1.1" xmlns="http://www.w3.org/2000/svg" xmlns:xlink="http://www.w3.org/1999/xlink" xmlns:sketch="http://www.bohemiancoding.com/sketch/ns">
    <!-- Generator: Sketch 3.3.3 (12081) - http://www.bohemiancoding.com/sketch -->
    <title>exit</title>
    <desc>Created with Sketch.</desc>
    <defs></defs>
    <g id="Main-Attraction" stroke="none" stroke-width="1" fill="none" fill-rule="evenodd" sketch:type="MSPage">
        <g id="TRACK-ICONS" sketch:type="MSArtboardGroup" transform="translate(-428.000000, -429.000000)">
            <g id="exit" sketch:type="MSLayerGroup" transform="translate(428.000000, 429.000000)">
                <circle id="Oval-20-Copy-61" opacity="0.8" fill="#A53A6A" sketch:type="MSShapeGroup" cx="20" cy="20" r="20"></circle>
                <g id="Shape-+-Shape-Copy" transform="translate(12.000000, 13.152174)" fill="#FFFFFF" sketch:type="MSShapeGroup">
                    <path d="M8.54243049,14.0414637 C9.46243049,14.0414637 10.2624305,13.7683961 10.8424305,13.202756 L12.7024305,11.3888067 C13.2224305,10.8816811 13.5024305,10.199012 13.5624305,9.37980913 C13.5824305,9.16525599 13.4024305,8.98971252 13.1824305,8.97020769 C12.9624305,8.97020769 12.7824305,9.12624633 12.7624305,9.34079947 C12.7224305,9.96495406 12.5224305,10.4720797 12.1424305,10.8426715 C11.5224305,11.4473212 10.4824305,11.6033599 9.20243049,11.2912826 C7.88243049,10.9206908 6.46243049,10.0624782 5.26243049,8.89218836 C2.86243049,6.55160865 1.96243049,3.46984537 3.28243049,2.18252653 C4.24243049,1.24629464 6.24243049,1.42183812 8.26243049,2.63113764 C8.44243049,2.74816662 8.70243049,2.68965213 8.82243049,2.49460382 C8.94243049,2.31906034 8.88243049,2.06549754 8.68243049,1.94846856 C6.32243049,0.524615898 3.98243049,0.388082082 2.72243049,1.61688643 L0.862430488,3.4308357 L0.862430488,3.4308357 C0.0224304878,4.2500386 -0.217569512,5.53735744 0.202430488,7.03922942 C0.602430488,8.48258691 1.52243049,9.96495406 2.84243049,11.2522729 C4.66243049,13.0467173 6.80243049,14.0414637 8.54243049,14.0414637 L8.54243049,14.0414637 Z M1.42243049,8.05348063 L2.70243049,6.80517145 C2.86243049,7.09774392 3.02243049,7.37081155 3.20243049,7.64387918 L1.90243049,8.91169319 C1.72243049,8.63862556 1.56243049,8.3460531 1.42243049,8.05348063 L1.42243049,8.05348063 Z M0.962430488,6.86368595 C0.922430488,6.7076473 0.882430488,6.57111348 0.862430488,6.41507484 L2.06243049,5.24478498 C2.14243049,5.51785261 2.22243049,5.79092025 2.34243049,6.06398788 L1.10243049,7.2732874 C1.04243049,7.13675358 1.00243049,7.00021976 0.962430488,6.86368595 L0.962430488,6.86368595 Z M3.68243049,8.30704343 C3.90243049,8.5996159 4.16243049,8.89218836 4.42243049,9.16525599 L3.12243049,10.43307 C2.86243049,10.1600024 2.60243049,9.86742991 2.38243049,9.57485744 L3.68243049,8.30704343 L3.68243049,8.30704343 Z M5.84243049,10.43307 L4.54243049,11.6813792 C4.24243049,11.466826 3.96243049,11.2327681 3.68243049,10.9792053 L4.98243049,9.71139126 C5.26243049,9.96495406 5.54243049,10.199012 5.84243049,10.43307 L5.84243049,10.43307 Z M7.36243049,11.3693019 L6.10243049,12.5981062 C5.80243049,12.4615724 5.52243049,12.3055338 5.22243049,12.1299903 L6.50243049,10.8816811 C6.78243049,11.0572246 7.06243049,11.2327681 7.36243049,11.3693019 L7.36243049,11.3693019 Z M8.98243049,11.9934565 L7.78243049,13.1637463 C7.50243049,13.1052318 7.20243049,13.0272125 6.90243049,12.9296884 L8.14243049,11.7203888 C8.42243049,11.8374178 8.70243049,11.934942 8.98243049,11.9934565 L8.98243049,11.9934565 Z M10.4224305,12.2080096 C10.5224305,12.2080096 10.6224305,12.2080096 10.7224305,12.1885048 L10.2624305,12.6371159 C9.90243049,12.9882029 9.40243049,13.1832512 8.84243049,13.2222608 L9.92243049,12.169 C10.1024305,12.1885048 10.2624305,12.2080096 10.4224305,12.2080096 L10.4224305,12.2080096 Z M1.88243049,4.3085531 L0.802430488,5.36181397 C0.862430488,4.79617387 1.06243049,4.34756276 1.40243049,3.9964758 L1.40243049,3.9964758 L1.86243049,3.54786469 C1.86243049,3.80142749 1.86243049,4.05499029 1.88243049,4.3085531 L1.88243049,4.3085531 Z" id="Shape"></path>
                    <path d="M12.94,0.117028986 C12.78,-0.0390096618 12.54,-0.0390096618 12.38,0.117028986 C12.3,0.195048309 12.26,0.312077295 12.26,0.42910628 L12.26,0.468115942 L12.26,2.36008454 C10.2,2.57463768 6.8,4.34957729 6.8,8.13351449 L6.8,8.13351449 L6.8,8.17252415 L6.8,8.21153382 C6.8,8.23103865 6.8,8.23103865 6.82,8.25054348 C6.82,8.27004831 6.82,8.27004831 6.84,8.28955314 C6.84,8.30905797 6.86,8.30905797 6.86,8.3285628 C6.86,8.34806763 6.88,8.34806763 6.88,8.36757246 L6.9,8.38707729 C6.9,8.40658213 6.92,8.40658213 6.94,8.42608696 L6.94,8.42608696 L6.96,8.44559179 C6.98,8.44559179 6.98,8.46509662 7,8.46509662 C7.02,8.46509662 7.02,8.48460145 7.04,8.48460145 C7.06,8.48460145 7.06,8.50410628 7.08,8.50410628 C7.1,8.50410628 7.1,8.50410628 7.12,8.52361111 L7.14,8.52361111 L7.22,8.52361111 L7.3,8.52361111 C7.32,8.52361111 7.36,8.50410628 7.38,8.50410628 L7.38,8.50410628 C7.4,8.50410628 7.42,8.48460145 7.44,8.46509662 L7.46,8.44559179 C7.48,8.42608696 7.48,8.42608696 7.5,8.40658213 L7.5,8.40658213 C9.72,6.10501208 11.14,5.89045894 12.26,5.87095411 L12.26,7.74341787 L12.26,7.74341787 L12.26,7.8214372 C12.26,7.84094203 12.26,7.84094203 12.28,7.86044686 C12.28,7.87995169 12.28,7.87995169 12.3,7.89945652 C12.3,7.91896135 12.32,7.91896135 12.32,7.93846618 C12.32,7.93846618 12.32,7.95797101 12.34,7.95797101 C12.36,7.97747585 12.38,7.99698068 12.4,8.01648551 L12.4,8.01648551 L12.4,8.01648551 C12.42,8.03599034 12.44,8.05549517 12.46,8.05549517 L12.48,8.075 C12.5,8.075 12.5,8.09450483 12.52,8.09450483 C12.54,8.09450483 12.54,8.09450483 12.56,8.11400966 C12.58,8.11400966 12.58,8.11400966 12.6,8.13351449 L12.68,8.13351449 L12.76,8.13351449 C12.78,8.13351449 12.78,8.13351449 12.8,8.11400966 C12.82,8.11400966 12.82,8.11400966 12.84,8.09450483 C12.86,8.09450483 12.86,8.075 12.88,8.075 C12.9,8.075 12.9,8.075 12.92,8.05549517 C12.94,8.03599034 12.96,8.01648551 12.98,7.99698068 L12.98,7.99698068 L16.72,4.33007246 C16.88,4.17403382 16.88,3.93997585 16.72,3.7839372 L12.94,0.117028986 L12.94,0.117028986 Z M13.06,6.78768116 L13.06,5.48085749 C13.06,5.26630435 12.88,5.09076087 12.66,5.09076087 L12.6,5.09076087 L12.52,5.09076087 C11.4,5.09076087 9.9,5.12977053 7.72,7.09975845 C8.3,4.44710145 11.04,3.12077295 12.66,3.12077295 C12.88,3.12077295 13.06,2.94522947 13.06,2.73067633 L13.06,1.34583333 L15.84,4.07650966 L13.06,6.78768116 L13.06,6.78768116 Z" id="Shape"></path>
                </g>
            </g>
        </g>
    </g>
</svg>