<?xml version="1.0" encoding="UTF-8" standalone="no"?>
<svg width="40px" height="40px" viewBox="0 0 40 40" version="1.1" xmlns="http://www.w3.org/2000/svg" xmlns:xlink="http://www.w3.org/1999/xlink" xmlns:sketch="http://www.bohemiancoding.com/sketch/ns">
    <!-- Generator: Sketch 3.3.3 (12081) - http://www.bohemiancoding.com/sketch -->
    <title>fail-spectacularlydone</title>
    <desc>Created with Sketch.</desc>
    <defs></defs>
    <g id="Main-Attraction" stroke="none" stroke-width="1" fill="none" fill-rule="evenodd" sketch:type="MSPage">
        <g id="TRACK-ICONS" sketch:type="MSArtboardGroup" transform="translate(-78.000000, -59.000000)">
            <g id="fail-spectacularlydone" sketch:type="MSLayerGroup" transform="translate(78.000000, 59.000000)">
                <g id="Group" transform="translate(11.000000, 10.000000)" fill="#246DB4" sketch:type="MSShapeGroup">
                    <path d="M11.501,16.058 L11.501,10.909 C11.501,10.692 11.647,10.502 11.857,10.439 C12.066,10.377 12.295,10.459 12.418,10.637 C12.883,11.327 13.662,11.738 14.501,11.738 C15.88,11.738 17.001,10.638 17.001,9.285 C17.001,8.479 16.596,7.723 15.913,7.263 C15.719,7.131 15.642,6.885 15.732,6.671 C15.911,6.25 16.001,5.809 16.001,5.359 C16.001,3.466 14.432,1.926 12.501,1.926 C12.189,1.926 11.869,1.979 11.488,2.091 C11.314,2.145 11.119,2.096 10.988,1.966 C9.724,0.714 7.545,0.627 6.173,1.833 C6.07,1.925 5.937,1.965 5.796,1.958 L5.644,1.938 C5.597,1.933 5.55,1.925 5.5,1.925 C3.57,1.925 2,3.465 2,5.358 C2,5.807 2.09,6.249 2.267,6.669 C2.357,6.884 2.283,7.13 2.088,7.261 C1.406,7.72 1,8.475 1,9.283 C1,10.636 2.122,11.735 3.5,11.735 C4.339,11.735 5.118,11.324 5.583,10.634 C5.706,10.452 5.935,10.37 6.144,10.436 C6.355,10.498 6.5,10.689 6.5,10.906 L6.5,16.058 C6.5,17.68 5.154,19 3.5,19 C3.224,19 3,18.778 3,18.51 C3,18.239 3.224,18.02 3.5,18.02 C4.603,18.02 5.5,17.14 5.5,16.058 L5.5,12.103 C4.922,12.5 4.227,12.72 3.5,12.72 C1.57,12.72 -1.77635684e-15,11.179 -1.77635684e-15,9.286 C-1.77635684e-15,8.285 0.446,7.342 1.21,6.692 C1.07,6.261 1,5.814 1,5.363 C1,2.93 3.019,0.949 5.5,0.949 C5.562,0.949 5.622,0.954 5.681,0.961 C7.363,-0.378 9.9,-0.298 11.482,1.08 C11.84,0.992 12.175,0.949 12.5,0.949 C14.98,0.949 17,2.93 17,5.363 C17,5.816 16.932,6.261 16.79,6.692 C17.555,7.341 18,8.286 18,9.286 C18,11.18 16.432,12.72 14.5,12.72 C13.773,12.72 13.078,12.499 12.5,12.103 L12.5,16.058 C12.5,17.14 13.396,18.02 14.5,18.02 C14.775,18.02 15,18.24 15,18.51 C15,18.778 14.775,19 14.501,19 C12.848,19 11.501,17.68 11.501,16.058 Z" id="Shape"></path>
                    <path d="M9.501,15.076 L9.501,12.229 C9.501,11.959 9.725,11.739 10.001,11.739 C10.277,11.739 10.501,11.96 10.501,12.229 L10.501,15.076 C10.501,15.347 10.277,15.567 10.001,15.567 C9.725,15.567 9.501,15.345 9.501,15.076 Z" id="Shape"></path>
                    <path d="M3.501,5.853 C3.225,5.853 3.001,5.632 3.001,5.363 C3.001,4.01 4.123,2.911 5.501,2.911 C5.777,2.911 6.001,3.132 6.001,3.401 C6.001,3.671 5.777,3.892 5.501,3.892 C4.674,3.892 4.001,4.552 4.001,5.363 C4.001,5.632 3.777,5.853 3.501,5.853 L3.501,5.853 Z" id="Shape"></path>
                    <path d="M14.501,10.758 C14.227,10.758 14.001,10.537 14.001,10.267 C14.001,9.997 14.227,9.777 14.501,9.777 C14.775,9.777 15.001,9.556 15.001,9.286 C15.001,9.016 15.227,8.796 15.501,8.796 C15.775,8.796 16.001,9.017 16.001,9.286 C16.001,10.098 15.328,10.758 14.501,10.758 L14.501,10.758 Z" id="Shape"></path>
                </g>
                <circle id="Oval-20-Copy-3" stroke="#246DB4" opacity="0.8" sketch:type="MSShapeGroup" cx="20" cy="20" r="20"></circle>
            </g>
        </g>
    </g>
</svg>