<?xml version="1.0" encoding="UTF-8" standalone="no"?>
<svg width="40px" height="40px" viewBox="0 0 40 40" version="1.1" xmlns="http://www.w3.org/2000/svg" xmlns:xlink="http://www.w3.org/1999/xlink" xmlns:sketch="http://www.bohemiancoding.com/sketch/ns">
    <!-- Generator: Sketch 3.3.3 (12081) - http://www.bohemiancoding.com/sketch -->
    <title>feedback-&amp;-testingdone</title>
    <desc>Created with Sketch.</desc>
    <defs></defs>
    <g id="Main-Attraction" stroke="none" stroke-width="1" fill="none" fill-rule="evenodd" sketch:type="MSPage">
        <g id="TRACK-ICONS" sketch:type="MSArtboardGroup" transform="translate(-178.000000, -209.000000)">
            <g id="feedback-&amp;-testingdone" sketch:type="MSLayerGroup" transform="translate(178.000000, 209.000000)">
                <circle id="Oval-20-Copy-59" stroke="#24B494" opacity="0.8" sketch:type="MSShapeGroup" cx="20" cy="20" r="20"></circle>
                <g id="Shape-+-Shape" transform="translate(19.853448, 19.960732) rotate(-330.000000) translate(-19.853448, -19.960732) translate(11.853448, 11.960732)" fill="#50C3AA" sketch:type="MSShapeGroup">
                    <path d="M6.43145742,0.188405127 C2.71062983,0.774887886 0.0057102939,3.94031317 9.14447214e-06,7.71502582 C-0.00440464863,10.6148879 1.58934248,13.2684971 4.03053788,14.5411408 L0.729756271,14.5411408 C0.526721788,14.5411408 0.361940179,14.7059224 0.361940179,14.9089569 C0.361940179,15.1119913 0.526721788,15.2767729 0.729756271,15.2767729 L4.95964133,15.2767729 C5.16267581,15.2767729 5.32745742,15.1119913 5.32745742,14.9089569 L5.32745742,10.3112557 C5.32745742,10.1082212 5.16267581,9.94343961 4.95964133,9.94343961 C4.75660685,9.94343961 4.59182524,10.1082212 4.59182524,10.3112557 L4.59182524,13.996589 C2.266308,12.8984741 0.731595351,10.428589 0.735641328,7.71612926 C0.740790754,4.30518674 3.18456087,1.4448649 6.54603213,0.915025817 C6.74667581,0.883393633 6.88368731,0.695071794 6.85205512,0.494428116 C6.82042294,0.293784437 6.63191719,0.156956851 6.43145742,0.188405127 L6.43145742,0.188405127 Z" id="Shape"></path>
                    <path d="M11.861644,0.735632184 L15.3163566,0.735632184 C15.5193911,0.735632184 15.6841727,0.570850575 15.6841727,0.367816092 C15.6841727,0.164781609 15.5193911,0 15.3163566,0 L10.7186555,0 C10.515621,0 10.3508394,0.164781609 10.3508394,0.367816092 L10.3508394,4.59770115 C10.3508394,4.80073563 10.515621,4.96551724 10.7186555,4.96551724 C10.92169,4.96551724 11.0864716,4.80073563 11.0864716,4.59770115 L11.0864716,1.184 C13.517552,2.23485057 15.1366785,4.76303448 15.1324486,7.54832184 C15.1272992,10.9590805 12.683713,13.8194023 9.32205779,14.3492414 C9.12141411,14.3808736 8.98440261,14.5691954 9.0160348,14.7698391 C9.04454055,14.9511724 9.20104629,15.0804598 9.37888537,15.0804598 C9.39801181,15.0804598 9.41713825,15.0789885 9.4366325,15.076046 C13.1574601,14.4893793 15.8623796,11.323954 15.8680808,7.54942529 C15.8724946,4.65894253 14.2894141,2.01305747 11.861644,0.735632184 L11.861644,0.735632184 Z" id="Shape"></path>
                </g>
            </g>
        </g>
    </g>
</svg>