<?xml version="1.0" encoding="UTF-8" standalone="no"?>
<svg width="40px" height="40px" viewBox="0 0 40 40" version="1.1" xmlns="http://www.w3.org/2000/svg" xmlns:xlink="http://www.w3.org/1999/xlink" xmlns:sketch="http://www.bohemiancoding.com/sketch/ns">
    <!-- Generator: Sketch 3.3.3 (12081) - http://www.bohemiancoding.com/sketch -->
    <title>finance</title>
    <desc>Created with Sketch.</desc>
    <defs></defs>
    <g id="Main-Attraction" stroke="none" stroke-width="1" fill="none" fill-rule="evenodd" sketch:type="MSPage">
        <g id="TRACK-ICONS" sketch:type="MSArtboardGroup" transform="translate(-428.000000, -379.000000)">
            <g id="finance" sketch:type="MSLayerGroup" transform="translate(428.000000, 379.000000)">
                <circle id="Oval-20-Copy-53" opacity="0.8" fill="#A53A6A" sketch:type="MSShapeGroup" cx="20" cy="20" r="20"></circle>
                <g id="Group-Copy-11" transform="translate(12.000000, 11.000000)" fill="#FFFFFF" sketch:type="MSShapeGroup">
                    <path d="M7.83286585,5.21653846 C9.253,5.21653846 10.408061,4.06615385 10.408061,2.65130769 C10.408061,1.23692308 9.253,0.0865384615 7.83286585,0.0865384615 C6.4125,0.0865384615 5.25743902,1.23692308 5.25743902,2.65130769 C5.25743902,4.06615385 6.4125,5.21653846 7.83286585,5.21653846 L7.83286585,5.21653846 Z M7.83286585,0.6 C8.96892683,0.6 9.89320732,1.52053846 9.89320732,2.65153846 C9.89320732,3.78323077 8.96915854,4.704 7.83286585,4.704 C6.69657317,4.704 5.77252439,3.78346154 5.77252439,2.65153846 C5.77252439,1.52053846 6.69634146,0.6 7.83286585,0.6 L7.83286585,0.6 Z" id="Shape"></path>
                    <path d="M7.77679268,2.97946154 C8.04047561,3.06138462 8.03978049,3.081 8.03769512,3.165 C8.03653659,3.21830769 8.01985366,3.23284615 7.99830488,3.24669231 C7.90260976,3.30623077 7.68480488,3.30092308 7.54045122,3.23607692 C7.39957317,3.17215385 7.23459756,3.23423077 7.17087805,3.37430769 C7.10715854,3.51392308 7.16902439,3.67892308 7.30967073,3.74215385 C7.39007317,3.77907692 7.48553659,3.80376923 7.58517073,3.82107692 L7.58517073,3.95007692 C7.58517073,4.10330769 7.71029268,4.22815385 7.86437805,4.22815385 C8.01846341,4.22815385 8.14358537,4.10330769 8.14358537,3.95007692 L8.14358537,3.77976923 C8.1954878,3.76176923 8.2492439,3.74653846 8.29489024,3.71769231 C8.4835,3.59976923 8.59031707,3.40846154 8.59587805,3.17815385 C8.60792683,2.655 8.17509756,2.52069231 7.94246341,2.44915385 C7.82429268,2.41246154 7.70171951,2.37461538 7.66626829,2.319 C7.62757317,2.25738462 7.63684146,2.21676923 7.64935366,2.18769231 C7.68063415,2.11546154 7.76752439,2.05338462 7.86576829,2.034 C7.93504878,2.01946154 8.00085366,2.01876923 8.05229268,2.15423077 C8.10697561,2.29753846 8.2680122,2.36930769 8.41236585,2.316 C8.5564878,2.26130769 8.6292439,2.10092308 8.57456098,1.95715385 C8.48396341,1.719 8.31643902,1.56161538 8.10906098,1.50115385 L8.10906098,1.24938462 C8.10906098,1.09615385 7.98393902,0.971307692 7.82985366,0.971307692 C7.67576829,0.971307692 7.55064634,1.09615385 7.55064634,1.24938462 L7.55064634,1.55630769 C7.36412195,1.64307692 7.21281707,1.78961538 7.13612195,1.96823077 C7.04436585,2.18192308 7.0649878,2.41176923 7.1945122,2.616 C7.34002439,2.84492308 7.58239024,2.91946154 7.77679268,2.97946154 L7.77679268,2.97946154 Z" id="Shape"></path>
                    <path d="M18.9599146,9.55938462 C18.9860976,9.40823077 18.8846098,9.26423077 18.7328415,9.23769231 C18.5826951,9.21276923 18.4367195,9.31246154 18.4098415,9.46384615 C18.3843537,9.61130769 18.3866707,9.74330769 18.3889878,9.84946154 C18.3915366,9.97615385 18.3896829,10.035 18.3720732,10.0733077 C18.3014024,10.056 18.1966707,10.0213846 18.1202073,9.99576923 C17.7958171,9.88869231 17.516378,9.79615385 17.3259146,9.96761538 C17.2320732,10.0525385 17.2089024,10.1667692 17.1711341,10.3564615 C17.1407805,10.5062308 17.0606098,10.9045385 16.9533293,10.9479231 C16.8991098,10.9553077 16.6998415,10.8484615 16.587,10.7866154 C16.3761463,10.6707692 16.1560244,10.5477692 15.9412317,10.5618462 C15.8601341,10.5664615 15.7848293,10.6054615 15.7352439,10.6691538 C15.7076707,10.7046923 15.6933049,10.746 15.6851951,10.7893846 C14.9789512,8.40023077 11.9567927,6.59976923 8.34609756,6.59976923 C6.95353659,6.59976923 5.59712195,6.87 4.41286585,7.38276923 C4.02591463,7.12061538 3.65657317,6.79546154 3.29835366,6.48 L3.18273171,6.37869231 C3.10163415,6.30692308 2.98415854,6.29446154 2.88985366,6.34592308 C2.79485366,6.39738462 2.74271951,6.50307692 2.75940244,6.60946154 C2.79832927,6.861 2.80365854,7.14830769 2.80852439,7.42638462 C2.81362195,7.71138462 2.81871951,8.004 2.85996341,8.27584615 C2.21836585,8.76 1.70745122,9.32838462 1.36660976,9.93623077 C1.23476829,9.89492308 1.09945122,9.87369231 0.96204878,9.87369231 C0.698365854,9.87369231 0.487512195,9.95123077 0.335280488,10.1033077 C0.0322073171,10.4060769 0.0340609756,10.9167692 0.0361463415,11.5091538 L0.0363780488,11.6582308 L0.0361463415,11.8077692 C0.0340609756,12.3994615 0.0322073171,12.9103846 0.335280488,13.2133846 C0.52945122,13.4079231 0.83252439,13.4884615 1.18518293,13.4213077 C1.53784146,14.2017692 2.17364634,14.8356923 3.05413415,15.3147692 C3.05459756,15.4797692 3.05714634,15.6456923 3.05992683,15.8120769 C3.06780488,16.2521538 3.07545122,16.7076923 3.0369878,17.1413077 C3.02609756,17.2643077 3.09862195,17.3801538 3.21470732,17.4249231 C4.06669512,17.7519231 4.79309756,17.9132308 5.41917073,17.9132308 C5.58206098,17.9132308 5.738,17.9023846 5.88791463,17.8802308 C5.95557317,17.8707692 6.01743902,17.8361538 6.06146341,17.784 C6.31309756,17.4849231 6.35434146,17.0916923 6.3902561,16.7443846 C6.40670732,16.587 6.42246341,16.4383846 6.45513415,16.3179231 C6.45884146,16.3040769 6.45629268,16.2906923 6.45791463,16.2770769 C7.04691463,16.3423846 7.67553659,16.3767692 8.34540244,16.3767692 C9.12579268,16.3767692 9.85821951,16.3186154 10.5415244,16.2136154 C10.5593659,16.3107692 10.5730366,16.4148462 10.5848537,16.5286154 C10.621,16.8752308 10.6622439,17.2686923 10.913878,17.5677692 C10.9576707,17.6203846 11.0195366,17.6543077 11.0874268,17.6644615 C11.2371098,17.6861538 11.3930488,17.697 11.555939,17.697 C12.1822439,17.697 12.9086463,17.5356923 13.7606341,17.2084615 C13.8767195,17.1639231 13.9490122,17.0485385 13.9383537,16.9248462 C13.8998902,16.4919231 13.9075366,16.0363846 13.9154146,15.5953846 C13.9188902,15.4098462 13.9219024,15.2245385 13.9219024,15.0401538 C13.9219024,15.0380769 13.9205122,15.036 13.9202805,15.0339231 C15.1402195,14.2479231 15.8413659,13.1573077 15.8413659,11.859 C15.8413659,11.8483846 15.8392805,11.8382308 15.8392805,11.8276154 C15.9090244,11.7752308 15.954439,11.6942308 15.9530488,11.604 C15.9676463,11.556 16.0218659,11.4456923 16.0584756,11.3711538 C16.0923049,11.3023846 16.1224268,11.2405385 16.1479146,11.1835385 C16.2076951,11.2133077 16.2697927,11.247 16.3172927,11.2733077 C16.5756463,11.4147692 16.8689878,11.5756154 17.1414756,11.469 C17.5474268,11.3123077 17.6540122,10.782 17.7177317,10.4658462 C17.7184268,10.4612308 17.7193537,10.4575385 17.7200488,10.4533846 C17.7935,10.4736923 17.880622,10.5027692 17.9434146,10.5235385 C18.2499634,10.6253077 18.4916341,10.7053846 18.6721341,10.5627692 C18.9569024,10.3375385 18.950878,10.0606154 18.9467073,9.83792308 C18.9450854,9.74353846 18.9432317,9.65353846 18.9599146,9.55938462 L18.9599146,9.55938462 Z M5.8360122,16.6876154 C5.8109878,16.9266923 5.78526829,17.1731538 5.69026829,17.3450769 C5.1332439,17.3990769 4.43302439,17.2756154 3.60930488,16.9786154 C3.63247561,16.5846923 3.62529268,16.188 3.61880488,15.8023846 C3.61764634,15.7303846 3.61741463,15.6597692 3.6162561,15.5877692 C4.27407317,15.8667692 5.04264634,16.0733077 5.91085366,16.2055385 C5.87169512,16.3603846 5.85269512,16.5258462 5.8360122,16.6876154 L5.8360122,16.6876154 Z M13.3669634,16.7619231 C12.5434756,17.0589231 11.844878,17.1826154 11.286,17.1288462 C11.191,16.9569231 11.1652805,16.7104615 11.1402561,16.4713846 C11.1277439,16.3520769 11.1117561,16.2325385 11.090439,16.1148462 C11.9472927,15.9410769 12.7105366,15.6863077 13.3604756,15.3563077 C13.3593171,15.4329231 13.3590854,15.5093077 13.3576951,15.5863846 C13.3509756,15.972 13.3440244,16.3686923 13.3669634,16.7619231 L13.3669634,16.7619231 Z M8.34609756,15.8663077 C6.21485366,15.8663077 2.5015122,15.4973077 1.577,13.0257692 C1.53876829,12.9230769 1.4407561,12.8593846 1.3364878,12.8593846 C1.3077561,12.8593846 1.27856098,12.8642308 1.25006098,12.8743846 C1.14046341,12.9131538 1.04893902,12.9313846 0.962280488,12.9313846 C0.778304878,12.9313846 0.71852439,12.8718462 0.698829268,12.8524615 C0.546365854,12.6999231 0.547756098,12.2674615 0.549378049,11.8091538 L0.549609756,11.6577692 L0.549378049,11.5070769 C0.547756098,11.049 0.546134146,10.6160769 0.698829268,10.4637692 C0.71852439,10.4446154 0.778073171,10.3846154 0.962280488,10.3846154 C1.09968293,10.3846154 1.23592683,10.4194615 1.36707317,10.4873077 C1.42870732,10.5198462 1.50030488,10.5258462 1.56634146,10.5036923 C1.63214634,10.482 1.68659756,10.4346923 1.7164878,10.3728462 C2.03531707,9.71861538 2.57982927,9.10338462 3.29093902,8.59361538 C3.37412195,8.53430769 3.4137439,8.43161538 3.39196341,8.33169231 C3.33357317,8.06515385 3.3280122,7.75015385 3.3217561,7.41715385 C3.32036585,7.33661538 3.3187439,7.25653846 3.31665854,7.17530769 C3.61370732,7.43030769 3.92164634,7.67861538 4.25043902,7.88769231 C4.32365854,7.93430769 4.41564634,7.94053846 4.49489024,7.905 C5.64323171,7.38530769 6.97485366,7.11046154 8.34609756,7.11046154 C12.196378,7.11046154 15.3288293,9.24069231 15.3288293,11.859 C15.3285976,14.6270769 11.8217073,15.8663077 8.34609756,15.8663077 L8.34609756,15.8663077 Z" id="Shape"></path>
                    <path d="M10.4523171,7.88492308 C10.2625488,7.85123077 10.0776463,7.80461538 9.89204878,7.75823077 C9.52965854,7.66776923 9.15452439,7.57430769 8.73490244,7.56576923 C8.14381707,7.55492308 7.6729878,7.58884615 6.74059756,7.81453846 C6.59091463,7.85076923 6.49892683,8.00169231 6.53507317,8.15053846 C6.57168293,8.29961538 6.72159756,8.39007692 6.87243902,8.35476923 C7.75060976,8.14223077 8.17185366,8.10992308 8.72354878,8.12169231 C9.08014634,8.12861538 9.40847561,8.21076923 9.7565,8.29776923 C9.95437805,8.34715385 10.1520244,8.39630769 10.3547683,8.43207692 C10.3712195,8.43507692 10.3879024,8.43669231 10.404122,8.43669231 C10.5366585,8.43669231 10.6545976,8.34184615 10.6784634,8.20730769 C10.7053415,8.05615385 10.6043171,7.91169231 10.4523171,7.88492308 L10.4523171,7.88492308 Z" id="Shape"></path>
                    <ellipse id="Oval" cx="3.61973171" cy="10.3608462" rx="0.535012195" ry="0.509538462"></ellipse>
                </g>
            </g>
        </g>
    </g>
</svg>