<?xml version="1.0" encoding="UTF-8" standalone="no"?>
<svg width="40px" height="40px" viewBox="0 0 40 40" version="1.1" xmlns="http://www.w3.org/2000/svg" xmlns:xlink="http://www.w3.org/1999/xlink" xmlns:sketch="http://www.bohemiancoding.com/sketch/ns">
    <!-- Generator: Sketch 3.3.2 (12043) - http://www.bohemiancoding.com/sketch -->
    <title>hiring</title>
    <desc>Created with Sketch.</desc>
    <defs></defs>
    <g id="Main-Attraction" stroke="none" stroke-width="1" fill="none" fill-rule="evenodd" sketch:type="MSPage">
        <g id="hiring" sketch:type="MSArtboardGroup" fill="#000000" opacity="0.3">
            <path d="M33.445848,31.2208558 C33.3287884,31.2208558 33.2178629,31.2183323 33.1161386,31.2158088 L32.9433607,31.2122759 C32.5201058,31.2122759 32.1765946,30.873116 32.1765946,30.4552226 C32.1765946,30.0373292 32.5201058,29.6981693 32.9433607,29.6981693 C33.0041908,29.6981693 33.0767779,29.7001881 33.1565216,29.7022069 C33.3114083,29.7062445 33.7382414,29.717348 33.9524247,29.6643542 L33.9524247,24.8969373 C33.9524247,23.6488088 33.1268733,23.1254326 31.7681639,22.4122884 C30.7488763,21.8773041 29.5931043,21.270652 29.5931043,19.9791191 C29.5931043,18.8824013 30.0874128,18.3136019 30.5234471,17.8119279 C31.0259344,17.2340439 31.500307,16.6879561 31.500307,14.9901379 C31.500307,13.8823166 31.2002459,13.0606614 30.6088137,12.547884 C29.655468,11.7216865 28.1909449,11.8836959 28.1750984,11.88521 C27.7549106,11.9407273 27.3710164,11.6474953 27.3158092,11.2326301 C27.2611133,10.8177649 27.5570849,10.4382288 27.9772727,10.3842257 C28.0631505,10.3716082 30.1380194,10.1243041 31.6209449,11.4102853 C32.5584441,12.2228558 33.033839,13.4275799 33.033839,14.9901379 C33.033839,17.2486803 32.2553159,18.1440219 31.6873979,18.7976113 C31.3259955,19.2134859 31.1266364,19.4426207 31.1266364,19.9791191 C31.1266364,20.3349342 31.6408808,20.6306897 32.4879016,21.0753323 C33.7530656,21.7395204 35.4859568,22.6494984 35.4859568,24.8969373 L35.4859568,29.7834639 C35.4859568,30.1554295 35.3489613,30.4834859 35.0903055,30.7323041 C34.6460924,31.1597868 33.9841177,31.2208558 33.445848,31.2208558" id="Fill-1" sketch:type="MSShapeGroup"></path>
            <path d="M6.91778838,31.2208558 C6.37951863,31.2208558 5.71754396,31.1597868 5.27333085,30.7323041 C5.01467511,30.4834859 4.87819076,30.1554295 4.87819076,29.7834639 L4.87819076,24.8969373 C4.87819076,22.6494984 6.61057079,21.7395204 7.87522355,21.0753323 C8.72224441,20.6306897 9.23648882,20.3349342 9.23648882,19.9791191 C9.23648882,19.4426207 9.03764083,19.2134859 8.67623845,18.7976113 C8.10780924,18.1440219 7.32979732,17.2486803 7.32979732,14.9901379 C7.32979732,13.4275799 7.80519225,12.2228558 8.74269151,11.4102853 C10.2261282,10.1232947 12.2984411,10.3721129 12.3868748,10.3842257 C12.8065514,10.4382288 13.1025231,10.8177649 13.0478271,11.2326301 C12.9931311,11.6469906 12.6087258,11.941232 12.188538,11.88521 C12.1767809,11.8847053 10.7020343,11.7181536 9.74664382,12.5544451 C9.16083458,13.0677273 8.86332936,13.8868589 8.86332936,14.9901379 C8.86332936,16.6879561 9.33770194,17.2340439 9.83967809,17.8119279 C10.2757124,18.3136019 10.7700209,18.8824013 10.7700209,19.9791191 C10.7700209,21.2701473 9.61476006,21.8773041 8.59547243,22.4122884 C7.23676304,23.1254326 6.4117228,23.6488088 6.4117228,24.8969373 L6.4117228,29.6643542 C6.62539493,29.7168433 7.05222802,29.7062445 7.20762593,29.7022069 C7.28685842,29.7001881 7.3594456,29.6981693 7.42027571,29.6981693 C7.84404173,29.6981693 8.18704173,30.0373292 8.18704173,30.4552226 C8.18704173,30.873116 7.84404173,31.2122759 7.42027571,31.2122759 L7.24749776,31.2158088 C7.14577347,31.2183323 7.03484799,31.2208558 6.91778838,31.2208558" id="Fill-2" sketch:type="MSShapeGroup"></path>
            <path d="M14.5189955,13.3978025 C14.4510089,10.9757367 14.2296692,8.6122163 16.1925902,7.06429467 C16.5723949,6.76399687 16.8172489,6.59542633 17.3100238,6.53789028 C17.7603711,6.48489655 18.1836259,6.62974608 18.6058584,6.77005329 C18.624772,6.77610972 18.6467526,6.7715674 18.6677109,6.76954859 C18.8767824,6.74734169 19.1507735,6.54798433 19.3266185,6.4505768 C20.3479508,5.88379624 20.7885857,5.42956426 22.7929121,5.65415674 C23.8474709,5.77276176 24.5804993,6.43341693 25.2112921,7.15564577 C25.9320522,7.98032915 26.2050209,8.61928213 26.3190134,9.716 C26.3864888,10.365047 26.3634858,11.0065235 26.3057228,11.7827555 C26.2469374,12.2167994 26.1886632,12.651348 26.130389,13.0848871 L26.0409329,13.5628401 C26.3972235,13.8469875 26.5643785,14.2098683 26.6052727,14.5878903 C26.6967735,15.4191348 26.1830402,16.3235611 25.7608077,16.6273918 C25.5962086,16.7888966 25.3447094,16.9771505 25.1811326,17.1396646 C24.7389642,18.3832508 24.3872742,19.276069 23.6440224,20.2683135 C23.5259404,20.4575768 23.236614,20.7048809 23.1880522,20.9264451 C23.1461356,21.1217649 23.250927,21.23179 23.3899672,21.3256646 C23.602617,21.4679906 23.8203785,21.5618652 24.0590984,21.6562445 C25.1862444,22.1049248 26.2556274,22.3466771 27.3183651,22.8019185 C27.7344635,22.9795737 28.1500507,23.1905392 28.5671714,23.4585361 C28.7046781,23.5458495 28.8437183,23.633163 28.9827586,23.7295611 C29.7290775,24.2463762 30.4385917,25.0089812 30.4902206,27.4148966 C30.4902206,27.4148966 30.4881759,28.8109028 30.4876647,29.8581599 C30.4871535,30.4860094 30.4871535,30.9891975 30.4871535,30.9891975 C30.4810194,32.3942884 28.7430164,33.2633856 26.5822697,33.7670784 C24.4210119,34.2702665 21.8354769,34.4085549 20.1342787,34.3515235 C18.6978703,34.3989655 16.6337362,34.3086238 14.725,33.9765298 C12.1103279,33.5217931 9.78804918,32.6138339 9.7808927,30.9881881 C9.7808927,30.9876834 9.77833681,27.4143918 9.77833681,27.4143918 C9.82996572,25.0084765 10.5389687,24.2458715 11.2857988,23.7295611 C11.4243279,23.633163 11.5638793,23.5458495 11.7008748,23.4580313 C12.1185067,23.1900345 12.5340939,22.9795737 12.9496811,22.8019185 C14.01293,22.3466771 15.0818018,22.1049248 16.2089478,21.6557398 C16.4471565,21.5618652 16.664918,21.4679906 16.878079,21.3251599 C17.0171192,21.23179 17.1219106,21.1207555 17.0794829,20.9259404 C16.9281744,20.2238997 16.4359106,20.8032978 15.1329195,17.1391599 C14.9693428,16.9771505 14.7173323,16.7888966 14.5537556,16.6268871 C14.1402131,16.3296176 13.6377258,15.4554734 13.7031565,14.6383605 C13.742006,14.1649498 13.9715246,13.7102132 14.5189955,13.3978025" id="Fill-3" sketch:type="MSShapeGroup"></path>
        </g>
    </g>
</svg>