<?xml version="1.0" encoding="UTF-8" standalone="no"?>
<svg width="78px" height="78px" viewBox="0 0 78 78" version="1.1" xmlns="http://www.w3.org/2000/svg" xmlns:xlink="http://www.w3.org/1999/xlink" xmlns:sketch="http://www.bohemiancoding.com/sketch/ns">
    <!-- Generator: Sketch 3.3.2 (12043) - http://www.bohemiancoding.com/sketch -->
    <title>Group Copy 4 + hiring icon copy 3</title>
    <desc>Created with Sketch.</desc>
    <defs></defs>
    <g id="Main-Attraction" stroke="none" stroke-width="1" fill="none" fill-rule="evenodd" sketch:type="MSPage">
        <g id="Artboard-42" sketch:type="MSArtboardGroup" transform="translate(-144.000000, -137.000000)">
            <g id="Group-Copy-4-+-hiring-icon-copy-3" sketch:type="MSLayerGroup" transform="translate(145.000000, 137.000000)">
                <g id="Group-Copy-4" transform="translate(0.000000, 0.921074)" sketch:type="MSShapeGroup">
                    <path d="M51.7005803,35.633302 C52.0660253,34.4300487 52.0366453,33.4321287 51.6423359,32.668802 C51.2871997,31.9799087 50.7403209,31.566162 50.2315844,31.2345487 C49.873871,29.9070687 48.9254667,28.7823554 47.409566,28.3378087 C46.9951545,27.680742 46.5044583,27.107862 45.8823257,26.6915487 C45.2658628,26.2788287 44.5148709,26.0555287 43.7076963,26.046802 C42.2933367,24.7614154 40.7429018,24.0807354 39.1754574,24.0258087 C39.1203056,24.0237554 39.0667001,24.026322 39.0115484,24.0258087 C38.1749938,24.021702 37.3296769,24.2059887 36.5085855,24.5463287 C35.6282188,24.2994154 34.3901388,23.9873087 32.8943402,24.6998154 C31.9536673,24.5417087 31.0016549,24.8604887 30.2073662,25.5180687 C29.6120363,25.447742 29.0466018,25.5498954 28.5842546,25.7778154 C28.0703638,26.031402 27.6879094,26.3968954 27.3472055,26.759822 C25.6782199,27.2931754 24.6344597,28.0636887 24.0030492,28.925062 C23.3840091,29.768982 23.1288678,30.5862087 22.8051732,31.2540554 C22.208297,31.7037354 21.6438933,32.2817487 21.3454552,33.1118087 C21.0253687,34.0019287 21.0176372,35.0994354 21.326384,36.5090487 C21.1330951,38.2749154 21.461944,39.7122487 22.408802,40.6480554 C23.3066936,41.536122 24.6205429,41.8081887 26.0812918,41.6875554 C27.182781,42.4051954 28.6069339,42.4498554 30.1496373,42.207562 C30.9861918,42.7799287 31.9536673,43.243982 33.096907,43.487302 C33.4216324,44.469822 33.6443012,45.4918687 34.0633516,46.4713087 C34.5380693,47.580622 35.3612224,48.6411687 36.7982612,49.2140487 C37.5781176,49.5251287 38.2481859,50.2099154 38.6636283,50.7632887 C38.66569,50.7663687 38.6708444,50.7704754 38.6734216,50.7725287 C38.9115535,51.1544487 39.051237,51.4593687 39.436784,51.7545354 C39.8414022,52.0645887 40.3130272,52.1231087 40.8475355,52.159042 C42.2531326,52.2478487 43.3360661,51.6374954 44.1427253,50.9845354 L44.1427253,50.974782 C44.1788059,50.945522 44.21901,50.920882 44.2489053,50.8880287 C44.3767337,50.748402 44.4339473,50.5856754 44.4617809,50.465042 C44.5174481,50.2227487 44.4901299,50.080042 44.452503,49.896782 C44.3762183,49.530262 44.1968462,49.0307887 43.7659407,48.087282 C43.7422306,48.034922 43.722644,47.9789687 43.6984184,47.924042 C44.0695332,47.914802 44.4313701,47.8490954 44.780321,47.7602887 C46.0410803,47.4399687 47.1508165,46.747482 47.8920152,46.2012954 C49.0883448,45.319902 49.8960348,44.640762 50.3851847,43.920042 C50.9439186,43.0971687 51.177927,41.5612754 50.7913492,40.6572954 C50.9258783,40.548982 51.0506141,40.4324554 51.1681337,40.3015554 C52.145918,39.2117487 52.2361195,37.5855087 51.7005803,35.633302 L51.7005803,35.633302 Z M40.9640243,50.4460487 C40.6243512,50.4224354 40.5207484,50.401902 40.5001309,50.3977954 C40.5145631,50.4054954 40.3805494,50.2335287 40.1037597,49.8007887 C40.0934509,49.782822 40.0774724,49.768962 40.0656173,49.7525354 C39.5409023,49.052862 38.6930082,48.122702 37.4461657,47.6257954 C36.4441559,47.2259087 36.0395377,46.664322 35.6679075,45.7967887 C35.417405,45.212102 35.200406,44.4723887 34.9627895,43.6792887 C35.2751444,43.678262 35.5952309,43.6546487 35.9292341,43.6217954 C36.5271412,43.8379087 37.2606083,44.200322 38.2291147,44.237282 C38.7430056,44.257302 39.580591,43.9528954 40.2295264,43.6500287 C40.154788,44.7141687 40.3439534,45.7921687 40.9640243,46.624282 C41.1299951,46.847582 41.3124598,47.046242 41.5145112,47.2115354 C41.7438807,47.782362 41.9778892,48.322902 42.1912802,48.7900354 C42.4572458,49.3721554 42.5773426,49.7130087 42.6551736,49.944522 C42.1490143,50.2976954 41.6629571,50.4886554 40.9640243,50.4460487 L40.9640243,50.4460487 Z M49.8645932,39.1563087 C49.4383266,39.631142 48.5110552,39.9386287 46.9750525,39.8780554 C46.8750576,39.204562 46.8492858,38.8724354 46.8590791,38.8092954 C46.863718,38.7774687 46.851863,38.799542 46.8781503,38.7615554 C46.904953,38.7230554 46.9832994,38.6352754 47.1003037,38.5012954 C47.3209108,38.2600287 47.3008087,37.887862 47.0564915,37.670722 C46.9472188,37.5726754 46.8039273,37.5192887 46.6559969,37.519802 C46.4802328,37.5203154 46.314262,37.5978287 46.2013813,37.7312954 C46.0921086,37.8560354 46.0003608,37.9551087 45.9019123,38.097302 C45.8039792,38.2394954 45.7096542,38.4402087 45.6797589,38.6368154 C45.6189373,39.0279754 45.7003764,39.369342 45.8050101,40.0705554 C45.806041,40.1028954 45.8091336,40.1352354 45.8148034,40.1665487 C45.5498687,40.3451887 45.3503945,40.3785554 45.0998921,40.3498087 C44.8009385,40.314902 44.424154,40.1460154 44.017474,39.8970487 C43.6705848,39.6845287 43.1644255,39.7563954 42.8963982,40.060802 C42.2201447,40.8282354 41.8124339,41.089522 41.2439067,41.1675487 C41.2351443,41.151122 41.2253509,41.1352087 41.2145268,41.1198087 C41.040309,40.7881954 40.9645397,40.618282 40.9444377,40.5130487 C40.9238202,40.4078154 40.9274283,40.288722 41.0310311,39.9355487 C41.1279333,39.6254954 40.9516538,39.2964487 40.6372372,39.2004554 C40.5738384,39.181462 40.5078624,39.1727354 40.441371,39.175302 C40.1784981,39.181462 39.9506749,39.3575354 39.8810908,39.608042 C39.7553242,40.0371887 39.707904,40.396522 39.7749108,40.7440487 C39.8424331,41.0920887 39.9903635,41.3441354 40.1614887,41.6680487 C40.1676739,41.6813954 40.1738591,41.6942287 40.1810753,41.7065487 C39.350706,42.4195687 38.7997037,42.5437954 38.2961216,42.524802 C37.8353208,42.5068354 37.3193682,42.2989354 36.7209456,42.0817954 C36.7281617,42.027382 36.7281617,41.9724554 36.7209456,41.918042 C36.5977561,40.904722 36.6714637,40.4647954 36.77919,40.2435487 C36.8858855,40.0217887 37.1008228,39.8739487 37.5131725,39.5120487 C37.7672831,39.3056887 37.8038791,38.935062 37.595127,38.684042 C37.4693604,38.533122 37.2760714,38.4535554 37.078659,38.4720354 C36.9446453,38.482302 36.8193941,38.536202 36.7209456,38.6260354 C36.3730255,38.9314687 35.9586141,39.1912154 35.696772,39.7332954 C35.4452387,40.2543287 35.4065809,40.915502 35.5230697,41.9467887 C33.4556512,42.109002 32.1495335,41.5535754 30.9516575,40.6762887 C30.9568119,40.6511354 30.9599045,40.6254687 30.9614508,40.5992887 C31.0202106,40.066962 31.124329,39.9463287 31.2124687,39.8677887 C31.3011239,39.789762 31.5170921,39.706602 31.899031,39.5413087 C32.2000463,39.4104087 32.3371526,39.0639087 32.2046852,38.7661754 C32.1072676,38.5449287 31.8820216,38.4058154 31.6377044,38.414542 C31.5645123,38.417622 31.4923511,38.4335354 31.4248288,38.4627954 C31.1258753,38.5926687 30.7733162,38.6712087 30.4202418,38.982802 C30.0671673,39.2933687 29.8573844,39.7933554 29.7821306,40.4745487 C29.7774917,40.496622 29.7749145,40.5192087 29.7728527,40.5417954 C28.3971509,40.7389154 27.4260673,40.595182 26.883312,40.1567954 C26.7018781,40.0104954 26.4585918,39.9355487 26.2261296,39.9642954 C24.9246508,40.1290754 24.1045903,39.8980754 23.6360579,39.4345354 C23.1675255,38.972022 22.8742418,38.103462 23.0659844,36.566542 C23.0706234,36.5300954 23.0757777,36.497242 23.0757777,36.4607954 C23.1773188,36.4258887 23.2778291,36.4027887 23.3654534,36.3930354 C23.6283264,36.364802 23.8716127,36.4120287 24.2741691,36.6625354 C24.5411656,36.8524687 24.9133112,36.7924087 25.1055693,36.5290687 C25.2978273,36.2652154 25.2370057,35.8976687 24.9700093,35.7077354 C24.9509381,35.6943887 24.9318669,35.6820687 24.9117649,35.6712887 C24.4937453,35.4105154 24.0659325,35.2539487 23.6463667,35.219042 C23.5056523,35.2072354 23.368546,35.203642 23.2304089,35.219042 C23.1092811,35.2318754 22.9881534,35.2657554 22.8732109,35.2955287 C22.7866175,34.5578687 22.8500162,34.0476154 22.979391,33.688282 C23.1139201,33.3135487 23.3242184,33.0425087 23.6463667,32.7740354 C23.9788236,33.0435354 24.508693,33.4737087 25.2694783,33.688282 C25.7885235,33.8350954 26.4065326,33.8735954 27.1157742,33.7365354 C27.1575246,33.737562 27.1997904,33.7339687 27.2410254,33.726782 C27.3451437,33.706762 27.4461694,33.677502 27.5410098,33.6400287 C27.543587,33.6395154 27.5379172,33.6318154 27.5410098,33.6307887 C27.7420303,33.5738087 27.9554213,33.5060487 28.1688123,33.418782 C29.118763,33.032242 29.7347104,33.078442 30.1692239,33.226282 C30.603222,33.374122 30.87795,33.6477287 31.058353,33.8612754 C31.2681359,34.111782 31.6438896,34.147202 31.8974847,33.939302 C32.1510798,33.7324287 32.1866449,33.3607754 31.9763466,33.110782 C31.7299676,32.818182 31.2748366,32.354642 30.5558018,32.109782 C30.0156236,31.9260087 29.3300922,31.875702 28.5358035,32.0615287 C28.5677606,31.635462 28.5291029,31.2653487 28.5358035,31.1662754 C28.5626063,30.8433887 28.3182891,30.559002 27.9909865,30.532822 C27.9667609,30.5307687 27.9420199,30.5302554 27.9177944,30.531282 C27.609563,30.5441154 27.3626686,30.7858954 27.3472055,31.0897887 C27.3188564,31.489162 27.3843169,31.8746754 27.3379276,32.1677887 C27.3142175,32.3140887 27.2611275,32.405462 27.2219542,32.456282 C27.2033985,32.4798954 27.1899971,32.507102 27.1637098,32.524042 C26.4972496,32.7093554 26.0029453,32.667262 25.5983272,32.5527887 C25.1004149,32.4121354 24.7323928,32.1410954 24.4195224,31.8890487 C24.7818747,31.1323954 25.0117597,30.4707087 25.4050382,29.935302 C25.8508914,29.3275154 26.5132281,28.775682 28.0719101,28.318302 C28.2255104,28.2731287 28.3615858,28.185862 28.4682813,28.0683087 C28.7909449,27.7105154 29.0981455,27.445122 29.3574104,27.317302 C29.5630698,27.215662 29.7388339,27.1674087 30.0047994,27.211042 C30.1949958,27.5980954 30.4784862,28.0046554 30.701155,28.472302 C30.7027014,28.4943754 30.7063094,28.516962 30.7104329,28.5395487 C30.7516679,28.7392354 30.7078557,28.7951887 30.5650796,28.934302 C30.422819,29.072902 30.1614923,29.2089354 29.9372772,29.3003087 C29.6331693,29.4265887 29.4909086,29.7725754 29.618737,30.0733887 C29.7465654,30.3736887 30.0970627,30.514342 30.4011706,30.3875487 C30.6923926,30.2689687 31.0738161,30.0959754 31.4062731,29.7715487 C31.5990466,29.9363287 31.8119221,30.0420754 32.0150044,30.089302 C32.4495179,30.1904287 32.8319723,30.1303687 32.9721712,30.127802 C33.3005046,30.140122 33.576779,29.8870487 33.5896649,29.562622 C33.6020354,29.2381954 33.3453477,28.965102 33.0170142,28.952782 C32.9953658,28.9517554 32.9742329,28.9522687 32.9531,28.9538087 C32.6752794,28.9594554 32.436632,28.9769087 32.2954022,28.9440554 C32.1546878,28.911202 32.1278851,28.9430287 32.0541776,28.6843087 C31.8392403,27.927142 31.4284369,27.2890687 31.2037063,26.932302 C31.8114067,26.345562 32.2206638,26.248542 32.7500178,26.4122954 C32.9773255,26.4831354 33.2288589,26.451822 33.4360646,26.3352954 C34.5025041,25.7290487 35.0148486,25.8686754 35.774603,26.1042954 C35.7514083,26.3927887 35.7694486,26.7249154 35.8132608,27.1150487 C35.9024314,27.9045554 36.0967512,28.8978554 36.3544698,29.8002954 C36.3915813,29.930682 36.3457074,30.3854954 36.1225231,30.7242954 C35.8998542,31.0630954 35.5926537,31.3007687 35.0885561,31.3017954 C34.7597072,31.284342 34.4798249,31.5327954 34.4617846,31.8567087 C34.4442597,32.1811354 34.695793,32.4583354 35.0241265,32.4757887 C35.0457749,32.4768154 35.0674232,32.4768154 35.0885561,32.4757887 C36.0137658,32.4737354 36.734347,31.9578354 37.128141,31.3592887 C37.4219402,30.911662 37.5822411,30.429642 37.5724478,29.9542954 C37.7492428,30.001522 37.9203679,30.038482 38.0652057,30.060042 C38.390962,30.107782 38.6935236,29.8855087 38.7419747,29.5636487 C38.7899104,29.242302 38.5651798,28.9430287 38.2394235,28.895802 C38.0224244,28.8629487 37.7126467,28.7844087 37.5049255,28.6837954 C37.2972044,28.583182 37.2817412,28.516962 37.2827721,28.5297954 C37.2750406,28.452282 37.2518459,28.376822 37.2152499,28.3085487 C37.1162859,27.8337154 37.0363932,27.3655554 36.992581,26.9805554 C36.955985,26.6530487 36.955985,26.4015154 36.9632011,26.248542 C36.9848494,26.2249287 37.0044361,26.1987487 37.0219609,26.1720554 C37.7626441,25.8337687 38.460546,25.660262 39.1481392,25.671042 C40.2851936,25.689522 41.3949298,26.2244154 42.5974447,27.3552887 C42.590744,27.368122 42.5845587,27.3809554 42.5783735,27.3937887 C42.4541531,27.689982 42.0325255,28.532362 41.1964865,28.9147954 C40.8975329,29.0518554 40.7681582,29.402462 40.9073262,29.6976287 C41.0454634,29.992282 41.4000841,30.1206154 41.6990377,29.983042 C42.9809299,29.3968154 43.5154382,28.2377087 43.6798627,27.8465487 C43.6922332,27.8152354 43.7020265,27.7828954 43.7087272,27.750042 C44.1839602,27.7510687 44.5514669,27.877862 44.907634,28.1160487 C45.2302977,28.332162 45.5508996,28.657102 45.8446988,29.088302 C45.8395444,29.0965154 45.8153188,29.136042 45.8153188,29.136042 C45.793155,29.1663287 45.7735684,29.1986687 45.7575899,29.2320354 C45.7575899,29.2320354 45.6931602,29.379362 45.6318232,29.5112887 C45.5957426,29.5836687 45.556054,29.6606687 45.5256432,29.7325354 C45.4199785,29.9332487 45.2875112,30.157062 45.129272,30.3582887 C44.9421683,30.5969887 44.7313545,30.766902 44.588063,30.8202887 C44.4447714,30.8741887 44.3793109,30.896262 44.1432407,30.7242954 C43.8772751,30.5317954 43.5035832,30.5887754 43.3087479,30.8526287 C43.1139127,31.1154554 43.1716417,31.484542 43.4381227,31.677042 C43.9319115,32.0384287 44.5452817,32.1031087 45.0138141,31.9270354 C45.1957634,31.858762 45.3519408,31.7550687 45.4962632,31.6482954 C45.6194527,31.9568087 45.7910933,32.263782 45.9993299,32.5722954 C46.1637544,32.853602 46.527653,32.9495954 46.8126897,32.7868687 C47.0972111,32.624142 47.1941132,32.2648087 47.0296888,31.983502 C47.015772,31.9609154 47.0008243,31.938842 46.9848458,31.9177954 C46.6791915,31.4640087 46.5338382,31.139582 46.5013657,30.8690554 C46.4709549,30.609822 46.5235295,30.3439154 46.752899,29.9358154 C48.020359,30.212502 48.4156993,30.7910287 48.6177507,31.9177954 C48.660532,32.1508487 48.8017617,32.359262 49.0043285,32.4860554 C49.5486302,32.827422 49.9336617,33.1143754 50.1058178,33.4485554 C50.2532328,33.732942 50.3346719,34.144122 50.1254044,34.9213087 C49.8790254,35.0768487 49.4300796,35.145122 48.9847419,35.1138087 C48.7430019,35.0963554 48.5079626,35.0563154 48.3270441,35.0075487 C48.1471565,34.958782 47.9987106,34.874082 48.0373684,34.9012887 C47.7683102,34.7118687 47.3946183,34.7729554 47.2023602,35.0393754 C47.0101022,35.305282 47.0724701,35.6743687 47.3415283,35.8637887 C47.5538884,36.013682 47.7502699,36.073742 48.0079885,36.143042 C48.2662225,36.2128554 48.5713613,36.264702 48.8976331,36.287802 C49.2625626,36.3134687 49.6656344,36.307822 50.0573667,36.210802 C50.4697164,37.7857087 50.2949832,38.6758287 49.8645932,39.1563087 L49.8645932,39.1563087 Z" id="attitude-icon-copy-3" opacity="0.3" fill="#000000"></path>
                    <circle id="Oval-20-Copy-7" stroke="#E2575B" stroke-width="3" cx="37.8511449" cy="37.9228113" r="37.0133587"></circle>
                    <circle id="Oval-20-Copy-9" stroke="#E2575B" stroke-width="3" cx="37.8511449" cy="37.9228113" r="36.9322518"></circle>
                    <ellipse id="Oval-20-Copy-17" fill="#E2575B" cx="37.8511449" cy="37.9228113" rx="32.6538393" ry="32.6538393"></ellipse>
                    <g id="Oval-20-Copy-12-+-Type-something-Copy-Copy-Copy-Copy-Copy" transform="translate(10.000000, 9.000000)">
                        <path d="M27.8511449,54.3802482 C13.8340209,54.3802482 2.47089671,43.017124 2.47089671,29 C2.47089671,14.982876 13.8340209,3.6197518 27.8511449,3.6197518 C41.8682689,3.6197518 53.2313931,14.982876 53.2313931,29 C53.2313931,43.017124 41.8682689,54.3802482 27.8511449,54.3802482 L27.8511449,54.3802482 Z" id="Oval-20-Copy-12"></path>
                        <path d="M4.20049955,19.6336539 C4.52165448,18.6444828 4.08629509,17.7671646 3.14943591,17.4629938 C2.22208798,17.161911 1.34964901,17.6146254 1.02695006,18.6085521 L0.644034569,19.7879484 L3.81604004,20.8178058 L4.20049955,19.6336539 Z M3.70912561,19.4793761 L3.50685976,20.1023636 L1.31451415,19.3905731 L1.51832401,18.7628299 C1.7468381,18.0589966 2.35543352,17.8360356 2.96415421,18.0336694 C3.56811927,18.2297592 3.93300765,18.7898096 3.70912561,19.4793761 L3.70912561,19.4793761 Z M6.893188,14.3820932 L5.35094269,14.4819901 C5.48597836,14.0946719 5.3850528,13.597139 4.86575973,13.317077 C4.32006193,13.0227746 3.73950852,13.2039037 3.42621886,13.7848078 L2.73081075,15.0742389 L5.66613684,16.657301 L5.9438254,16.1424087 L4.848029,15.5514305 L5.12571756,15.0365382 L6.57040472,14.9806005 L6.893188,14.3820932 Z M4.77686621,14.5984427 L4.39474776,15.3069697 L3.46178055,14.8038075 L3.843899,14.0952805 C4.00054383,13.8048284 4.29489968,13.6909002 4.57655016,13.8427983 C4.86260143,13.9970697 4.93351104,14.3079906 4.77686621,14.5984427 L4.77686621,14.5984427 Z M9.80962945,10.837088 L6.3696451,9.83467456 L5.92331876,10.4123361 L7.76141953,13.4880003 L8.16800449,12.9617744 L7.80739941,12.3735449 L8.7428505,11.1628297 L9.4030445,11.3633139 L9.80962945,10.837088 Z M8.23444021,10.978523 L7.50075308,11.9281035 L6.60940244,10.4811778 L8.23444021,10.978523 Z M11.3944818,9.65473758 L10.5496145,8.73348886 L11.2018586,8.1353228 C11.7140729,7.66557656 11.6804529,7.05190344 11.2985728,6.63549902 C10.9133133,6.21540961 10.3085191,6.12555423 9.79261986,6.59867994 L8.70923137,7.59224392 L10.9633374,10.0501355 L11.3944818,9.65473758 Z M10.7948133,7.80983983 L10.2015291,8.35393439 L9.48846111,7.57640048 L10.0817453,7.03230592 C10.3249549,6.80926094 10.6400874,6.80519567 10.8563734,7.04103534 C11.06928,7.27319002 11.038023,7.58679486 10.7948133,7.80983983 L10.7948133,7.80983983 Z M16.086144,6.35097689 L15.8023473,5.9212276 L14.3837574,6.85803215 L13.8712702,6.08198003 L15.2606539,5.16446264 L14.9768572,4.73471336 L13.5874736,5.65223075 L13.1135607,4.93459116 L14.5321506,3.99778662 L14.2483539,3.56803733 L12.3416022,4.82721285 L14.1793923,7.61015241 L16.086144,6.35097689 Z M19.9558524,4.69217699 L18.664432,3.84321689 C19.0054751,3.61531439 19.2245061,3.15732922 18.9785727,2.62103009 C18.7201342,2.05746151 18.1475718,1.85246813 17.547644,2.12758009 L16.215986,2.73824526 L17.606135,5.76969881 L18.1378892,5.52584958 L17.6189281,4.39416752 L18.1506823,4.15031828 L19.3377449,4.97562567 L19.9558524,4.69217699 Z M18.1359875,3.59048879 L17.4042574,3.92604201 L16.9624109,2.96252154 L17.6941411,2.62696832 C17.994105,2.48941234 18.297712,2.57571285 18.4310996,2.86658696 C18.5665714,3.16200597 18.4359514,3.45293281 18.1359875,3.59048879 L18.1359875,3.59048879 Z M25.1803956,3.75456433 C26.135548,3.58549663 26.5065426,2.95620102 26.3627479,2.14382913 L26.0115403,0.159672335 L25.4256478,0.26337881 L25.774241,2.23276521 C25.8666182,2.7546526 25.6362661,3.14578925 25.0897613,3.24252386 C24.5432566,3.33925848 24.1926398,3.05095682 24.1002626,2.52906942 L23.7516694,0.559683023 L23.1657769,0.663389498 L23.5169846,2.64754629 C23.6607793,3.45991818 24.2301666,3.92276054 25.1803956,3.75456433 L25.1803956,3.75456433 Z M31.2192371,3.6354575 L31.2350779,0.300495123 L30.6500845,0.297716449 L30.6391123,2.60769039 L28.9451038,0.28961792 L28.3451105,0.286767998 L28.3292697,3.62173038 L28.9142631,3.62450905 L28.9255916,1.23953596 L30.6542435,3.63277383 L31.2192371,3.6354575 Z M33.4822774,4.22870666 L34.0970152,0.950853335 L33.5220394,0.843020766 L32.9073016,4.12087409 L33.4822774,4.22870666 Z M36.7529222,5.13576298 L38.9220018,2.28384806 L38.2821598,2.10266517 L36.5761022,4.42052896 L36.3385796,1.55230511 L35.6987377,1.37112222 L36.0505392,4.93687048 L36.7529222,5.13576298 Z M41.2328345,7.26850312 L41.456388,6.80455398 L39.9249054,6.06661018 L40.3286041,5.22879911 L41.8285562,5.95154995 L42.0521097,5.48760081 L40.5521577,4.76484997 L40.9254704,3.99009995 L42.456953,4.72804376 L42.6805066,4.26409462 L40.6220138,3.27221133 L39.1743417,6.27661983 L41.2328345,7.26850312 Z M44.6375027,9.73847913 L44.7041302,8.19443873 C45.07467,8.37036556 45.5801739,8.3235601 45.9144855,7.83741631 C46.2657959,7.32655334 46.1481855,6.72988108 45.6043637,6.35590544 L44.3972439,5.52579285 L42.5075337,8.27374122 L42.9895576,8.60521963 L43.6950117,7.57937383 L44.1770356,7.91085224 L44.0772014,9.3531709 L44.6375027,9.73847913 Z M44.6501239,7.61116493 L43.986826,7.15502798 L44.5874535,6.28161711 L45.2507514,6.73775406 C45.5226623,6.92474188 45.6042566,7.22964738 45.4229351,7.49331859 C45.2387805,7.76110966 44.9220348,7.79815275 44.6501239,7.61116493 L44.6501239,7.61116493 Z M46.470967,11.7762013 C47.1164306,12.3962027 47.7338147,12.3236642 48.1182849,11.9234047 C48.9772813,11.0291311 47.3114713,9.96287494 47.7444332,9.51213221 C47.9141542,9.33544106 48.1905813,9.36524162 48.4357854,9.60077289 C48.6882013,9.84323154 48.8610945,10.1756965 48.8686336,10.5503873 L49.4079672,10.4652742 C49.3958264,10.0376323 49.207087,9.62061618 48.835675,9.26385558 C48.3056016,8.75469241 47.6650171,8.72868274 47.2805469,9.12894228 C46.4319416,10.012398 48.1323885,11.0425948 47.6474712,11.5474266 C47.4916049,11.709694 47.1953914,11.7510166 46.849221,11.4185018 C46.5138684,11.0963782 46.4030372,10.684867 46.4104909,10.3523096 L45.8573025,10.4518464 C45.8589099,10.8832365 46.0274362,11.3501668 46.470967,11.7762013 L46.470967,11.7762013 Z M48.6320972,14.3952902 L51.2863155,12.3760453 L50.9321151,11.9104628 L48.2778968,13.9297077 L48.6320972,14.3952902 Z M50.2971916,17.0167758 L52.6871054,15.519875 L53.2232294,16.3758371 L53.6596853,16.1024669 L52.27691,13.8947628 L51.8404541,14.168133 L52.3765781,15.024095 L49.9866643,16.5209958 L50.2971916,17.0167758 Z M51.9231661,20.7149065 L53.1954289,20.1675745 L55.4964908,20.5819583 L55.2317165,19.9664955 L53.5611149,19.6891147 L54.5085269,18.2854551 L54.2437526,17.6699922 L52.9642454,19.6301928 L51.6919825,20.1775248 L51.9231661,20.7149065 Z" id="DRAPER-UNIVERSITY" fill="#FFFFFF"></path>
                    </g>
                    <g id="Oval-20-Copy-12-+-Type-something-Copy-Copy-Copy-Copy" transform="translate(38.000000, 38.000000) rotate(-180.000000) translate(-38.000000, -38.000000) translate(9.000000, 9.000000)">
                        <ellipse id="Oval-20-Copy-12" cx="28.8511449" cy="29" rx="28.8078483" ry="28.8078483"></ellipse>
                        <path d="M36.1033392,0.921335414 L34.9110084,4.03590956 L35.457343,4.24505905 L35.9435709,2.97494786 L37.5638965,3.59524592 L37.0776687,4.86535712 L37.6240033,5.07450661 L38.8163341,1.95993246 L38.2699995,1.75078297 L37.7480196,3.1142847 L36.1276939,2.49398663 L36.6496738,1.13048491 L36.1033392,0.921335414 Z M33.8023613,0.600381828 L33.1261046,3.86609795 L33.6989513,3.9847217 L34.3752081,0.719005579 L33.8023613,0.600381828 Z M29.5352027,0.051245506 L30.1867781,1.45265529 C29.7768474,1.46703427 29.3496246,1.74127089 29.2766083,2.32673534 C29.1998794,2.94196917 29.5789389,3.41753607 30.2338652,3.49921529 L31.6876032,3.6805184 L32.1003308,0.37115578 L31.5198279,0.298758291 L31.3657512,1.53418751 L30.7852483,1.46179003 L30.2099752,0.135399853 L29.5352027,0.051245506 Z M30.503205,1.94560462 L31.3020167,2.04522852 L31.1708349,3.09707991 L30.3720232,2.99745601 C30.0445601,2.9566164 29.8317751,2.72349078 29.8713771,2.40595074 C29.911598,2.08344913 30.1757418,1.90476501 30.503205,1.94560462 L30.503205,1.94560462 Z M27.3764197,0.214131161 L27.4371356,3.54857843 L28.0220386,3.53792811 L27.9613227,0.203480844 L27.3764197,0.214131161 Z M22.8120784,0.639941203 L23.1333194,3.95943352 L23.7155992,3.9030839 L23.4930904,1.60382535 L25.412671,3.73885124 L26.009881,3.68105676 L25.68864,0.361564443 L25.1063602,0.417914064 L25.3360933,2.79182386 L23.3744512,0.585518065 L22.8120784,0.639941203 Z M19.5993284,1.5706359 C19.0431969,1.71672767 18.6508677,2.07310216 18.429269,2.50869835 L18.7455895,3.71284385 L20.273742,3.31140909 L20.1428946,2.81330874 L19.1757095,3.06738137 L19.044862,2.56928102 C19.1530993,2.39092828 19.4038736,2.1647928 19.7327165,2.0784081 C20.3710587,1.91072016 20.9745565,2.279489 21.151137,2.95168267 C21.3302582,3.63354819 20.9833738,4.24163635 20.3450316,4.40932429 C19.9871731,4.50333117 19.6329656,4.39476294 19.3953541,4.19869973 L19.0058111,4.58536015 C19.3586628,4.88556125 19.848479,5.07740778 20.4771493,4.91226057 C21.4153189,4.66581011 21.9982243,3.81478349 21.731448,2.79923909 C21.4659421,1.78853062 20.537498,1.32418545 19.5993284,1.5706359 L19.5993284,1.5706359 Z" id="HIRING" fill="#FFFFFF"></path>
                    </g>
                    <ellipse id="Oval-20-Copy-16" fill="#1A1A1A" cx="37.8369781" cy="37.8369781" rx="21.8369781" ry="21.8369781"></ellipse>
                </g>
                <g id="hiring-icon-copy-3" transform="translate(29.500000, 30.475000)" fill="#FFFFFF" sketch:type="MSShapeGroup">
                    <path d="M16.3661607,14.8205791 C16.2997659,14.8205791 16.2368504,14.8191478 16.1791536,14.8177165 L16.0811561,14.8157127 C15.8410913,14.8157127 15.646256,14.6233455 15.646256,14.3863216 C15.646256,14.1492976 15.8410913,13.9569304 16.0811561,13.9569304 C16.1156582,13.9569304 16.1568287,13.9580754 16.2020584,13.9592205 C16.2899082,13.9615106 16.5320026,13.9678083 16.6534847,13.9377509 L16.6534847,11.2337316 C16.6534847,10.5258087 16.1852422,10.2289563 15.4145992,9.82446983 C14.836472,9.52103341 14.1809326,9.17694795 14.1809326,8.44440663 C14.1809326,7.82236196 14.4612982,7.49974607 14.7086114,7.21520286 C14.9936159,6.88743427 15.2626741,6.57770011 15.2626741,5.61471886 C15.2626741,4.98637645 15.0924832,4.52034391 14.7570303,4.22950296 C14.2163045,3.76089407 13.3856453,3.85278378 13.3766574,3.85364256 C13.1383321,3.88513125 12.9205921,3.71881374 12.8892793,3.48350738 C12.8582564,3.24820102 13.0261279,3.03293292 13.2644531,3.00230302 C13.3131619,2.9951465 14.4900016,2.85487872 15.3310984,3.58427117 C15.8628363,4.04515102 16.1324743,4.7284555 16.1324743,5.61471886 C16.1324743,6.89573583 15.6909058,7.40356245 15.3687898,7.77427015 C15.1638068,8.01014903 15.0507328,8.14011142 15.0507328,8.44440663 C15.0507328,8.64622047 15.3424058,8.81396929 15.8228255,9.06616503 C16.5404106,9.44288421 17.5232849,9.95901239 17.5232849,11.2337316 L17.5232849,14.0053085 C17.5232849,14.2162827 17.4455827,14.4023522 17.2988764,14.5434787 C17.0469243,14.7859416 16.6714605,14.8205791 16.3661607,14.8205791" id="Fill-1"></path>
                    <path d="M1.31977684,14.8205791 C1.01447697,14.8205791 0.639013217,14.7859416 0.387061091,14.5434787 C0.24035479,14.4023522 0.162942572,14.2162827 0.162942572,14.0053085 L0.162942572,11.2337316 C0.162942572,9.95901239 1.14552687,9.44288421 1.86282211,9.06616503 C2.34324175,8.81396929 2.63491475,8.64622047 2.63491475,8.44440663 C2.63491475,8.14011142 2.52213066,8.01014903 2.31714775,7.77427015 C1.9947418,7.40356245 1.55346317,6.89573583 1.55346317,5.61471886 C1.55346317,4.7284555 1.82310123,4.04515102 2.35483909,3.58427117 C3.19622582,2.8543062 4.37161583,2.99543276 4.42177431,3.00230302 C4.65980963,3.03293292 4.82768107,3.24820102 4.7966582,3.48350738 C4.76563532,3.71852748 4.5476054,3.88541751 4.30928015,3.85364256 C4.30261168,3.8533563 3.46615382,3.75889025 2.92426829,4.23322435 C2.59200461,4.52435156 2.42326337,4.9889528 2.42326337,5.61471886 C2.42326337,6.57770011 2.69232157,6.88743427 2.97703617,7.21520286 C3.22434936,7.49974607 3.50471496,7.82236196 3.50471496,8.44440663 C3.50471496,9.17666169 2.84946547,9.52103341 2.27133827,9.82446983 C1.50069529,10.2289563 1.03274278,10.5258087 1.03274278,11.2337316 L1.03274278,13.9377509 C1.15393494,13.967522 1.39602933,13.9615106 1.48416908,13.9592205 C1.52910876,13.9580754 1.5702793,13.9569304 1.60478138,13.9569304 C1.84513617,13.9569304 2.03968148,14.1492976 2.03968148,14.3863216 C2.03968148,14.6233455 1.84513617,14.8157127 1.60478138,14.8157127 L1.50678389,14.8177165 C1.44908714,14.8191478 1.38617159,14.8205791 1.31977684,14.8205791" id="Fill-2"></path>
                    <path d="M5.63108653,4.71156611 C5.59252538,3.33780065 5.46698422,1.99724143 6.58032848,1.11927963 C6.795749,0.948954472 6.9346271,0.853343373 7.2141229,0.820709644 C7.46955423,0.790652263 7.70961908,0.872809106 7.94910407,0.952389601 C7.95983161,0.955824731 7.97229874,0.953248384 7.98418601,0.952103341 C8.10276878,0.939507866 8.25817308,0.82643486 8.35791017,0.77118653 C8.93719711,0.449715679 9.1871197,0.192080981 10.3239486,0.319467026 C10.9220812,0.386738308 11.3378457,0.761453664 11.6956235,1.17109283 C12.1044296,1.63884294 12.259254,2.00124908 12.3239092,2.62329375 C12.3621804,2.99142511 12.3491334,3.35526255 12.3163709,3.79553163 C12.2830286,4.04171589 12.2499762,4.28818642 12.2169237,4.53408443 L12.1661854,4.80517338 C12.368269,4.9663382 12.4630772,5.1721597 12.4862719,5.38656902 C12.53817,5.85804052 12.2467869,6.37101983 12.0073019,6.54334881 C11.9139433,6.63495226 11.7712961,6.74172753 11.6785174,6.8339035 C11.427725,7.53925005 11.2282508,8.04564537 10.8066877,8.60843405 C10.7397131,8.71578184 10.5756108,8.85604962 10.5480671,8.9817181 C10.5242925,9.09250102 10.5837289,9.15490587 10.6625908,9.20815038 C10.7832031,9.28887592 10.9067147,9.34212042 11.0421136,9.39565119 C11.6814168,9.65013702 12.2879574,9.78725593 12.890729,10.0454631 C13.1267348,10.1462269 13.3624506,10.2658839 13.5990363,10.4178884 C13.6770284,10.4674115 13.7558902,10.5169346 13.8347521,10.5716105 C14.2580549,10.8647415 14.6604825,11.2972815 14.6897657,12.6618866 C14.6897657,12.6618866 14.688606,13.4536839 14.6883161,14.0476751 C14.6880261,14.4037835 14.6880261,14.6891855 14.6880261,14.6891855 C14.6845469,15.4861355 13.6987734,15.9790765 12.4732249,16.2647648 C11.2473864,16.5501668 9.7809033,16.6286022 8.81600494,16.5962547 C8.00129209,16.6231633 6.83054101,16.5719226 5.74792969,16.383563 C4.26492034,16.125642 2.94775289,15.6106589 2.94369383,14.6886129 C2.94369383,14.6883267 2.94224416,12.6616004 2.94224416,12.6616004 C2.97152743,11.2969953 3.37366506,10.8644552 3.79725776,10.5716105 C3.87582971,10.5169346 3.95498153,10.4674115 4.03268368,10.4176022 C4.26955927,10.2655977 4.50527513,10.1462269 4.74099098,10.0454631 C5.34405246,9.78725593 5.9503032,9.65013702 6.58960635,9.39536492 C6.72471532,9.34212042 6.84822695,9.28887592 6.96912918,9.20786412 C7.04799106,9.15490587 7.10742741,9.0919285 7.08336294,8.98143184 C6.99754265,8.5832431 6.71833678,8.91187047 5.97929654,6.83361724 C5.88651785,6.74172753 5.74358069,6.63495226 5.650802,6.54306255 C5.41624588,6.37445496 5.13124134,5.87865129 5.16835282,5.4151951 C5.19038776,5.14668249 5.32056785,4.88876153 5.63108653,4.71156611" id="Fill-3"></path>
                </g>
            </g>
        </g>
    </g>
</svg>