<?xml version="1.0" encoding="UTF-8" standalone="no"?>
<svg width="40px" height="40px" viewBox="0 0 40 40" version="1.1" xmlns="http://www.w3.org/2000/svg" xmlns:xlink="http://www.w3.org/1999/xlink" xmlns:sketch="http://www.bohemiancoding.com/sketch/ns">
    <!-- Generator: Sketch 3.3.3 (12081) - http://www.bohemiancoding.com/sketch -->
    <title>incorporationdone</title>
    <desc>Created with Sketch.</desc>
    <defs></defs>
    <g id="Main-Attraction" stroke="none" stroke-width="1" fill="none" fill-rule="evenodd" sketch:type="MSPage">
        <g id="TRACK-ICONS" sketch:type="MSArtboardGroup" transform="translate(-128.000000, -209.000000)">
            <g id="incorporationdone" sketch:type="MSLayerGroup" transform="translate(128.000000, 209.000000)">
                <circle id="Oval-20-Copy-58" stroke="#35B3DE" opacity="0.8" sketch:type="MSShapeGroup" cx="20" cy="20" r="20"></circle>
                <g id="Shape" transform="translate(13.000000, 10.000000)" fill="#5EC3E5" sketch:type="MSShapeGroup">
                    <path d="M13.9659207,10.1261872 L13.957972,10.004855 C13.7422237,6.38614535 11.7945835,0.5230121 7.49074393,0.196655149 C7.22662249,0.176506925 6.95432532,0.177392561 6.68043843,0.199090649 C4.0510334,0.409207844 2.58485281,2.7353314 1.71141251,4.46652882 C0.599286373,6.67375572 0.12463993,9.2520642 0.299509672,12.1292749 C0.366051015,13.2261354 0.70693346,14.5315632 1.21019495,15.6202315 C2.07137165,17.4922451 4.00129772,18.8897791 6.24757904,19.2679457 C6.39519635,19.2927435 6.5446305,19.3104563 6.69520016,19.3219695 C9.04685753,19.5004252 11.7489357,18.0741081 12.8476627,16.0750057 C13.7156525,14.497909 14.0919631,12.4972568 13.9659207,10.1261872 L13.9659207,10.1261872 Z M12.1704719,15.6497668 C11.1451852,17.5169891 8.525749,18.8222465 6.3734026,18.4600241 C4.37838237,18.124665 2.66890469,16.8919819 1.91071701,15.243133 C1.4478492,14.2413885 1.13430793,13.0448844 1.07342181,12.0420567 C0.908984861,9.33362036 1.35252021,6.91439872 2.39225063,4.85046709 C2.89400555,3.85608835 3.53753179,2.76768775 4.43549088,2.0025144 C4.50104345,1.94662122 4.57148469,1.89722724 4.63992601,1.8448003 L3.87662745,3.73693622 L5.25345362,5.13123285 L4.55193002,7.72138364 L5.9269785,5.13491573 L4.38704865,3.511847 L5.45300009,1.35151046 C5.84342675,1.17343217 6.26962955,1.05233028 6.74094142,1.01485151 C6.97537518,0.996003812 7.20914231,0.995570532 7.43424317,1.01268511 C11.2474028,1.30189984 12.9848792,6.70014152 13.1846479,10.0392176 L13.1915365,10.1518706 C13.3088644,12.356835 12.9659912,14.2065094 12.1704719,15.6497668 L12.1704719,15.6497668 Z"></path>
                </g>
            </g>
        </g>
    </g>
</svg>