<?xml version="1.0" encoding="UTF-8" standalone="no"?>
<svg width="78px" height="78px" viewBox="0 0 78 78" version="1.1" xmlns="http://www.w3.org/2000/svg" xmlns:xlink="http://www.w3.org/1999/xlink" xmlns:sketch="http://www.bohemiancoding.com/sketch/ns">
    <!-- Generator: Sketch 3.3.2 (12043) - http://www.bohemiancoding.com/sketch -->
    <title>Group Copy 5 + Group Copy</title>
    <desc>Created with Sketch.</desc>
    <defs></defs>
    <g id="Main-Attraction" stroke="none" stroke-width="1" fill="none" fill-rule="evenodd" sketch:type="MSPage">
        <g id="Artboard-42" sketch:type="MSArtboardGroup" transform="translate(-338.000000, -137.000000)">
            <g id="Group-Copy-5-+-Group-Copy" sketch:type="MSLayerGroup" transform="translate(339.000000, 137.000000)">
                <g id="Group-Copy-5" transform="translate(0.480218, 0.710590)" sketch:type="MSShapeGroup">
                    <path d="M51.7005803,35.633302 C52.0660253,34.4300487 52.0366453,33.4321287 51.6423359,32.668802 C51.2871997,31.9799087 50.7403209,31.566162 50.2315844,31.2345487 C49.873871,29.9070687 48.9254667,28.7823554 47.409566,28.3378087 C46.9951545,27.680742 46.5044583,27.107862 45.8823257,26.6915487 C45.2658628,26.2788287 44.5148709,26.0555287 43.7076963,26.046802 C42.2933367,24.7614154 40.7429018,24.0807354 39.1754574,24.0258087 C39.1203056,24.0237554 39.0667001,24.026322 39.0115484,24.0258087 C38.1749938,24.021702 37.3296769,24.2059887 36.5085855,24.5463287 C35.6282188,24.2994154 34.3901388,23.9873087 32.8943402,24.6998154 C31.9536673,24.5417087 31.0016549,24.8604887 30.2073662,25.5180687 C29.6120363,25.447742 29.0466018,25.5498954 28.5842546,25.7778154 C28.0703638,26.031402 27.6879094,26.3968954 27.3472055,26.759822 C25.6782199,27.2931754 24.6344597,28.0636887 24.0030492,28.925062 C23.3840091,29.768982 23.1288678,30.5862087 22.8051732,31.2540554 C22.208297,31.7037354 21.6438933,32.2817487 21.3454552,33.1118087 C21.0253687,34.0019287 21.0176372,35.0994354 21.326384,36.5090487 C21.1330951,38.2749154 21.461944,39.7122487 22.408802,40.6480554 C23.3066936,41.536122 24.6205429,41.8081887 26.0812918,41.6875554 C27.182781,42.4051954 28.6069339,42.4498554 30.1496373,42.207562 C30.9861918,42.7799287 31.9536673,43.243982 33.096907,43.487302 C33.4216324,44.469822 33.6443012,45.4918687 34.0633516,46.4713087 C34.5380693,47.580622 35.3612224,48.6411687 36.7982612,49.2140487 C37.5781176,49.5251287 38.2481859,50.2099154 38.6636283,50.7632887 C38.66569,50.7663687 38.6708444,50.7704754 38.6734216,50.7725287 C38.9115535,51.1544487 39.051237,51.4593687 39.436784,51.7545354 C39.8414022,52.0645887 40.3130272,52.1231087 40.8475355,52.159042 C42.2531326,52.2478487 43.3360661,51.6374954 44.1427253,50.9845354 L44.1427253,50.974782 C44.1788059,50.945522 44.21901,50.920882 44.2489053,50.8880287 C44.3767337,50.748402 44.4339473,50.5856754 44.4617809,50.465042 C44.5174481,50.2227487 44.4901299,50.080042 44.452503,49.896782 C44.3762183,49.530262 44.1968462,49.0307887 43.7659407,48.087282 C43.7422306,48.034922 43.722644,47.9789687 43.6984184,47.924042 C44.0695332,47.914802 44.4313701,47.8490954 44.780321,47.7602887 C46.0410803,47.4399687 47.1508165,46.747482 47.8920152,46.2012954 C49.0883448,45.319902 49.8960348,44.640762 50.3851847,43.920042 C50.9439186,43.0971687 51.177927,41.5612754 50.7913492,40.6572954 C50.9258783,40.548982 51.0506141,40.4324554 51.1681337,40.3015554 C52.145918,39.2117487 52.2361195,37.5855087 51.7005803,35.633302 L51.7005803,35.633302 Z M40.9640243,50.4460487 C40.6243512,50.4224354 40.5207484,50.401902 40.5001309,50.3977954 C40.5145631,50.4054954 40.3805494,50.2335287 40.1037597,49.8007887 C40.0934509,49.782822 40.0774724,49.768962 40.0656173,49.7525354 C39.5409023,49.052862 38.6930082,48.122702 37.4461657,47.6257954 C36.4441559,47.2259087 36.0395377,46.664322 35.6679075,45.7967887 C35.417405,45.212102 35.200406,44.4723887 34.9627895,43.6792887 C35.2751444,43.678262 35.5952309,43.6546487 35.9292341,43.6217954 C36.5271412,43.8379087 37.2606083,44.200322 38.2291147,44.237282 C38.7430056,44.257302 39.580591,43.9528954 40.2295264,43.6500287 C40.154788,44.7141687 40.3439534,45.7921687 40.9640243,46.624282 C41.1299951,46.847582 41.3124598,47.046242 41.5145112,47.2115354 C41.7438807,47.782362 41.9778892,48.322902 42.1912802,48.7900354 C42.4572458,49.3721554 42.5773426,49.7130087 42.6551736,49.944522 C42.1490143,50.2976954 41.6629571,50.4886554 40.9640243,50.4460487 L40.9640243,50.4460487 Z M49.8645932,39.1563087 C49.4383266,39.631142 48.5110552,39.9386287 46.9750525,39.8780554 C46.8750576,39.204562 46.8492858,38.8724354 46.8590791,38.8092954 C46.863718,38.7774687 46.851863,38.799542 46.8781503,38.7615554 C46.904953,38.7230554 46.9832994,38.6352754 47.1003037,38.5012954 C47.3209108,38.2600287 47.3008087,37.887862 47.0564915,37.670722 C46.9472188,37.5726754 46.8039273,37.5192887 46.6559969,37.519802 C46.4802328,37.5203154 46.314262,37.5978287 46.2013813,37.7312954 C46.0921086,37.8560354 46.0003608,37.9551087 45.9019123,38.097302 C45.8039792,38.2394954 45.7096542,38.4402087 45.6797589,38.6368154 C45.6189373,39.0279754 45.7003764,39.369342 45.8050101,40.0705554 C45.806041,40.1028954 45.8091336,40.1352354 45.8148034,40.1665487 C45.5498687,40.3451887 45.3503945,40.3785554 45.0998921,40.3498087 C44.8009385,40.314902 44.424154,40.1460154 44.017474,39.8970487 C43.6705848,39.6845287 43.1644255,39.7563954 42.8963982,40.060802 C42.2201447,40.8282354 41.8124339,41.089522 41.2439067,41.1675487 C41.2351443,41.151122 41.2253509,41.1352087 41.2145268,41.1198087 C41.040309,40.7881954 40.9645397,40.618282 40.9444377,40.5130487 C40.9238202,40.4078154 40.9274283,40.288722 41.0310311,39.9355487 C41.1279333,39.6254954 40.9516538,39.2964487 40.6372372,39.2004554 C40.5738384,39.181462 40.5078624,39.1727354 40.441371,39.175302 C40.1784981,39.181462 39.9506749,39.3575354 39.8810908,39.608042 C39.7553242,40.0371887 39.707904,40.396522 39.7749108,40.7440487 C39.8424331,41.0920887 39.9903635,41.3441354 40.1614887,41.6680487 C40.1676739,41.6813954 40.1738591,41.6942287 40.1810753,41.7065487 C39.350706,42.4195687 38.7997037,42.5437954 38.2961216,42.524802 C37.8353208,42.5068354 37.3193682,42.2989354 36.7209456,42.0817954 C36.7281617,42.027382 36.7281617,41.9724554 36.7209456,41.918042 C36.5977561,40.904722 36.6714637,40.4647954 36.77919,40.2435487 C36.8858855,40.0217887 37.1008228,39.8739487 37.5131725,39.5120487 C37.7672831,39.3056887 37.8038791,38.935062 37.595127,38.684042 C37.4693604,38.533122 37.2760714,38.4535554 37.078659,38.4720354 C36.9446453,38.482302 36.8193941,38.536202 36.7209456,38.6260354 C36.3730255,38.9314687 35.9586141,39.1912154 35.696772,39.7332954 C35.4452387,40.2543287 35.4065809,40.915502 35.5230697,41.9467887 C33.4556512,42.109002 32.1495335,41.5535754 30.9516575,40.6762887 C30.9568119,40.6511354 30.9599045,40.6254687 30.9614508,40.5992887 C31.0202106,40.066962 31.124329,39.9463287 31.2124687,39.8677887 C31.3011239,39.789762 31.5170921,39.706602 31.899031,39.5413087 C32.2000463,39.4104087 32.3371526,39.0639087 32.2046852,38.7661754 C32.1072676,38.5449287 31.8820216,38.4058154 31.6377044,38.414542 C31.5645123,38.417622 31.4923511,38.4335354 31.4248288,38.4627954 C31.1258753,38.5926687 30.7733162,38.6712087 30.4202418,38.982802 C30.0671673,39.2933687 29.8573844,39.7933554 29.7821306,40.4745487 C29.7774917,40.496622 29.7749145,40.5192087 29.7728527,40.5417954 C28.3971509,40.7389154 27.4260673,40.595182 26.883312,40.1567954 C26.7018781,40.0104954 26.4585918,39.9355487 26.2261296,39.9642954 C24.9246508,40.1290754 24.1045903,39.8980754 23.6360579,39.4345354 C23.1675255,38.972022 22.8742418,38.103462 23.0659844,36.566542 C23.0706234,36.5300954 23.0757777,36.497242 23.0757777,36.4607954 C23.1773188,36.4258887 23.2778291,36.4027887 23.3654534,36.3930354 C23.6283264,36.364802 23.8716127,36.4120287 24.2741691,36.6625354 C24.5411656,36.8524687 24.9133112,36.7924087 25.1055693,36.5290687 C25.2978273,36.2652154 25.2370057,35.8976687 24.9700093,35.7077354 C24.9509381,35.6943887 24.9318669,35.6820687 24.9117649,35.6712887 C24.4937453,35.4105154 24.0659325,35.2539487 23.6463667,35.219042 C23.5056523,35.2072354 23.368546,35.203642 23.2304089,35.219042 C23.1092811,35.2318754 22.9881534,35.2657554 22.8732109,35.2955287 C22.7866175,34.5578687 22.8500162,34.0476154 22.979391,33.688282 C23.1139201,33.3135487 23.3242184,33.0425087 23.6463667,32.7740354 C23.9788236,33.0435354 24.508693,33.4737087 25.2694783,33.688282 C25.7885235,33.8350954 26.4065326,33.8735954 27.1157742,33.7365354 C27.1575246,33.737562 27.1997904,33.7339687 27.2410254,33.726782 C27.3451437,33.706762 27.4461694,33.677502 27.5410098,33.6400287 C27.543587,33.6395154 27.5379172,33.6318154 27.5410098,33.6307887 C27.7420303,33.5738087 27.9554213,33.5060487 28.1688123,33.418782 C29.118763,33.032242 29.7347104,33.078442 30.1692239,33.226282 C30.603222,33.374122 30.87795,33.6477287 31.058353,33.8612754 C31.2681359,34.111782 31.6438896,34.147202 31.8974847,33.939302 C32.1510798,33.7324287 32.1866449,33.3607754 31.9763466,33.110782 C31.7299676,32.818182 31.2748366,32.354642 30.5558018,32.109782 C30.0156236,31.9260087 29.3300922,31.875702 28.5358035,32.0615287 C28.5677606,31.635462 28.5291029,31.2653487 28.5358035,31.1662754 C28.5626063,30.8433887 28.3182891,30.559002 27.9909865,30.532822 C27.9667609,30.5307687 27.9420199,30.5302554 27.9177944,30.531282 C27.609563,30.5441154 27.3626686,30.7858954 27.3472055,31.0897887 C27.3188564,31.489162 27.3843169,31.8746754 27.3379276,32.1677887 C27.3142175,32.3140887 27.2611275,32.405462 27.2219542,32.456282 C27.2033985,32.4798954 27.1899971,32.507102 27.1637098,32.524042 C26.4972496,32.7093554 26.0029453,32.667262 25.5983272,32.5527887 C25.1004149,32.4121354 24.7323928,32.1410954 24.4195224,31.8890487 C24.7818747,31.1323954 25.0117597,30.4707087 25.4050382,29.935302 C25.8508914,29.3275154 26.5132281,28.775682 28.0719101,28.318302 C28.2255104,28.2731287 28.3615858,28.185862 28.4682813,28.0683087 C28.7909449,27.7105154 29.0981455,27.445122 29.3574104,27.317302 C29.5630698,27.215662 29.7388339,27.1674087 30.0047994,27.211042 C30.1949958,27.5980954 30.4784862,28.0046554 30.701155,28.472302 C30.7027014,28.4943754 30.7063094,28.516962 30.7104329,28.5395487 C30.7516679,28.7392354 30.7078557,28.7951887 30.5650796,28.934302 C30.422819,29.072902 30.1614923,29.2089354 29.9372772,29.3003087 C29.6331693,29.4265887 29.4909086,29.7725754 29.618737,30.0733887 C29.7465654,30.3736887 30.0970627,30.514342 30.4011706,30.3875487 C30.6923926,30.2689687 31.0738161,30.0959754 31.4062731,29.7715487 C31.5990466,29.9363287 31.8119221,30.0420754 32.0150044,30.089302 C32.4495179,30.1904287 32.8319723,30.1303687 32.9721712,30.127802 C33.3005046,30.140122 33.576779,29.8870487 33.5896649,29.562622 C33.6020354,29.2381954 33.3453477,28.965102 33.0170142,28.952782 C32.9953658,28.9517554 32.9742329,28.9522687 32.9531,28.9538087 C32.6752794,28.9594554 32.436632,28.9769087 32.2954022,28.9440554 C32.1546878,28.911202 32.1278851,28.9430287 32.0541776,28.6843087 C31.8392403,27.927142 31.4284369,27.2890687 31.2037063,26.932302 C31.8114067,26.345562 32.2206638,26.248542 32.7500178,26.4122954 C32.9773255,26.4831354 33.2288589,26.451822 33.4360646,26.3352954 C34.5025041,25.7290487 35.0148486,25.8686754 35.774603,26.1042954 C35.7514083,26.3927887 35.7694486,26.7249154 35.8132608,27.1150487 C35.9024314,27.9045554 36.0967512,28.8978554 36.3544698,29.8002954 C36.3915813,29.930682 36.3457074,30.3854954 36.1225231,30.7242954 C35.8998542,31.0630954 35.5926537,31.3007687 35.0885561,31.3017954 C34.7597072,31.284342 34.4798249,31.5327954 34.4617846,31.8567087 C34.4442597,32.1811354 34.695793,32.4583354 35.0241265,32.4757887 C35.0457749,32.4768154 35.0674232,32.4768154 35.0885561,32.4757887 C36.0137658,32.4737354 36.734347,31.9578354 37.128141,31.3592887 C37.4219402,30.911662 37.5822411,30.429642 37.5724478,29.9542954 C37.7492428,30.001522 37.9203679,30.038482 38.0652057,30.060042 C38.390962,30.107782 38.6935236,29.8855087 38.7419747,29.5636487 C38.7899104,29.242302 38.5651798,28.9430287 38.2394235,28.895802 C38.0224244,28.8629487 37.7126467,28.7844087 37.5049255,28.6837954 C37.2972044,28.583182 37.2817412,28.516962 37.2827721,28.5297954 C37.2750406,28.452282 37.2518459,28.376822 37.2152499,28.3085487 C37.1162859,27.8337154 37.0363932,27.3655554 36.992581,26.9805554 C36.955985,26.6530487 36.955985,26.4015154 36.9632011,26.248542 C36.9848494,26.2249287 37.0044361,26.1987487 37.0219609,26.1720554 C37.7626441,25.8337687 38.460546,25.660262 39.1481392,25.671042 C40.2851936,25.689522 41.3949298,26.2244154 42.5974447,27.3552887 C42.590744,27.368122 42.5845587,27.3809554 42.5783735,27.3937887 C42.4541531,27.689982 42.0325255,28.532362 41.1964865,28.9147954 C40.8975329,29.0518554 40.7681582,29.402462 40.9073262,29.6976287 C41.0454634,29.992282 41.4000841,30.1206154 41.6990377,29.983042 C42.9809299,29.3968154 43.5154382,28.2377087 43.6798627,27.8465487 C43.6922332,27.8152354 43.7020265,27.7828954 43.7087272,27.750042 C44.1839602,27.7510687 44.5514669,27.877862 44.907634,28.1160487 C45.2302977,28.332162 45.5508996,28.657102 45.8446988,29.088302 C45.8395444,29.0965154 45.8153188,29.136042 45.8153188,29.136042 C45.793155,29.1663287 45.7735684,29.1986687 45.7575899,29.2320354 C45.7575899,29.2320354 45.6931602,29.379362 45.6318232,29.5112887 C45.5957426,29.5836687 45.556054,29.6606687 45.5256432,29.7325354 C45.4199785,29.9332487 45.2875112,30.157062 45.129272,30.3582887 C44.9421683,30.5969887 44.7313545,30.766902 44.588063,30.8202887 C44.4447714,30.8741887 44.3793109,30.896262 44.1432407,30.7242954 C43.8772751,30.5317954 43.5035832,30.5887754 43.3087479,30.8526287 C43.1139127,31.1154554 43.1716417,31.484542 43.4381227,31.677042 C43.9319115,32.0384287 44.5452817,32.1031087 45.0138141,31.9270354 C45.1957634,31.858762 45.3519408,31.7550687 45.4962632,31.6482954 C45.6194527,31.9568087 45.7910933,32.263782 45.9993299,32.5722954 C46.1637544,32.853602 46.527653,32.9495954 46.8126897,32.7868687 C47.0972111,32.624142 47.1941132,32.2648087 47.0296888,31.983502 C47.015772,31.9609154 47.0008243,31.938842 46.9848458,31.9177954 C46.6791915,31.4640087 46.5338382,31.139582 46.5013657,30.8690554 C46.4709549,30.609822 46.5235295,30.3439154 46.752899,29.9358154 C48.020359,30.212502 48.4156993,30.7910287 48.6177507,31.9177954 C48.660532,32.1508487 48.8017617,32.359262 49.0043285,32.4860554 C49.5486302,32.827422 49.9336617,33.1143754 50.1058178,33.4485554 C50.2532328,33.732942 50.3346719,34.144122 50.1254044,34.9213087 C49.8790254,35.0768487 49.4300796,35.145122 48.9847419,35.1138087 C48.7430019,35.0963554 48.5079626,35.0563154 48.3270441,35.0075487 C48.1471565,34.958782 47.9987106,34.874082 48.0373684,34.9012887 C47.7683102,34.7118687 47.3946183,34.7729554 47.2023602,35.0393754 C47.0101022,35.305282 47.0724701,35.6743687 47.3415283,35.8637887 C47.5538884,36.013682 47.7502699,36.073742 48.0079885,36.143042 C48.2662225,36.2128554 48.5713613,36.264702 48.8976331,36.287802 C49.2625626,36.3134687 49.6656344,36.307822 50.0573667,36.210802 C50.4697164,37.7857087 50.2949832,38.6758287 49.8645932,39.1563087 L49.8645932,39.1563087 Z" id="attitude-icon-copy-3" opacity="0.3" fill="#000000"></path>
                    <circle id="Oval-20-Copy-7" stroke="#414141" stroke-width="3" cx="37.8511449" cy="37.9228113" r="36.9322518"></circle>
                    <ellipse id="Oval-20-Copy-17" fill="#414141" cx="37.8511449" cy="37.9228113" rx="32.6538393" ry="32.6538393"></ellipse>
                    <g id="Oval-20-Copy-12-+-Type-something-Copy-Copy-Copy-Copy-Copy" transform="translate(10.000000, 9.000000)">
                        <path d="M27.8511449,54.3802482 C13.8340209,54.3802482 2.47089671,43.017124 2.47089671,29 C2.47089671,14.982876 13.8340209,3.6197518 27.8511449,3.6197518 C41.8682689,3.6197518 53.2313931,14.982876 53.2313931,29 C53.2313931,43.017124 41.8682689,54.3802482 27.8511449,54.3802482 L27.8511449,54.3802482 Z" id="Oval-20-Copy-12"></path>
                        <path d="M4.20049955,19.6336539 C4.52165448,18.6444828 4.08629509,17.7671646 3.14943591,17.4629938 C2.22208798,17.161911 1.34964901,17.6146254 1.02695006,18.6085521 L0.644034569,19.7879484 L3.81604004,20.8178058 L4.20049955,19.6336539 Z M3.70912561,19.4793761 L3.50685976,20.1023636 L1.31451415,19.3905731 L1.51832401,18.7628299 C1.7468381,18.0589966 2.35543352,17.8360356 2.96415421,18.0336694 C3.56811927,18.2297592 3.93300765,18.7898096 3.70912561,19.4793761 L3.70912561,19.4793761 Z M6.893188,14.3820932 L5.35094269,14.4819901 C5.48597836,14.0946719 5.3850528,13.597139 4.86575973,13.317077 C4.32006193,13.0227746 3.73950852,13.2039037 3.42621886,13.7848078 L2.73081075,15.0742389 L5.66613684,16.657301 L5.9438254,16.1424087 L4.848029,15.5514305 L5.12571756,15.0365382 L6.57040472,14.9806005 L6.893188,14.3820932 Z M4.77686621,14.5984427 L4.39474776,15.3069697 L3.46178055,14.8038075 L3.843899,14.0952805 C4.00054383,13.8048284 4.29489968,13.6909002 4.57655016,13.8427983 C4.86260143,13.9970697 4.93351104,14.3079906 4.77686621,14.5984427 L4.77686621,14.5984427 Z M9.80962945,10.837088 L6.3696451,9.83467456 L5.92331876,10.4123361 L7.76141953,13.4880003 L8.16800449,12.9617744 L7.80739941,12.3735449 L8.7428505,11.1628297 L9.4030445,11.3633139 L9.80962945,10.837088 Z M8.23444021,10.978523 L7.50075308,11.9281035 L6.60940244,10.4811778 L8.23444021,10.978523 Z M11.3944818,9.65473758 L10.5496145,8.73348886 L11.2018586,8.1353228 C11.7140729,7.66557656 11.6804529,7.05190344 11.2985728,6.63549902 C10.9133133,6.21540961 10.3085191,6.12555423 9.79261986,6.59867994 L8.70923137,7.59224392 L10.9633374,10.0501355 L11.3944818,9.65473758 Z M10.7948133,7.80983983 L10.2015291,8.35393439 L9.48846111,7.57640048 L10.0817453,7.03230592 C10.3249549,6.80926094 10.6400874,6.80519567 10.8563734,7.04103534 C11.06928,7.27319002 11.038023,7.58679486 10.7948133,7.80983983 L10.7948133,7.80983983 Z M16.086144,6.35097689 L15.8023473,5.9212276 L14.3837574,6.85803215 L13.8712702,6.08198003 L15.2606539,5.16446264 L14.9768572,4.73471336 L13.5874736,5.65223075 L13.1135607,4.93459116 L14.5321506,3.99778662 L14.2483539,3.56803733 L12.3416022,4.82721285 L14.1793923,7.61015241 L16.086144,6.35097689 Z M19.9558524,4.69217699 L18.664432,3.84321689 C19.0054751,3.61531439 19.2245061,3.15732922 18.9785727,2.62103009 C18.7201342,2.05746151 18.1475718,1.85246813 17.547644,2.12758009 L16.215986,2.73824526 L17.606135,5.76969881 L18.1378892,5.52584958 L17.6189281,4.39416752 L18.1506823,4.15031828 L19.3377449,4.97562567 L19.9558524,4.69217699 Z M18.1359875,3.59048879 L17.4042574,3.92604201 L16.9624109,2.96252154 L17.6941411,2.62696832 C17.994105,2.48941234 18.297712,2.57571285 18.4310996,2.86658696 C18.5665714,3.16200597 18.4359514,3.45293281 18.1359875,3.59048879 L18.1359875,3.59048879 Z M25.1803956,3.75456433 C26.135548,3.58549663 26.5065426,2.95620102 26.3627479,2.14382913 L26.0115403,0.159672335 L25.4256478,0.26337881 L25.774241,2.23276521 C25.8666182,2.7546526 25.6362661,3.14578925 25.0897613,3.24252386 C24.5432566,3.33925848 24.1926398,3.05095682 24.1002626,2.52906942 L23.7516694,0.559683023 L23.1657769,0.663389498 L23.5169846,2.64754629 C23.6607793,3.45991818 24.2301666,3.92276054 25.1803956,3.75456433 L25.1803956,3.75456433 Z M31.2192371,3.6354575 L31.2350779,0.300495123 L30.6500845,0.297716449 L30.6391123,2.60769039 L28.9451038,0.28961792 L28.3451105,0.286767998 L28.3292697,3.62173038 L28.9142631,3.62450905 L28.9255916,1.23953596 L30.6542435,3.63277383 L31.2192371,3.6354575 Z M33.4822774,4.22870666 L34.0970152,0.950853335 L33.5220394,0.843020766 L32.9073016,4.12087409 L33.4822774,4.22870666 Z M36.7529222,5.13576298 L38.9220018,2.28384806 L38.2821598,2.10266517 L36.5761022,4.42052896 L36.3385796,1.55230511 L35.6987377,1.37112222 L36.0505392,4.93687048 L36.7529222,5.13576298 Z M41.2328345,7.26850312 L41.456388,6.80455398 L39.9249054,6.06661018 L40.3286041,5.22879911 L41.8285562,5.95154995 L42.0521097,5.48760081 L40.5521577,4.76484997 L40.9254704,3.99009995 L42.456953,4.72804376 L42.6805066,4.26409462 L40.6220138,3.27221133 L39.1743417,6.27661983 L41.2328345,7.26850312 Z M44.6375027,9.73847913 L44.7041302,8.19443873 C45.07467,8.37036556 45.5801739,8.3235601 45.9144855,7.83741631 C46.2657959,7.32655334 46.1481855,6.72988108 45.6043637,6.35590544 L44.3972439,5.52579285 L42.5075337,8.27374122 L42.9895576,8.60521963 L43.6950117,7.57937383 L44.1770356,7.91085224 L44.0772014,9.3531709 L44.6375027,9.73847913 Z M44.6501239,7.61116493 L43.986826,7.15502798 L44.5874535,6.28161711 L45.2507514,6.73775406 C45.5226623,6.92474188 45.6042566,7.22964738 45.4229351,7.49331859 C45.2387805,7.76110966 44.9220348,7.79815275 44.6501239,7.61116493 L44.6501239,7.61116493 Z M46.470967,11.7762013 C47.1164306,12.3962027 47.7338147,12.3236642 48.1182849,11.9234047 C48.9772813,11.0291311 47.3114713,9.96287494 47.7444332,9.51213221 C47.9141542,9.33544106 48.1905813,9.36524162 48.4357854,9.60077289 C48.6882013,9.84323154 48.8610945,10.1756965 48.8686336,10.5503873 L49.4079672,10.4652742 C49.3958264,10.0376323 49.207087,9.62061618 48.835675,9.26385558 C48.3056016,8.75469241 47.6650171,8.72868274 47.2805469,9.12894228 C46.4319416,10.012398 48.1323885,11.0425948 47.6474712,11.5474266 C47.4916049,11.709694 47.1953914,11.7510166 46.849221,11.4185018 C46.5138684,11.0963782 46.4030372,10.684867 46.4104909,10.3523096 L45.8573025,10.4518464 C45.8589099,10.8832365 46.0274362,11.3501668 46.470967,11.7762013 L46.470967,11.7762013 Z M48.6320972,14.3952902 L51.2863155,12.3760453 L50.9321151,11.9104628 L48.2778968,13.9297077 L48.6320972,14.3952902 Z M50.2971916,17.0167758 L52.6871054,15.519875 L53.2232294,16.3758371 L53.6596853,16.1024669 L52.27691,13.8947628 L51.8404541,14.168133 L52.3765781,15.024095 L49.9866643,16.5209958 L50.2971916,17.0167758 Z M51.9231661,20.7149065 L53.1954289,20.1675745 L55.4964908,20.5819583 L55.2317165,19.9664955 L53.5611149,19.6891147 L54.5085269,18.2854551 L54.2437526,17.6699922 L52.9642454,19.6301928 L51.6919825,20.1775248 L51.9231661,20.7149065 Z" id="DRAPER-UNIVERSITY" fill="#FFFFFF"></path>
                    </g>
                    <g id="Oval-20-Copy-12-+-Type-something-Copy-Copy-Copy-Copy" transform="translate(38.000000, 38.000000) rotate(-180.000000) translate(-38.000000, -38.000000) translate(9.000000, 9.000000)">
                        <ellipse id="Oval-20-Copy-12" cx="28.8511449" cy="29" rx="28.8078483" ry="28.8078483"></ellipse>
                        <path d="M36.0175482,0.989351997 L35.8494576,1.47614822 L37.2389536,1.95594069 L36.3185354,4.62150448 L36.8714981,4.8124423 L37.9600069,1.66008229 L36.0175482,0.989351997 Z M32.2718595,0.271112726 L32.1650633,0.774917819 L33.8281092,1.12744897 L33.6352539,2.03723292 L32.0064472,1.69195977 L31.899651,2.19576486 L33.5284577,2.54103802 L33.3501185,3.38234361 L31.6870725,3.02981246 L31.5802763,3.53361755 L33.8156057,4.00746089 L34.5071889,0.744956066 L32.2718595,0.271112726 Z M29.0721473,0.062273518 C28.4987364,0.0195546722 28.0118334,0.228959579 27.6606143,0.568805434 L27.5681188,1.81036476 L29.1437523,1.92774872 L29.1820135,1.41417197 L28.1847771,1.33987833 L28.2230383,0.826301576 C28.3833964,0.692846343 28.6940828,0.560562793 29.0331432,0.585822632 C29.6913192,0.634856438 30.1420753,1.17985089 30.0904412,1.8729302 C30.0380642,2.57598186 29.5122715,3.03819618 28.8540955,2.98916238 C28.485118,2.96167373 28.1854758,2.74381013 28.0245467,2.48112817 L27.5304286,2.7200787 C27.7664647,3.11871635 28.1672591,3.45943444 28.8154628,3.50772531 C29.7827821,3.57979014 30.6107747,2.96460461 30.6887831,1.91750638 C30.7664199,0.875394336 30.0394667,0.134338353 29.0721473,0.062273518 L29.0721473,0.062273518 Z M23.1259025,0.562207512 L24.7029662,3.77953483 L25.4305448,3.72012597 L26.4647905,0.289577789 L25.8019963,0.343696823 L25.6103004,1.00649594 L24.0853754,1.13101041 L23.7886967,0.508088478 L23.1259025,0.562207512 Z M24.2917398,1.63087412 L25.4877594,1.53321571 L25.019147,3.16677085 L24.2917398,1.63087412 Z M19.8440438,1.52503126 L19.9634034,2.0260086 L21.3933775,1.68531231 L22.0469581,4.42852801 L22.6160295,4.2929448 L21.8430893,1.04875177 L19.8440438,1.52503126 Z" id="LEGAL" fill="#FFFFFF"></path>
                    </g>
                    <ellipse id="Oval-20-Copy-16" fill="#1A1A1A" cx="37.8369781" cy="37.8369781" rx="21.8369781" ry="21.8369781"></ellipse>
                </g>
                <g id="Group-Copy" transform="translate(30.000000, 29.000000)" fill="#FFFFFF" sketch:type="MSShapeGroup">
                    <path d="M11.1717288,15.084204 L0.765085231,15.084204 C0.469440208,15.084204 0.229496422,14.8412925 0.229496422,14.5412984 L0.229496422,0.918711136 C0.229496422,0.619027247 0.469440208,0.37580554 0.765085231,0.37580554 L11.1717288,0.37580554 C11.4676799,0.37580554 11.7073176,0.619027247 11.7073176,0.918711136 L11.7073176,14.5412984 C11.7073176,14.8412925 11.4676799,15.084204 11.1717288,15.084204 L11.1717288,15.084204 Z M1.30067404,13.9983928 L10.63614,13.9983928 L10.63614,1.46161673 L1.30067404,1.46161673 L1.30067404,13.9983928 Z" id="Fill-1"></path>
                    <path d="M12.4559178,18.9897117 C12.4170493,18.9897117 12.3775688,18.9853685 12.3377822,18.9763717 L3.60768458,16.989027 C3.31907872,16.9235681 3.13759063,16.6328809 3.20247339,16.3403324 C3.26735615,16.0480941 3.5547378,15.8638164 3.8424255,15.9298958 L12.0500945,17.7981115 L14.7607859,5.56598304 L13.0037486,5.16609429 C12.7154488,5.10032516 12.5339607,4.80994822 12.5988435,4.51770989 C12.6637262,4.22516133 12.9486595,4.04150413 13.2387956,4.1066528 L15.5182615,4.62567055 C15.6565965,4.65731419 15.7774865,4.74355862 15.8533871,4.86516947 C15.9292877,4.98678033 15.9546899,5.13383019 15.9231667,5.27467541 L12.9777343,18.5659351 C12.921727,18.8181535 12.7007584,18.9897117 12.4559178,18.9897117" id="Fill-2"></path>
                    <path d="M9.0367188,3.85412414 L2.86183891,3.85412414 C2.60812284,3.85412414 2.40276278,3.64595862 2.40276278,3.38877648 C2.40276278,3.13190458 2.60812284,2.92342883 2.86183891,2.92342883 L9.0367188,2.92342883 C9.29012882,2.92342883 9.49579493,3.13190458 9.49579493,3.38877648 C9.49579493,3.64595862 9.29012882,3.85412414 9.0367188,3.85412414" id="Fill-3"></path>
                    <path d="M9.0367188,5.72265008 L2.86183891,5.72265008 C2.60812284,5.72265008 2.40276278,5.51448457 2.40276278,5.25730243 C2.40276278,5.00043053 2.60812284,4.79195478 2.86183891,4.79195478 L9.0367188,4.79195478 C9.29012882,4.79195478 9.49579493,5.00043053 9.49579493,5.25730243 C9.49579493,5.51448457 9.29012882,5.72265008 9.0367188,5.72265008" id="Fill-4"></path>
                    <path d="M9.0367188,7.53936733 L2.86183891,7.53936733 C2.60812284,7.53936733 2.40276278,7.33120181 2.40276278,7.07401967 C2.40276278,6.81714777 2.60812284,6.60867202 2.86183891,6.60867202 L9.0367188,6.60867202 C9.29012882,6.60867202 9.49579493,6.81714777 9.49579493,7.07401967 C9.49579493,7.33120181 9.29012882,7.53936733 9.0367188,7.53936733" id="Fill-5"></path>
                    <path d="M9.0367188,9.29372798 L2.86183891,9.29372798 C2.60812284,9.29372798 2.40276278,9.08556246 2.40276278,8.82838033 C2.40276278,8.57150842 2.60812284,8.36303267 2.86183891,8.36303267 L9.0367188,8.36303267 C9.29012882,8.36303267 9.49579493,8.57150842 9.49579493,8.82838033 C9.49579493,9.08556246 9.29012882,9.29372798 9.0367188,9.29372798" id="Fill-6"></path>
                    <path d="M5.45255849,12.9240601 L2.86183891,12.9240601 C2.60812284,12.9240601 2.40276278,12.7155844 2.40276278,12.4587125 C2.40276278,12.2018406 2.60812284,11.9933648 2.86183891,11.9933648 L5.45255849,11.9933648 C5.70627456,11.9933648 5.91163461,12.2018406 5.91163461,12.4587125 C5.91163461,12.7155844 5.70627456,12.9240601 5.45255849,12.9240601" id="Fill-7"></path>
                </g>
            </g>
        </g>
    </g>
</svg>