<?xml version="1.0" encoding="UTF-8" standalone="no"?>
<svg width="40px" height="40px" viewBox="0 0 40 40" version="1.1" xmlns="http://www.w3.org/2000/svg" xmlns:xlink="http://www.w3.org/1999/xlink" xmlns:sketch="http://www.bohemiancoding.com/sketch/ns">
    <!-- Generator: Sketch 3.3.3 (12081) - http://www.bohemiancoding.com/sketch -->
    <title>networkingdone</title>
    <desc>Created with Sketch.</desc>
    <defs></defs>
    <g id="Main-Attraction" stroke="none" stroke-width="1" fill="none" fill-rule="evenodd" sketch:type="MSPage">
        <g id="TRACK-ICONS" sketch:type="MSArtboardGroup" transform="translate(-328.000000, -109.000000)">
            <g id="networkingdone" sketch:type="MSLayerGroup" transform="translate(328.000000, 109.000000)">
                <circle id="Oval-20-Copy-16" stroke="#F38F31" opacity="0.8" sketch:type="MSShapeGroup" cx="20" cy="20" r="20"></circle>
                <g id="Shape" transform="translate(11.000000, 12.000000)" fill="#F6A65B" sketch:type="MSShapeGroup">
                    <path d="M2.4149373,6.33105185 C1.08328314,6.33105185 0,7.41433499 0,8.74598916 C0,10.0776433 1.08328314,11.1609265 2.4149373,11.1609265 C3.04988228,11.1609265 3.6267864,10.9125554 4.05825987,10.5104309 L11.3111756,14.2784866 C11.2213766,14.531019 11.1699064,14.8015113 11.1699064,15.0842687 C11.1699064,16.4159229 12.2531895,17.499206 13.5848437,17.499206 C14.9164978,17.499206 15.999781,16.4159229 15.999781,15.0842687 C15.999781,13.7526146 14.9164978,12.6693314 13.5848437,12.6693314 C12.8502437,12.6693314 12.1925204,13.0000548 11.7492197,13.518918 L4.58566501,9.79729508 C4.74051361,9.47905601 4.82987461,9.12314516 4.82987461,8.74598916 C4.82987461,8.52171056 4.79680228,8.30509774 4.73919947,8.09877895 L11.7485627,3.9791929 C12.1920824,4.49893227 12.8502437,4.82987461 13.5850627,4.82987461 C14.9167169,4.82987461 16,3.74659147 16,2.4149373 C16,1.08328314 14.9167169,0 13.5850627,0 C12.2534085,0 11.1701254,1.08328314 11.1701254,2.4149373 C11.1701254,2.69769479 11.2213766,2.96796802 11.3111756,3.22050047 L4.35218748,7.31008049 C3.91173411,6.71740678 3.20845425,6.33105185 2.4149373,6.33105185 L2.4149373,6.33105185 Z M13.5850627,13.5454197 C14.4337732,13.5454197 15.1239117,14.2357773 15.1239117,15.0842687 C15.1239117,15.9329792 14.4335542,16.6231178 13.5850627,16.6231178 C12.7365712,16.6231178 12.0462137,15.9327602 12.0462137,15.0842687 C12.0462137,14.2355582 12.7363522,13.5454197 13.5850627,13.5454197 L13.5850627,13.5454197 Z M13.5850627,0.876088266 C14.4337732,0.876088266 15.1239117,1.56644582 15.1239117,2.4149373 C15.1239117,3.26364781 14.4335542,3.95378634 13.5850627,3.95378634 C12.7365712,3.95378634 12.0462137,3.26342879 12.0462137,2.4149373 C12.0462137,1.56644582 12.7363522,0.876088266 13.5850627,0.876088266 L13.5850627,0.876088266 Z M2.4149373,10.2848382 C1.5662268,10.2848382 0.876088266,9.59448064 0.876088266,8.74598916 C0.876088266,7.89749767 1.56644582,7.20714012 2.4149373,7.20714012 C3.26342879,7.20714012 3.95378634,7.89749767 3.95378634,8.74598916 C3.95378634,9.59448064 3.26364781,10.2848382 2.4149373,10.2848382 L2.4149373,10.2848382 Z"></path>
                </g>
            </g>
        </g>
    </g>
</svg>