<?xml version="1.0" encoding="UTF-8" standalone="no"?>
<svg width="40px" height="40px" viewBox="0 0 40 40" version="1.1" xmlns="http://www.w3.org/2000/svg" xmlns:xlink="http://www.w3.org/1999/xlink" xmlns:sketch="http://www.bohemiancoding.com/sketch/ns">
    <!-- Generator: Sketch 3.3.3 (12081) - http://www.bohemiancoding.com/sketch -->
    <title>pitchingdone</title>
    <desc>Created with Sketch.</desc>
    <defs></defs>
    <g id="Main-Attraction" stroke="none" stroke-width="1" fill="none" fill-rule="evenodd" sketch:type="MSPage">
        <g id="TRACK-ICONS" sketch:type="MSArtboardGroup" transform="translate(-328.000000, -59.000000)">
            <g id="pitchingdone" sketch:type="MSLayerGroup" transform="translate(328.000000, 59.000000)">
                <circle id="Oval-20-Copy-17" stroke="#F38F31" opacity="0.8" sketch:type="MSShapeGroup" cx="20" cy="20" r="20"></circle>
                <g id="noun_82926_cc" transform="translate(12.000000, 12.000000)" fill="#F6A65B" sketch:type="MSShapeGroup">
                    <path d="M15.572093,12.4571429 L15.0139535,12.4571429 L15.0139535,1.18095238 L15.572093,1.18095238 C15.7209302,1.18095238 15.8325581,1.06666667 15.8325581,0.914285714 C15.8325581,0.761904762 15.7209302,0.647619048 15.572093,0.647619048 L8.26046512,0.647619048 L8.26046512,0.266666667 C8.26046512,0.114285714 8.14883721,0 8,0 C7.85116279,0 7.73953488,0.114285714 7.73953488,0.266666667 L7.73953488,0.60952381 L0.427906977,0.60952381 C0.279069767,0.60952381 0.16744186,0.723809524 0.16744186,0.876190476 C0.16744186,1.02857143 0.279069767,1.14285714 0.427906977,1.14285714 L0.986046512,1.14285714 L0.986046512,12.4190476 L0.427906977,12.4190476 C0.279069767,12.4190476 0.16744186,12.5333333 0.16744186,12.6857143 C0.16744186,12.8380952 0.279069767,12.952381 0.427906977,12.952381 L5.80465116,12.952381 L2.21395349,16.6666667 C2.10232558,16.7809524 2.10232558,16.952381 2.21395349,17.047619 C2.26976744,17.1047619 2.34418605,17.1238095 2.4,17.1238095 C2.4744186,17.1238095 2.53023256,17.1047619 2.58604651,17.047619 L6.54883721,12.9904762 L7.72093023,12.9904762 L7.72093023,16.0761905 C7.72093023,16.2285714 7.83255814,16.3428571 7.98139535,16.3428571 C8.13023256,16.3428571 8.24186047,16.2285714 8.24186047,16.0761905 L8.24186047,13.0095238 L9.41395349,13.0095238 L13.3767442,17.0666667 C13.4325581,17.1238095 13.5069767,17.1428571 13.5627907,17.1428571 C13.6372093,17.1428571 13.6930233,17.1238095 13.7488372,17.0666667 C13.8604651,16.952381 13.8604651,16.7809524 13.7488372,16.6857143 L10.2139535,13.0095238 L15.5906977,13.0095238 C15.7395349,13.0095238 15.8511628,12.8952381 15.8511628,12.7428571 C15.8511628,12.5714286 15.7209302,12.4571429 15.572093,12.4571429 L15.572093,12.4571429 Z M14.4930233,12.4571429 L1.50697674,12.4571429 L1.50697674,1.18095238 L14.4930233,1.18095238 L14.4930233,12.4571429 L14.4930233,12.4571429 Z" id="Shape"></path>
                    <g id="Group" transform="translate(2.604651, 8.000000)">
                        <path d="M2.90232558,3.37142857 L0.297674419,3.37142857 C0.148837209,3.37142857 0.0372093023,3.25714286 0.0372093023,3.1047619 L0.0372093023,0.419047619 C0.0372093023,0.266666667 0.148837209,0.152380952 0.297674419,0.152380952 L2.92093023,0.152380952 C3.06976744,0.152380952 3.18139535,0.266666667 3.18139535,0.419047619 L3.18139535,3.1047619 C3.18139535,3.23809524 3.05116279,3.37142857 2.90232558,3.37142857 L2.90232558,3.37142857 Z M0.558139535,2.81904762 L2.64186047,2.81904762 L2.64186047,0.685714286 L0.558139535,0.685714286 L0.558139535,2.81904762 L0.558139535,2.81904762 Z" id="Shape"></path>
                        <path d="M6.69767442,3.37142857 L4.09302326,3.37142857 C3.94418605,3.37142857 3.83255814,3.25714286 3.83255814,3.1047619 L3.83255814,0.419047619 C3.83255814,0.266666667 3.94418605,0.152380952 4.09302326,0.152380952 L6.69767442,0.152380952 C6.84651163,0.152380952 6.95813953,0.266666667 6.95813953,0.419047619 L6.95813953,3.1047619 C6.97674419,3.23809524 6.84651163,3.37142857 6.69767442,3.37142857 L6.69767442,3.37142857 Z M4.35348837,2.81904762 L6.4372093,2.81904762 L6.4372093,0.685714286 L4.35348837,0.685714286 L4.35348837,2.81904762 L4.35348837,2.81904762 Z" id="Shape"></path>
                        <path d="M10.4930233,3.37142857 L7.88837209,3.37142857 C7.73953488,3.37142857 7.62790698,3.25714286 7.62790698,3.1047619 L7.62790698,0.419047619 C7.62790698,0.266666667 7.73953488,0.152380952 7.88837209,0.152380952 L10.5116279,0.152380952 C10.6604651,0.152380952 10.772093,0.266666667 10.772093,0.419047619 L10.772093,3.1047619 C10.772093,3.23809524 10.6418605,3.37142857 10.4930233,3.37142857 L10.4930233,3.37142857 Z M8.14883721,2.81904762 L10.2325581,2.81904762 L10.2325581,0.685714286 L8.14883721,0.685714286 L8.14883721,2.81904762 L8.14883721,2.81904762 Z" id="Shape"></path>
                    </g>
                    <path d="M10.5116279,6.17142857 L5.48837209,6.17142857 C5.33953488,6.17142857 5.22790698,6.04897959 5.22790698,5.88571429 C5.22790698,5.72244898 5.33953488,5.6 5.48837209,5.6 L10.4930233,5.6 C10.6418605,5.6 10.7534884,5.72244898 10.7534884,5.88571429 C10.772093,6.02857143 10.6604651,6.17142857 10.5116279,6.17142857 L10.5116279,6.17142857 Z" id="Shape"></path>
                    <path d="M8.91162791,7.23809524 L7.10697674,7.23809524 C6.95813953,7.23809524 6.84651163,7.11564626 6.84651163,6.95238095 C6.84651163,6.78911565 6.95813953,6.66666667 7.10697674,6.66666667 L8.91162791,6.66666667 C9.06046512,6.66666667 9.17209302,6.78911565 9.17209302,6.95238095 C9.17209302,7.0952381 9.06046512,7.23809524 8.91162791,7.23809524 L8.91162791,7.23809524 Z" id="Shape"></path>
                    <path d="M8,4.85714286 C7.2744186,4.85714286 6.69767442,4.24761905 6.69767442,3.52380952 C6.69767442,2.78095238 7.29302326,2.19047619 8,2.19047619 C8.70697674,2.19047619 9.30232558,2.8 9.30232558,3.52380952 C9.30232558,4.26666667 8.7255814,4.85714286 8,4.85714286 L8,4.85714286 Z M8,2.74285714 C7.57209302,2.74285714 7.2372093,3.1047619 7.2372093,3.52380952 C7.2372093,3.94285714 7.59069767,4.3047619 8,4.3047619 C8.40930233,4.3047619 8.7627907,3.94285714 8.7627907,3.52380952 C8.7627907,3.1047619 8.42790698,2.74285714 8,2.74285714 L8,2.74285714 Z" id="Shape"></path>
                </g>
            </g>
        </g>
    </g>
</svg>