<?xml version="1.0" encoding="UTF-8" standalone="no"?>
<svg width="40px" height="40px" viewBox="0 0 40 40" version="1.1" xmlns="http://www.w3.org/2000/svg" xmlns:xlink="http://www.w3.org/1999/xlink" xmlns:sketch="http://www.bohemiancoding.com/sketch/ns">
    <!-- Generator: Sketch 3.3.3 (12081) - http://www.bohemiancoding.com/sketch -->
    <title>protectiondone</title>
    <desc>Created with Sketch.</desc>
    <defs></defs>
    <g id="Main-Attraction" stroke="none" stroke-width="1" fill="none" fill-rule="evenodd" sketch:type="MSPage">
        <g id="TRACK-ICONS" sketch:type="MSArtboardGroup" transform="translate(-478.000000, -109.000000)">
            <g id="protectiondone" sketch:type="MSLayerGroup" transform="translate(478.000000, 109.000000)">
                <circle id="Oval-20-Copy-25" stroke="#414141" opacity="0.8" sketch:type="MSShapeGroup" cx="20" cy="20" r="20"></circle>
                <g id="Group" transform="translate(12.000000, 12.000000)" fill="#676767" sketch:type="MSShapeGroup">
                    <path d="M13.4222222,15.9822222 C12.6933333,15.9822222 12.0177778,15.7688889 11.2533333,15.3244444 C10.0088889,14.5955556 8.92444444,13.4577778 8.49777778,12.7466667 L6.72,14.2222222 C6.68444444,14.24 6.64888889,14.2577778 6.61333333,14.2755556 C6.45333333,14.3111111 6.25777778,14.3466667 6.04444444,14.3466667 L6.04444444,14.3466667 C5.42222222,14.3466667 4.74666667,14.1688889 4.71111111,14.1688889 C4.64,14.1511111 4.56888889,14.0977778 4.55111111,14.0266667 C4.53333333,13.9555556 4.51555556,13.8844444 4.55111111,13.8133333 L5.44,11.7155556 C5.22666667,11.3777778 4.67555556,10.4 4.60444444,9.45777778 C4.56888889,9.20888889 4.16,6.41777778 6.48888889,4.92444444 C7.32444444,4.40888889 8.28444444,4.14222222 9.33333333,4.14222222 C11.0933333,4.14222222 12.48,4.87111111 12.5333333,4.90666667 C13.4044444,5.33333333 14.4888889,6.41777778 14.7022222,8.01777778 C14.7022222,8.12444444 14.72,8.23111111 14.72,8.33777778 C14.7555556,8.92444444 14.7911111,9.74222222 15.1288889,10.4355556 C15.2888889,10.7022222 15.4844444,10.9511111 15.7155556,11.2 C15.8044444,11.3066667 15.8044444,11.4488889 15.7155556,11.5555556 C15.6266667,11.6622222 15.4666667,11.6622222 15.36,11.5733333 C15.0933333,11.3244444 14.8622222,11.04 14.6844444,10.6844444 C14.4355556,10.2577778 14.2933333,9.90222222 14.1866667,9.6 C14.0088889,9.13777778 13.9733333,9.06666667 13.8311111,9.06666667 C13.76,9.06666667 13.6711111,9.08444444 13.5644444,9.12 C12.8888889,9.33333333 12.6577778,9.56444444 12.5688889,9.67111111 C12.7111111,9.92 13.12,10.5244444 13.8133333,10.7022222 C13.8844444,10.72 13.9377778,10.7733333 13.9733333,10.8266667 C14.24,11.3244444 14.7377778,11.8222222 14.9866667,12.0355556 C15.0222222,12.0711111 15.0577778,12.1066667 15.0755556,12.16 C15.1111111,12.2844444 15.1466667,12.4622222 15.2,12.6933333 C15.3066667,13.2622222 15.5022222,14.2222222 15.8044444,14.5955556 C15.8222222,14.6311111 15.84,14.6488889 15.8577778,14.6844444 C15.9288889,14.9333333 15.9644444,15.2 15.84,15.4133333 C15.6622222,15.68 15.2888889,15.7333333 14.6666667,15.84 L14.5244444,15.8577778 C14.1511111,15.9288889 13.7955556,15.9822222 13.4222222,15.9822222 L13.4222222,15.9822222 Z M8.56888889,12.1066667 C8.58666667,12.1066667 8.62222222,12.1066667 8.64,12.1244444 C8.72888889,12.1422222 8.78222222,12.2133333 8.81777778,12.2844444 C8.97777778,12.7288889 10.08,14.0622222 11.5022222,14.8977778 C12.1955556,15.2888889 12.7822222,15.4666667 13.4222222,15.4666667 C13.76,15.4666667 14.08,15.4133333 14.4355556,15.36 L14.5777778,15.3422222 C14.8977778,15.2888889 15.36,15.2355556 15.3955556,15.1466667 C15.3955556,15.1466667 15.4133333,15.0933333 15.36,14.88 C15.0044444,14.4 14.8266667,13.4755556 14.6844444,12.8 C14.6488889,12.64 14.6133333,12.48 14.5955556,12.3733333 C14.3288889,12.1244444 13.8666667,11.6622222 13.5644444,11.1644444 C12.5333333,10.8444444 12.0533333,9.83111111 12.0355556,9.77777778 C12.0177778,9.74222222 12,9.68888889 12.0177778,9.63555556 C12.0355556,9.52888889 12.16,9.01333333 13.3866667,8.62222222 C13.76,8.49777778 14.0088889,8.53333333 14.1866667,8.65777778 C14.1866667,8.55111111 14.1688889,8.44444444 14.1688889,8.33777778 C14.1688889,8.23111111 14.1511111,8.14222222 14.1511111,8.05333333 C13.9555556,6.57777778 12.8711111,5.65333333 12.2666667,5.35111111 C12.2488889,5.33333333 10.9155556,4.64 9.29777778,4.64 C8.35555556,4.64 7.48444444,4.87111111 6.73777778,5.33333333 C4.62222222,6.68444444 5.08444444,9.31555556 5.08444444,9.35111111 L5.08444444,9.38666667 C5.15555556,10.3822222 5.90222222,11.52 5.90222222,11.52 C5.95555556,11.5911111 5.95555556,11.68 5.92,11.7688889 L5.10222222,13.7066667 C5.33333333,13.76 5.68888889,13.8133333 6.00888889,13.8133333 L6.00888889,13.8133333 C6.16888889,13.8133333 6.29333333,13.7955556 6.4,13.7777778 L8.37333333,12.1244444 C8.46222222,12.1244444 8.51555556,12.1066667 8.56888889,12.1066667 L8.56888889,12.1066667 Z" id="Shape"></path>
                    <path d="M5.17333333,12.0355556 C4.32,12.0355556 3.75111111,11.5733333 3.73333333,11.5555556 C3.71555556,11.5377778 3.69777778,11.5022222 3.68,11.4844444 C3.64444444,11.4133333 2.80888889,9.88444444 3.05777778,7.92888889 C3.23555556,6.52444444 3.96444444,4.65777778 5.52888889,3.69777778 C8.88888889,1.63555556 12.7822222,3.37777778 12.9422222,3.46666667 C13.0311111,3.50222222 13.0844444,3.59111111 13.0844444,3.68 C13.0844444,3.76888889 13.0488889,3.85777778 12.96,3.91111111 C12.96,3.91111111 12.4444444,4.23111111 11.9466667,4.99555556 C11.8755556,5.12 11.7155556,4.97777778 11.5911111,4.88888889 C11.4666667,4.81777778 11.4311111,4.83555556 11.52,4.71111111 C11.8044444,4.26666667 12.1066667,3.96444444 12.32,3.75111111 C11.2533333,3.37777778 8.32,2.57777778 5.79555556,4.12444444 C4.37333333,5.01333333 3.71555556,6.70222222 3.55555556,8 C3.36,9.61777778 3.96444444,10.9333333 4.10666667,11.2 C4.24888889,11.3066667 4.83555556,11.68 5.67111111,11.4666667 C5.81333333,11.4311111 5.77777778,11.52 5.81333333,11.6622222 C5.84888889,11.8044444 5.93777778,11.9466667 5.79555556,11.9822222 C5.56444444,12.0177778 5.36888889,12.0355556 5.17333333,12.0355556 L5.17333333,12.0355556 Z" id="Shape"></path>
                    <path d="M1.08444444,12.3377778 C0.977777778,12.3377778 0.888888889,12.2844444 0.853333333,12.1777778 C0.764444444,11.9644444 -1.28,7.02222222 1.70666667,3.25333333 C5.65333333,-1.99111111 13.2088889,0.728888889 13.2977778,0.746666667 C13.3688889,0.764444444 13.4222222,0.835555556 13.4577778,0.906666667 C13.4933333,0.977777778 13.4755556,1.04888889 13.44,1.12 L12.1955556,3.39555556 C12.1244444,3.52 11.9644444,3.57333333 11.84,3.50222222 C11.7155556,3.43111111 11.6622222,3.27111111 11.7333333,3.14666667 L12.8355556,1.13777778 C11.4488889,0.711111111 5.40444444,-0.8 2.09777778,3.57333333 C-0.373333333,6.68444444 0.888888889,10.8088889 1.22666667,11.7688889 L3.82222222,11.0933333 C3.96444444,11.0577778 4.10666667,11.1466667 4.14222222,11.2711111 C4.17777778,11.4133333 4.08888889,11.5555556 3.96444444,11.5911111 L1.13777778,12.32 C1.12,12.3377778 1.10222222,12.3377778 1.08444444,12.3377778 L1.08444444,12.3377778 Z" id="Shape"></path>
                </g>
            </g>
        </g>
    </g>
</svg>