<?xml version="1.0" encoding="UTF-8" standalone="no"?>
<svg width="78px" height="78px" viewBox="0 0 78 78" version="1.1" xmlns="http://www.w3.org/2000/svg" xmlns:xlink="http://www.w3.org/1999/xlink" xmlns:sketch="http://www.bohemiancoding.com/sketch/ns">
    <!-- Generator: Sketch 3.3.2 (12043) - http://www.bohemiancoding.com/sketch -->
    <title>Group Copy 3 + sales icon copy 3</title>
    <desc>Created with Sketch.</desc>
    <defs></defs>
    <g id="Main-Attraction" stroke="none" stroke-width="1" fill="none" fill-rule="evenodd" sketch:type="MSPage">
        <g id="Artboard-42" sketch:type="MSArtboardGroup" transform="translate(-338.000000, -32.000000)">
            <g id="Group-Copy-3-+-sales-icon-copy-3" sketch:type="MSLayerGroup" transform="translate(339.000000, 32.000000)">
                <g id="Group-Copy-3" transform="translate(0.480218, 0.774976)" sketch:type="MSShapeGroup">
                    <path d="M51.7005803,35.633302 C52.0660253,34.4300487 52.0366453,33.4321287 51.6423359,32.668802 C51.2871997,31.9799087 50.7403209,31.566162 50.2315844,31.2345487 C49.873871,29.9070687 48.9254667,28.7823554 47.409566,28.3378087 C46.9951545,27.680742 46.5044583,27.107862 45.8823257,26.6915487 C45.2658628,26.2788287 44.5148709,26.0555287 43.7076963,26.046802 C42.2933367,24.7614154 40.7429018,24.0807354 39.1754574,24.0258087 C39.1203056,24.0237554 39.0667001,24.026322 39.0115484,24.0258087 C38.1749938,24.021702 37.3296769,24.2059887 36.5085855,24.5463287 C35.6282188,24.2994154 34.3901388,23.9873087 32.8943402,24.6998154 C31.9536673,24.5417087 31.0016549,24.8604887 30.2073662,25.5180687 C29.6120363,25.447742 29.0466018,25.5498954 28.5842546,25.7778154 C28.0703638,26.031402 27.6879094,26.3968954 27.3472055,26.759822 C25.6782199,27.2931754 24.6344597,28.0636887 24.0030492,28.925062 C23.3840091,29.768982 23.1288678,30.5862087 22.8051732,31.2540554 C22.208297,31.7037354 21.6438933,32.2817487 21.3454552,33.1118087 C21.0253687,34.0019287 21.0176372,35.0994354 21.326384,36.5090487 C21.1330951,38.2749154 21.461944,39.7122487 22.408802,40.6480554 C23.3066936,41.536122 24.6205429,41.8081887 26.0812918,41.6875554 C27.182781,42.4051954 28.6069339,42.4498554 30.1496373,42.207562 C30.9861918,42.7799287 31.9536673,43.243982 33.096907,43.487302 C33.4216324,44.469822 33.6443012,45.4918687 34.0633516,46.4713087 C34.5380693,47.580622 35.3612224,48.6411687 36.7982612,49.2140487 C37.5781176,49.5251287 38.2481859,50.2099154 38.6636283,50.7632887 C38.66569,50.7663687 38.6708444,50.7704754 38.6734216,50.7725287 C38.9115535,51.1544487 39.051237,51.4593687 39.436784,51.7545354 C39.8414022,52.0645887 40.3130272,52.1231087 40.8475355,52.159042 C42.2531326,52.2478487 43.3360661,51.6374954 44.1427253,50.9845354 L44.1427253,50.974782 C44.1788059,50.945522 44.21901,50.920882 44.2489053,50.8880287 C44.3767337,50.748402 44.4339473,50.5856754 44.4617809,50.465042 C44.5174481,50.2227487 44.4901299,50.080042 44.452503,49.896782 C44.3762183,49.530262 44.1968462,49.0307887 43.7659407,48.087282 C43.7422306,48.034922 43.722644,47.9789687 43.6984184,47.924042 C44.0695332,47.914802 44.4313701,47.8490954 44.780321,47.7602887 C46.0410803,47.4399687 47.1508165,46.747482 47.8920152,46.2012954 C49.0883448,45.319902 49.8960348,44.640762 50.3851847,43.920042 C50.9439186,43.0971687 51.177927,41.5612754 50.7913492,40.6572954 C50.9258783,40.548982 51.0506141,40.4324554 51.1681337,40.3015554 C52.145918,39.2117487 52.2361195,37.5855087 51.7005803,35.633302 L51.7005803,35.633302 Z M40.9640243,50.4460487 C40.6243512,50.4224354 40.5207484,50.401902 40.5001309,50.3977954 C40.5145631,50.4054954 40.3805494,50.2335287 40.1037597,49.8007887 C40.0934509,49.782822 40.0774724,49.768962 40.0656173,49.7525354 C39.5409023,49.052862 38.6930082,48.122702 37.4461657,47.6257954 C36.4441559,47.2259087 36.0395377,46.664322 35.6679075,45.7967887 C35.417405,45.212102 35.200406,44.4723887 34.9627895,43.6792887 C35.2751444,43.678262 35.5952309,43.6546487 35.9292341,43.6217954 C36.5271412,43.8379087 37.2606083,44.200322 38.2291147,44.237282 C38.7430056,44.257302 39.580591,43.9528954 40.2295264,43.6500287 C40.154788,44.7141687 40.3439534,45.7921687 40.9640243,46.624282 C41.1299951,46.847582 41.3124598,47.046242 41.5145112,47.2115354 C41.7438807,47.782362 41.9778892,48.322902 42.1912802,48.7900354 C42.4572458,49.3721554 42.5773426,49.7130087 42.6551736,49.944522 C42.1490143,50.2976954 41.6629571,50.4886554 40.9640243,50.4460487 L40.9640243,50.4460487 Z M49.8645932,39.1563087 C49.4383266,39.631142 48.5110552,39.9386287 46.9750525,39.8780554 C46.8750576,39.204562 46.8492858,38.8724354 46.8590791,38.8092954 C46.863718,38.7774687 46.851863,38.799542 46.8781503,38.7615554 C46.904953,38.7230554 46.9832994,38.6352754 47.1003037,38.5012954 C47.3209108,38.2600287 47.3008087,37.887862 47.0564915,37.670722 C46.9472188,37.5726754 46.8039273,37.5192887 46.6559969,37.519802 C46.4802328,37.5203154 46.314262,37.5978287 46.2013813,37.7312954 C46.0921086,37.8560354 46.0003608,37.9551087 45.9019123,38.097302 C45.8039792,38.2394954 45.7096542,38.4402087 45.6797589,38.6368154 C45.6189373,39.0279754 45.7003764,39.369342 45.8050101,40.0705554 C45.806041,40.1028954 45.8091336,40.1352354 45.8148034,40.1665487 C45.5498687,40.3451887 45.3503945,40.3785554 45.0998921,40.3498087 C44.8009385,40.314902 44.424154,40.1460154 44.017474,39.8970487 C43.6705848,39.6845287 43.1644255,39.7563954 42.8963982,40.060802 C42.2201447,40.8282354 41.8124339,41.089522 41.2439067,41.1675487 C41.2351443,41.151122 41.2253509,41.1352087 41.2145268,41.1198087 C41.040309,40.7881954 40.9645397,40.618282 40.9444377,40.5130487 C40.9238202,40.4078154 40.9274283,40.288722 41.0310311,39.9355487 C41.1279333,39.6254954 40.9516538,39.2964487 40.6372372,39.2004554 C40.5738384,39.181462 40.5078624,39.1727354 40.441371,39.175302 C40.1784981,39.181462 39.9506749,39.3575354 39.8810908,39.608042 C39.7553242,40.0371887 39.707904,40.396522 39.7749108,40.7440487 C39.8424331,41.0920887 39.9903635,41.3441354 40.1614887,41.6680487 C40.1676739,41.6813954 40.1738591,41.6942287 40.1810753,41.7065487 C39.350706,42.4195687 38.7997037,42.5437954 38.2961216,42.524802 C37.8353208,42.5068354 37.3193682,42.2989354 36.7209456,42.0817954 C36.7281617,42.027382 36.7281617,41.9724554 36.7209456,41.918042 C36.5977561,40.904722 36.6714637,40.4647954 36.77919,40.2435487 C36.8858855,40.0217887 37.1008228,39.8739487 37.5131725,39.5120487 C37.7672831,39.3056887 37.8038791,38.935062 37.595127,38.684042 C37.4693604,38.533122 37.2760714,38.4535554 37.078659,38.4720354 C36.9446453,38.482302 36.8193941,38.536202 36.7209456,38.6260354 C36.3730255,38.9314687 35.9586141,39.1912154 35.696772,39.7332954 C35.4452387,40.2543287 35.4065809,40.915502 35.5230697,41.9467887 C33.4556512,42.109002 32.1495335,41.5535754 30.9516575,40.6762887 C30.9568119,40.6511354 30.9599045,40.6254687 30.9614508,40.5992887 C31.0202106,40.066962 31.124329,39.9463287 31.2124687,39.8677887 C31.3011239,39.789762 31.5170921,39.706602 31.899031,39.5413087 C32.2000463,39.4104087 32.3371526,39.0639087 32.2046852,38.7661754 C32.1072676,38.5449287 31.8820216,38.4058154 31.6377044,38.414542 C31.5645123,38.417622 31.4923511,38.4335354 31.4248288,38.4627954 C31.1258753,38.5926687 30.7733162,38.6712087 30.4202418,38.982802 C30.0671673,39.2933687 29.8573844,39.7933554 29.7821306,40.4745487 C29.7774917,40.496622 29.7749145,40.5192087 29.7728527,40.5417954 C28.3971509,40.7389154 27.4260673,40.595182 26.883312,40.1567954 C26.7018781,40.0104954 26.4585918,39.9355487 26.2261296,39.9642954 C24.9246508,40.1290754 24.1045903,39.8980754 23.6360579,39.4345354 C23.1675255,38.972022 22.8742418,38.103462 23.0659844,36.566542 C23.0706234,36.5300954 23.0757777,36.497242 23.0757777,36.4607954 C23.1773188,36.4258887 23.2778291,36.4027887 23.3654534,36.3930354 C23.6283264,36.364802 23.8716127,36.4120287 24.2741691,36.6625354 C24.5411656,36.8524687 24.9133112,36.7924087 25.1055693,36.5290687 C25.2978273,36.2652154 25.2370057,35.8976687 24.9700093,35.7077354 C24.9509381,35.6943887 24.9318669,35.6820687 24.9117649,35.6712887 C24.4937453,35.4105154 24.0659325,35.2539487 23.6463667,35.219042 C23.5056523,35.2072354 23.368546,35.203642 23.2304089,35.219042 C23.1092811,35.2318754 22.9881534,35.2657554 22.8732109,35.2955287 C22.7866175,34.5578687 22.8500162,34.0476154 22.979391,33.688282 C23.1139201,33.3135487 23.3242184,33.0425087 23.6463667,32.7740354 C23.9788236,33.0435354 24.508693,33.4737087 25.2694783,33.688282 C25.7885235,33.8350954 26.4065326,33.8735954 27.1157742,33.7365354 C27.1575246,33.737562 27.1997904,33.7339687 27.2410254,33.726782 C27.3451437,33.706762 27.4461694,33.677502 27.5410098,33.6400287 C27.543587,33.6395154 27.5379172,33.6318154 27.5410098,33.6307887 C27.7420303,33.5738087 27.9554213,33.5060487 28.1688123,33.418782 C29.118763,33.032242 29.7347104,33.078442 30.1692239,33.226282 C30.603222,33.374122 30.87795,33.6477287 31.058353,33.8612754 C31.2681359,34.111782 31.6438896,34.147202 31.8974847,33.939302 C32.1510798,33.7324287 32.1866449,33.3607754 31.9763466,33.110782 C31.7299676,32.818182 31.2748366,32.354642 30.5558018,32.109782 C30.0156236,31.9260087 29.3300922,31.875702 28.5358035,32.0615287 C28.5677606,31.635462 28.5291029,31.2653487 28.5358035,31.1662754 C28.5626063,30.8433887 28.3182891,30.559002 27.9909865,30.532822 C27.9667609,30.5307687 27.9420199,30.5302554 27.9177944,30.531282 C27.609563,30.5441154 27.3626686,30.7858954 27.3472055,31.0897887 C27.3188564,31.489162 27.3843169,31.8746754 27.3379276,32.1677887 C27.3142175,32.3140887 27.2611275,32.405462 27.2219542,32.456282 C27.2033985,32.4798954 27.1899971,32.507102 27.1637098,32.524042 C26.4972496,32.7093554 26.0029453,32.667262 25.5983272,32.5527887 C25.1004149,32.4121354 24.7323928,32.1410954 24.4195224,31.8890487 C24.7818747,31.1323954 25.0117597,30.4707087 25.4050382,29.935302 C25.8508914,29.3275154 26.5132281,28.775682 28.0719101,28.318302 C28.2255104,28.2731287 28.3615858,28.185862 28.4682813,28.0683087 C28.7909449,27.7105154 29.0981455,27.445122 29.3574104,27.317302 C29.5630698,27.215662 29.7388339,27.1674087 30.0047994,27.211042 C30.1949958,27.5980954 30.4784862,28.0046554 30.701155,28.472302 C30.7027014,28.4943754 30.7063094,28.516962 30.7104329,28.5395487 C30.7516679,28.7392354 30.7078557,28.7951887 30.5650796,28.934302 C30.422819,29.072902 30.1614923,29.2089354 29.9372772,29.3003087 C29.6331693,29.4265887 29.4909086,29.7725754 29.618737,30.0733887 C29.7465654,30.3736887 30.0970627,30.514342 30.4011706,30.3875487 C30.6923926,30.2689687 31.0738161,30.0959754 31.4062731,29.7715487 C31.5990466,29.9363287 31.8119221,30.0420754 32.0150044,30.089302 C32.4495179,30.1904287 32.8319723,30.1303687 32.9721712,30.127802 C33.3005046,30.140122 33.576779,29.8870487 33.5896649,29.562622 C33.6020354,29.2381954 33.3453477,28.965102 33.0170142,28.952782 C32.9953658,28.9517554 32.9742329,28.9522687 32.9531,28.9538087 C32.6752794,28.9594554 32.436632,28.9769087 32.2954022,28.9440554 C32.1546878,28.911202 32.1278851,28.9430287 32.0541776,28.6843087 C31.8392403,27.927142 31.4284369,27.2890687 31.2037063,26.932302 C31.8114067,26.345562 32.2206638,26.248542 32.7500178,26.4122954 C32.9773255,26.4831354 33.2288589,26.451822 33.4360646,26.3352954 C34.5025041,25.7290487 35.0148486,25.8686754 35.774603,26.1042954 C35.7514083,26.3927887 35.7694486,26.7249154 35.8132608,27.1150487 C35.9024314,27.9045554 36.0967512,28.8978554 36.3544698,29.8002954 C36.3915813,29.930682 36.3457074,30.3854954 36.1225231,30.7242954 C35.8998542,31.0630954 35.5926537,31.3007687 35.0885561,31.3017954 C34.7597072,31.284342 34.4798249,31.5327954 34.4617846,31.8567087 C34.4442597,32.1811354 34.695793,32.4583354 35.0241265,32.4757887 C35.0457749,32.4768154 35.0674232,32.4768154 35.0885561,32.4757887 C36.0137658,32.4737354 36.734347,31.9578354 37.128141,31.3592887 C37.4219402,30.911662 37.5822411,30.429642 37.5724478,29.9542954 C37.7492428,30.001522 37.9203679,30.038482 38.0652057,30.060042 C38.390962,30.107782 38.6935236,29.8855087 38.7419747,29.5636487 C38.7899104,29.242302 38.5651798,28.9430287 38.2394235,28.895802 C38.0224244,28.8629487 37.7126467,28.7844087 37.5049255,28.6837954 C37.2972044,28.583182 37.2817412,28.516962 37.2827721,28.5297954 C37.2750406,28.452282 37.2518459,28.376822 37.2152499,28.3085487 C37.1162859,27.8337154 37.0363932,27.3655554 36.992581,26.9805554 C36.955985,26.6530487 36.955985,26.4015154 36.9632011,26.248542 C36.9848494,26.2249287 37.0044361,26.1987487 37.0219609,26.1720554 C37.7626441,25.8337687 38.460546,25.660262 39.1481392,25.671042 C40.2851936,25.689522 41.3949298,26.2244154 42.5974447,27.3552887 C42.590744,27.368122 42.5845587,27.3809554 42.5783735,27.3937887 C42.4541531,27.689982 42.0325255,28.532362 41.1964865,28.9147954 C40.8975329,29.0518554 40.7681582,29.402462 40.9073262,29.6976287 C41.0454634,29.992282 41.4000841,30.1206154 41.6990377,29.983042 C42.9809299,29.3968154 43.5154382,28.2377087 43.6798627,27.8465487 C43.6922332,27.8152354 43.7020265,27.7828954 43.7087272,27.750042 C44.1839602,27.7510687 44.5514669,27.877862 44.907634,28.1160487 C45.2302977,28.332162 45.5508996,28.657102 45.8446988,29.088302 C45.8395444,29.0965154 45.8153188,29.136042 45.8153188,29.136042 C45.793155,29.1663287 45.7735684,29.1986687 45.7575899,29.2320354 C45.7575899,29.2320354 45.6931602,29.379362 45.6318232,29.5112887 C45.5957426,29.5836687 45.556054,29.6606687 45.5256432,29.7325354 C45.4199785,29.9332487 45.2875112,30.157062 45.129272,30.3582887 C44.9421683,30.5969887 44.7313545,30.766902 44.588063,30.8202887 C44.4447714,30.8741887 44.3793109,30.896262 44.1432407,30.7242954 C43.8772751,30.5317954 43.5035832,30.5887754 43.3087479,30.8526287 C43.1139127,31.1154554 43.1716417,31.484542 43.4381227,31.677042 C43.9319115,32.0384287 44.5452817,32.1031087 45.0138141,31.9270354 C45.1957634,31.858762 45.3519408,31.7550687 45.4962632,31.6482954 C45.6194527,31.9568087 45.7910933,32.263782 45.9993299,32.5722954 C46.1637544,32.853602 46.527653,32.9495954 46.8126897,32.7868687 C47.0972111,32.624142 47.1941132,32.2648087 47.0296888,31.983502 C47.015772,31.9609154 47.0008243,31.938842 46.9848458,31.9177954 C46.6791915,31.4640087 46.5338382,31.139582 46.5013657,30.8690554 C46.4709549,30.609822 46.5235295,30.3439154 46.752899,29.9358154 C48.020359,30.212502 48.4156993,30.7910287 48.6177507,31.9177954 C48.660532,32.1508487 48.8017617,32.359262 49.0043285,32.4860554 C49.5486302,32.827422 49.9336617,33.1143754 50.1058178,33.4485554 C50.2532328,33.732942 50.3346719,34.144122 50.1254044,34.9213087 C49.8790254,35.0768487 49.4300796,35.145122 48.9847419,35.1138087 C48.7430019,35.0963554 48.5079626,35.0563154 48.3270441,35.0075487 C48.1471565,34.958782 47.9987106,34.874082 48.0373684,34.9012887 C47.7683102,34.7118687 47.3946183,34.7729554 47.2023602,35.0393754 C47.0101022,35.305282 47.0724701,35.6743687 47.3415283,35.8637887 C47.5538884,36.013682 47.7502699,36.073742 48.0079885,36.143042 C48.2662225,36.2128554 48.5713613,36.264702 48.8976331,36.287802 C49.2625626,36.3134687 49.6656344,36.307822 50.0573667,36.210802 C50.4697164,37.7857087 50.2949832,38.6758287 49.8645932,39.1563087 L49.8645932,39.1563087 Z" id="attitude-icon-copy-3" opacity="0.3" fill="#000000"></path>
                    <circle id="Oval-20-Copy-7" stroke="#88B250" stroke-width="3" cx="37.8511449" cy="37.9228113" r="37.0133587"></circle>
                    <circle id="Oval-20-Copy-10" stroke="#88B250" stroke-width="3" cx="37.8511449" cy="37.9228113" r="36.9322518"></circle>
                    <ellipse id="Oval-20-Copy-17" fill="#88B250" cx="37.8511449" cy="37.9228113" rx="32.6538393" ry="32.6538393"></ellipse>
                    <g id="Oval-20-Copy-12-+-Type-something-Copy-Copy-Copy-Copy-Copy" transform="translate(10.000000, 9.000000)">
                        <path d="M27.8511449,54.3802482 C13.8340209,54.3802482 2.47089671,43.017124 2.47089671,29 C2.47089671,14.982876 13.8340209,3.6197518 27.8511449,3.6197518 C41.8682689,3.6197518 53.2313931,14.982876 53.2313931,29 C53.2313931,43.017124 41.8682689,54.3802482 27.8511449,54.3802482 L27.8511449,54.3802482 Z" id="Oval-20-Copy-12"></path>
                        <path d="M4.20049955,19.6336539 C4.52165448,18.6444828 4.08629509,17.7671646 3.14943591,17.4629938 C2.22208798,17.161911 1.34964901,17.6146254 1.02695006,18.6085521 L0.644034569,19.7879484 L3.81604004,20.8178058 L4.20049955,19.6336539 Z M3.70912561,19.4793761 L3.50685976,20.1023636 L1.31451415,19.3905731 L1.51832401,18.7628299 C1.7468381,18.0589966 2.35543352,17.8360356 2.96415421,18.0336694 C3.56811927,18.2297592 3.93300765,18.7898096 3.70912561,19.4793761 L3.70912561,19.4793761 Z M6.893188,14.3820932 L5.35094269,14.4819901 C5.48597836,14.0946719 5.3850528,13.597139 4.86575973,13.317077 C4.32006193,13.0227746 3.73950852,13.2039037 3.42621886,13.7848078 L2.73081075,15.0742389 L5.66613684,16.657301 L5.9438254,16.1424087 L4.848029,15.5514305 L5.12571756,15.0365382 L6.57040472,14.9806005 L6.893188,14.3820932 Z M4.77686621,14.5984427 L4.39474776,15.3069697 L3.46178055,14.8038075 L3.843899,14.0952805 C4.00054383,13.8048284 4.29489968,13.6909002 4.57655016,13.8427983 C4.86260143,13.9970697 4.93351104,14.3079906 4.77686621,14.5984427 L4.77686621,14.5984427 Z M9.80962945,10.837088 L6.3696451,9.83467456 L5.92331876,10.4123361 L7.76141953,13.4880003 L8.16800449,12.9617744 L7.80739941,12.3735449 L8.7428505,11.1628297 L9.4030445,11.3633139 L9.80962945,10.837088 Z M8.23444021,10.978523 L7.50075308,11.9281035 L6.60940244,10.4811778 L8.23444021,10.978523 Z M11.3944818,9.65473758 L10.5496145,8.73348886 L11.2018586,8.1353228 C11.7140729,7.66557656 11.6804529,7.05190344 11.2985728,6.63549902 C10.9133133,6.21540961 10.3085191,6.12555423 9.79261986,6.59867994 L8.70923137,7.59224392 L10.9633374,10.0501355 L11.3944818,9.65473758 Z M10.7948133,7.80983983 L10.2015291,8.35393439 L9.48846111,7.57640048 L10.0817453,7.03230592 C10.3249549,6.80926094 10.6400874,6.80519567 10.8563734,7.04103534 C11.06928,7.27319002 11.038023,7.58679486 10.7948133,7.80983983 L10.7948133,7.80983983 Z M16.086144,6.35097689 L15.8023473,5.9212276 L14.3837574,6.85803215 L13.8712702,6.08198003 L15.2606539,5.16446264 L14.9768572,4.73471336 L13.5874736,5.65223075 L13.1135607,4.93459116 L14.5321506,3.99778662 L14.2483539,3.56803733 L12.3416022,4.82721285 L14.1793923,7.61015241 L16.086144,6.35097689 Z M19.9558524,4.69217699 L18.664432,3.84321689 C19.0054751,3.61531439 19.2245061,3.15732922 18.9785727,2.62103009 C18.7201342,2.05746151 18.1475718,1.85246813 17.547644,2.12758009 L16.215986,2.73824526 L17.606135,5.76969881 L18.1378892,5.52584958 L17.6189281,4.39416752 L18.1506823,4.15031828 L19.3377449,4.97562567 L19.9558524,4.69217699 Z M18.1359875,3.59048879 L17.4042574,3.92604201 L16.9624109,2.96252154 L17.6941411,2.62696832 C17.994105,2.48941234 18.297712,2.57571285 18.4310996,2.86658696 C18.5665714,3.16200597 18.4359514,3.45293281 18.1359875,3.59048879 L18.1359875,3.59048879 Z M25.1803956,3.75456433 C26.135548,3.58549663 26.5065426,2.95620102 26.3627479,2.14382913 L26.0115403,0.159672335 L25.4256478,0.26337881 L25.774241,2.23276521 C25.8666182,2.7546526 25.6362661,3.14578925 25.0897613,3.24252386 C24.5432566,3.33925848 24.1926398,3.05095682 24.1002626,2.52906942 L23.7516694,0.559683023 L23.1657769,0.663389498 L23.5169846,2.64754629 C23.6607793,3.45991818 24.2301666,3.92276054 25.1803956,3.75456433 L25.1803956,3.75456433 Z M31.2192371,3.6354575 L31.2350779,0.300495123 L30.6500845,0.297716449 L30.6391123,2.60769039 L28.9451038,0.28961792 L28.3451105,0.286767998 L28.3292697,3.62173038 L28.9142631,3.62450905 L28.9255916,1.23953596 L30.6542435,3.63277383 L31.2192371,3.6354575 Z M33.4822774,4.22870666 L34.0970152,0.950853335 L33.5220394,0.843020766 L32.9073016,4.12087409 L33.4822774,4.22870666 Z M36.7529222,5.13576298 L38.9220018,2.28384806 L38.2821598,2.10266517 L36.5761022,4.42052896 L36.3385796,1.55230511 L35.6987377,1.37112222 L36.0505392,4.93687048 L36.7529222,5.13576298 Z M41.2328345,7.26850312 L41.456388,6.80455398 L39.9249054,6.06661018 L40.3286041,5.22879911 L41.8285562,5.95154995 L42.0521097,5.48760081 L40.5521577,4.76484997 L40.9254704,3.99009995 L42.456953,4.72804376 L42.6805066,4.26409462 L40.6220138,3.27221133 L39.1743417,6.27661983 L41.2328345,7.26850312 Z M44.6375027,9.73847913 L44.7041302,8.19443873 C45.07467,8.37036556 45.5801739,8.3235601 45.9144855,7.83741631 C46.2657959,7.32655334 46.1481855,6.72988108 45.6043637,6.35590544 L44.3972439,5.52579285 L42.5075337,8.27374122 L42.9895576,8.60521963 L43.6950117,7.57937383 L44.1770356,7.91085224 L44.0772014,9.3531709 L44.6375027,9.73847913 Z M44.6501239,7.61116493 L43.986826,7.15502798 L44.5874535,6.28161711 L45.2507514,6.73775406 C45.5226623,6.92474188 45.6042566,7.22964738 45.4229351,7.49331859 C45.2387805,7.76110966 44.9220348,7.79815275 44.6501239,7.61116493 L44.6501239,7.61116493 Z M46.470967,11.7762013 C47.1164306,12.3962027 47.7338147,12.3236642 48.1182849,11.9234047 C48.9772813,11.0291311 47.3114713,9.96287494 47.7444332,9.51213221 C47.9141542,9.33544106 48.1905813,9.36524162 48.4357854,9.60077289 C48.6882013,9.84323154 48.8610945,10.1756965 48.8686336,10.5503873 L49.4079672,10.4652742 C49.3958264,10.0376323 49.207087,9.62061618 48.835675,9.26385558 C48.3056016,8.75469241 47.6650171,8.72868274 47.2805469,9.12894228 C46.4319416,10.012398 48.1323885,11.0425948 47.6474712,11.5474266 C47.4916049,11.709694 47.1953914,11.7510166 46.849221,11.4185018 C46.5138684,11.0963782 46.4030372,10.684867 46.4104909,10.3523096 L45.8573025,10.4518464 C45.8589099,10.8832365 46.0274362,11.3501668 46.470967,11.7762013 L46.470967,11.7762013 Z M48.6320972,14.3952902 L51.2863155,12.3760453 L50.9321151,11.9104628 L48.2778968,13.9297077 L48.6320972,14.3952902 Z M50.2971916,17.0167758 L52.6871054,15.519875 L53.2232294,16.3758371 L53.6596853,16.1024669 L52.27691,13.8947628 L51.8404541,14.168133 L52.3765781,15.024095 L49.9866643,16.5209958 L50.2971916,17.0167758 Z M51.9231661,20.7149065 L53.1954289,20.1675745 L55.4964908,20.5819583 L55.2317165,19.9664955 L53.5611149,19.6891147 L54.5085269,18.2854551 L54.2437526,17.6699922 L52.9642454,19.6301928 L51.6919825,20.1775248 L51.9231661,20.7149065 Z" id="DRAPER-UNIVERSITY" fill="#FFFFFF"></path>
                    </g>
                    <g id="Oval-20-Copy-12-+-Type-something-Copy-Copy-Copy-Copy" transform="translate(38.000000, 38.000000) rotate(-180.000000) translate(-38.000000, -38.000000) translate(9.000000, 9.000000)">
                        <ellipse id="Oval-20-Copy-12" cx="28.8511449" cy="29" rx="28.8078483" ry="28.8078483"></ellipse>
                        <path d="M36.8594863,1.21659668 C36.0135006,0.924478138 35.4834657,1.2492673 35.3023196,1.77387294 C34.8975967,2.94596482 36.8570133,3.2152447 36.6530199,3.80601681 C36.5730545,4.03759948 36.3096165,4.12648382 35.9882364,4.01551142 C35.6574041,3.90127511 35.3610122,3.67197862 35.197018,3.33499804 L34.743111,3.63846692 C34.9334909,4.02158631 35.2797298,4.32099184 35.766526,4.4890824 C36.461274,4.72897863 37.0537025,4.48392052 37.2348486,3.95931488 C37.6346757,2.80140153 35.6589396,2.57938342 35.8874122,1.91771865 C35.9608499,1.70504069 36.2124199,1.54329242 36.6661329,1.69995935 C37.1056674,1.85173044 37.3788726,2.17881437 37.5115852,2.48383466 L37.97202,2.16146107 C37.7896301,1.77052127 37.4408061,1.41732619 36.8594863,1.21659668 L36.8594863,1.21659668 Z M31.1849825,0.0890225078 L31.8219059,3.61501934 L32.5379888,3.75688278 L34.4711165,0.740039693 L33.8187944,0.610807923 L33.4531201,1.19589963 L31.9522888,0.898569393 L31.8373046,0.218254277 L31.1849825,0.0890225078 Z M32.0140614,1.43581621 L33.191184,1.6690164 L32.2936324,3.11210378 L32.0140614,1.43581621 Z M27.7816413,0.115877623 L27.7588244,0.630371926 L29.2273809,0.695499818 L29.1024417,3.51273076 L29.6868673,3.53864901 L29.8346234,0.206923758 L27.7816413,0.115877623 Z M24.0022667,0.476447827 L24.0413394,0.989963476 L25.7364396,0.860985536 L25.8069981,1.78830506 L24.146797,1.91462757 L24.1858698,2.42814322 L25.8460708,2.30182071 L25.9113185,3.15934198 L24.2162183,3.28831993 L24.255291,3.80183557 L26.5337051,3.62847405 L26.2806808,0.303086301 L24.0022667,0.476447827 Z M21.3028417,1.08842181 C20.4277349,1.27607342 20.1421546,1.82822273 20.2585196,2.37088671 C20.5185061,3.58332516 22.334664,2.80012938 22.4657056,3.41123747 C22.5170739,3.65079184 22.3376072,3.86313989 22.0051644,3.93442653 C21.6629439,4.00780984 21.2906745,3.96490873 20.976003,3.76136055 L20.7445429,4.25588175 C21.1056636,4.48526532 21.5568605,4.56237842 22.0604135,4.45440012 C22.7790766,4.30029518 23.1592993,3.78410171 23.0429344,3.24143773 C22.7860928,2.04366588 20.9804183,2.8757503 20.8336517,2.19130924 C20.7864767,1.97131033 20.918093,1.70274537 21.387424,1.60210541 C21.8420884,1.50461044 22.2451022,1.64319218 22.5164694,1.83557157 L22.7437362,1.32149491 C22.3854077,1.08128527 21.9041721,0.95947686 21.3028417,1.08842181 L21.3028417,1.08842181 Z" id="SALES" fill="#FFFFFF"></path>
                    </g>
                    <ellipse id="Oval-20-Copy-16" fill="#1A1A1A" cx="37.8369781" cy="37.8369781" rx="21.8369781" ry="21.8369781"></ellipse>
                </g>
                <path d="M47.3465268,35.182056 L41.5063629,29.3422035 C41.2170022,29.0525314 40.7971334,28.9360396 40.3993793,29.0341544 C40.1897563,29.0855478 40.0019366,29.1936298 39.8539858,29.3422035 C39.7212973,29.4745806 39.6216252,29.6387281 39.5640022,29.8221872 C39.2995596,30.6799904 38.8423137,31.425974 38.1654776,32.1021872 C37.2612645,33.0054658 36.0841989,33.6900888 34.8382973,34.4133347 C33.5163957,35.1798757 32.1502645,35.974138 31.0308219,37.0929576 C30.0792645,38.0454494 29.4317071,39.1047773 29.0520186,40.3351052 C28.9243137,40.7503019 29.0358219,41.199138 29.3416907,41.5062527 L35.1818547,47.3464167 C35.4715268,47.6360888 35.8913957,47.7522691 36.2891498,47.6541544 C36.4987727,47.6018265 36.6862809,47.494679 36.8345432,47.3464167 C36.9672317,47.2140396 37.0669039,47.0495806 37.1242153,46.8651872 C37.3892809,46.0070724 37.8465268,45.2617117 38.5239858,44.5851872 C39.4272645,43.6819085 40.6043301,42.9982199 41.8511661,42.275597 C43.1721334,41.5081216 44.5388875,40.7138593 45.6573957,39.5950396 C46.608953,38.6437937 47.2565104,37.5829085 47.6368219,36.3528921 C47.7639039,35.9383183 47.6520842,35.4876134 47.3465268,35.182056 L47.3465268,35.182056 Z M37.5076416,37.7847445 C37.6764612,37.7616954 37.8368711,37.7046954 37.9932317,37.6355478 C38.2635924,37.5153183 38.5320842,37.3907281 38.8155268,37.3016462 C39.7169366,37.018515 40.6230186,37.5726298 40.7339039,38.4824494 C40.7740842,38.811679 40.7102317,39.1287609 40.5529366,39.4209249 C40.484412,39.5480068 40.4940678,39.6439413 40.6037071,39.7392527 C40.7111661,39.8326954 40.8095924,39.9361052 40.9123793,40.0348429 C41.004576,40.1223675 41.0089366,40.2164331 40.9248383,40.3092527 C40.8220514,40.4229413 40.7161498,40.5338265 40.6086907,40.6431544 C40.5140022,40.7390888 40.4152645,40.7322363 40.3190186,40.6428429 C40.2430186,40.5718265 40.1670186,40.5004986 40.0907071,40.4294822 C39.9231334,40.2728101 39.9109858,40.2715642 39.7331334,40.407679 C39.5060678,40.5814822 39.2681006,40.7381544 38.9989858,40.8390724 C38.787494,40.9181872 38.736412,40.8982527 38.6221006,40.7094986 C38.5370678,40.5687117 38.4523465,40.4276134 38.3726088,40.2840232 C38.2801006,40.1167609 38.2975432,40.0653675 38.4760186,40.0043183 C38.7812645,39.899974 39.0513137,39.7370724 39.2995596,39.5339904 C39.4596579,39.4028593 39.5830022,39.2436954 39.6537071,39.0487117 C39.7860842,38.6849085 39.5263137,38.3606626 39.1413301,38.4080068 C39.0101989,38.4238921 38.8856088,38.4650068 38.7635104,38.5164003 C38.4501661,38.6475314 38.1508383,38.8104331 37.8209858,38.9016954 C37.2858711,39.0502691 36.7940514,38.9994986 36.3981661,38.5737117 C35.950576,38.0924822 35.9100842,37.5424167 36.166117,36.9562199 C36.2717071,36.714515 36.2751334,36.7160724 36.0885596,36.5363511 C36.0253301,36.4753019 35.9605432,36.4161216 35.8985596,36.354138 C35.760576,36.2158429 35.7593301,36.1688101 35.8889039,36.0242855 C35.9293957,35.9794331 35.9717563,35.9367609 36.013494,35.8931544 C36.2988055,35.5922691 36.2988055,35.5922691 36.6003137,35.8772691 C36.8133629,36.0784822 36.8142973,36.0794167 37.0488383,35.8993839 C37.2282481,35.7614003 37.4232317,35.6523839 37.6316088,35.5654822 C37.7468547,35.5172035 37.8340678,35.5414986 37.8969858,35.6492691 C37.9907399,35.8103019 38.0876088,35.9697773 38.1766907,36.1333019 C38.2607891,36.2884167 38.2414776,36.3438593 38.0739039,36.4067773 C37.7375104,36.5329249 37.4562481,36.734138 37.2238875,37.0063675 C37.1628383,37.0780068 37.108953,37.1530724 37.0765596,37.2418429 C36.9616252,37.5586134 37.1740514,37.8299085 37.5076416,37.7847445 L37.5076416,37.7847445 Z M36.0081989,46.5200724 C34.0739366,44.5858101 32.1022973,42.6135478 30.1683465,40.6799085 C30.782576,38.690515 32.1558711,37.4707773 33.7257071,36.4497609 C33.5671661,37.0253675 33.1924612,38.9611872 34.746412,40.5768101 C36.4498711,42.3481708 38.585035,42.5936134 39.0678219,42.6266298 C37.710412,43.5822363 36.5563957,44.7443511 36.0081989,46.5200724 L36.0081989,46.5200724 Z M43.0699694,40.1672199 C43.1749366,39.7476626 43.6125596,37.5601708 41.828117,35.8103019 C40.073576,34.0903347 38.318412,33.9747773 37.717576,33.9925314 C39.0329366,33.0496954 40.1452153,31.9012855 40.6803301,30.1679249 C42.6142809,32.1012527 44.5865432,34.0738265 46.5214284,36.0080888 C45.9205924,37.9513839 44.5946416,39.1599085 43.0699694,40.1672199 L43.0699694,40.1672199 Z" id="sales-icon-copy-3" fill="#FFFFFF" sketch:type="MSShapeGroup"></path>
            </g>
        </g>
    </g>
</svg>