<?xml version="1.0" encoding="UTF-8" standalone="no"?>
<svg width="40px" height="40px" viewBox="0 0 40 40" version="1.1" xmlns="http://www.w3.org/2000/svg" xmlns:xlink="http://www.w3.org/1999/xlink" xmlns:sketch="http://www.bohemiancoding.com/sketch/ns">
    <!-- Generator: Sketch 3.3.3 (12081) - http://www.bohemiancoding.com/sketch -->
    <title>set-up</title>
    <desc>Created with Sketch.</desc>
    <defs></defs>
    <g id="Main-Attraction" stroke="none" stroke-width="1" fill="none" fill-rule="evenodd" sketch:type="MSPage">
        <g id="TRACK-ICONS" sketch:type="MSArtboardGroup" transform="translate(-478.000000, -279.000000)">
            <g id="set-up" sketch:type="MSLayerGroup" transform="translate(478.000000, 279.000000)">
                <circle id="Oval-20-Copy-54" opacity="0.8" fill="#414141" sketch:type="MSShapeGroup" cx="20" cy="20" r="20"></circle>
                <g id="Group-+-Group-Copy" transform="translate(14.000000, 12.000000)" fill="#FFFFFF" sketch:type="MSShapeGroup">
                    <g id="Group" transform="translate(3.818182, 3.951318)">
                        <path d="M0.218181818,3.69675456 C0.327272727,3.80628803 0.490909091,3.80628803 0.6,3.69675456 L1.90909091,2.38235294 L1.90909091,8.37931034 C1.90909091,8.54361055 2.01818182,8.65314402 2.18181818,8.65314402 C2.34545455,8.65314402 2.45454545,8.54361055 2.45454545,8.37931034 L2.45454545,2.38235294 L3.76363636,3.69675456 C3.87272727,3.80628803 4.03636364,3.80628803 4.14545455,3.69675456 C4.25454545,3.5872211 4.25454545,3.42292089 4.14545455,3.31338742 L2.18181818,1.34178499 L0.218181818,3.31338742 C0.109090909,3.42292089 0.109090909,3.5872211 0.218181818,3.69675456 L0.218181818,3.69675456 Z" id="Shape"></path>
                        <path d="M0.409090909,0.136916836 L3.95454545,0.136916836 C4.11818182,0.136916836 4.22727273,0.246450304 4.22727273,0.410750507 C4.22727273,0.57505071 4.11818182,0.684584178 3.95454545,0.684584178 L0.409090909,0.684584178 C0.245454545,0.684584178 0.136363636,0.57505071 0.136363636,0.410750507 C0.136363636,0.246450304 0.272727273,0.136916836 0.409090909,0.136916836 L0.409090909,0.136916836 Z" id="Shape"></path>
                    </g>
                    <g id="Group" transform="translate(0.000000, 0.117647)">
                        <path d="M11.5909091,15.7180527 L0.409090909,15.7180527 C0.245454545,15.7180527 0.136363636,15.6085193 0.136363636,15.4442191 L0.136363636,0.438133874 C0.136363636,0.273833671 0.245454545,0.164300203 0.409090909,0.164300203 L9.08181818,0.164300203 C9.16363636,0.164300203 9.21818182,0.19168357 9.27272727,0.246450304 L11.7545455,2.73833671 C11.8090909,2.79310345 11.8363636,2.84787018 11.8363636,2.93002028 L11.8363636,15.4442191 C11.8363636,15.5811359 11.7272727,15.7180527 11.5909091,15.7180527 L11.5909091,15.7180527 Z M0.681818182,15.1703854 L11.2909091,15.1703854 L11.2909091,3.03955375 L8.97272727,0.711967546 L0.681818182,0.711967546 L0.681818182,15.1703854 L0.681818182,15.1703854 Z" id="Shape"></path>
                        <path d="M11.5909091,3.20385396 L11.5909091,3.20385396 L9.10909091,3.20385396 C8.94545455,3.20385396 8.83636364,3.09432049 8.83636364,2.93002028 L8.83636364,0.438133874 C8.83636364,0.328600406 8.89090909,0.219066937 9,0.19168357 C9.10909091,0.136916836 9.21818182,0.164300203 9.3,0.246450304 L11.7545455,2.71095335 C11.8090909,2.76572008 11.8363636,2.84787018 11.8363636,2.93002028 C11.8636364,3.09432049 11.7272727,3.20385396 11.5909091,3.20385396 L11.5909091,3.20385396 Z M9.38181818,2.65618661 L10.9090909,2.65618661 L9.38181818,1.09533469 L9.38181818,2.65618661 L9.38181818,2.65618661 Z" id="Shape"></path>
                    </g>
                </g>
            </g>
        </g>
    </g>
</svg>