<?xml version="1.0" encoding="UTF-8" standalone="no"?>
<svg width="78px" height="78px" viewBox="0 0 78 78" version="1.1" xmlns="http://www.w3.org/2000/svg" xmlns:xlink="http://www.w3.org/1999/xlink" xmlns:sketch="http://www.bohemiancoding.com/sketch/ns">
    <!-- Generator: Sketch 3.3.2 (12043) - http://www.bohemiancoding.com/sketch -->
    <title>Group Copy 2 + Fill 1 Copy 2</title>
    <desc>Created with Sketch.</desc>
    <defs></defs>
    <g id="Main-Attraction" stroke="none" stroke-width="1" fill="none" fill-rule="evenodd" sketch:type="MSPage">
        <g id="Artboard-42" sketch:type="MSArtboardGroup" transform="translate(-144.000000, -32.000000)">
            <g id="Group-Copy-2-+-Fill-1-Copy-2" sketch:type="MSLayerGroup" transform="translate(145.000000, 34.000000)">
                <g id="Group-Copy-2" transform="translate(0.000000, 0.225000)" sketch:type="MSShapeGroup">
                    <path d="M51.7005803,34.633302 C52.0660253,33.4300487 52.0366453,32.4321287 51.6423359,31.668802 C51.2871997,30.9799087 50.7403209,30.566162 50.2315844,30.2345487 C49.873871,28.9070687 48.9254667,27.7823554 47.409566,27.3378087 C46.9951545,26.680742 46.5044583,26.107862 45.8823257,25.6915487 C45.2658628,25.2788287 44.5148709,25.0555287 43.7076963,25.046802 C42.2933367,23.7614154 40.7429018,23.0807354 39.1754574,23.0258087 C39.1203056,23.0237554 39.0667001,23.026322 39.0115484,23.0258087 C38.1749938,23.021702 37.3296769,23.2059887 36.5085855,23.5463287 C35.6282188,23.2994154 34.3901388,22.9873087 32.8943402,23.6998154 C31.9536673,23.5417087 31.0016549,23.8604887 30.2073662,24.5180687 C29.6120363,24.447742 29.0466018,24.5498954 28.5842546,24.7778154 C28.0703638,25.031402 27.6879094,25.3968954 27.3472055,25.759822 C25.6782199,26.2931754 24.6344597,27.0636887 24.0030492,27.925062 C23.3840091,28.768982 23.1288678,29.5862087 22.8051732,30.2540554 C22.208297,30.7037354 21.6438933,31.2817487 21.3454552,32.1118087 C21.0253687,33.0019287 21.0176372,34.0994354 21.326384,35.5090487 C21.1330951,37.2749154 21.461944,38.7122487 22.408802,39.6480554 C23.3066936,40.536122 24.6205429,40.8081887 26.0812918,40.6875554 C27.182781,41.4051954 28.6069339,41.4498554 30.1496373,41.207562 C30.9861918,41.7799287 31.9536673,42.243982 33.096907,42.487302 C33.4216324,43.469822 33.6443012,44.4918687 34.0633516,45.4713087 C34.5380693,46.580622 35.3612224,47.6411687 36.7982612,48.2140487 C37.5781176,48.5251287 38.2481859,49.2099154 38.6636283,49.7632887 C38.66569,49.7663687 38.6708444,49.7704754 38.6734216,49.7725287 C38.9115535,50.1544487 39.051237,50.4593687 39.436784,50.7545354 C39.8414022,51.0645887 40.3130272,51.1231087 40.8475355,51.159042 C42.2531326,51.2478487 43.3360661,50.6374954 44.1427253,49.9845354 L44.1427253,49.974782 C44.1788059,49.945522 44.21901,49.920882 44.2489053,49.8880287 C44.3767337,49.748402 44.4339473,49.5856754 44.4617809,49.465042 C44.5174481,49.2227487 44.4901299,49.080042 44.452503,48.896782 C44.3762183,48.530262 44.1968462,48.0307887 43.7659407,47.087282 C43.7422306,47.034922 43.722644,46.9789687 43.6984184,46.924042 C44.0695332,46.914802 44.4313701,46.8490954 44.780321,46.7602887 C46.0410803,46.4399687 47.1508165,45.747482 47.8920152,45.2012954 C49.0883448,44.319902 49.8960348,43.640762 50.3851847,42.920042 C50.9439186,42.0971687 51.177927,40.5612754 50.7913492,39.6572954 C50.9258783,39.548982 51.0506141,39.4324554 51.1681337,39.3015554 C52.145918,38.2117487 52.2361195,36.5855087 51.7005803,34.633302 L51.7005803,34.633302 Z M40.9640243,49.4460487 C40.6243512,49.4224354 40.5207484,49.401902 40.5001309,49.3977954 C40.5145631,49.4054954 40.3805494,49.2335287 40.1037597,48.8007887 C40.0934509,48.782822 40.0774724,48.768962 40.0656173,48.7525354 C39.5409023,48.052862 38.6930082,47.122702 37.4461657,46.6257954 C36.4441559,46.2259087 36.0395377,45.664322 35.6679075,44.7967887 C35.417405,44.212102 35.200406,43.4723887 34.9627895,42.6792887 C35.2751444,42.678262 35.5952309,42.6546487 35.9292341,42.6217954 C36.5271412,42.8379087 37.2606083,43.200322 38.2291147,43.237282 C38.7430056,43.257302 39.580591,42.9528954 40.2295264,42.6500287 C40.154788,43.7141687 40.3439534,44.7921687 40.9640243,45.624282 C41.1299951,45.847582 41.3124598,46.046242 41.5145112,46.2115354 C41.7438807,46.782362 41.9778892,47.322902 42.1912802,47.7900354 C42.4572458,48.3721554 42.5773426,48.7130087 42.6551736,48.944522 C42.1490143,49.2976954 41.6629571,49.4886554 40.9640243,49.4460487 L40.9640243,49.4460487 Z M49.8645932,38.1563087 C49.4383266,38.631142 48.5110552,38.9386287 46.9750525,38.8780554 C46.8750576,38.204562 46.8492858,37.8724354 46.8590791,37.8092954 C46.863718,37.7774687 46.851863,37.799542 46.8781503,37.7615554 C46.904953,37.7230554 46.9832994,37.6352754 47.1003037,37.5012954 C47.3209108,37.2600287 47.3008087,36.887862 47.0564915,36.670722 C46.9472188,36.5726754 46.8039273,36.5192887 46.6559969,36.519802 C46.4802328,36.5203154 46.314262,36.5978287 46.2013813,36.7312954 C46.0921086,36.8560354 46.0003608,36.9551087 45.9019123,37.097302 C45.8039792,37.2394954 45.7096542,37.4402087 45.6797589,37.6368154 C45.6189373,38.0279754 45.7003764,38.369342 45.8050101,39.0705554 C45.806041,39.1028954 45.8091336,39.1352354 45.8148034,39.1665487 C45.5498687,39.3451887 45.3503945,39.3785554 45.0998921,39.3498087 C44.8009385,39.314902 44.424154,39.1460154 44.017474,38.8970487 C43.6705848,38.6845287 43.1644255,38.7563954 42.8963982,39.060802 C42.2201447,39.8282354 41.8124339,40.089522 41.2439067,40.1675487 C41.2351443,40.151122 41.2253509,40.1352087 41.2145268,40.1198087 C41.040309,39.7881954 40.9645397,39.618282 40.9444377,39.5130487 C40.9238202,39.4078154 40.9274283,39.288722 41.0310311,38.9355487 C41.1279333,38.6254954 40.9516538,38.2964487 40.6372372,38.2004554 C40.5738384,38.181462 40.5078624,38.1727354 40.441371,38.175302 C40.1784981,38.181462 39.9506749,38.3575354 39.8810908,38.608042 C39.7553242,39.0371887 39.707904,39.396522 39.7749108,39.7440487 C39.8424331,40.0920887 39.9903635,40.3441354 40.1614887,40.6680487 C40.1676739,40.6813954 40.1738591,40.6942287 40.1810753,40.7065487 C39.350706,41.4195687 38.7997037,41.5437954 38.2961216,41.524802 C37.8353208,41.5068354 37.3193682,41.2989354 36.7209456,41.0817954 C36.7281617,41.027382 36.7281617,40.9724554 36.7209456,40.918042 C36.5977561,39.904722 36.6714637,39.4647954 36.77919,39.2435487 C36.8858855,39.0217887 37.1008228,38.8739487 37.5131725,38.5120487 C37.7672831,38.3056887 37.8038791,37.935062 37.595127,37.684042 C37.4693604,37.533122 37.2760714,37.4535554 37.078659,37.4720354 C36.9446453,37.482302 36.8193941,37.536202 36.7209456,37.6260354 C36.3730255,37.9314687 35.9586141,38.1912154 35.696772,38.7332954 C35.4452387,39.2543287 35.4065809,39.915502 35.5230697,40.9467887 C33.4556512,41.109002 32.1495335,40.5535754 30.9516575,39.6762887 C30.9568119,39.6511354 30.9599045,39.6254687 30.9614508,39.5992887 C31.0202106,39.066962 31.124329,38.9463287 31.2124687,38.8677887 C31.3011239,38.789762 31.5170921,38.706602 31.899031,38.5413087 C32.2000463,38.4104087 32.3371526,38.0639087 32.2046852,37.7661754 C32.1072676,37.5449287 31.8820216,37.4058154 31.6377044,37.414542 C31.5645123,37.417622 31.4923511,37.4335354 31.4248288,37.4627954 C31.1258753,37.5926687 30.7733162,37.6712087 30.4202418,37.982802 C30.0671673,38.2933687 29.8573844,38.7933554 29.7821306,39.4745487 C29.7774917,39.496622 29.7749145,39.5192087 29.7728527,39.5417954 C28.3971509,39.7389154 27.4260673,39.595182 26.883312,39.1567954 C26.7018781,39.0104954 26.4585918,38.9355487 26.2261296,38.9642954 C24.9246508,39.1290754 24.1045903,38.8980754 23.6360579,38.4345354 C23.1675255,37.972022 22.8742418,37.103462 23.0659844,35.566542 C23.0706234,35.5300954 23.0757777,35.497242 23.0757777,35.4607954 C23.1773188,35.4258887 23.2778291,35.4027887 23.3654534,35.3930354 C23.6283264,35.364802 23.8716127,35.4120287 24.2741691,35.6625354 C24.5411656,35.8524687 24.9133112,35.7924087 25.1055693,35.5290687 C25.2978273,35.2652154 25.2370057,34.8976687 24.9700093,34.7077354 C24.9509381,34.6943887 24.9318669,34.6820687 24.9117649,34.6712887 C24.4937453,34.4105154 24.0659325,34.2539487 23.6463667,34.219042 C23.5056523,34.2072354 23.368546,34.203642 23.2304089,34.219042 C23.1092811,34.2318754 22.9881534,34.2657554 22.8732109,34.2955287 C22.7866175,33.5578687 22.8500162,33.0476154 22.979391,32.688282 C23.1139201,32.3135487 23.3242184,32.0425087 23.6463667,31.7740354 C23.9788236,32.0435354 24.508693,32.4737087 25.2694783,32.688282 C25.7885235,32.8350954 26.4065326,32.8735954 27.1157742,32.7365354 C27.1575246,32.737562 27.1997904,32.7339687 27.2410254,32.726782 C27.3451437,32.706762 27.4461694,32.677502 27.5410098,32.6400287 C27.543587,32.6395154 27.5379172,32.6318154 27.5410098,32.6307887 C27.7420303,32.5738087 27.9554213,32.5060487 28.1688123,32.418782 C29.118763,32.032242 29.7347104,32.078442 30.1692239,32.226282 C30.603222,32.374122 30.87795,32.6477287 31.058353,32.8612754 C31.2681359,33.111782 31.6438896,33.147202 31.8974847,32.939302 C32.1510798,32.7324287 32.1866449,32.3607754 31.9763466,32.110782 C31.7299676,31.818182 31.2748366,31.354642 30.5558018,31.109782 C30.0156236,30.9260087 29.3300922,30.875702 28.5358035,31.0615287 C28.5677606,30.635462 28.5291029,30.2653487 28.5358035,30.1662754 C28.5626063,29.8433887 28.3182891,29.559002 27.9909865,29.532822 C27.9667609,29.5307687 27.9420199,29.5302554 27.9177944,29.531282 C27.609563,29.5441154 27.3626686,29.7858954 27.3472055,30.0897887 C27.3188564,30.489162 27.3843169,30.8746754 27.3379276,31.1677887 C27.3142175,31.3140887 27.2611275,31.405462 27.2219542,31.456282 C27.2033985,31.4798954 27.1899971,31.507102 27.1637098,31.524042 C26.4972496,31.7093554 26.0029453,31.667262 25.5983272,31.5527887 C25.1004149,31.4121354 24.7323928,31.1410954 24.4195224,30.8890487 C24.7818747,30.1323954 25.0117597,29.4707087 25.4050382,28.935302 C25.8508914,28.3275154 26.5132281,27.775682 28.0719101,27.318302 C28.2255104,27.2731287 28.3615858,27.185862 28.4682813,27.0683087 C28.7909449,26.7105154 29.0981455,26.445122 29.3574104,26.317302 C29.5630698,26.215662 29.7388339,26.1674087 30.0047994,26.211042 C30.1949958,26.5980954 30.4784862,27.0046554 30.701155,27.472302 C30.7027014,27.4943754 30.7063094,27.516962 30.7104329,27.5395487 C30.7516679,27.7392354 30.7078557,27.7951887 30.5650796,27.934302 C30.422819,28.072902 30.1614923,28.2089354 29.9372772,28.3003087 C29.6331693,28.4265887 29.4909086,28.7725754 29.618737,29.0733887 C29.7465654,29.3736887 30.0970627,29.514342 30.4011706,29.3875487 C30.6923926,29.2689687 31.0738161,29.0959754 31.4062731,28.7715487 C31.5990466,28.9363287 31.8119221,29.0420754 32.0150044,29.089302 C32.4495179,29.1904287 32.8319723,29.1303687 32.9721712,29.127802 C33.3005046,29.140122 33.576779,28.8870487 33.5896649,28.562622 C33.6020354,28.2381954 33.3453477,27.965102 33.0170142,27.952782 C32.9953658,27.9517554 32.9742329,27.9522687 32.9531,27.9538087 C32.6752794,27.9594554 32.436632,27.9769087 32.2954022,27.9440554 C32.1546878,27.911202 32.1278851,27.9430287 32.0541776,27.6843087 C31.8392403,26.927142 31.4284369,26.2890687 31.2037063,25.932302 C31.8114067,25.345562 32.2206638,25.248542 32.7500178,25.4122954 C32.9773255,25.4831354 33.2288589,25.451822 33.4360646,25.3352954 C34.5025041,24.7290487 35.0148486,24.8686754 35.774603,25.1042954 C35.7514083,25.3927887 35.7694486,25.7249154 35.8132608,26.1150487 C35.9024314,26.9045554 36.0967512,27.8978554 36.3544698,28.8002954 C36.3915813,28.930682 36.3457074,29.3854954 36.1225231,29.7242954 C35.8998542,30.0630954 35.5926537,30.3007687 35.0885561,30.3017954 C34.7597072,30.284342 34.4798249,30.5327954 34.4617846,30.8567087 C34.4442597,31.1811354 34.695793,31.4583354 35.0241265,31.4757887 C35.0457749,31.4768154 35.0674232,31.4768154 35.0885561,31.4757887 C36.0137658,31.4737354 36.734347,30.9578354 37.128141,30.3592887 C37.4219402,29.911662 37.5822411,29.429642 37.5724478,28.9542954 C37.7492428,29.001522 37.9203679,29.038482 38.0652057,29.060042 C38.390962,29.107782 38.6935236,28.8855087 38.7419747,28.5636487 C38.7899104,28.242302 38.5651798,27.9430287 38.2394235,27.895802 C38.0224244,27.8629487 37.7126467,27.7844087 37.5049255,27.6837954 C37.2972044,27.583182 37.2817412,27.516962 37.2827721,27.5297954 C37.2750406,27.452282 37.2518459,27.376822 37.2152499,27.3085487 C37.1162859,26.8337154 37.0363932,26.3655554 36.992581,25.9805554 C36.955985,25.6530487 36.955985,25.4015154 36.9632011,25.248542 C36.9848494,25.2249287 37.0044361,25.1987487 37.0219609,25.1720554 C37.7626441,24.8337687 38.460546,24.660262 39.1481392,24.671042 C40.2851936,24.689522 41.3949298,25.2244154 42.5974447,26.3552887 C42.590744,26.368122 42.5845587,26.3809554 42.5783735,26.3937887 C42.4541531,26.689982 42.0325255,27.532362 41.1964865,27.9147954 C40.8975329,28.0518554 40.7681582,28.402462 40.9073262,28.6976287 C41.0454634,28.992282 41.4000841,29.1206154 41.6990377,28.983042 C42.9809299,28.3968154 43.5154382,27.2377087 43.6798627,26.8465487 C43.6922332,26.8152354 43.7020265,26.7828954 43.7087272,26.750042 C44.1839602,26.7510687 44.5514669,26.877862 44.907634,27.1160487 C45.2302977,27.332162 45.5508996,27.657102 45.8446988,28.088302 C45.8395444,28.0965154 45.8153188,28.136042 45.8153188,28.136042 C45.793155,28.1663287 45.7735684,28.1986687 45.7575899,28.2320354 C45.7575899,28.2320354 45.6931602,28.379362 45.6318232,28.5112887 C45.5957426,28.5836687 45.556054,28.6606687 45.5256432,28.7325354 C45.4199785,28.9332487 45.2875112,29.157062 45.129272,29.3582887 C44.9421683,29.5969887 44.7313545,29.766902 44.588063,29.8202887 C44.4447714,29.8741887 44.3793109,29.896262 44.1432407,29.7242954 C43.8772751,29.5317954 43.5035832,29.5887754 43.3087479,29.8526287 C43.1139127,30.1154554 43.1716417,30.484542 43.4381227,30.677042 C43.9319115,31.0384287 44.5452817,31.1031087 45.0138141,30.9270354 C45.1957634,30.858762 45.3519408,30.7550687 45.4962632,30.6482954 C45.6194527,30.9568087 45.7910933,31.263782 45.9993299,31.5722954 C46.1637544,31.853602 46.527653,31.9495954 46.8126897,31.7868687 C47.0972111,31.624142 47.1941132,31.2648087 47.0296888,30.983502 C47.015772,30.9609154 47.0008243,30.938842 46.9848458,30.9177954 C46.6791915,30.4640087 46.5338382,30.139582 46.5013657,29.8690554 C46.4709549,29.609822 46.5235295,29.3439154 46.752899,28.9358154 C48.020359,29.212502 48.4156993,29.7910287 48.6177507,30.9177954 C48.660532,31.1508487 48.8017617,31.359262 49.0043285,31.4860554 C49.5486302,31.827422 49.9336617,32.1143754 50.1058178,32.4485554 C50.2532328,32.732942 50.3346719,33.144122 50.1254044,33.9213087 C49.8790254,34.0768487 49.4300796,34.145122 48.9847419,34.1138087 C48.7430019,34.0963554 48.5079626,34.0563154 48.3270441,34.0075487 C48.1471565,33.958782 47.9987106,33.874082 48.0373684,33.9012887 C47.7683102,33.7118687 47.3946183,33.7729554 47.2023602,34.0393754 C47.0101022,34.305282 47.0724701,34.6743687 47.3415283,34.8637887 C47.5538884,35.013682 47.7502699,35.073742 48.0079885,35.143042 C48.2662225,35.2128554 48.5713613,35.264702 48.8976331,35.287802 C49.2625626,35.3134687 49.6656344,35.307822 50.0573667,35.210802 C50.4697164,36.7857087 50.2949832,37.6758287 49.8645932,38.1563087 L49.8645932,38.1563087 Z" id="attitude-icon-copy-3" opacity="0.3" fill="#000000"></path>
                    <circle id="Oval-20-Copy-7" stroke="#35B3DE" stroke-width="3" cx="37.8645036" cy="36.93617" r="36.8941434"></circle>
                    <ellipse id="Oval-20-Copy-17" fill="#35B3DE" cx="37.8511449" cy="36.9228113" rx="32.6538393" ry="32.6538393"></ellipse>
                    <g id="Oval-20-Copy-12-+-Type-something-Copy-Copy-Copy-Copy-Copy" transform="translate(10.000000, 8.000000)">
                        <path d="M27.8511449,54.3802482 C13.8340209,54.3802482 2.47089671,43.017124 2.47089671,29 C2.47089671,14.982876 13.8340209,3.6197518 27.8511449,3.6197518 C41.8682689,3.6197518 53.2313931,14.982876 53.2313931,29 C53.2313931,43.017124 41.8682689,54.3802482 27.8511449,54.3802482 L27.8511449,54.3802482 Z" id="Oval-20-Copy-12"></path>
                        <path d="M4.20049955,19.6336539 C4.52165448,18.6444828 4.08629509,17.7671646 3.14943591,17.4629938 C2.22208798,17.161911 1.34964901,17.6146254 1.02695006,18.6085521 L0.644034569,19.7879484 L3.81604004,20.8178058 L4.20049955,19.6336539 Z M3.70912561,19.4793761 L3.50685976,20.1023636 L1.31451415,19.3905731 L1.51832401,18.7628299 C1.7468381,18.0589966 2.35543352,17.8360356 2.96415421,18.0336694 C3.56811927,18.2297592 3.93300765,18.7898096 3.70912561,19.4793761 L3.70912561,19.4793761 Z M6.893188,14.3820932 L5.35094269,14.4819901 C5.48597836,14.0946719 5.3850528,13.597139 4.86575973,13.317077 C4.32006193,13.0227746 3.73950852,13.2039037 3.42621886,13.7848078 L2.73081075,15.0742389 L5.66613684,16.657301 L5.9438254,16.1424087 L4.848029,15.5514305 L5.12571756,15.0365382 L6.57040472,14.9806005 L6.893188,14.3820932 Z M4.77686621,14.5984427 L4.39474776,15.3069697 L3.46178055,14.8038075 L3.843899,14.0952805 C4.00054383,13.8048284 4.29489968,13.6909002 4.57655016,13.8427983 C4.86260143,13.9970697 4.93351104,14.3079906 4.77686621,14.5984427 L4.77686621,14.5984427 Z M9.80962945,10.837088 L6.3696451,9.83467456 L5.92331876,10.4123361 L7.76141953,13.4880003 L8.16800449,12.9617744 L7.80739941,12.3735449 L8.7428505,11.1628297 L9.4030445,11.3633139 L9.80962945,10.837088 Z M8.23444021,10.978523 L7.50075308,11.9281035 L6.60940244,10.4811778 L8.23444021,10.978523 Z M11.3944818,9.65473758 L10.5496145,8.73348886 L11.2018586,8.1353228 C11.7140729,7.66557656 11.6804529,7.05190344 11.2985728,6.63549902 C10.9133133,6.21540961 10.3085191,6.12555423 9.79261986,6.59867994 L8.70923137,7.59224392 L10.9633374,10.0501355 L11.3944818,9.65473758 Z M10.7948133,7.80983983 L10.2015291,8.35393439 L9.48846111,7.57640048 L10.0817453,7.03230592 C10.3249549,6.80926094 10.6400874,6.80519567 10.8563734,7.04103534 C11.06928,7.27319002 11.038023,7.58679486 10.7948133,7.80983983 L10.7948133,7.80983983 Z M16.086144,6.35097689 L15.8023473,5.9212276 L14.3837574,6.85803215 L13.8712702,6.08198003 L15.2606539,5.16446264 L14.9768572,4.73471336 L13.5874736,5.65223075 L13.1135607,4.93459116 L14.5321506,3.99778662 L14.2483539,3.56803733 L12.3416022,4.82721285 L14.1793923,7.61015241 L16.086144,6.35097689 Z M19.9558524,4.69217699 L18.664432,3.84321689 C19.0054751,3.61531439 19.2245061,3.15732922 18.9785727,2.62103009 C18.7201342,2.05746151 18.1475718,1.85246813 17.547644,2.12758009 L16.215986,2.73824526 L17.606135,5.76969881 L18.1378892,5.52584958 L17.6189281,4.39416752 L18.1506823,4.15031828 L19.3377449,4.97562567 L19.9558524,4.69217699 Z M18.1359875,3.59048879 L17.4042574,3.92604201 L16.9624109,2.96252154 L17.6941411,2.62696832 C17.994105,2.48941234 18.297712,2.57571285 18.4310996,2.86658696 C18.5665714,3.16200597 18.4359514,3.45293281 18.1359875,3.59048879 L18.1359875,3.59048879 Z M25.1803956,3.75456433 C26.135548,3.58549663 26.5065426,2.95620102 26.3627479,2.14382913 L26.0115403,0.159672335 L25.4256478,0.26337881 L25.774241,2.23276521 C25.8666182,2.7546526 25.6362661,3.14578925 25.0897613,3.24252386 C24.5432566,3.33925848 24.1926398,3.05095682 24.1002626,2.52906942 L23.7516694,0.559683023 L23.1657769,0.663389498 L23.5169846,2.64754629 C23.6607793,3.45991818 24.2301666,3.92276054 25.1803956,3.75456433 L25.1803956,3.75456433 Z M31.2192371,3.6354575 L31.2350779,0.300495123 L30.6500845,0.297716449 L30.6391123,2.60769039 L28.9451038,0.28961792 L28.3451105,0.286767998 L28.3292697,3.62173038 L28.9142631,3.62450905 L28.9255916,1.23953596 L30.6542435,3.63277383 L31.2192371,3.6354575 Z M33.4822774,4.22870666 L34.0970152,0.950853335 L33.5220394,0.843020766 L32.9073016,4.12087409 L33.4822774,4.22870666 Z M36.7529222,5.13576298 L38.9220018,2.28384806 L38.2821598,2.10266517 L36.5761022,4.42052896 L36.3385796,1.55230511 L35.6987377,1.37112222 L36.0505392,4.93687048 L36.7529222,5.13576298 Z M41.2328345,7.26850312 L41.456388,6.80455398 L39.9249054,6.06661018 L40.3286041,5.22879911 L41.8285562,5.95154995 L42.0521097,5.48760081 L40.5521577,4.76484997 L40.9254704,3.99009995 L42.456953,4.72804376 L42.6805066,4.26409462 L40.6220138,3.27221133 L39.1743417,6.27661983 L41.2328345,7.26850312 Z M44.6375027,9.73847913 L44.7041302,8.19443873 C45.07467,8.37036556 45.5801739,8.3235601 45.9144855,7.83741631 C46.2657959,7.32655334 46.1481855,6.72988108 45.6043637,6.35590544 L44.3972439,5.52579285 L42.5075337,8.27374122 L42.9895576,8.60521963 L43.6950117,7.57937383 L44.1770356,7.91085224 L44.0772014,9.3531709 L44.6375027,9.73847913 Z M44.6501239,7.61116493 L43.986826,7.15502798 L44.5874535,6.28161711 L45.2507514,6.73775406 C45.5226623,6.92474188 45.6042566,7.22964738 45.4229351,7.49331859 C45.2387805,7.76110966 44.9220348,7.79815275 44.6501239,7.61116493 L44.6501239,7.61116493 Z M46.470967,11.7762013 C47.1164306,12.3962027 47.7338147,12.3236642 48.1182849,11.9234047 C48.9772813,11.0291311 47.3114713,9.96287494 47.7444332,9.51213221 C47.9141542,9.33544106 48.1905813,9.36524162 48.4357854,9.60077289 C48.6882013,9.84323154 48.8610945,10.1756965 48.8686336,10.5503873 L49.4079672,10.4652742 C49.3958264,10.0376323 49.207087,9.62061618 48.835675,9.26385558 C48.3056016,8.75469241 47.6650171,8.72868274 47.2805469,9.12894228 C46.4319416,10.012398 48.1323885,11.0425948 47.6474712,11.5474266 C47.4916049,11.709694 47.1953914,11.7510166 46.849221,11.4185018 C46.5138684,11.0963782 46.4030372,10.684867 46.4104909,10.3523096 L45.8573025,10.4518464 C45.8589099,10.8832365 46.0274362,11.3501668 46.470967,11.7762013 L46.470967,11.7762013 Z M48.6320972,14.3952902 L51.2863155,12.3760453 L50.9321151,11.9104628 L48.2778968,13.9297077 L48.6320972,14.3952902 Z M50.2971916,17.0167758 L52.6871054,15.519875 L53.2232294,16.3758371 L53.6596853,16.1024669 L52.27691,13.8947628 L51.8404541,14.168133 L52.3765781,15.024095 L49.9866643,16.5209958 L50.2971916,17.0167758 Z M51.9231661,20.7149065 L53.1954289,20.1675745 L55.4964908,20.5819583 L55.2317165,19.9664955 L53.5611149,19.6891147 L54.5085269,18.2854551 L54.2437526,17.6699922 L52.9642454,19.6301928 L51.6919825,20.1775248 L51.9231661,20.7149065 Z" id="DRAPER-UNIVERSITY" fill="#FFFFFF"></path>
                    </g>
                    <g id="Oval-20-Copy-12-+-Type-something-Copy-Copy-Copy-Copy" transform="translate(38.000000, 37.000000) rotate(-180.000000) translate(-38.000000, -37.000000) translate(9.000000, 8.000000)">
                        <ellipse id="Oval-20-Copy-12" cx="28.8511449" cy="29" rx="28.8078483" ry="28.8078483"></ellipse>
                        <path d="M46.1264999,5.82122632 C45.4379176,5.24949257 44.8273901,5.36645866 44.4728512,5.7934566 C43.6807285,6.74747 45.4192392,7.69055302 45.0199838,8.17140655 C44.8634757,8.35990113 44.5856178,8.35015539 44.3240334,8.13296045 C44.0547555,7.90937742 43.8582877,7.59027647 43.8236901,7.21711028 L43.2919177,7.34097748 C43.3349316,7.76662381 43.5533145,8.16890965 43.9495378,8.49789611 C44.5150216,8.96742047 45.1558108,8.94706822 45.5103496,8.52007029 C46.2928902,7.57759737 44.5224391,6.67298263 44.9696051,6.13442668 C45.1133371,5.96131941 45.4057897,5.89869808 45.7750853,6.20532624 C46.1328403,6.50237226 46.2731208,6.90479787 46.28972,7.2370244 L46.8342686,7.09776988 C46.8014896,6.66762394 46.5996598,6.21409364 46.1264999,5.82122632 L46.1264999,5.82122632 Z M42.593975,3.61581401 L41.1024778,6.00910382 L40.2453067,5.4749151 L39.9729233,5.91198753 L42.183746,7.2897713 L42.4561293,6.85269887 L41.5989582,6.31851015 L43.0904554,3.92522035 L42.593975,3.61581401 Z M37.8965125,1.43397058 L37.6834816,5.01069294 L38.3458723,5.31751287 L40.9362509,2.84197982 L40.3328402,2.56247948 L39.8394366,3.04476875 L38.4511381,2.40170781 L38.4999232,1.71347092 L37.8965125,1.43397058 Z M38.3844014,2.9383606 L39.473263,3.44272212 L38.2605532,4.6332829 L38.3844014,2.9383606 Z M34.0303369,0.503313533 L34.4549011,1.9893301 C34.0477599,1.93947036 33.5829298,2.14357322 33.419317,2.71043374 C33.2473849,3.30611768 33.5474678,3.83507919 34.1815829,4.01810366 L35.5891265,4.42436253 L36.5139547,1.22015939 L35.951898,1.05793315 L35.6066473,2.25410494 L35.0445907,2.0918787 L34.6836677,0.691884203 L34.0303369,0.503313533 Z M34.6904044,2.52567253 L35.4638328,2.74890692 L35.1698844,3.76733431 L34.396456,3.54409991 C34.0793985,3.45258768 33.9056596,3.18907331 33.9943988,2.88162353 C34.0845245,2.56936985 34.3733469,2.43416029 34.6904044,2.52567253 L34.6904044,2.52567253 Z M31.1390711,0.229404784 L30.7504475,3.02249835 L29.7500842,2.88331046 L29.6791122,3.39339669 L32.2592571,3.75239121 L32.3302292,3.24230498 L31.3298659,3.10311708 L31.7184895,0.310023515 L31.1390711,0.229404784 Z M28.0509129,0.1880187 L28.0350721,3.52298108 L28.6200655,3.52575975 L28.6359063,0.190797375 L28.0509129,0.1880187 Z M23.4443561,0.513792305 L23.6921254,3.83957573 L24.2755087,3.79611395 L24.1038903,1.49249784 L25.9757967,3.66944328 L26.5741386,3.62486709 L26.3263693,0.299083672 L25.742986,0.342545454 L25.9201763,2.72095429 L24.0077946,0.471816396 L23.4443561,0.513792305 Z M20.2278153,1.36677698 C19.6684717,1.50004253 19.2680518,1.84730166 19.0364957,2.27768727 L19.3250446,3.48878782 L20.8620236,3.12259726 L20.742664,2.62161992 L19.7698925,2.8533861 L19.6505329,2.35240877 C19.7628425,2.17659197 20.0187502,1.95628253 20.3494925,1.87748203 C20.9915217,1.72451635 21.5863805,2.1070644 21.747458,2.78314061 C21.9108532,3.46894454 21.5500782,4.06889573 20.908049,4.2218614 C20.5481236,4.30761489 20.1965061,4.19093079 19.9634657,3.98945582 L19.5651349,4.36705692 C19.9109905,4.67529206 20.3962659,4.87835061 21.0285674,4.7277026 C21.9721558,4.5028894 22.5744754,3.66549101 22.3311209,2.64408091 C22.0889253,1.62753466 21.1714037,1.14196379 20.2278153,1.36677698 L20.2278153,1.36677698 Z M14.0880765,4.12207906 C13.225072,4.56493706 13.0558545,5.27558144 13.4325121,6.00958013 L14.3524697,7.80231632 L14.8818384,7.53066631 L13.9687292,5.75127555 C13.7267552,5.279737 13.831704,4.83810848 14.3254849,4.58472066 C14.8192659,4.33133283 15.2392373,4.50359412 15.4812113,4.97513267 L16.3943206,6.75452343 L16.9236893,6.48287342 L16.0037317,4.69013723 C15.6270742,3.95613855 14.9466326,3.68150384 14.0880765,4.12207906 L14.0880765,4.12207906 Z M11.0488096,6.33020004 L11.7891662,7.33736041 L11.0760967,7.86153293 C10.5161155,8.27317124 10.483217,8.88688346 10.8178582,9.34211994 C11.1554609,9.80138507 11.7470018,9.95607616 12.3110116,9.54147643 L13.4954322,8.67081699 L11.5201606,5.98371312 L11.0488096,6.33020004 Z M11.4455819,8.22910018 L12.0941932,7.75231048 L12.7190542,8.60235384 L12.0704429,9.07914353 C11.8045526,9.27459769 11.4908265,9.2445818 11.3012952,8.98674874 C11.1147253,8.73294433 11.1796916,8.42455434 11.4455819,8.22910018 L11.4455819,8.22910018 Z" id="STARTING-UP" fill="#FFFFFF"></path>
                    </g>
                    <ellipse id="Oval-20-Copy-16" fill="#1A1A1A" cx="37.8369781" cy="36.8369781" rx="21.8369781" ry="21.8369781"></ellipse>
                </g>
                <path d="M37.9998458,46.2406339 C33.3129025,46.2406339 29.5,42.4450893 29.5,37.7801673 C29.5,34.9657421 30.9001923,32.3437956 33.2453602,30.7659001 C33.6691188,30.4807124 34.2439996,30.5918405 34.5298979,31.0130219 C34.8161046,31.4345103 34.7050761,32.0070346 34.2816259,32.2919154 C32.4462637,33.5266032 31.3504744,35.5784812 31.3504744,37.7801673 C31.3504744,41.4295877 34.3334392,44.3987326 37.9998458,44.3987326 C41.6665608,44.3987326 44.6495256,41.4295877 44.6495256,37.7801673 C44.6495256,35.5778673 43.5531195,33.5259892 41.7168321,32.2913014 C41.2933818,32.0067277 41.182045,31.4338963 41.4679433,31.0127149 C41.75415,30.5912265 42.3281054,30.4800985 42.7527893,30.7649792 C45.0988825,32.3428746 46.5,34.9651281 46.5,37.7801673 C46.5,42.4450893 42.6867891,46.2406339 37.9998458,46.2406339 Z M38.0685011,37.7025993 C37.5574617,37.7025993 37.1432639,37.2900134 37.1432639,36.7813417 L37.1432639,28.470683 C37.1432639,27.9620113 37.5574617,27.5497324 38.0685011,27.5497324 C38.5795404,27.5497324 38.9937383,27.9620113 38.9937383,28.470683 L38.9937383,36.7813417 C38.9937383,37.2900134 38.5795404,37.7025993 38.0685011,37.7025993 Z" id="Fill-1-Copy-2" fill="#FFFFFF" sketch:type="MSShapeGroup"></path>
            </g>
        </g>
    </g>
</svg>