<?xml version="1.0" encoding="UTF-8" standalone="no"?>
<svg width="40px" height="40px" viewBox="0 0 40 40" version="1.1" xmlns="http://www.w3.org/2000/svg" xmlns:xlink="http://www.w3.org/1999/xlink" xmlns:sketch="http://www.bohemiancoding.com/sketch/ns">
    <!-- Generator: Sketch 3.3.2 (12043) - http://www.bohemiancoding.com/sketch -->
    <title>survivaldone</title>
    <desc>Created with Sketch.</desc>
    <defs></defs>
    <g id="Main-Attraction" stroke="none" stroke-width="1" fill="none" fill-rule="evenodd" sketch:type="MSPage">
        <g id="survivaldone" sketch:type="MSArtboardGroup" fill="#246DB4">
            <path d="M18.8834684,13.3524482 L21.8078891,10.3744141 C22.0564691,10.1212769 22.0564691,9.71133286 21.8078891,9.45819564 L19.7093818,7.32121644 C19.7089576,7.32078447 19.7089576,7.32035249 19.7085334,7.31992052 C19.7081092,7.31948854 19.707685,7.31948854 19.7072608,7.31905657 L17.6087535,5.18207737 C17.3703543,4.93930754 16.9474289,4.93930754 16.7090297,5.18207737 L13.784609,8.16011145 L12.5565559,6.90954448 C12.3181567,6.66677466 11.8952313,6.66677466 11.6568321,6.90954448 L9.5574764,9.04781961 C9.3088964,9.30095682 9.3088964,9.71090088 9.5574764,9.9640381 L9.93967876,10.3532474 L2.28036053,15.6155641 C2.12298309,15.7235577 2.02117558,15.8976436 2.00293507,16.0907363 C1.98469455,16.2829651 2.05214203,16.4743299 2.18661278,16.6108339 L10.7350499,25.3159895 C10.8546737,25.4382384 11.0171416,25.5056265 11.1851239,25.5056265 C11.2063338,25.5056265 11.2279679,25.5043305 11.2491778,25.5021707 C11.4392185,25.4827318 11.6110187,25.376898 11.7162198,25.2144755 L16.8108372,17.3499428 L33.9569184,34.8103631 C34.076118,34.931748 34.2381617,35 34.4069924,35 C34.5758232,35 34.7374427,34.931748 34.8570665,34.8103631 L36.9564221,32.672088 C37.2050021,32.4189507 37.2050021,32.0090067 36.9564221,31.7558695 L18.8834684,13.3524482 L18.8834684,13.3524482 Z M31.5568064,30.5342448 L32.7564382,29.3121882 L34.009519,30.5882416 L32.809463,31.8102983 L31.5568064,30.5342448 L31.5568064,30.5342448 Z M29.4040018,28.3419728 L30.6036336,27.1199162 L31.8567144,28.3959697 L30.6570826,29.6180263 L29.4040018,28.3419728 L29.4040018,28.3419728 Z M17.9837445,12.4362297 L16.7836885,11.2141731 L19.2580352,8.69446424 L20.4580912,9.91652088 L17.9837445,12.4362297 L17.9837445,12.4362297 Z M17.1586795,6.55618912 L18.3587355,7.77824575 L15.8843889,10.2979546 L14.6843329,9.07589797 L17.1586795,6.55618912 L17.1586795,6.55618912 Z M12.1064819,8.28365623 L13.332414,9.53206333 C13.3332624,9.53292728 13.3336866,9.53379123 13.3341108,9.5342232 L17.5332463,13.8103415 C17.5336705,13.8107735 17.5340947,13.8107735 17.5345189,13.8112054 L29.7039098,26.2036977 L28.5042779,27.4257543 L17.1586795,15.872589 L11.3849212,9.99254844 L10.9068501,9.50571287 L12.1064819,8.28365623 L12.1064819,8.28365623 Z M11.0833164,23.8377719 L3.6322794,16.250135 L5.15133227,15.2064839 L12.0946044,22.277047 L11.0833164,23.8377719 L11.0833164,23.8377719 Z M12.8098021,21.1729195 L6.22582568,14.4682391 L10.8559463,11.2871768 L15.8920244,16.4151494 L12.8098021,21.1729195 L12.8098021,21.1729195 Z M34.4065683,33.4362513 L33.709611,32.7265168 L34.909667,31.5044601 L35.6062001,32.2137627 L34.4065683,33.4362513 L34.4065683,33.4362513 Z" id="Shape" sketch:type="MSShapeGroup"></path>
        </g>
    </g>
</svg>